<?xml version="1.0" encoding="UTF-8"?>
<svg id="Layer_1" xmlns="http://www.w3.org/2000/svg" version="1.1" viewBox="0 0 1024 1024.5">
  <!-- Generator: Adobe Illustrator 30.0.0, SVG Export Plug-In . SVG Version: 2.1.1 Build 123)  -->
  <defs>
    <style>
      .st0 {
        fill: #0b100f;
      }
    </style>
  </defs>
  <path class="st0" d="M1014.55,216.44h-9.76c-51.36-.08-93.04,41.51-93.04,92.86v207.68c0,41.47-34.28,75.07-75.08,75.07-24.24,0-48.44-12.2-62.8-32.67l-212.1-302.95c-17.6-25.15-46.24-40.15-77.24-40.15-48.36,0-91.88,41.11-91.88,91.86v208.88c0,41.47-34,75.07-75.08,75.07-24.32,0-48.48-12.2-62.84-32.67L17.39,220.4C12.03,212.72-.01,216.52-.01,225.88v181.13c0,9.16,2.8,18.04,8.04,25.56l233.59,333.58c13.8,19.72,34.16,34.35,57.64,39.67,58.76,13.36,112.84-31.87,112.84-89.5v-208.76c0-41.47,33.6-75.07,75.08-75.07h.12c25,0,48.44,12.2,62.8,32.67l212.15,302.91c17.64,25.2,44.8,40.15,77.2,40.15,49.44,0,91.8-41.15,91.8-91.86v-208.84c0-41.47,33.6-75.07,75.08-75.07h8.28c5.2,0,9.4-4.2,9.4-9.4v-197.21c0-5.2-4.2-9.4-9.4-9.4h-.06Z"/>
</svg>