<svg width="60" height="60" viewBox="0 0 60 60" fill="none" xmlns="http://www.w3.org/2000/svg">
<path d="M27.5 54.3125V31.4375L7.5 19.875V39.9375C7.5 40.8542 7.71917 41.6875 8.1575 42.4375C8.59583 43.1875 9.21 43.7917 10 44.25L27.5 54.3125ZM32.5 54.3125L50 44.25C50.7917 43.7917 51.4067 43.1875 51.845 42.4375C52.2833 41.6875 52.5017 40.8542 52.5 39.9375V19.875L32.5 31.4375V54.3125ZM42.4375 19.9375L49.8125 15.625L32.5 5.6875C31.7083 5.22917 30.875 5 30 5C29.125 5 28.2917 5.22917 27.5 5.6875L22.5625 8.5L42.4375 19.9375ZM30 27.125L37.4375 22.875L17.625 11.375L10.125 15.6875L30 27.125Z" fill="white"/>
</svg>
