<svg width="60" height="60" viewBox="0 0 60 60" fill="none" xmlns="http://www.w3.org/2000/svg">
<path d="M54.5 25V40C54.5 42.6522 53.4464 45.1957 51.5711 47.0711C49.6957 48.9464 47.1522 50 44.5 50H14.5C11.8478 50 9.3043 48.9464 7.42893 47.0711C5.55357 45.1957 4.5 42.6522 4.5 40V25H54.5ZM17.025 35H17C16.6717 35.0016 16.3469 35.0679 16.0442 35.1951C15.7416 35.3222 15.4669 35.5078 15.2359 35.7411C14.7694 36.2123 14.5092 36.8495 14.5125 37.5125C14.5141 37.8408 14.5804 38.1656 14.7076 38.4683C14.8347 38.7709 15.0203 39.0456 15.2536 39.2766C15.4869 39.5076 15.7634 39.6904 16.0673 39.8145C16.3713 39.9386 16.6967 40.0016 17.025 40C17.688 40 18.3239 39.7366 18.7928 39.2678C19.2616 38.7989 19.525 38.163 19.525 37.5C19.525 36.837 19.2616 36.2011 18.7928 35.7322C18.3239 35.2634 17.688 35 17.025 35ZM32 35H27C26.337 35 25.7011 35.2634 25.2322 35.7322C24.7634 36.2011 24.5 36.837 24.5 37.5C24.5 38.163 24.7634 38.7989 25.2322 39.2678C25.7011 39.7366 26.337 40 27 40H32C32.663 40 33.2989 39.7366 33.7678 39.2678C34.2366 38.7989 34.5 38.163 34.5 37.5C34.5 36.837 34.2366 36.2011 33.7678 35.7322C33.2989 35.2634 32.663 35 32 35ZM44.5 10C47.1522 10 49.6957 11.0536 51.5711 12.9289C53.4464 14.8043 54.5 17.3478 54.5 20H4.5C4.5 17.3478 5.55357 14.8043 7.42893 12.9289C9.3043 11.0536 11.8478 10 14.5 10H44.5Z" fill="white"/>
</svg>
