<svg width="60" height="60" viewBox="0 0 60 60" fill="none" xmlns="http://www.w3.org/2000/svg">
<path d="M30 52.5C32.9547 52.5 35.8806 51.918 38.6104 50.7873C41.3402 49.6566 43.8206 47.9992 45.9099 45.9099C47.9992 43.8206 49.6566 41.3402 50.7873 38.6104C51.918 35.8806 52.5 32.9547 52.5 30C52.5 27.0453 51.918 24.1194 50.7873 21.3896C49.6566 18.6598 47.9992 16.1794 45.9099 14.0901C43.8206 12.0008 41.3402 10.3434 38.6104 9.21271C35.8806 8.08198 32.9547 7.5 30 7.5M30 52.5C27.0453 52.5 24.1194 51.918 21.3896 50.7873C18.6598 49.6566 16.1794 47.9992 14.0901 45.9099C12.0008 43.8206 10.3434 41.3402 9.21271 38.6104C8.08198 35.8806 7.5 32.9547 7.5 30C7.5 27.0453 8.08198 24.1194 9.21271 21.3896C10.3434 18.6598 12.0008 16.1794 14.0901 14.0901C16.1794 12.0008 18.6598 10.3434 21.3896 9.21271C24.1194 8.08198 27.0453 7.5 30 7.5M30 52.5C36.9025 52.5 39.8525 39.5925 39.8525 30C39.8525 20.4075 36.9025 7.5 30 7.5M30 52.5C23.0975 52.5 20.1475 39.5925 20.1475 30C20.1475 20.4075 23.0975 7.5 30 7.5M8.75 22.5H51.25M8.75 37.5H51.25" stroke="white" stroke-opacity="0.8" stroke-width="3.75" stroke-linecap="round" stroke-linejoin="round"/>
</svg>
