<?xml version="1.0" encoding="UTF-8"?>
<svg  id="Layer_1" xmlns="http://www.w3.org/2000/svg" version="1.1" viewBox="0 0 24 24" >
  <!-- Generator: Adobe Illustrator 30.1.0, SVG Export Plug-In . SVG Version: 2.1.1 Build 136)  -->
  <g>
    <path d="M20.78,17.97H3.27c-1.06,0-1.93-.87-1.93-1.93V7.46c0-1.06.87-1.93,1.93-1.93h17.51c1.06,0,1.93.87,1.93,1.93v8.57c0,1.06-.87,1.93-1.93,1.93ZM20.71,7.46l-17.44.07.07,8.5,17.37-.07V7.46ZM20.78,15.97h0,0Z"/>
    <path d="M16.31,21.25H7.73c-1.14,0-2.06-.92-2.06-2.06v-2.23c0-.55.45-1,1-1h10.7c.55,0,1,.45,1,1v2.23c0,1.14-.92,2.06-2.06,2.06ZM7.67,17.97v1.23l8.64.06s.06-.03.06-.06v-1.23H7.67Z"/>
    <rect x="1.29" y="2.75" width="2" height="17.76"/>
  </g>
  <path d="M8.02,15.12c-1.84,0-3.33-1.51-3.33-3.37s1.49-3.37,3.33-3.37,3.33,1.51,3.33,3.37-1.49,3.37-3.33,3.37ZM8.02,10.38c-.73,0-1.33.62-1.33,1.37s.6,1.37,1.33,1.37,1.33-.62,1.33-1.37-.6-1.37-1.33-1.37Z"/>
  <path d="M16.02,15.12c-1.84,0-3.33-1.51-3.33-3.37s1.5-3.37,3.33-3.37,3.33,1.51,3.33,3.37-1.49,3.37-3.33,3.37ZM16.02,10.38c-.73,0-1.33.62-1.33,1.37s.6,1.37,1.33,1.37,1.33-.62,1.33-1.37-.6-1.37-1.33-1.37Z"/>
</svg>