<svg width="60" height="60" viewBox="0 0 60 60" fill="none" xmlns="http://www.w3.org/2000/svg">
<path d="M30 5C33.3152 5 36.4946 6.31696 38.8388 8.66117C41.183 11.0054 42.5 14.1848 42.5 17.5V25C44.4891 25 46.3968 25.7902 47.8033 27.1967C49.2098 28.6032 50 30.5109 50 32.5V47.5C50 49.4891 49.2098 51.3968 47.8033 52.8033C46.3968 54.2098 44.4891 55 42.5 55H17.5C15.5109 55 13.6032 54.2098 12.1967 52.8033C10.7902 51.3968 10 49.4891 10 47.5V32.5C10 30.5109 10.7902 28.6032 12.1967 27.1967C13.6032 25.7902 15.5109 25 17.5 25V17.5C17.5 14.1848 18.817 11.0054 21.1612 8.66117C23.5054 6.31696 26.6848 5 30 5ZM30 35C28.7386 34.9996 27.5236 35.476 26.5986 36.3337C25.6737 37.1915 25.1071 38.3671 25.0125 39.625L25 40C25 40.9889 25.2932 41.9556 25.8427 42.7779C26.3921 43.6001 27.173 44.241 28.0866 44.6194C29.0002 44.9978 30.0055 45.0969 30.9755 44.9039C31.9454 44.711 32.8363 44.2348 33.5355 43.5355C34.2348 42.8363 34.711 41.9454 34.9039 40.9755C35.0969 40.0055 34.9978 39.0002 34.6194 38.0866C34.241 37.173 33.6001 36.3921 32.7779 35.8427C31.9556 35.2932 30.9889 35 30 35ZM30 10C28.0109 10 26.1032 10.7902 24.6967 12.1967C23.2902 13.6032 22.5 15.5109 22.5 17.5V25H37.5V17.5C37.5 15.5109 36.7098 13.6032 35.3033 12.1967C33.8968 10.7902 31.9891 10 30 10Z" fill="black"/>
</svg>
