<svg width="60" height="60" viewBox="0 0 60 60" fill="none" xmlns="http://www.w3.org/2000/svg">
<g clip-path="url(#clip0_6840_277)">
<path d="M52.0834 12.3333C48.3071 11.3239 44.6176 10.0142 41.0501 8.41667C37.5408 6.89436 34.1531 5.10581 30.9167 3.06667L30.0001 2.5L29.1001 3.08333C25.8637 5.12247 22.476 6.91103 18.9667 8.43333C15.3933 10.026 11.6982 11.3302 7.91675 12.3333L6.66675 12.65V26.55C6.66675 48.8667 29.2167 57.2167 29.4334 57.3L30.0001 57.5L30.5667 57.3C30.8001 57.3 53.3334 48.8833 53.3334 26.55V12.65L52.0834 12.3333ZM44.4667 23.4167L25.8501 41.5L15.3167 30.95C14.8747 30.508 14.6264 29.9085 14.6264 29.2833C14.6264 28.6582 14.8747 28.0587 15.3167 27.6167C15.7588 27.1746 16.3583 26.9263 16.9834 26.9263C17.6085 26.9263 18.2081 27.1746 18.6501 27.6167L25.9001 35L41.2167 20C41.4356 19.7811 41.6955 19.6075 41.9814 19.4891C42.2674 19.3706 42.5739 19.3096 42.8834 19.3096C43.1929 19.3096 43.4994 19.3706 43.7854 19.4891C44.0714 19.6075 44.3312 19.7811 44.5501 20C44.7689 20.2189 44.9426 20.4787 45.061 20.7647C45.1795 21.0506 45.2404 21.3571 45.2404 21.6667C45.2404 21.9762 45.1795 22.2827 45.061 22.5687C44.9426 22.8546 44.7689 23.1145 44.5501 23.3333L44.4667 23.4167Z" fill="white"/>
</g>
<defs>
<clipPath id="clip0_6840_277">
<rect width="60" height="60" fill="white"/>
</clipPath>
</defs>
</svg>
