<svg width="60" height="60" viewBox="0 0 60 60" fill="none" xmlns="http://www.w3.org/2000/svg">
<path d="M9.375 21.5625H16.4203C17.002 23.2073 18.0793 24.6314 19.5039 25.6387C20.9285 26.6459 22.6303 27.1867 24.375 27.1867C26.1197 27.1867 27.8215 26.6459 29.2461 25.6387C30.6707 24.6314 31.748 23.2073 32.3297 21.5625H50.625C51.3709 21.5625 52.0863 21.2662 52.6137 20.7387C53.1412 20.2113 53.4375 19.4959 53.4375 18.75C53.4375 18.0041 53.1412 17.2887 52.6137 16.7612C52.0863 16.2338 51.3709 15.9375 50.625 15.9375H32.3297C31.748 14.2926 30.6707 12.8685 29.2461 11.8613C27.8215 10.8541 26.1197 10.3132 24.375 10.3132C22.6303 10.3132 20.9285 10.8541 19.5039 11.8613C18.0793 12.8685 17.002 14.2926 16.4203 15.9375H9.375C8.62908 15.9375 7.91371 16.2338 7.38626 16.7612C6.85882 17.2887 6.5625 18.0041 6.5625 18.75C6.5625 19.4959 6.85882 20.2113 7.38626 20.7387C7.91371 21.2662 8.62908 21.5625 9.375 21.5625ZM24.375 15.9375C24.9313 15.9375 25.475 16.1024 25.9375 16.4115C26.4001 16.7205 26.7605 17.1598 26.9734 17.6737C27.1863 18.1876 27.242 18.7531 27.1335 19.2987C27.0249 19.8443 26.7571 20.3454 26.3637 20.7387C25.9704 21.1321 25.4693 21.3999 24.9237 21.5084C24.3781 21.617 23.8126 21.5613 23.2987 21.3484C22.7848 21.1355 22.3455 20.775 22.0365 20.3125C21.7274 19.85 21.5625 19.3062 21.5625 18.75C21.5625 18.0041 21.8588 17.2887 22.3863 16.7612C22.9137 16.2338 23.6291 15.9375 24.375 15.9375ZM50.625 38.4375H47.3297C46.748 36.7926 45.6707 35.3685 44.2461 34.3613C42.8215 33.3541 41.1197 32.8132 39.375 32.8132C37.6303 32.8132 35.9285 33.3541 34.5039 34.3613C33.0793 35.3685 32.002 36.7926 31.4203 38.4375H9.375C8.62908 38.4375 7.91371 38.7338 7.38626 39.2612C6.85882 39.7887 6.5625 40.5041 6.5625 41.25C6.5625 41.9959 6.85882 42.7113 7.38626 43.2387C7.91371 43.7662 8.62908 44.0625 9.375 44.0625H31.4203C32.002 45.7073 33.0793 47.1314 34.5039 48.1387C35.9285 49.1459 37.6303 49.6867 39.375 49.6867C41.1197 49.6867 42.8215 49.1459 44.2461 48.1387C45.6707 47.1314 46.748 45.7073 47.3297 44.0625H50.625C51.3709 44.0625 52.0863 43.7662 52.6137 43.2387C53.1412 42.7113 53.4375 41.9959 53.4375 41.25C53.4375 40.5041 53.1412 39.7887 52.6137 39.2612C52.0863 38.7338 51.3709 38.4375 50.625 38.4375ZM39.375 44.0625C38.8187 44.0625 38.275 43.8975 37.8125 43.5885C37.3499 43.2795 36.9895 42.8402 36.7766 42.3263C36.5637 41.8124 36.508 41.2469 36.6165 40.7013C36.7251 40.1557 36.9929 39.6546 37.3863 39.2612C37.7796 38.8679 38.2807 38.6 38.8263 38.4915C39.3719 38.383 39.9374 38.4387 40.4513 38.6516C40.9652 38.8644 41.4045 39.2249 41.7135 39.6874C42.0225 40.15 42.1875 40.6937 42.1875 41.25C42.1875 41.9959 41.8912 42.7113 41.3637 43.2387C40.8363 43.7662 40.1209 44.0625 39.375 44.0625Z" fill="white"/>
</svg>
