<?xml version="1.0" encoding="UTF-8"?>
<svg id="Layer_1" xmlns="http://www.w3.org/2000/svg" version="1.1" viewBox="0 0 60 60" width="60" height="60">
  <!-- Generator: Adobe Illustrator 30.1.0, SVG Export Plug-In . SVG Version: 2.1.1 Build 136)  -->
  <path d="M54.94,35.98c-1.1,0-2-.9-2-2v-11.76c-.01-.66-.3-6.61-6.61-6.61H4.56c-1.1,0-2-.9-2-2s.9-2,2-2h41.76c5.44,0,8.06,2.94,9.3,5.41,1.26,2.5,1.31,4.92,1.31,5.19v11.78c0,1.1-.9,2-2,2Z"/>
  <path d="M54.9,28.02c-.13,0-13.01-.44-13.01-14.42h4c0,9.85,8.17,10.39,9.1,10.42l-.1,4Z"/>
  <path d="M10.09,21.13c-.51,0-1.02-.2-1.41-.59l-5.52-5.52c-.78-.78-.78-2.05,0-2.83l5.52-5.52c.78-.78,2.05-.78,2.83,0,.78.78.78,2.05,0,2.83l-4.11,4.11,4.11,4.11c.78.78.78,2.05,0,2.83-.39.39-.9.59-1.41.59Z"/>
  <path d="M55.44,48.4H13.67c-5.44,0-8.06-2.94-9.3-5.41-1.26-2.5-1.31-4.92-1.31-5.19v-11.78c0-1.1.9-2,2-2s2,.9,2,2v11.76c.01.66.3,6.61,6.61,6.61h41.76c1.1,0,2,.9,2,2s-.9,2-2,2Z"/>
  <path d="M18.11,46.4h-4c0-9.85-8.17-10.39-9.1-10.42l.1-4c.13,0,13.01.44,13.01,14.42Z"/>
  <path d="M49.91,53.92c-.51,0-1.02-.2-1.41-.59-.78-.78-.78-2.05,0-2.83l4.11-4.11-4.11-4.11c-.78-.78-.78-2.05,0-2.83.78-.78,2.05-.78,2.83,0l5.52,5.53c.78.78.78,2.05,0,2.83l-5.52,5.52c-.39.39-.9.59-1.41.59Z"/>
  <path d="M30,40.2c-5.62,0-10.2-4.58-10.2-10.2s4.57-10.2,10.2-10.2,10.2,4.57,10.2,10.2-4.58,10.2-10.2,10.2ZM30,23.8c-3.42,0-6.2,2.78-6.2,6.2s2.78,6.2,6.2,6.2,6.2-2.78,6.2-6.2-2.78-6.2-6.2-6.2Z"/>
</svg>