<svg width="60" height="60" viewBox="0 0 60 60" fill="none" xmlns="http://www.w3.org/2000/svg">
<path fill-rule="evenodd" clip-rule="evenodd" d="M20 10C17.3478 10 14.8043 11.0536 12.9289 12.929C11.0536 14.8043 10 17.3479 10 20C10 22.6522 11.0536 25.1957 12.9289 27.0711C14.8043 28.9465 17.3478 30 20 30C22.6522 30 25.1957 28.9465 27.0711 27.0711C28.9464 25.1957 30 22.6522 30 20C30 17.3479 28.9464 14.8043 27.0711 12.929C25.1957 11.0536 22.6522 10 20 10ZM15 32.5C12.3478 32.5 9.8043 33.5536 7.92893 35.429C6.05357 37.3043 5 39.8479 5 42.5V45C5 46.3261 5.52678 47.5979 6.46447 48.5356C7.40215 49.4732 8.67392 50 10 50H30C31.3261 50 32.5979 49.4732 33.5355 48.5356C34.4732 47.5979 35 46.3261 35 45V42.5C35 39.8479 33.9464 37.3043 32.0711 35.429C30.1957 33.5536 27.6522 32.5 25 32.5H15ZM33.125 27.2625C34.32 25.1125 35 22.6375 35 20C35.0005 17.4586 34.3554 14.9588 33.125 12.735C34.5445 11.3919 36.3265 10.4941 38.2508 10.1526C40.175 9.81115 42.1571 10.041 43.9521 10.8137C45.7471 11.5865 47.2764 12.8683 48.3509 14.5007C49.4254 16.133 49.998 18.0445 49.998 19.9988C49.998 21.9531 49.4254 23.8645 48.3509 25.4969C47.2764 27.1293 45.7471 28.4111 43.9521 29.1838C42.1571 29.9566 40.175 30.1864 38.2508 29.845C36.3265 29.5035 34.5445 28.6057 33.125 27.2625ZM38.665 50C39.515 48.53 40.0025 46.8225 40.0025 45V42.5C40.0071 38.8095 38.6465 35.2476 36.1825 32.5H45C47.6522 32.5 50.1957 33.5536 52.0711 35.429C53.9464 37.3043 55 39.8479 55 42.5V45C55 46.3261 54.4732 47.5979 53.5355 48.5356C52.5979 49.4732 51.3261 50 50 50H38.665Z" fill="black"/>
</svg>
