<svg width="60" height="61" viewBox="0 0 60 61" fill="none" xmlns="http://www.w3.org/2000/svg">
<path d="M30 22.6895C25.6993 22.6895 22.1895 26.1993 22.1895 30.5C22.1895 34.8008 25.6993 38.3106 30 38.3106C34.3008 38.3106 37.8106 34.8008 37.8106 30.5C37.8106 26.1993 34.3008 22.6895 30 22.6895ZM53.4258 30.5C53.4258 27.2657 53.4551 24.0606 53.2735 20.8321C53.0918 17.0821 52.2364 13.7539 49.4942 11.0118C46.7461 8.26371 43.4239 7.4141 39.6739 7.23246C36.4395 7.05082 33.2344 7.08011 30.0059 7.08011C26.7715 7.08011 23.5664 7.05082 20.3379 7.23246C16.5879 7.4141 13.2598 8.26956 10.5176 11.0118C7.76957 13.7598 6.91996 17.0821 6.73832 20.8321C6.55667 24.0664 6.58597 27.2715 6.58597 30.5C6.58597 33.7285 6.55667 36.9395 6.73832 40.168C6.91996 43.918 7.77542 47.2461 10.5176 49.9883C13.2657 52.7364 16.5879 53.586 20.3379 53.7676C23.5723 53.9493 26.7774 53.92 30.0059 53.92C33.2403 53.92 36.4453 53.9493 39.6739 53.7676C43.4239 53.586 46.752 52.7305 49.4942 49.9883C52.2422 47.2403 53.0918 43.918 53.2735 40.168C53.461 36.9395 53.4258 33.7344 53.4258 30.5ZM30 42.5176C23.3496 42.5176 17.9825 37.1504 17.9825 30.5C17.9825 23.8496 23.3496 18.4825 30 18.4825C36.6504 18.4825 42.0176 23.8496 42.0176 30.5C42.0176 37.1504 36.6504 42.5176 30 42.5176ZM42.5098 20.7969C40.9571 20.7969 39.7032 19.543 39.7032 17.9903C39.7032 16.4375 40.9571 15.1836 42.5098 15.1836C44.0625 15.1836 45.3164 16.4375 45.3164 17.9903C45.3169 18.359 45.2446 18.7241 45.1037 19.0649C44.9629 19.4056 44.7561 19.7152 44.4954 19.9759C44.2347 20.2366 43.9251 20.4433 43.5844 20.5842C43.2437 20.7251 42.8785 20.7974 42.5098 20.7969Z" fill="white"/>
</svg>
