<svg width="60" height="61" viewBox="0 0 60 61" fill="none" xmlns="http://www.w3.org/2000/svg">
<path d="M10.93 18.66C10.9614 18.3556 10.9208 18.0481 10.8113 17.7623C10.7019 17.4765 10.5267 17.2205 10.3 17.015L5.63 11.3475V10.5H20.125L31.33 35.2625L41.18 10.5H55V11.3475L51.0075 15.2C50.8379 15.3303 50.7071 15.5043 50.6291 15.7035C50.5511 15.9026 50.5289 16.1192 50.565 16.33V44.665C50.5289 44.8758 50.5511 45.0924 50.6291 45.2915C50.7071 45.4907 50.8379 45.6647 51.0075 45.795L54.9075 49.65V50.5H35.2975V49.6525L39.3375 45.7025C39.735 45.3025 39.735 45.185 39.735 44.575V21.67L28.505 50.405H26.99L13.915 21.67V40.93C13.8075 41.7375 14.075 42.555 14.64 43.14L19.8925 49.56V50.405H5V49.56L10.25 43.14C10.5278 42.8501 10.7339 42.4993 10.852 42.1156C10.9701 41.7319 10.9968 41.3259 10.93 40.93V18.66Z" fill="white"/>
</svg>
