<svg width="60" height="61" viewBox="0 0 60 61" fill="none" xmlns="http://www.w3.org/2000/svg">
<g clip-path="url(#clip0_2077_12315)">
<path d="M17.45 1.8876C17.3618 1.88748 17.2738 1.8967 17.1875 1.9151C16.8427 1.9887 16.5413 2.19625 16.3496 2.49208C16.1578 2.78792 16.0914 3.14782 16.165 3.4926C16.2386 3.83738 16.4462 4.13881 16.742 4.33056C17.0379 4.52232 17.3977 4.5887 17.7425 4.5151C18.0879 4.44078 18.3897 4.23232 18.5814 3.93556C18.7732 3.6388 18.8392 3.27804 18.765 2.9326C18.7004 2.63329 18.534 2.36562 18.2943 2.17511C18.0545 1.9846 17.7562 1.883 17.45 1.8876ZM33.5875 3.4826C33.1347 3.4832 32.6906 3.60676 32.3025 3.8401C32.0236 4.00754 31.7805 4.22826 31.5869 4.48968C31.3933 4.7511 31.2531 5.04809 31.1743 5.36369C31.0954 5.6793 31.0796 6.00733 31.1275 6.32907C31.1755 6.65081 31.2863 6.95996 31.4538 7.23885C31.6212 7.51775 31.8419 7.76093 32.1034 7.95452C32.3648 8.14811 32.6618 8.28832 32.9774 8.36713C33.293 8.44594 33.621 8.46182 33.9428 8.41386C34.2645 8.3659 34.5736 8.25504 34.8525 8.0876C35.1319 7.92046 35.3756 7.69985 35.5695 7.4384C35.7635 7.17694 35.904 6.87979 35.983 6.56396C36.0619 6.24813 36.0778 5.91982 36.0297 5.59784C35.9816 5.27587 35.8704 4.96655 35.7025 4.6876C35.4837 4.32154 35.174 4.01824 34.8034 3.80712C34.4328 3.59599 34.014 3.48421 33.5875 3.4826ZM26.0125 9.0726C23.4752 9.09066 21.0027 9.8759 18.9199 11.3251C16.8371 12.7743 15.2414 14.8198 14.3425 17.1926C13.0332 17.3534 11.7816 17.8257 10.6925 18.5701C8.91 19.8047 7.67138 21.6783 7.23379 23.802C6.7962 25.9257 7.19325 28.1364 8.34253 29.9751C6.75886 31.422 5.73826 33.3826 5.46144 35.5098C5.18461 37.637 5.66942 39.7936 6.83003 41.5976C7.51888 42.6589 8.42375 43.563 9.4856 44.2509C10.5474 44.9388 11.7424 45.3952 12.9925 45.5901C13.0375 47.4201 13.5875 49.2551 14.7075 50.8751C16.1772 53.0009 18.4308 54.4562 20.973 54.9212C23.5152 55.3862 26.138 54.8229 28.265 53.3551C28.435 53.2376 28.565 53.0901 28.725 52.9626C31.1925 55.1651 34.9 55.5276 37.7425 53.5626C39.1932 52.5551 40.2261 51.0528 40.6475 49.3376C42.9442 49.4386 45.2115 48.7902 47.1075 47.4901C49.3721 45.9254 50.9454 43.5471 51.4996 40.8509C52.0539 38.1548 51.5462 35.3487 50.0825 33.0176C51.2661 32.0253 52.0341 30.6249 52.2346 29.0934C52.435 27.562 52.0533 26.0111 51.165 24.7476C50.3635 23.6201 49.2039 22.7971 47.875 22.4126C48.0739 19.8666 47.3887 17.3298 45.935 15.2301C44.5302 13.204 42.4947 11.6993 40.1456 10.9505C37.7966 10.2017 35.2658 10.2508 32.9475 11.0901C30.8794 9.76369 28.472 9.06309 26.015 9.0726H26.0125ZM12.005 11.1151C11.6268 11.1198 11.2586 11.2373 10.9475 11.4526C10.5338 11.7387 10.2507 12.1774 10.1604 12.6723C10.1157 12.9173 10.1197 13.1688 10.1722 13.4123C10.2247 13.6557 10.3246 13.8865 10.4663 14.0914C10.6079 14.2962 10.7886 14.4712 10.9978 14.6062C11.2071 14.7413 11.441 14.8338 11.686 14.8785C12.1808 14.9687 12.6913 14.8587 13.105 14.5726C13.3103 14.4314 13.4856 14.2511 13.621 14.042C13.7563 13.8329 13.8491 13.5991 13.8939 13.354C13.9388 13.109 13.9348 12.8575 13.8822 12.614C13.8296 12.3705 13.7295 12.1398 13.5875 11.9351C13.4109 11.6794 13.1743 11.471 12.8984 11.328C12.6225 11.1851 12.3157 11.112 12.005 11.1151ZM51.99 17.0401C51.5694 17.0454 51.16 17.1769 50.815 17.4176C50.4711 17.6549 50.2052 17.989 50.0512 18.3774C49.8971 18.7658 49.8616 19.1913 49.9494 19.5998C50.0371 20.0084 50.244 20.3818 50.544 20.6727C50.844 20.9637 51.2235 21.1591 51.6346 21.2343C52.0456 21.3096 52.4698 21.2612 52.8533 21.0953C53.2369 20.9294 53.5626 20.6535 53.7894 20.3025C54.0161 19.9514 54.1336 19.541 54.127 19.1232C54.1205 18.7054 53.9902 18.2989 53.7525 17.9551C53.5552 17.6711 53.2915 17.4395 52.9844 17.2804C52.6772 17.1214 52.3359 17.0373 51.99 17.0401ZM31.615 19.6101C31.7734 19.6101 31.925 19.6218 32.07 19.6451C32.4809 19.6945 32.8702 19.8563 33.195 20.1126C33.6175 20.4476 33.8775 20.7151 34.275 21.0951C34.875 21.6626 35.31 21.3176 35.61 21.1451C36.13 20.8401 36.5325 20.5976 38.07 20.6251C39.6525 20.6526 41.4775 21.2176 41.855 23.9176C42.275 26.9151 36.94 34.6401 37.3125 38.2226C37.5775 40.7476 41.85 38.9701 42.2125 41.2726C42.6775 44.2676 36.8725 43.1551 35.545 42.5051C33.465 41.4851 32.2025 39.1551 32.745 36.8551C33.145 35.1351 36.995 28.1101 37.1375 27.0301C37.285 25.9301 36.695 25.8401 36.3275 25.8201C35.8525 25.7951 35.4775 26.0226 35.0125 26.7251C34.59 27.3626 29.8075 36.9376 29.3925 37.7201C28.6525 39.1201 27.7175 39.4551 26.7825 39.4051C25.4125 39.3326 24.7875 38.6051 24.9825 37.2851C25.1 36.5101 28.1325 29.6626 28.29 28.5951C28.3875 27.9326 28.2575 27.2301 27.6025 26.8951C26.945 26.5576 26.1725 27.0701 25.9425 27.4626C25.6225 28.0001 21.3225 39.2276 20.8625 40.0576C20.0725 41.4976 19.2375 41.9576 17.9825 42.0176C15.0175 42.1576 12.82 39.7176 13.7875 36.7276C14.22 35.3976 17.0775 25.3001 18.525 22.7301C19.4975 21.0051 22.195 19.6901 24.0675 20.5001C25.035 20.9176 26.38 21.5926 26.7775 21.7676C27.6925 22.1751 28.675 21.0751 29.06 20.7376C29.445 20.4001 29.815 20.0476 30.285 19.8451C30.64 19.6951 31.1425 19.6076 31.615 19.6101ZM58.815 24.7526C58.7368 24.7545 58.659 24.7637 58.5825 24.7801C58.4322 24.8119 58.2896 24.873 58.163 24.96C58.0363 25.047 57.9281 25.1581 57.8445 25.287C57.7609 25.4159 57.7035 25.5601 57.6757 25.7112C57.6479 25.8623 57.6503 26.0174 57.6825 26.1676C57.7485 26.4713 57.932 26.7364 58.193 26.9051C58.4539 27.0738 58.7711 27.1322 59.075 27.0676C59.3787 27.0017 59.6439 26.8181 59.8125 26.5572C59.9812 26.2962 60.0396 25.979 59.975 25.6751C59.9175 25.411 59.7708 25.1749 59.5595 25.0064C59.3482 24.8379 59.0853 24.7474 58.815 24.7501V24.7526ZM2.52003 26.7776C2.11102 26.7745 1.7075 26.8718 1.34486 27.061C0.982213 27.2501 0.671521 27.5254 0.440029 27.8626C0.159898 28.2701 0.00692473 28.7516 0.000457986 29.2461C-0.00600876 29.7406 0.134322 30.2258 0.403699 30.6406C0.673076 31.0553 1.0594 31.3808 1.5138 31.5759C1.9682 31.771 2.47026 31.827 2.95648 31.7368C3.4427 31.6465 3.89123 31.4141 4.24534 31.0689C4.59945 30.7237 4.84323 30.2812 4.94584 29.7975C5.04845 29.3137 5.00528 28.8104 4.82179 28.3512C4.63831 27.8919 4.32275 27.4975 3.91503 27.2176C3.50429 26.9351 3.0185 26.7819 2.52003 26.7776ZM55.755 32.0126C55.6483 32.0121 55.5419 32.023 55.4375 32.0451C55.2362 32.0887 55.0455 32.1715 54.8762 32.2888C54.707 32.4062 54.5625 32.5557 54.451 32.7289C54.3396 32.9021 54.2634 33.0956 54.2267 33.2983C54.1901 33.5009 54.1938 33.7088 54.2375 33.9101C54.3257 34.317 54.5714 34.6725 54.9208 34.8987C55.2703 35.125 55.6952 35.2037 56.1025 35.1176C56.509 35.0289 56.8638 34.783 57.0896 34.4336C57.3153 34.0841 57.3937 33.6596 57.3075 33.2526C57.2306 32.899 57.0342 32.5827 56.7515 32.3569C56.4687 32.1311 56.1169 32.0095 55.755 32.0126ZM10.155 47.2551C10.0776 47.2579 10.0006 47.268 9.92503 47.2851C9.62401 47.3497 9.361 47.5313 9.19386 47.7899C9.02671 48.0485 8.96913 48.3628 9.03378 48.6638C9.09843 48.9649 9.28 49.2279 9.53857 49.395C9.79714 49.5622 10.1115 49.6197 10.4125 49.5551C10.5619 49.5231 10.7035 49.4619 10.8292 49.375C10.9548 49.2881 11.0621 49.1772 11.1448 49.0488C11.2275 48.9203 11.284 48.7768 11.311 48.6264C11.3381 48.4761 11.3352 48.3218 11.3025 48.1726C11.2461 47.9109 11.1012 47.6768 10.8921 47.5096C10.683 47.3424 10.4227 47.2525 10.155 47.2551ZM44.3425 51.1301C43.8208 51.1362 43.3129 51.299 42.885 51.5976C42.4591 51.892 42.13 52.3062 41.9395 52.7877C41.749 53.2692 41.7056 53.7964 41.8148 54.3025C41.9239 54.8087 42.1808 55.2711 42.5528 55.6313C42.9248 55.9915 43.3953 56.2332 43.9047 56.3259C44.4142 56.4186 44.9397 56.3582 45.4147 56.1522C45.8898 55.9462 46.2931 55.6039 46.5736 55.1687C46.8541 54.7334 46.9992 54.2247 46.9906 53.707C46.9819 53.1893 46.8199 52.6857 46.525 52.2601C46.2824 51.9068 45.9561 51.6191 45.5753 51.4223C45.1946 51.2256 44.7711 51.1236 44.3425 51.1301ZM28.5 55.8851C28.1779 55.8881 27.8643 55.9884 27.6 56.1726C27.4255 56.2932 27.2764 56.447 27.1613 56.6253C27.0463 56.8035 26.9674 57.0027 26.9294 57.2114C26.8913 57.4201 26.8947 57.6343 26.9394 57.8417C26.9842 58.0491 27.0693 58.2456 27.19 58.4201C27.3106 58.5946 27.4645 58.7437 27.6427 58.8588C27.8209 58.9739 28.0201 59.0527 28.2288 59.0908C28.4375 59.1288 28.6517 59.1254 28.8591 59.0807C29.0665 59.036 29.2631 58.9508 29.4375 58.8301C29.7893 58.5865 30.0301 58.2133 30.107 57.7924C30.1838 57.3715 30.0905 56.9373 29.8475 56.5851C29.6967 56.3672 29.4948 56.1894 29.2595 56.0674C29.0242 55.9454 28.7651 55.8828 28.5 55.8851Z" fill="white"/>
</g>
<defs>
<clipPath id="clip0_2077_12315">
<rect width="60" height="60" fill="white" transform="translate(0 0.5)"/>
</clipPath>
</defs>
</svg>
