<svg width="23" height="22" viewBox="0 0 23 22" fill="none" xmlns="http://www.w3.org/2000/svg">
<path d="M12.491 9.81933L8.10382 3.6685C8.05294 3.59704 7.9857 3.53879 7.90773 3.4986C7.82975 3.45842 7.74329 3.43747 7.65557 3.4375H5.34007C5.23914 3.43763 5.1402 3.46553 5.05407 3.51814C4.96794 3.57074 4.89795 3.64604 4.85176 3.73577C4.80557 3.82551 4.78496 3.92622 4.79218 4.02688C4.79941 4.12755 4.8342 4.22429 4.89273 4.3065L10.5091 12.1807M12.491 9.81933L18.1074 17.6935C18.1659 17.7757 18.2007 17.8725 18.2079 17.9731C18.2152 18.0738 18.1946 18.1745 18.1484 18.2642C18.1022 18.354 18.0322 18.4293 17.9461 18.4819C17.8599 18.5345 17.761 18.5624 17.6601 18.5625H15.3446C15.2568 18.5625 15.1704 18.5416 15.0924 18.5014C15.0144 18.4612 14.9472 18.403 14.8963 18.3315L10.5091 12.1807M12.491 9.81933L17.8462 3.4375L12.491 9.81933ZM10.5091 12.1807L5.15398 18.5625L10.5091 12.1807Z" fill="#BE00FF"/>
<path d="M12.491 9.81933L8.10382 3.6685C8.05294 3.59704 7.9857 3.53879 7.90773 3.4986C7.82975 3.45842 7.74329 3.43747 7.65557 3.4375H5.34007C5.23914 3.43763 5.1402 3.46553 5.05407 3.51814C4.96794 3.57074 4.89795 3.64604 4.85176 3.73577C4.80557 3.82551 4.78496 3.92622 4.79218 4.02688C4.79941 4.12755 4.8342 4.22429 4.89273 4.3065L10.5091 12.1807M12.491 9.81933L18.1074 17.6935C18.1659 17.7757 18.2007 17.8725 18.2079 17.9731C18.2152 18.0738 18.1946 18.1745 18.1484 18.2642C18.1022 18.354 18.0322 18.4293 17.9461 18.4819C17.8599 18.5345 17.761 18.5624 17.6601 18.5625H15.3446C15.2568 18.5625 15.1704 18.5416 15.0924 18.5014C15.0144 18.4612 14.9472 18.403 14.8963 18.3315L10.5091 12.1807M12.491 9.81933L17.8462 3.4375M10.5091 12.1807L5.15398 18.5625" stroke="#BE00FF" stroke-width="2" stroke-linecap="round" stroke-linejoin="round"/>
</svg>
