<svg width="60" height="61" viewBox="0 0 60 61" fill="none" xmlns="http://www.w3.org/2000/svg">
<path d="M55 30.3476C55.0236 26.3239 54.6805 22.3065 53.975 18.3451C53.6631 17.2996 53.0829 16.3539 52.2921 15.6021C51.5013 14.8504 50.5275 14.3187 49.4675 14.0601C42.9878 13.3011 36.4661 12.9588 29.9425 13.0351C23.42 12.9601 16.9 13.3101 10.4225 14.0851C9.37097 14.3749 8.41265 14.9327 7.64138 15.704C6.8701 16.4752 6.31229 17.4335 6.02252 18.4851C5.31752 22.4457 4.9761 26.4624 5.00252 30.4851C4.97752 34.5101 5.32002 38.5251 6.02502 42.4851C6.31986 43.5483 6.88453 44.5171 7.66424 45.2977C8.44394 46.0783 9.41219 46.6441 10.475 46.9401C16.955 47.6976 23.475 48.0401 30 47.9626C36.5047 48.0506 43.0081 47.7082 49.4675 46.9376C50.518 46.6479 51.4754 46.0907 52.2462 45.3203C53.017 44.55 53.5747 43.5929 53.865 42.5426C54.6325 38.5226 55.015 34.4376 55 30.3476ZM36.4725 31.8026L26.46 37.4801C26.2584 37.5908 26.0314 37.647 25.8014 37.6434C25.5714 37.6397 25.3463 37.5762 25.1483 37.4592C24.9503 37.3421 24.7862 37.1756 24.672 36.9758C24.5579 36.7761 24.4978 36.5501 24.4975 36.3201V24.5401C24.4946 24.3093 24.5532 24.0818 24.6672 23.8812C24.7813 23.6805 24.9468 23.5138 25.1466 23.3982C25.3464 23.2826 25.5734 23.2224 25.8042 23.2236C26.0351 23.2248 26.2614 23.2874 26.46 23.4051L36.8025 29.3501C37.0019 29.4677 37.1662 29.6364 37.2786 29.8388C37.3909 30.0412 37.4472 30.2699 37.4416 30.5012C37.436 30.7326 37.3687 30.9583 37.2467 31.155C37.1247 31.3517 36.9523 31.5123 36.7475 31.6201L36.4725 31.8026Z" fill="white"/>
</svg>
