<svg width="492" height="436" viewBox="0 0 492 436" fill="none" xmlns="http://www.w3.org/2000/svg">
<g clip-path="url(#clip0_6840_420)">
<path d="M-265.863 222.085C-264.196 219.769 -261.729 218.155 -258.94 217.554C-256.151 216.954 -253.238 217.411 -250.766 218.836C-248.295 220.261 -246.44 222.554 -245.563 225.268C-244.685 227.983 -244.847 230.927 -246.016 233.53C-247.186 236.132 -249.28 238.207 -251.893 239.353C-254.506 240.499 -257.451 240.634 -260.158 239.732C-262.865 238.83 -265.14 236.955 -266.543 234.471C-267.946 231.986 -268.376 229.069 -267.751 226.286L-360.372 184.657L-358.484 180.457L-265.863 222.085ZM24.8682 473.93C26.5347 471.614 29.0017 469.999 31.7909 469.399C34.5802 468.799 37.493 469.255 39.9647 470.681C42.4363 472.106 44.2906 474.398 45.1683 477.113C46.0459 479.828 45.8842 482.772 44.7146 485.374C43.545 487.976 41.4507 490.052 38.8379 491.198C36.225 492.344 33.2797 492.479 30.573 491.577C27.8662 490.675 25.5908 488.8 24.188 486.315C22.7851 483.831 22.3548 480.914 22.9803 478.13L-233.461 362.874L-231.573 358.673L24.8682 473.93ZM189.685 431.878C188.018 434.194 185.551 435.809 182.762 436.409C179.973 437.009 177.06 436.553 174.588 435.127C172.116 433.702 170.262 431.41 169.385 428.695C168.507 425.98 168.669 423.036 169.838 420.434C171.008 417.832 173.102 415.756 175.715 414.61C178.328 413.464 181.273 413.329 183.98 414.231C186.687 415.133 188.962 417.008 190.365 419.493C191.768 421.977 192.198 424.894 191.573 427.678L279.993 467.418L278.105 471.619L189.685 431.878ZM174.581 465.482C172.915 467.798 170.448 469.413 167.659 470.013C164.869 470.614 161.957 470.157 159.485 468.731C157.013 467.306 155.159 465.014 154.281 462.299C153.404 459.584 153.565 456.64 154.735 454.038C155.905 451.436 157.999 449.36 160.612 448.214C163.225 447.068 166.17 446.933 168.877 447.835C171.583 448.737 173.859 450.612 175.262 453.097C176.664 455.581 177.095 458.498 176.469 461.282L264.89 501.022L263.002 505.223L174.581 465.482ZM295.214 231.906C296.88 229.59 299.347 227.975 302.136 227.375C304.926 226.775 307.838 227.232 310.31 228.657C312.782 230.082 314.636 232.374 315.514 235.089C316.391 237.804 316.23 240.748 315.06 243.35C313.89 245.953 311.796 248.028 309.183 249.174C306.57 250.32 303.625 250.455 300.918 249.553C298.211 248.651 295.936 246.776 294.533 244.291C293.13 241.807 292.7 238.89 293.326 236.106L112.284 154.738C110.617 157.054 108.15 158.668 105.361 159.269C102.572 159.869 99.6588 159.412 97.1872 157.987C94.7155 156.562 92.8612 154.269 91.9836 151.555C91.106 148.84 91.2676 145.896 92.4373 143.293C93.6069 140.691 95.7011 138.616 98.314 137.47C100.927 136.324 103.872 136.189 106.579 137.091C109.286 137.993 111.561 139.868 112.964 142.352C114.367 144.837 114.797 147.754 114.172 150.537L295.214 231.906ZM-197.142 -110.558C-195.475 -112.874 -193.008 -114.488 -190.219 -115.089C-187.43 -115.689 -184.517 -115.232 -182.045 -113.807C-179.574 -112.382 -177.719 -110.089 -176.842 -107.375C-175.964 -104.66 -176.126 -101.716 -177.295 -99.1135C-178.465 -96.5111 -180.559 -94.4357 -183.172 -93.2897C-185.785 -92.1436 -188.73 -92.0086 -191.437 -92.9108C-194.144 -93.8129 -196.419 -95.6879 -197.822 -98.1724C-199.225 -100.657 -199.655 -103.574 -199.03 -106.357L-224.443 -117.779L-222.555 -121.98L-197.142 -110.558ZM160.991 136.237C159.324 138.553 156.857 140.167 154.068 140.768C151.279 141.368 148.366 140.911 145.894 139.486C143.423 138.061 141.568 135.769 140.691 133.054C139.813 130.339 139.975 127.395 141.145 124.793C142.314 122.19 144.408 120.115 147.021 118.969C149.634 117.823 152.579 117.688 155.286 118.59C157.993 119.492 160.268 121.367 161.671 123.851C163.074 126.336 163.504 129.253 162.879 132.036L343.921 213.405C345.587 211.089 348.054 209.475 350.844 208.874C353.633 208.274 356.546 208.731 359.017 210.156C361.489 211.581 363.343 213.874 364.221 216.588C365.099 219.303 364.937 222.247 363.767 224.85C362.598 227.452 360.503 229.527 357.89 230.673C355.278 231.819 352.332 231.954 349.626 231.052C346.919 230.15 344.643 228.275 343.241 225.791C341.838 223.306 341.407 220.389 342.033 217.606L160.991 136.237ZM383.405 -21.0474C385.721 -19.3809 387.335 -16.9139 387.936 -14.1247C388.536 -11.3354 388.079 -8.42257 386.654 -5.95095C385.229 -3.47929 382.936 -1.6249 380.222 -0.747299C377.507 0.130331 374.563 -0.031361 371.96 -1.20099C369.358 -2.3706 367.283 -4.46486 366.137 -7.07772C364.991 -9.69056 364.856 -12.6359 365.758 -15.3426C366.66 -18.0494 368.535 -20.3248 371.019 -21.7276C373.504 -23.1305 376.421 -23.5608 379.204 -22.9353L390.626 -48.3484L394.827 -46.4605L383.405 -21.0474ZM52.6467 355.393C54.9626 357.059 56.5772 359.526 57.1775 362.315C57.7778 365.105 57.321 368.017 55.8958 370.489C54.4705 372.961 52.1783 374.815 49.4635 375.693C46.7486 376.57 43.8047 376.409 41.2023 375.239C38.5999 374.069 36.5245 371.975 35.3785 369.362C34.2325 366.749 34.0974 363.804 34.9996 361.097C35.9017 358.391 37.7768 356.115 40.2612 354.712C42.7457 353.309 45.6625 352.879 48.4462 353.505L99.6084 239.671C97.2925 238.004 95.6779 235.537 95.0776 232.748C94.4773 229.959 94.934 227.046 96.3593 224.574C97.7846 222.103 100.077 220.248 102.792 219.371C105.506 218.493 108.45 218.655 111.053 219.824C113.655 220.994 115.731 223.088 116.877 225.701C118.023 228.314 118.158 231.259 117.256 233.966C116.353 236.673 114.478 238.948 111.994 240.351C109.509 241.754 106.593 242.184 103.809 241.559L52.6467 355.393ZM340.55 -15.5681L285.707 106.457L415.922 164.982L414.034 169.182L279.618 108.769L336.35 -17.456C334.034 -19.1225 332.419 -21.5895 331.819 -24.3788C331.219 -27.1681 331.675 -30.0809 333.101 -32.5525C334.526 -35.0242 336.818 -36.8785 339.533 -37.7562C342.248 -38.6338 345.192 -38.4721 347.794 -37.3025C350.396 -36.1328 352.472 -34.0386 353.618 -31.4257C354.764 -28.8129 354.899 -25.8676 353.997 -23.1608C353.095 -20.4541 351.22 -18.1787 348.735 -16.7759C346.251 -15.373 343.334 -14.9426 340.55 -15.5681ZM359.051 33.1392L334.414 87.9558L431.025 131.378L429.138 135.578L328.325 90.2684L354.85 31.2512C352.535 29.5848 350.92 27.1178 350.32 24.3285C349.719 21.5392 350.176 18.6264 351.601 16.1548C353.027 13.6831 355.319 11.8287 358.034 10.9511C360.749 10.0735 363.693 10.2352 366.295 11.4048C368.897 12.5744 370.973 14.6687 372.119 17.2815C373.265 19.8944 373.4 22.8397 372.498 25.5465C371.595 28.2532 369.72 30.5286 367.236 31.9314C364.751 33.3343 361.835 33.7647 359.051 33.1392ZM-0.400922 113.938L-70.3477 269.567L-36.7437 284.67L-48.1655 310.083C-45.8496 311.749 -44.235 314.216 -43.6347 317.006C-43.0344 319.795 -43.4912 322.708 -44.9164 325.179C-46.3417 327.651 -48.6339 329.505 -51.3487 330.383C-54.0636 331.261 -57.0075 331.099 -59.6099 329.929C-62.2123 328.76 -64.2876 326.665 -65.4337 324.053C-66.5797 321.44 -66.7148 318.494 -65.8126 315.788C-64.9105 313.081 -63.0354 310.805 -60.551 309.403C-58.0665 308 -55.1497 307.569 -52.366 308.195L-42.8321 286.982L-76.4361 271.879L-4.60142 112.05C-6.91731 110.383 -8.53192 107.916 -9.13222 105.127C-9.73254 102.338 -9.27576 99.425 -7.85048 96.9533C-6.42521 94.4817 -4.13298 92.6273 -1.41818 91.7497C1.29661 90.8721 4.2406 91.0338 6.84299 92.2034C9.44535 93.373 11.5207 95.4673 12.6668 98.0801C13.8128 100.693 13.9479 103.638 13.0457 106.345C12.1436 109.052 10.2685 111.327 7.78405 112.73C5.29961 114.133 2.38281 114.563 -0.400922 113.938ZM7.88013 62.3728C9.54659 60.057 12.0136 58.4424 14.8029 57.8421C17.5922 57.2418 20.505 57.6985 22.9766 59.1238C25.4482 60.5491 27.3026 62.8413 28.1802 65.5561C29.0578 68.2709 28.8962 71.2149 27.7265 73.8173C26.5569 76.4196 24.4626 78.495 21.8498 79.6411C19.2369 80.7871 16.2916 80.9221 13.5849 80.02C10.8781 79.1178 8.60276 77.2428 7.19992 74.7583C5.79707 72.2739 5.36669 69.3571 5.99223 66.5733L-15.2204 57.0394L-60.53 157.852L-119.547 131.327C-121.214 133.642 -123.681 135.257 -126.47 135.857C-129.259 136.458 -132.172 136.001 -134.644 134.576C-137.115 133.15 -138.97 130.858 -139.847 128.143C-140.725 125.429 -140.563 122.485 -139.394 119.882C-138.224 117.28 -136.13 115.204 -133.517 114.058C-130.904 112.912 -127.959 112.777 -125.252 113.679C-122.545 114.582 -120.27 116.457 -118.867 118.941C-117.464 121.426 -117.034 124.342 -117.659 127.126L-62.8426 151.763L-17.533 50.951L7.88013 62.3728ZM-127.855 329.553C-129.522 331.869 -131.989 333.484 -134.778 334.084C-137.567 334.684 -140.48 334.228 -142.952 332.802C-145.423 331.377 -147.278 329.085 -148.155 326.37C-149.033 323.655 -148.871 320.711 -147.702 318.109C-146.532 315.507 -144.438 313.431 -141.825 312.285C-139.212 311.139 -136.267 311.004 -133.56 311.906C-130.853 312.808 -128.578 314.683 -127.175 317.168C-125.772 319.652 -125.342 322.569 -125.967 325.353L-3.94251 380.196L66.0043 224.568C63.6884 222.901 62.0739 220.434 61.4735 217.645C60.8732 214.856 61.33 211.943 62.7553 209.471C64.1805 206.999 66.4727 205.145 69.1876 204.268C71.9024 203.39 74.8463 203.552 77.4487 204.721C80.0511 205.891 82.1265 207.985 83.2725 210.598C84.4185 213.211 84.5536 216.156 83.6515 218.863C82.7493 221.57 80.8742 223.845 78.3898 225.248C75.9053 226.651 72.9885 227.081 70.2048 226.456L-1.62992 386.285L-127.855 329.553ZM-101.046 180.034C-102.713 182.35 -105.18 183.964 -107.969 184.565C-110.758 185.165 -113.671 184.708 -116.143 183.283C-118.614 181.858 -120.469 179.565 -121.346 176.851C-122.224 174.136 -122.062 171.192 -120.893 168.589C-119.723 165.987 -117.629 163.912 -115.016 162.766C-112.403 161.62 -109.458 161.485 -106.751 162.387C-104.044 163.289 -101.769 165.164 -100.366 167.648C-98.9633 170.133 -98.5329 173.05 -99.1584 175.833L-73.7454 187.255L-119.055 288.067L-97.8425 297.601C-96.176 295.285 -93.709 293.671 -90.9197 293.071C-88.1304 292.47 -85.2176 292.927 -82.746 294.352C-80.2743 295.777 -78.42 298.07 -77.5424 300.785C-76.6648 303.499 -76.8264 306.443 -77.996 309.046C-79.1657 311.648 -81.2599 313.723 -83.8728 314.869C-86.4857 316.016 -89.4309 316.151 -92.1377 315.248C-94.8444 314.346 -97.1198 312.471 -98.5226 309.987C-99.9255 307.502 -100.356 304.586 -99.7304 301.802L-125.143 290.38L-79.8338 189.568L-101.046 180.034ZM-276.599 368.983C-274.283 370.649 -272.668 373.116 -272.068 375.906C-271.468 378.695 -271.924 381.608 -273.35 384.079C-274.775 386.551 -277.067 388.405 -279.782 389.283C-282.497 390.161 -285.441 389.999 -288.043 388.829C-290.646 387.66 -292.721 385.566 -293.867 382.953C-295.013 380.34 -295.148 377.394 -294.246 374.688C-293.344 371.981 -291.469 369.706 -288.984 368.303C-286.5 366.9 -283.583 366.47 -280.799 367.095L-271.265 345.883L-300.669 332.667L-328.987 395.675L-333.188 393.787L-302.981 326.579L-265.177 343.57L-276.599 368.983ZM182.696 302.512C184.362 300.196 186.829 298.581 189.618 297.981C192.408 297.381 195.321 297.837 197.792 299.263C200.264 300.688 202.118 302.98 202.996 305.695C203.873 308.41 203.712 311.354 202.542 313.956C201.372 316.558 199.278 318.634 196.665 319.78C194.053 320.926 191.107 321.061 188.4 320.159C185.694 319.257 183.418 317.382 182.015 314.897C180.613 312.413 180.182 309.496 180.808 306.712L159.595 297.178L70.8638 494.602L171.676 539.912L141.47 607.12L137.269 605.232L165.588 542.224L64.7753 496.915L157.283 291.09L182.696 302.512ZM265.201 263.858C263.534 266.174 261.067 267.788 258.278 268.389C255.489 268.989 252.576 268.532 250.104 267.107C247.633 265.682 245.778 263.39 244.901 260.675C244.023 257.96 244.185 255.016 245.354 252.414C246.524 249.811 248.618 247.736 251.231 246.59C253.844 245.444 256.789 245.309 259.496 246.211C262.203 247.113 264.478 248.988 265.881 251.473C267.284 253.957 267.714 256.874 267.089 259.658L292.502 271.079L250.873 363.701C253.189 365.367 254.804 367.834 255.404 370.623C256.005 373.413 255.548 376.325 254.122 378.797C252.697 381.269 250.405 383.123 247.69 384.001C244.975 384.878 242.031 384.717 239.429 383.547C236.827 382.377 234.751 380.283 233.605 377.67C232.459 375.057 232.324 372.112 233.226 369.405C234.129 366.699 236.004 364.423 238.488 363.02C240.972 361.617 243.889 361.187 246.673 361.813L286.413 273.392L265.201 263.858ZM40.1651 405.07C38.4987 407.385 36.0317 409 33.2424 409.6C30.4531 410.201 27.5403 409.744 25.0687 408.319C22.597 406.893 20.7427 404.601 19.865 401.886C18.9874 399.171 19.1491 396.227 20.3188 393.625C21.4884 391.023 23.5826 388.947 26.1955 387.801C28.8083 386.655 31.7536 386.52 34.4604 387.422C37.1671 388.324 39.4425 390.2 40.8454 392.684C42.2482 395.168 42.6786 398.085 42.053 400.869L63.2656 410.403L138.782 242.383L172.386 257.486L185.601 228.082L97.1804 188.342C95.514 190.658 93.047 192.272 90.2577 192.873C87.4684 193.473 84.5556 193.016 82.084 191.591C79.6123 190.166 77.758 187.873 76.8803 185.159C76.0027 182.444 76.1644 179.5 77.334 176.897C78.5037 174.295 80.5979 172.22 83.2107 171.074C85.8236 169.928 88.7689 169.793 91.4757 170.695C94.1824 171.597 96.4578 173.472 97.8607 175.956C99.2635 178.441 99.6939 181.358 99.0683 184.141L191.69 225.77L174.698 263.574L141.094 248.471L65.5782 416.491L40.1651 405.07ZM419.437 45.3848C421.103 43.0689 423.57 41.4543 426.36 40.854C429.149 40.2537 432.062 40.7105 434.533 42.1357C437.005 43.561 438.859 45.8532 439.737 48.568C440.615 51.2829 440.453 54.2268 439.283 56.8292C438.114 59.4316 436.019 61.507 433.407 62.653C430.794 63.799 427.848 63.9341 425.142 63.0319C422.435 62.1298 420.16 60.2547 418.757 57.7703C417.354 55.2858 416.923 52.369 417.549 49.5853L392.136 38.1635L424.23 -33.2452L428.431 -31.3572L398.224 35.8509L419.437 45.3848ZM-37.4026 16.5231L-79.0309 109.144L-171.652 67.5161C-173.319 69.832 -175.786 71.4465 -178.575 72.0468C-181.364 72.6471 -184.277 72.1904 -186.749 70.7652C-189.22 69.3399 -191.075 67.0476 -191.952 64.3328C-192.83 61.618 -192.668 58.674 -191.498 56.0717C-190.329 53.4693 -188.235 51.3939 -185.622 50.2479C-183.009 49.1018 -180.064 48.9668 -177.357 49.869C-174.65 50.7711 -172.375 52.6462 -170.972 55.1306C-169.569 57.615 -169.139 60.5318 -169.764 63.3156L-81.3435 103.056L-41.6031 14.6352C-43.919 12.9688 -45.5336 10.5018 -46.1339 7.71248C-46.7342 4.9232 -46.2774 2.0104 -44.8522 -0.461248C-43.4269 -2.93288 -41.1347 -4.78728 -38.4199 -5.66488C-35.705 -6.5425 -32.7611 -6.38081 -30.1587 -5.21118C-27.5563 -4.04155 -25.4809 -1.9473 -24.3349 0.665552C-23.1889 3.2784 -23.0538 6.22371 -23.956 8.93046C-24.8581 11.6372 -26.7332 13.9126 -29.2176 15.3154C-31.702 16.7183 -34.6189 17.1487 -37.4026 16.5231ZM-65.9295 -167.712C-67.596 -165.396 -70.063 -163.782 -72.8522 -163.182C-75.6415 -162.581 -78.5543 -163.038 -81.026 -164.463C-83.4976 -165.889 -85.352 -168.181 -86.2296 -170.896C-87.1072 -173.61 -86.9455 -176.554 -85.7759 -179.157C-84.6063 -181.759 -82.512 -183.835 -79.8992 -184.981C-77.2863 -186.127 -74.341 -186.262 -71.6342 -185.359C-68.9275 -184.457 -66.6521 -182.582 -65.2493 -180.098C-63.8464 -177.613 -63.4161 -174.697 -64.0416 -171.913L-9.22495 -147.276L20.9815 -214.484L25.182 -212.596L-6.91235 -141.187L-65.9295 -167.712ZM56.6144 -102.79L30.0893 -43.7728L-37.1188 -73.9792L-97.5317 60.437L-122.945 49.0152C-124.611 51.3311 -127.078 52.9457 -129.868 53.546C-132.657 54.1463 -135.57 53.6896 -138.041 52.2643C-140.513 50.839 -142.367 48.5468 -143.245 45.832C-144.122 43.1172 -143.961 40.1732 -142.791 37.5708C-141.622 34.9685 -139.527 32.8931 -136.914 31.747C-134.302 30.601 -131.356 30.466 -128.65 31.3681C-125.943 32.2703 -123.667 34.1453 -122.265 36.6297C-120.862 39.1142 -120.431 42.031 -121.057 44.8147L-99.8443 54.3486L-39.4314 -80.0676L27.7767 -49.8612L52.4139 -104.678C50.098 -106.344 48.4834 -108.811 47.8831 -111.601C47.2828 -114.39 47.7395 -117.303 49.1648 -119.774C50.5901 -122.246 52.8823 -124.1 55.5971 -124.978C58.3119 -125.856 61.2559 -125.694 63.8583 -124.524C66.4606 -123.355 68.536 -121.26 69.6821 -118.647C70.8281 -116.035 70.9631 -113.089 70.061 -110.383C69.1588 -107.676 67.2838 -105.4 64.7994 -103.998C62.3149 -102.595 59.3981 -102.164 56.6144 -102.79ZM-10.427 -21.5905C-12.0934 -19.2746 -14.5605 -17.66 -17.3497 -17.0597C-20.139 -16.4594 -23.0518 -16.9162 -25.5235 -18.3415C-27.9951 -19.7667 -29.8495 -22.0589 -30.7271 -24.7738C-31.6047 -27.4886 -31.443 -30.4325 -30.2734 -33.0349C-29.1038 -35.6373 -27.0095 -37.7127 -24.3967 -38.8587C-21.7838 -40.0047 -18.8385 -40.1398 -16.1317 -39.2376C-13.425 -38.3355 -11.1496 -36.4604 -9.74677 -33.976C-8.34393 -31.4916 -7.91354 -28.5747 -8.53907 -25.791L46.2776 -1.15387L86.0179 -89.5746C83.702 -91.241 82.0874 -93.7081 81.4871 -96.4973C80.8868 -99.2866 81.3436 -102.199 82.7689 -104.671C84.1941 -107.143 86.4864 -108.997 89.2012 -109.875C91.916 -110.752 94.86 -110.591 97.4623 -109.421C100.065 -108.251 102.14 -106.157 103.286 -103.544C104.432 -100.931 104.567 -97.9861 103.665 -95.2793C102.763 -92.5726 100.888 -90.2972 98.4034 -88.8944C95.919 -87.4915 93.0022 -87.0611 90.2184 -87.6867L48.5902 4.93453L-10.427 -21.5905ZM83.59 -140.904C81.9235 -138.588 79.4565 -136.973 76.6672 -136.373C73.878 -135.772 70.9651 -136.229 68.4935 -137.654C66.0219 -139.08 64.1675 -141.372 63.2899 -144.087C62.4123 -146.802 62.574 -149.746 63.7436 -152.348C64.9132 -154.95 67.0075 -157.026 69.6203 -158.172C72.2332 -159.318 75.1785 -159.453 77.8852 -158.551C80.592 -157.649 82.8673 -155.773 84.2702 -153.289C85.673 -150.805 86.1034 -147.888 85.4779 -145.104L144.495 -118.579L102.867 -25.9578C105.183 -24.2913 106.797 -21.8243 107.398 -19.035C107.998 -16.2458 107.541 -13.333 106.116 -10.8613C104.691 -8.38966 102.398 -6.53529 99.6835 -5.65767C96.9687 -4.78008 94.0247 -4.94176 91.4224 -6.11138C88.82 -7.28101 86.7446 -9.37525 85.5986 -11.9881C84.4525 -14.601 84.3175 -17.5463 85.2197 -20.253C86.1218 -22.9598 87.9969 -25.2351 90.4813 -26.638C92.9657 -28.0408 95.8825 -28.4712 98.6663 -27.8457L138.407 -116.266L83.59 -140.904ZM43.369 522.637C45.0355 520.321 47.5025 518.706 50.2918 518.106C53.081 517.506 55.9939 517.963 58.4655 519.388C60.9371 520.813 62.7915 523.105 63.6691 525.82C64.5467 528.535 64.385 531.479 63.2154 534.081C62.0458 536.684 59.9515 538.759 57.3387 539.905C54.7259 541.051 51.7805 541.186 49.0738 540.284C46.367 539.382 44.0917 537.507 42.6888 535.022C41.286 532.538 40.8556 529.621 41.4811 526.837L-214.96 411.581L-228.175 440.984L-232.376 439.097L-217.273 405.493L43.369 522.637ZM219.724 253.264L210.19 274.477L243.794 289.58L211.7 360.989L178.096 345.886L119.571 476.101L220.383 521.411L175.074 622.223L170.873 620.335L214.295 523.724L113.483 478.414L175.783 339.797L209.387 354.9L237.706 291.893L204.102 276.79L215.524 251.376C213.208 249.71 211.593 247.243 210.993 244.454C210.393 241.664 210.849 238.752 212.275 236.28C213.7 233.808 215.992 231.954 218.707 231.076C221.422 230.199 224.366 230.36 226.968 231.53C229.571 232.7 231.646 234.794 232.792 237.407C233.938 240.02 234.073 242.965 233.171 245.672C232.269 248.378 230.394 250.654 227.909 252.057C225.425 253.459 222.508 253.89 219.724 253.264ZM-50.8263 -201.316C-52.4927 -199.001 -54.9597 -197.386 -57.749 -196.786C-60.5383 -196.185 -63.4511 -196.642 -65.9227 -198.067C-68.3944 -199.493 -70.2488 -201.785 -71.1264 -204.5C-72.004 -207.214 -71.8423 -210.158 -70.6727 -212.761C-69.503 -215.363 -67.4088 -217.439 -64.7959 -218.585C-62.1831 -219.731 -59.2378 -219.866 -56.531 -218.964C-53.8243 -218.061 -51.5489 -216.186 -50.1461 -213.702C-48.7432 -211.217 -48.3128 -208.301 -48.9384 -205.517L-27.7258 -195.983L-14.5105 -225.387L-48.1145 -240.49L-46.2266 -244.69L-8.42206 -227.699L-25.4132 -189.895L-50.8263 -201.316ZM154.196 -28.3857C152.529 -26.0699 150.062 -24.4552 147.273 -23.8549C144.484 -23.2546 141.571 -23.7114 139.099 -25.1367C136.628 -26.5619 134.773 -28.8542 133.896 -31.569C133.018 -34.2838 133.18 -37.2278 134.349 -39.8301C135.519 -42.4325 137.613 -44.5079 140.226 -45.6539C142.839 -46.7999 145.784 -46.935 148.491 -46.0329C151.198 -45.1307 153.473 -43.2556 154.876 -40.7712C156.279 -38.2868 156.709 -35.37 156.084 -32.5862L210.9 -7.9491L256.21 -108.761L361.223 -61.5637L359.335 -57.3632L258.523 -102.673L213.213 -1.86069L154.196 -28.3857ZM98.6932 -174.508C97.81 -173.28 96.6936 -172.239 95.4079 -171.442C94.1222 -170.646 92.6922 -170.111 91.1997 -169.868C89.7072 -169.625 88.1814 -169.677 86.7093 -170.024C85.2373 -170.37 83.8478 -171.003 82.6203 -171.886C81.3928 -172.769 80.3513 -173.885 79.5552 -175.171C78.7592 -176.457 78.2241 -177.887 77.9807 -179.379C77.489 -182.394 78.2149 -185.48 79.9986 -187.959L84.3462 -186.005C83.5849 -185.205 83.0265 -184.234 82.7178 -183.174C82.409 -182.114 82.3589 -180.995 82.5717 -179.912C82.7844 -178.828 83.2538 -177.811 83.9405 -176.947C84.6271 -176.082 85.5111 -175.394 86.5183 -174.942C87.5254 -174.489 88.6265 -174.285 89.729 -174.345C90.8315 -174.406 91.9035 -174.73 92.855 -175.29C93.8065 -175.85 94.6099 -176.63 95.1978 -177.565C95.7856 -178.5 96.1408 -179.562 96.2336 -180.662L226.806 -121.977L194.712 -50.568L156.907 -67.5591L168.329 -92.9722C166.013 -94.6387 164.399 -97.1057 163.798 -99.8949C163.198 -102.684 163.655 -105.597 165.08 -108.069C166.505 -110.54 168.798 -112.395 171.513 -113.272C174.227 -114.15 177.171 -113.988 179.774 -112.819C182.376 -111.649 184.451 -109.555 185.597 -106.942C186.744 -104.329 186.879 -101.384 185.976 -98.6769C185.074 -95.9702 183.199 -93.6948 180.715 -92.292C178.23 -90.8891 175.314 -90.4588 172.53 -91.0843L162.996 -69.8717L192.399 -56.6564L220.718 -119.664L98.6932 -174.508ZM8.07389 27.1168C6.40739 29.4327 3.94038 31.0473 1.1511 31.6476C-1.63817 32.2479 -4.55098 31.7911 -7.02261 30.3658C-9.49425 28.9406 -11.3487 26.6483 -12.2263 23.9335C-13.1039 21.2187 -12.9422 18.2747 -11.7725 15.6724C-10.6029 13.07 -8.50868 10.9946 -5.89582 9.84857C-3.28297 8.70255 -0.337659 8.56753 2.3691 9.46966C5.07584 10.3718 7.35122 12.2469 8.75407 14.7313C10.1569 17.2157 10.5873 20.1326 9.96179 22.9163L50.0766 40.9458L147.491 3.94409L229.401 40.7582L269.141 -47.6625C266.826 -49.329 265.211 -51.796 264.611 -54.5853C264.01 -57.3745 264.467 -60.2873 265.892 -62.759C267.318 -65.2306 269.61 -67.085 272.325 -67.9626C275.04 -68.8402 277.984 -68.6785 280.586 -67.5089C283.188 -66.3393 285.264 -64.245 286.41 -61.6322C287.556 -59.0193 287.691 -56.074 286.789 -53.3673C285.886 -50.6605 284.011 -48.3851 281.527 -46.9823C279.043 -45.5795 276.126 -45.1491 273.342 -45.7746L231.714 46.8466L147.347 8.92806L49.9319 45.9297L8.07389 27.1168ZM-17.959 242.875C-15.6432 244.541 -14.0286 247.008 -13.4283 249.797C-12.828 252.587 -13.2847 255.5 -14.71 257.971C-16.1352 260.443 -18.4275 262.297 -21.1423 263.175C-23.8571 264.052 -26.8011 263.891 -29.4034 262.721C-32.0058 261.552 -34.0812 259.457 -35.2272 256.844C-36.3733 254.232 -36.5083 251.286 -35.6062 248.579C-34.704 245.873 -32.8289 243.597 -30.3445 242.195C-27.8601 240.792 -24.9433 240.361 -22.1595 240.987L50.0622 80.2964L146.229 43.7688L247.902 89.4655L302.746 -32.5593C300.43 -34.2257 298.815 -36.6928 298.215 -39.482C297.614 -42.2713 298.071 -45.1841 299.496 -47.6557C300.922 -50.1274 303.214 -51.9818 305.929 -52.8594C308.644 -53.737 311.588 -53.5753 314.19 -52.4057C316.792 -51.2361 318.868 -49.1418 320.014 -46.529C321.16 -43.9161 321.295 -40.9708 320.393 -38.264C319.491 -35.5573 317.615 -33.2819 315.131 -31.8791C312.647 -30.4762 309.73 -30.0458 306.946 -30.6714L250.215 95.5539L146.063 48.7433L53.4887 83.9065L-17.959 242.875ZM-14.5614 325.186C-12.2456 326.853 -10.631 329.32 -10.0306 332.109C-9.43036 334.898 -9.8871 337.811 -11.3123 340.283C-12.7376 342.754 -15.0299 344.609 -17.7447 345.486C-20.4595 346.364 -23.4035 346.202 -26.0058 345.032C-28.6082 343.863 -30.6836 341.769 -31.8296 339.156C-32.9757 336.543 -33.1107 333.598 -32.2085 330.891C-31.3064 328.184 -29.4313 325.909 -26.9469 324.506C-24.4625 323.103 -21.5457 322.673 -18.7619 323.298L75.1707 114.302L150.028 85.8684L392.628 194.904C393.947 193.071 395.775 191.666 397.886 190.864C399.997 190.063 402.297 189.899 404.5 190.395L402.546 194.742C401.121 194.622 399.694 194.947 398.461 195.673C397.229 196.399 396.252 197.489 395.665 198.794C395.079 200.098 394.912 201.553 395.188 202.957C395.463 204.36 396.168 205.644 397.204 206.63L395.25 210.977C393.417 209.659 392.012 207.83 391.21 205.719C390.408 203.608 390.245 201.308 390.74 199.105L149.862 90.843L78.5972 117.912L-14.5614 325.186ZM-256.585 54.8408C-254.269 56.5073 -252.655 58.9743 -252.054 61.7635C-251.454 64.5528 -251.911 67.4656 -253.336 69.9373C-254.761 72.4089 -257.054 74.2633 -259.768 75.1409C-262.483 76.0185 -265.427 75.8568 -268.03 74.6872C-270.632 73.5176 -272.707 71.4233 -273.853 68.8105C-274.999 66.1976 -275.134 63.2523 -274.232 60.5455C-273.33 57.8388 -271.455 55.5634 -268.971 54.1606C-266.486 52.7577 -263.569 52.3274 -260.786 52.9529L-257.472 45.581L-111.35 -9.92153L-57.9322 -128.775L9.27589 -98.5685L54.5856 -199.381L58.7861 -197.493L11.5885 -92.48L-55.6196 -122.686L-107.924 -6.31141L-254.046 49.1911L-256.585 54.8408ZM-92.9051 -129.599L-133.976 -38.2167L-280.098 17.2858L-339.18 148.741L-284.364 173.378C-282.697 171.062 -280.23 169.447 -277.441 168.847C-274.652 168.247 -271.739 168.704 -269.267 170.129C-266.795 171.554 -264.941 173.846 -264.064 176.561C-263.186 179.276 -263.348 182.22 -264.517 184.822C-265.687 187.425 -267.781 189.5 -270.394 190.646C-273.007 191.792 -275.952 191.927 -278.659 191.025C-281.366 190.123 -283.641 188.248 -285.044 185.763C-286.447 183.279 -286.877 180.362 -286.252 177.578L-345.269 151.053L-283.525 13.6757L-137.403 -41.8268L-97.1056 -131.487C-99.4215 -133.153 -101.036 -135.62 -101.636 -138.409C-102.237 -141.199 -101.78 -144.111 -100.355 -146.583C-98.9294 -149.055 -96.6372 -150.909 -93.9224 -151.787C-91.2076 -152.664 -88.2636 -152.503 -85.6612 -151.333C-83.0588 -150.163 -80.9834 -148.069 -79.8374 -145.456C-78.6914 -142.843 -78.5563 -139.898 -79.4585 -137.191C-80.3606 -134.485 -82.2357 -132.209 -84.7201 -130.806C-87.2046 -129.404 -90.1214 -128.973 -92.9051 -129.599ZM-141.612 -111.098L-160.029 -70.1219L-263.532 -30.8076L-260.87 -36.7304L-163.455 -73.732L-145.813 -112.986C-148.129 -114.652 -149.743 -117.119 -150.344 -119.909C-150.944 -122.698 -150.487 -125.611 -149.062 -128.082C-147.637 -130.554 -145.344 -132.408 -142.63 -133.286C-139.915 -134.164 -136.971 -134.002 -134.369 -132.832C-131.766 -131.663 -129.691 -129.568 -128.545 -126.955C-127.399 -124.343 -127.264 -121.397 -128.166 -118.691C-129.068 -115.984 -130.943 -113.708 -133.427 -112.306C-135.912 -110.903 -138.829 -110.472 -141.612 -111.098ZM-151.832 -211.37C-150.166 -213.686 -147.699 -215.301 -144.909 -215.901C-142.12 -216.501 -139.207 -216.044 -136.736 -214.619C-134.264 -213.194 -132.41 -210.902 -131.532 -208.187C-130.654 -205.472 -130.816 -202.528 -131.986 -199.926C-133.155 -197.323 -135.25 -195.248 -137.863 -194.102C-140.475 -192.956 -143.421 -192.821 -146.127 -193.723C-148.834 -194.625 -151.11 -196.5 -152.512 -198.985C-153.915 -201.469 -154.346 -204.386 -153.72 -207.17L-159.37 -209.709L-188.016 -198.828L-185.363 -204.73L-159.204 -214.683L-151.832 -211.37ZM389.424 77.3369C387.758 79.6527 385.291 81.2673 382.501 81.8676C379.712 82.468 376.799 82.0112 374.328 80.5859C371.856 79.1606 370.002 76.8684 369.124 74.1536C368.246 71.4388 368.408 68.4948 369.578 65.8924C370.747 63.2901 372.842 61.2147 375.454 60.0686C378.067 58.9226 381.013 58.7876 383.719 59.6897C386.426 60.5919 388.702 62.4669 390.104 64.9514C391.507 67.4358 391.938 70.3526 391.312 73.1363L430.566 90.7788L453.123 82.2106L450.461 88.1333L430.4 95.7534L389.424 77.3369ZM204.788 398.274C203.121 400.59 200.654 402.205 197.865 402.805C195.076 403.405 192.163 402.949 189.691 401.523C187.22 400.098 185.365 397.806 184.488 395.091C183.61 392.376 183.772 389.432 184.941 386.83C186.111 384.227 188.205 382.152 190.818 381.006C193.431 379.86 196.376 379.725 199.083 380.627C201.79 381.529 204.065 383.404 205.468 385.889C206.871 388.373 207.301 391.29 206.676 394.074L261.492 418.711L328.9 268.732L377.607 250.231L374.945 256.154L332.326 272.342L263.805 424.799L204.788 398.274ZM-262.271 269.14C-263.938 271.456 -266.405 273.071 -269.194 273.671C-271.983 274.272 -274.896 273.815 -277.368 272.39C-279.84 270.964 -281.694 268.672 -282.572 265.957C-283.449 263.242 -283.287 260.298 -282.118 257.696C-280.948 255.094 -278.854 253.018 -276.241 251.872C-273.628 250.726 -270.683 250.591 -267.976 251.493C-265.269 252.395 -262.994 254.271 -261.591 256.755C-260.188 259.239 -259.758 262.156 -260.384 264.94L-239.171 274.474L-217.847 227.029L-244.916 155.764L-284.17 138.122C-285.836 140.438 -288.303 142.052 -291.093 142.653C-293.882 143.253 -296.795 142.796 -299.266 141.371C-301.738 139.946 -303.592 137.653 -304.47 134.939C-305.348 132.224 -305.186 129.28 -304.016 126.677C-302.847 124.075 -300.752 122 -298.14 120.854C-295.527 119.708 -292.581 119.573 -289.875 120.475C-287.168 121.377 -284.893 123.252 -283.49 125.736C-282.087 128.221 -281.656 131.138 -282.282 133.921L-241.306 152.338L-212.873 227.195L-236.858 280.562L-262.271 269.14ZM39.9714 440.326C41.6379 438.01 44.1049 436.395 46.8942 435.795C49.6834 435.194 52.5963 435.651 55.0679 437.076C57.5395 438.502 59.3939 440.794 60.2715 443.509C61.1491 446.224 60.9874 449.168 59.8178 451.77C58.6482 454.372 56.5539 456.448 53.9411 457.594C51.3282 458.74 48.3829 458.875 45.6762 457.973C42.9694 457.071 40.694 455.195 39.2912 452.711C37.8884 450.227 37.458 447.31 38.0835 444.526L-188.954 342.485L-135.526 223.61L-181.085 103.669L-220.359 86.0169C-222.026 88.3328 -224.493 89.9474 -227.282 90.5477C-230.071 91.148 -232.984 90.6912 -235.456 89.266C-237.927 87.8407 -239.782 85.5485 -240.659 82.8337C-241.537 80.1188 -241.375 77.1749 -240.206 74.5725C-239.036 71.9701 -236.942 69.8948 -234.329 68.7487C-231.716 67.6027 -228.771 67.4676 -226.064 68.3698C-223.357 69.2719 -221.082 71.147 -219.679 73.6314C-218.276 76.1159 -217.846 79.0327 -218.471 81.8164L-177.516 100.223L-130.571 223.818L-182.866 340.172L39.9714 440.326ZM-277.375 302.745C-279.041 305.06 -281.508 306.675 -284.297 307.275C-287.087 307.876 -289.999 307.419 -292.471 305.994C-294.943 304.568 -296.797 302.276 -297.675 299.561C-298.552 296.846 -298.391 293.902 -297.221 291.3C-296.051 288.698 -293.957 286.622 -291.344 285.476C-288.731 284.33 -285.786 284.195 -283.079 285.097C-280.373 286 -278.097 287.875 -276.694 290.359C-275.292 292.843 -274.861 295.76 -275.487 298.544L-220.67 323.181L-176.691 225.33L-213.011 129.712L-269.067 104.518C-270.733 106.834 -273.2 108.448 -275.989 109.049C-278.779 109.649 -281.691 109.192 -284.163 107.767C-286.635 106.342 -288.489 104.049 -289.367 101.335C-290.244 98.6197 -290.083 95.6757 -288.913 93.0734C-287.743 90.471 -285.649 88.3956 -283.036 87.2496C-280.423 86.1035 -277.478 85.9685 -274.771 86.8706C-272.065 87.7728 -269.789 89.6478 -268.386 92.1323C-266.984 94.6167 -266.553 97.5335 -267.179 100.317L-209.401 126.285L-171.717 225.496L-218.358 329.27L-277.375 302.745ZM-113.199 -174.316L-114.719 -170.934L-189.576 -142.501L-209.34 -151.383L-207.452 -155.584L-189.411 -147.475L-118.146 -174.544L-79.8307 -259.794L-75.6302 -257.906L-113.199 -174.316ZM-426.118 342.174C-424.285 343.493 -422.88 345.321 -422.078 347.432C-421.277 349.543 -421.113 351.843 -421.609 354.047L-425.956 352.093C-425.881 351.188 -425.984 350.277 -426.261 349.413C-426.538 348.548 -426.982 347.747 -427.569 347.054C-428.155 346.361 -428.873 345.791 -429.68 345.376C-430.487 344.96 -431.368 344.708 -432.273 344.634L-388.69 247.665L-350.886 264.656L-396.196 365.468L-400.396 363.58L-356.974 266.969L-386.378 253.753L-426.118 342.174ZM-303.123 248.256L-362.591 380.572L-366.792 378.684L-308.267 248.468L-375.475 218.261L-373.587 214.061L-302.179 246.155L-303.123 248.256ZM-128.326 -236.148L-164.03 -252.195L-162.142 -256.396L-128.538 -241.293L-113.435 -274.897L-109.234 -273.009L-126.225 -235.204L-128.326 -236.148ZM446.932 17.35L476.335 30.5654L474.447 34.7659L440.843 19.6626L457.834 -18.1419L462.035 -16.254L446.932 17.35ZM122.025 560.513L107.865 592.017L103.665 590.129L116.88 560.725L87.4767 547.51L74.2614 576.914L70.0608 575.026L85.1641 541.422L122.969 558.413L122.025 560.513ZM-233.977 -96.5666C-232.315 -96.1848 -230.759 -95.4401 -229.419 -94.3861C-228.079 -93.3321 -226.989 -91.9947 -226.227 -90.4698C-225.464 -88.945 -225.049 -87.2704 -225.01 -85.5661C-224.971 -83.8617 -225.309 -82.1698 -226.001 -80.6117C-226.7 -79.0541 -227.738 -77.6717 -229.037 -76.5646C-230.337 -75.4574 -231.867 -74.6532 -233.516 -74.2103C-235.165 -73.7673 -236.892 -73.6967 -238.572 -74.0035C-240.251 -74.3103 -241.842 -74.9868 -243.227 -75.9841L-241.274 -80.3316C-240.474 -79.5704 -239.503 -79.012 -238.443 -78.7033C-237.383 -78.3945 -236.264 -78.3444 -235.18 -78.5572C-234.097 -78.7699 -233.08 -79.2393 -232.215 -79.926C-231.351 -80.6126 -230.663 -81.4966 -230.21 -82.5038C-229.758 -83.5109 -229.553 -84.6119 -229.614 -85.7145C-229.674 -86.817 -229.998 -87.889 -230.559 -88.8405C-231.119 -89.792 -231.899 -90.5954 -232.834 -91.1832C-233.768 -91.7711 -234.83 -92.1263 -235.931 -92.2191L-233.977 -96.5666ZM-235.773 356.785L-231.573 358.673L-261.779 425.881L-265.98 423.993L-235.773 356.785ZM-186.38 459.769L-190.728 457.815C-190.607 456.39 -190.933 454.962 -191.658 453.73C-192.384 452.497 -193.475 451.52 -194.779 450.934C-196.084 450.347 -197.538 450.181 -198.942 450.456C-200.346 450.732 -201.629 451.436 -202.615 452.472L-206.963 450.518C-205.414 448.361 -203.167 446.806 -200.602 446.116C-198.037 445.426 -195.313 445.644 -192.891 446.732C-190.469 447.821 -188.497 449.714 -187.311 452.09C-186.124 454.466 -185.795 457.179 -186.38 459.769ZM-134.647 -284.431C-135.074 -282.58 -135.951 -280.863 -137.2 -279.431C-138.448 -278 -140.03 -276.898 -141.806 -276.224C-143.582 -275.549 -145.496 -275.323 -147.38 -275.564C-149.264 -275.806 -151.06 -276.508 -152.608 -277.609L-150.654 -281.956C-149.711 -281.054 -148.531 -280.438 -147.252 -280.178C-145.973 -279.919 -144.647 -280.027 -143.427 -280.491C-142.207 -280.954 -141.143 -281.754 -140.359 -282.797C-139.574 -283.84 -139.101 -285.084 -138.995 -286.385L-134.647 -284.431ZM483.247 -6.7201L487.595 -4.76613C486.968 -4.10977 486.476 -3.33627 486.148 -2.48983C485.821 -1.64341 485.663 -0.740626 485.684 0.166839C485.705 1.07433 485.905 1.96873 486.272 2.79895C486.639 3.62914 487.166 4.37889 487.823 5.00527L485.869 9.35279C484.641 8.46978 483.6 7.35353 482.803 6.06779C482.007 4.78206 481.472 3.35205 481.229 1.85947C480.985 0.366881 481.038 -1.15905 481.384 -2.63117C481.731 -4.10328 482.364 -5.49272 483.247 -6.7201ZM208.158 627.248L206.205 631.595C205.177 631.51 204.143 631.655 203.179 632.021C202.215 632.388 201.345 632.965 200.634 633.711L196.286 631.757C197.605 629.924 199.433 628.519 201.544 627.717C203.655 626.915 205.955 626.752 208.158 627.248ZM-37.7093 11.5887C-36.8819 11.9606 -35.9893 12.1659 -35.0826 12.1928C-34.1758 12.2197 -33.2726 12.0678 -32.4246 11.7457C-31.5765 11.4236 -30.8003 10.9376 -30.14 10.3154C-29.4798 9.6933 -28.9486 8.94723 -28.5767 8.1198C-28.2048 7.29238 -27.9996 6.39981 -27.9726 5.49305C-27.9457 4.58629 -28.0976 3.6831 -28.4197 2.83506C-28.7419 1.98701 -29.2279 1.21073 -29.85 0.550512C-30.4721 -0.109706 -31.2182 -0.640937 -32.0456 -1.01281C-33.7167 -1.76386 -35.6177 -1.82034 -37.3304 -1.16979C-39.0431 -0.519252 -40.4272 0.785034 -41.1782 2.45609C-41.9293 4.12716 -41.9858 6.02814 -41.3352 7.74084C-40.6847 9.45354 -39.3804 10.8377 -37.7093 11.5887ZM-22.6061 -22.0154C-20.9351 -21.2643 -19.0341 -21.2078 -17.3214 -21.8584C-15.6087 -22.5089 -14.2246 -23.8132 -13.4735 -25.4843C-12.7224 -27.1553 -12.666 -29.0563 -13.3165 -30.769C-13.9671 -32.4817 -15.2713 -33.8658 -16.9424 -34.6169C-18.6135 -35.3679 -20.5145 -35.4244 -22.2271 -34.7739C-23.9398 -34.1233 -25.324 -32.819 -26.075 -31.148C-26.8261 -29.4769 -26.8825 -27.5759 -26.232 -25.8632C-25.5815 -24.1505 -24.2772 -22.7664 -22.6061 -22.0154ZM-4.10527 26.6919C-3.27786 27.0638 -2.38528 27.2691 -1.47852 27.296C-0.571763 27.323 0.331429 27.171 1.17947 26.8489C2.0275 26.5268 2.80378 26.0408 3.46402 25.4187C4.12422 24.7965 4.65544 24.0505 5.02733 23.223C5.39921 22.3956 5.60447 21.503 5.63142 20.5963C5.65834 19.6895 5.50643 18.7863 5.18432 17.9383C4.86221 17.0902 4.37619 16.314 3.75406 15.6537C3.13193 14.9935 2.38585 14.4623 1.55844 14.0904C-0.112632 13.3394 -2.01361 13.2829 -3.72631 13.9334C-5.43901 14.584 -6.82313 15.8883 -7.57418 17.5593C-8.32523 19.2304 -8.38171 21.1314 -7.73116 22.8441C-7.08061 24.5568 -5.77634 25.9409 -4.10527 26.6919ZM14.3956 75.3992C16.0666 76.1503 17.9676 76.2067 19.6803 75.5562C21.393 74.9057 22.7771 73.6014 23.5282 71.9303C24.2792 70.2593 24.3357 68.3583 23.6852 66.6456C23.0346 64.9329 21.7303 63.5488 20.0593 62.7977C18.3882 62.0467 16.4872 61.9902 14.7745 62.6407C13.0618 63.2913 11.6777 64.5956 10.9267 66.2666C10.1756 67.9377 10.1191 69.8387 10.7697 71.5513C11.4202 73.264 12.7245 74.6482 14.3956 75.3992ZM-0.707651 109.003C0.963392 109.754 2.86439 109.811 4.57708 109.16C6.28976 108.51 7.67389 107.205 8.42493 105.534C9.17599 103.863 9.23246 101.962 8.58193 100.25C7.93139 98.5369 6.62709 97.1528 4.95605 96.4018C3.28498 95.6507 1.38401 95.5942 -0.328707 96.2448C-2.0414 96.8953 -3.42552 98.1996 -4.17657 99.8707C-4.92762 101.542 -4.9841 103.443 -4.33356 105.155C-3.68299 106.868 -2.37872 108.252 -0.707651 109.003ZM-131.726 130.902C-130.055 131.653 -128.154 131.709 -126.442 131.059C-124.729 130.408 -123.345 129.104 -122.594 127.433C-121.843 125.762 -121.786 123.861 -122.437 122.148C-123.087 120.435 -124.392 119.051 -126.063 118.3C-127.734 117.549 -129.635 117.493 -131.347 118.143C-133.06 118.794 -134.444 120.098 -135.195 121.769C-135.946 123.44 -136.003 125.341 -135.352 127.054C-134.702 128.767 -133.397 130.151 -131.726 130.902ZM-113.225 179.609C-111.554 180.36 -109.653 180.417 -107.941 179.766C-106.228 179.115 -104.844 177.811 -104.093 176.14C-103.342 174.469 -103.285 172.568 -103.936 170.855C-104.586 169.143 -105.891 167.759 -107.562 167.008C-109.233 166.256 -111.134 166.2 -112.846 166.851C-114.559 167.501 -115.943 168.805 -116.694 170.476C-117.445 172.147 -117.502 174.048 -116.851 175.761C-116.201 177.474 -114.897 178.858 -113.225 179.609ZM-91.327 310.628C-89.656 311.379 -87.755 311.435 -86.0423 310.785C-84.3296 310.134 -82.9455 308.83 -82.1944 307.159C-81.4434 305.488 -81.3869 303.587 -82.0374 301.874C-82.688 300.161 -83.9923 298.777 -85.6633 298.026C-87.3344 297.275 -89.2354 297.219 -90.9481 297.869C-92.6608 298.52 -94.0449 299.824 -94.7959 301.495C-95.547 303.166 -95.6035 305.067 -94.9529 306.78C-94.3023 308.492 -92.9981 309.877 -91.327 310.628ZM-140.034 329.129C-138.363 329.88 -136.462 329.936 -134.75 329.285C-133.037 328.635 -131.653 327.331 -130.902 325.66C-130.151 323.989 -130.094 322.088 -130.745 320.375C-131.395 318.662 -132.7 317.278 -134.371 316.527C-136.042 315.776 -137.943 315.719 -139.655 316.37C-141.368 317.021 -142.752 318.325 -143.503 319.996C-144.254 321.667 -144.311 323.568 -143.66 325.281C-143.01 326.993 -141.705 328.377 -140.034 329.129ZM-57.7229 325.731C-56.0519 326.482 -54.1509 326.538 -52.4382 325.888C-50.7255 325.237 -49.3414 323.933 -48.5903 322.262C-47.8393 320.591 -47.7828 318.69 -48.4334 316.977C-49.0839 315.265 -50.3882 313.88 -52.0592 313.129C-53.7303 312.378 -55.6313 312.322 -57.344 312.972C-59.0567 313.623 -60.4408 314.927 -61.1919 316.598C-61.9429 318.269 -61.9994 320.17 -61.3489 321.883C-60.6983 323.596 -59.394 324.98 -57.7229 325.731ZM-27.5165 258.523C-25.8454 259.274 -23.9444 259.33 -22.2318 258.68C-20.5191 258.029 -19.135 256.725 -18.3839 255.054C-17.6329 253.383 -17.5764 251.482 -18.2269 249.769C-18.8774 248.056 -20.1817 246.672 -21.8528 245.921C-23.5239 245.17 -25.4248 245.114 -27.1375 245.764C-28.8502 246.415 -30.2344 247.719 -30.9854 249.39C-31.7365 251.061 -31.7929 252.962 -31.1424 254.675C-30.4918 256.388 -29.1876 257.772 -27.5165 258.523ZM-24.1189 340.834C-22.4478 341.585 -20.5468 341.642 -18.8342 340.991C-17.1215 340.341 -15.7373 339.036 -14.9863 337.365C-14.2352 335.694 -14.1788 333.793 -14.8293 332.08C-15.4798 330.368 -16.7841 328.984 -18.4552 328.233C-20.1262 327.482 -22.0272 327.425 -23.7399 328.076C-25.4526 328.726 -26.8367 330.03 -27.5878 331.701C-28.3388 333.373 -28.3953 335.274 -27.7448 336.986C-27.0942 338.699 -25.7899 340.083 -24.1189 340.834ZM27.986 404.645C29.6571 405.396 31.5581 405.452 33.2708 404.802C34.9834 404.151 36.3676 402.847 37.1186 401.176C37.8697 399.505 37.9261 397.604 37.2756 395.891C36.6251 394.178 35.3208 392.794 33.6497 392.043C31.9787 391.292 30.0777 391.236 28.365 391.886C26.6523 392.537 25.2682 393.841 24.5171 395.512C23.7661 397.183 23.7096 399.084 24.3601 400.797C25.0107 402.509 26.315 403.894 27.986 404.645ZM43.0892 371.041C44.7603 371.792 46.6613 371.848 48.374 371.198C50.0867 370.547 51.4708 369.243 52.2218 367.572C52.9729 365.901 53.0294 364 52.3788 362.287C51.7283 360.574 50.424 359.19 48.7529 358.439C47.0819 357.688 45.1809 357.632 43.4682 358.282C41.7555 358.933 40.3714 360.237 39.6203 361.908C38.8693 363.579 38.8128 365.48 39.4633 367.193C40.1139 368.905 41.4182 370.29 43.0892 371.041ZM69.8981 221.521C71.5691 222.272 73.4701 222.329 75.1828 221.678C76.8955 221.028 78.2796 219.723 79.0307 218.052C79.7817 216.381 79.8382 214.48 79.1877 212.767C78.5371 211.055 77.2328 209.671 75.5618 208.92C73.8907 208.169 71.9897 208.112 70.277 208.763C68.5643 209.413 67.1802 210.717 66.4292 212.388C65.6781 214.06 65.6216 215.961 66.2722 217.673C66.9227 219.386 68.227 220.77 69.8981 221.521ZM103.502 236.624C105.173 237.375 107.074 237.432 108.787 236.781C110.5 236.131 111.884 234.826 112.635 233.155C113.386 231.484 113.442 229.583 112.792 227.871C112.141 226.158 110.837 224.774 109.166 224.023C107.495 223.272 105.594 223.215 103.881 223.866C102.168 224.516 100.784 225.821 100.033 227.492C99.2822 229.163 99.2257 231.064 99.8762 232.776C100.527 234.489 101.831 235.873 103.502 236.624ZM46.4869 453.352C48.1579 454.103 50.0589 454.159 51.7716 453.509C53.4843 452.858 54.8684 451.554 55.6195 449.883C56.3705 448.212 56.427 446.311 55.7764 444.598C55.1259 442.886 53.8216 441.501 52.1506 440.75C50.4795 439.999 48.5785 439.943 46.8658 440.593C45.1531 441.244 43.769 442.548 43.018 444.219C42.2669 445.89 42.2104 447.791 42.861 449.504C43.5115 451.217 44.8158 452.601 46.4869 453.352ZM31.3836 486.956C33.0547 487.707 34.9557 487.764 36.6684 487.113C38.3811 486.462 39.7652 485.158 40.5162 483.487C41.2673 481.816 41.3237 479.915 40.6732 478.202C40.0227 476.49 38.7184 475.105 37.0473 474.354C35.3763 473.603 33.4753 473.547 31.7626 474.198C30.0499 474.848 28.6658 476.152 27.9147 477.823C27.1637 479.494 27.1072 481.395 27.7577 483.108C28.4083 484.821 29.7126 486.205 31.3836 486.956ZM49.8844 535.663C51.5555 536.414 53.4565 536.471 55.1692 535.82C56.8819 535.17 58.266 533.865 59.0171 532.194C59.7681 530.523 59.8246 528.622 59.174 526.91C58.5235 525.197 57.2192 523.813 55.5482 523.062C53.8771 522.311 51.9761 522.254 50.2634 522.905C48.5507 523.555 47.1666 524.86 46.4156 526.531C45.6645 528.202 45.608 530.103 46.2586 531.815C46.9091 533.528 48.2134 534.912 49.8844 535.663ZM219.418 248.33C221.089 249.081 222.99 249.137 224.702 248.487C226.415 247.836 227.799 246.532 228.55 244.861C229.301 243.19 229.358 241.289 228.707 239.576C228.057 237.864 226.752 236.479 225.081 235.728C223.41 234.977 221.509 234.921 219.797 235.571C218.084 236.222 216.7 237.526 215.949 239.197C215.198 240.868 215.141 242.769 215.792 244.482C216.442 246.195 217.746 247.579 219.418 248.33ZM189.211 315.538C190.882 316.289 192.783 316.346 194.496 315.695C196.209 315.045 197.593 313.74 198.344 312.069C199.095 310.398 199.151 308.497 198.501 306.784C197.85 305.072 196.546 303.688 194.875 302.937C193.204 302.185 191.303 302.129 189.59 302.78C187.877 303.43 186.493 304.734 185.742 306.405C184.991 308.076 184.935 309.977 185.585 311.69C186.236 313.403 187.54 314.787 189.211 315.538ZM253.022 263.433C254.693 264.184 256.594 264.241 258.306 263.59C260.019 262.94 261.403 261.635 262.154 259.964C262.905 258.293 262.962 256.392 262.311 254.679C261.661 252.967 260.356 251.583 258.685 250.832C257.014 250.081 255.113 250.024 253.401 250.675C251.688 251.325 250.304 252.629 249.553 254.301C248.802 255.972 248.745 257.873 249.396 259.585C250.046 261.298 251.351 262.682 253.022 263.433ZM301.729 244.932C303.4 245.683 305.301 245.74 307.014 245.089C308.726 244.439 310.11 243.134 310.862 241.463C311.613 239.792 311.669 237.891 311.018 236.179C310.368 234.466 309.064 233.082 307.393 232.331C305.722 231.58 303.821 231.523 302.108 232.174C300.395 232.824 299.011 234.129 298.26 235.8C297.509 237.471 297.453 239.372 298.103 241.084C298.754 242.797 300.058 244.181 301.729 244.932ZM100.105 154.313C101.776 155.064 103.677 155.12 105.389 154.47C107.102 153.819 108.486 152.515 109.237 150.844C109.988 149.173 110.045 147.272 109.394 145.559C108.744 143.847 107.439 142.462 105.768 141.711C104.097 140.96 102.196 140.904 100.483 141.554C98.7708 142.205 97.3867 143.509 96.6356 145.18C95.8846 146.851 95.8281 148.752 96.4786 150.465C97.1292 152.178 98.4335 153.562 100.105 154.313ZM85.0013 187.917C86.6724 188.668 88.5734 188.725 90.286 188.074C91.9987 187.423 93.3829 186.119 94.1339 184.448C94.885 182.777 94.9414 180.876 94.2909 179.163C93.6404 177.451 92.3361 176.067 90.665 175.316C88.9939 174.564 87.093 174.508 85.3803 175.159C83.6676 175.809 82.2835 177.113 81.5324 178.784C80.7813 180.455 80.7249 182.356 81.3754 184.069C82.026 185.782 83.3302 187.166 85.0013 187.917ZM148.812 135.812C150.483 136.563 152.384 136.62 154.097 135.969C155.809 135.319 157.193 134.014 157.944 132.343C158.695 130.672 158.752 128.771 158.101 127.058C157.451 125.346 156.147 123.962 154.476 123.211C152.804 122.46 150.903 122.403 149.191 123.054C147.478 123.704 146.094 125.008 145.343 126.68C144.592 128.351 144.535 130.252 145.186 131.964C145.836 133.677 147.141 135.061 148.812 135.812ZM350.436 226.431C352.107 227.183 354.008 227.239 355.721 226.588C357.434 225.938 358.818 224.634 359.569 222.963C360.32 221.292 360.376 219.391 359.726 217.678C359.075 215.965 357.771 214.581 356.1 213.83C354.429 213.079 352.528 213.022 350.815 213.673C349.102 214.324 347.718 215.628 346.967 217.299C346.216 218.97 346.16 220.871 346.81 222.584C347.461 224.296 348.765 225.68 350.436 226.431ZM377.245 76.912C378.916 77.6631 380.817 77.7195 382.53 77.069C384.242 76.4184 385.627 75.1142 386.378 73.4431C387.129 71.772 387.185 69.8711 386.535 68.1583C385.884 66.4456 384.58 65.0615 382.909 64.3105C381.238 63.5594 379.337 63.503 377.624 64.1535C375.911 64.8041 374.527 66.1083 373.776 67.7794C373.025 69.4504 372.969 71.3514 373.619 73.0641C374.27 74.7768 375.574 76.1609 377.245 76.912ZM425.952 58.4112C427.623 59.1622 429.524 59.2187 431.237 58.5681C432.95 57.9176 434.334 56.6133 435.085 54.9422C435.836 53.2712 435.892 51.3702 435.242 49.6575C434.591 47.9448 433.287 46.5607 431.616 45.8096C429.945 45.0586 428.044 45.0021 426.331 45.6527C424.619 46.3032 423.234 47.6075 422.483 49.2785C421.732 50.9496 421.676 52.8506 422.326 54.5633C422.977 56.276 424.281 57.6601 425.952 58.4112ZM358.744 28.2047C360.415 28.9558 362.316 29.0122 364.029 28.3617C365.742 27.7111 367.126 26.4069 367.877 24.7358C368.628 23.0647 368.684 21.1638 368.034 19.451C367.383 17.7383 366.079 16.3542 364.408 15.6032C362.737 14.8521 360.836 14.7957 359.123 15.4462C357.41 16.0967 356.026 17.401 355.275 19.0721C354.524 20.7432 354.468 22.6441 355.118 24.3568C355.769 26.0695 357.073 27.4536 358.744 28.2047ZM373.847 -5.39936C375.518 -4.6483 377.419 -4.59185 379.132 -5.2424C380.845 -5.89293 382.229 -7.1972 382.98 -8.86826C383.731 -10.5393 383.788 -12.4403 383.137 -14.153C382.486 -15.8657 381.182 -17.2498 379.511 -18.0009C377.84 -18.7519 375.939 -18.8084 374.226 -18.1578C372.514 -17.5073 371.13 -16.203 370.378 -14.532C369.627 -12.8609 369.571 -10.9599 370.222 -9.24722C370.872 -7.53453 372.176 -6.15042 373.847 -5.39936ZM340.243 -20.5026C341.914 -19.7515 343.815 -19.6951 345.528 -20.3456C347.241 -20.9962 348.625 -22.3004 349.376 -23.9715C350.127 -25.6426 350.183 -27.5435 349.533 -29.2562C348.882 -30.9689 347.578 -32.3531 345.907 -33.1041C344.236 -33.8552 342.335 -33.9116 340.622 -33.2611C338.91 -32.6105 337.525 -31.3063 336.774 -29.6352C336.023 -27.9641 335.967 -26.0632 336.617 -24.3504C337.268 -22.6378 338.572 -21.2536 340.243 -20.5026ZM306.639 -35.6058C308.31 -34.8548 310.211 -34.7983 311.924 -35.4488C313.637 -36.0994 315.021 -37.4037 315.772 -39.0747C316.523 -40.7458 316.579 -42.6468 315.929 -44.3595C315.278 -46.0721 313.974 -47.4563 312.303 -48.2073C310.632 -48.9584 308.731 -49.0148 307.018 -48.3643C305.306 -47.7138 303.921 -46.4095 303.17 -44.7384C302.419 -43.0674 302.363 -41.1664 303.013 -39.4537C303.664 -37.741 304.968 -36.3569 306.639 -35.6058ZM273.035 -50.709C274.706 -49.958 276.607 -49.9015 278.32 -50.5521C280.033 -51.2026 281.417 -52.5069 282.168 -54.1779C282.919 -55.849 282.975 -57.75 282.325 -59.4627C281.674 -61.1754 280.37 -62.5595 278.699 -63.3105C277.028 -64.0616 275.127 -64.1181 273.414 -63.4675C271.702 -62.817 270.317 -61.5127 269.566 -59.8416C268.815 -58.1706 268.759 -56.2696 269.409 -54.5569C270.06 -52.8442 271.364 -51.4601 273.035 -50.709ZM-78.1086 -168.137C-76.4376 -167.386 -74.5366 -167.33 -72.8239 -167.98C-71.1112 -168.631 -69.7271 -169.935 -68.976 -171.606C-68.225 -173.277 -68.1685 -175.178 -68.819 -176.891C-69.4696 -178.604 -70.7739 -179.988 -72.4449 -180.739C-74.116 -181.49 -76.017 -181.546 -77.7297 -180.896C-79.4424 -180.245 -80.8265 -178.941 -81.5775 -177.27C-82.3286 -175.599 -82.3851 -173.698 -81.7345 -171.985C-81.084 -170.272 -79.7797 -168.888 -78.1086 -168.137ZM-145.317 -198.344C-143.646 -197.593 -141.745 -197.536 -140.032 -198.187C-138.319 -198.837 -136.935 -200.142 -136.184 -201.813C-135.433 -203.484 -135.377 -205.385 -136.027 -207.097C-136.678 -208.81 -137.982 -210.194 -139.653 -210.945C-141.324 -211.696 -143.225 -211.753 -144.938 -211.102C-146.65 -210.452 -148.035 -209.147 -148.786 -207.476C-149.537 -205.805 -149.593 -203.904 -148.943 -202.192C-148.292 -200.479 -146.988 -199.095 -145.317 -198.344ZM-93.2119 -134.533C-91.5408 -133.782 -89.6398 -133.726 -87.9271 -134.376C-86.2144 -135.027 -84.8303 -136.331 -84.0792 -138.002C-83.3282 -139.673 -83.2717 -141.574 -83.9223 -143.287C-84.5728 -145 -85.8771 -146.384 -87.5482 -147.135C-89.2192 -147.886 -91.1202 -147.942 -92.8329 -147.292C-94.5456 -146.641 -95.9297 -145.337 -96.6808 -143.666C-97.4318 -141.995 -97.4883 -140.094 -96.8377 -138.381C-96.1872 -136.668 -94.8829 -135.284 -93.2119 -134.533ZM-141.919 -116.032C-140.248 -115.281 -138.347 -115.225 -136.634 -115.875C-134.922 -116.526 -133.538 -117.83 -132.787 -119.501C-132.035 -121.172 -131.979 -123.073 -132.63 -124.786C-133.28 -126.499 -134.584 -127.883 -136.255 -128.634C-137.927 -129.385 -139.827 -129.441 -141.54 -128.791C-143.253 -128.14 -144.637 -126.836 -145.388 -125.165C-146.139 -123.494 -146.196 -121.593 -145.545 -119.88C-144.894 -118.167 -143.59 -116.783 -141.919 -116.032ZM-63.0054 -201.741C-61.3343 -200.99 -59.4334 -200.934 -57.7207 -201.584C-56.008 -202.235 -54.6238 -203.539 -53.8728 -205.21C-53.1217 -206.881 -53.0653 -208.782 -53.7158 -210.495C-54.3664 -212.208 -55.6706 -213.592 -57.3417 -214.343C-59.0128 -215.094 -60.9137 -215.15 -62.6264 -214.5C-64.3391 -213.849 -65.7233 -212.545 -66.4743 -210.874C-67.2254 -209.203 -67.2818 -207.302 -66.6313 -205.589C-65.9807 -203.876 -64.6765 -202.492 -63.0054 -201.741ZM-289.554 302.32C-287.883 303.071 -285.982 303.127 -284.269 302.477C-282.556 301.826 -281.172 300.522 -280.421 298.851C-279.67 297.18 -279.614 295.279 -280.264 293.566C-280.915 291.853 -282.219 290.469 -283.89 289.718C-285.561 288.967 -287.462 288.911 -289.175 289.561C-290.888 290.212 -292.272 291.516 -293.023 293.187C-293.774 294.858 -293.83 296.759 -293.18 298.472C-292.529 300.184 -291.225 301.569 -289.554 302.32ZM-286.156 384.631C-284.485 385.382 -282.584 385.439 -280.871 384.788C-279.159 384.137 -277.775 382.833 -277.024 381.162C-276.273 379.491 -276.216 377.59 -276.867 375.877C-277.517 374.165 -278.821 372.781 -280.492 372.029C-282.164 371.278 -284.065 371.222 -285.777 371.873C-287.49 372.523 -288.874 373.827 -289.625 375.498C-290.376 377.169 -290.433 379.07 -289.782 380.783C-289.132 382.496 -287.827 383.88 -286.156 384.631ZM-259.347 235.112C-257.676 235.863 -255.775 235.919 -254.063 235.269C-252.35 234.618 -250.966 233.314 -250.215 231.643C-249.464 229.972 -249.407 228.071 -250.058 226.358C-250.708 224.645 -252.013 223.261 -253.684 222.51C-255.355 221.759 -257.256 221.702 -258.968 222.353C-260.681 223.004 -262.065 224.308 -262.816 225.979C-263.567 227.65 -263.624 229.551 -262.973 231.264C-262.323 232.976 -261.018 234.36 -259.347 235.112ZM-274.451 268.716C-272.779 269.467 -270.879 269.523 -269.166 268.873C-267.453 268.222 -266.069 266.918 -265.318 265.247C-264.567 263.576 -264.51 261.675 -265.161 259.962C-265.812 258.249 -267.116 256.865 -268.787 256.114C-270.458 255.363 -272.359 255.307 -274.072 255.957C-275.784 256.608 -277.168 257.912 -277.919 259.583C-278.671 261.254 -278.727 263.155 -278.076 264.868C-277.426 266.58 -276.122 267.965 -274.451 268.716ZM-277.848 186.404C-276.177 187.155 -274.276 187.212 -272.563 186.561C-270.851 185.911 -269.467 184.606 -268.716 182.935C-267.965 181.264 -267.908 179.363 -268.559 177.651C-269.209 175.938 -270.513 174.554 -272.184 173.803C-273.856 173.052 -275.757 172.995 -277.469 173.646C-279.182 174.296 -280.566 175.601 -281.317 177.272C-282.068 178.943 -282.125 180.844 -281.474 182.556C-280.824 184.269 -279.519 185.653 -277.848 186.404ZM56.3076 -107.724C57.9787 -106.973 59.8797 -106.917 61.5924 -107.567C63.3051 -108.218 64.6892 -109.522 65.4402 -111.193C66.1913 -112.864 66.2478 -114.765 65.5972 -116.478C64.9467 -118.191 63.6424 -119.575 61.9713 -120.326C60.3003 -121.077 58.3993 -121.133 56.6866 -120.483C54.9739 -119.832 53.5898 -118.528 52.8387 -116.857C52.0877 -115.186 52.0312 -113.285 52.6817 -111.572C53.3323 -109.859 54.6366 -108.475 56.3076 -107.724ZM89.9117 -92.6211C91.5827 -91.87 93.4838 -91.8136 95.1964 -92.4641C96.9091 -93.1147 98.2932 -94.4189 99.0443 -96.09C99.7953 -97.7611 99.8518 -99.6621 99.2013 -101.375C98.5507 -103.087 97.2465 -104.472 95.5754 -105.223C93.9043 -105.974 92.0034 -106.03 90.2906 -105.38C88.578 -104.729 87.1938 -103.425 86.4428 -101.754C85.6917 -100.083 85.6353 -98.1817 86.2858 -96.469C86.9364 -94.7563 88.2406 -93.3721 89.9117 -92.6211ZM71.4109 -141.328C73.0819 -140.577 74.9829 -140.521 76.6956 -141.171C78.4083 -141.822 79.7924 -143.126 80.5435 -144.797C81.2945 -146.468 81.351 -148.369 80.7004 -150.082C80.0499 -151.795 78.7456 -153.179 77.0746 -153.93C75.4035 -154.681 73.5025 -154.737 71.7898 -154.087C70.0771 -153.436 68.693 -152.132 67.942 -150.461C67.1909 -148.79 67.1344 -146.889 67.785 -145.176C68.4355 -143.464 69.7398 -142.079 71.4109 -141.328ZM93.3093 -10.3097C94.9804 -9.55869 96.8814 -9.50221 98.594 -10.1528C100.307 -10.8033 101.691 -12.1076 102.442 -13.7787C103.193 -15.4497 103.249 -17.3507 102.599 -19.0634C101.948 -20.7761 100.644 -22.1602 98.973 -22.9113C97.3019 -23.6623 95.401 -23.7188 93.6883 -23.0682C91.9756 -22.4177 90.5915 -21.1134 89.8404 -19.4424C89.0893 -17.7713 89.0329 -15.8703 89.6834 -14.1576C90.334 -12.4449 91.6382 -11.0608 93.3093 -10.3097ZM142.017 -28.8106C143.688 -28.0595 145.589 -28.0031 147.301 -28.6536C149.014 -29.3042 150.398 -30.6084 151.149 -32.2795C151.9 -33.9506 151.957 -35.8515 151.306 -37.5642C150.656 -39.2769 149.351 -40.6611 147.68 -41.4121C146.009 -42.1632 144.108 -42.2196 142.396 -41.5691C140.683 -40.9185 139.299 -39.6143 138.548 -37.9432C137.797 -36.2721 137.74 -34.3712 138.391 -32.6585C139.041 -30.9458 140.346 -29.5616 142.017 -28.8106ZM172.223 -96.0187C173.894 -95.2677 175.795 -95.2112 177.508 -95.8617C179.22 -96.5123 180.605 -97.8166 181.356 -99.4876C182.107 -101.159 182.163 -103.06 181.513 -104.772C180.862 -106.485 179.558 -107.869 177.887 -108.62C176.216 -109.371 174.315 -109.428 172.602 -108.777C170.889 -108.127 169.505 -106.822 168.754 -105.151C168.003 -103.48 167.947 -101.579 168.597 -99.8666C169.248 -98.1539 170.552 -96.7698 172.223 -96.0187ZM241.316 379.349C242.987 380.1 244.888 380.156 246.601 379.506C248.313 378.855 249.698 377.551 250.449 375.88C251.2 374.209 251.256 372.308 250.606 370.595C249.955 368.882 248.651 367.498 246.98 366.747C245.309 365.996 243.408 365.94 241.695 366.59C239.982 367.241 238.598 368.545 237.847 370.216C237.096 371.887 237.04 373.788 237.69 375.501C238.341 377.213 239.645 378.598 241.316 379.349ZM192.609 397.849C194.28 398.6 196.181 398.657 197.893 398.006C199.606 397.356 200.99 396.052 201.741 394.381C202.492 392.709 202.549 390.808 201.898 389.096C201.248 387.383 199.943 385.999 198.272 385.248C196.601 384.497 194.7 384.44 192.988 385.091C191.275 385.741 189.891 387.046 189.14 388.717C188.389 390.388 188.332 392.289 188.983 394.002C189.633 395.714 190.938 397.098 192.609 397.849ZM177.505 431.453C179.177 432.205 181.077 432.261 182.79 431.61C184.503 430.96 185.887 429.656 186.638 427.985C187.389 426.313 187.446 424.413 186.795 422.7C186.144 420.987 184.84 419.603 183.169 418.852C181.498 418.101 179.597 418.044 177.884 418.695C176.172 419.346 174.788 420.65 174.037 422.321C173.286 423.992 173.229 425.893 173.88 427.606C174.53 429.318 175.834 430.702 177.505 431.453ZM162.402 465.058C164.073 465.809 165.974 465.865 167.687 465.215C169.4 464.564 170.784 463.26 171.535 461.589C172.286 459.918 172.342 458.017 171.692 456.304C171.041 454.591 169.737 453.207 168.066 452.456C166.395 451.705 164.494 451.648 162.781 452.299C161.068 452.95 159.684 454.254 158.933 455.925C158.182 457.596 158.126 459.497 158.776 461.21C159.427 462.922 160.731 464.306 162.402 465.058ZM-281.246 104.093C-279.575 104.844 -277.674 104.9 -275.961 104.25C-274.248 103.599 -272.864 102.295 -272.113 100.624C-271.362 98.9529 -271.306 97.052 -271.956 95.3392C-272.607 93.6265 -273.911 92.2424 -275.582 91.4914C-277.253 90.7403 -279.154 90.6839 -280.867 91.3344C-282.58 91.985 -283.964 93.2892 -284.715 94.9603C-285.466 96.6313 -285.522 98.5323 -284.872 100.245C-284.221 101.958 -282.917 103.342 -281.246 104.093ZM-296.349 137.697C-294.678 138.448 -292.777 138.504 -291.064 137.854C-289.352 137.203 -287.967 135.899 -287.216 134.228C-286.465 132.557 -286.409 130.656 -287.059 128.943C-287.71 127.231 -289.014 125.846 -290.685 125.095C-292.356 124.344 -294.257 124.288 -295.97 124.938C-297.683 125.589 -299.067 126.893 -299.818 128.564C-300.569 130.235 -300.625 132.136 -299.975 133.849C-299.324 135.562 -298.02 136.946 -296.349 137.697ZM-266.143 70.4888C-264.471 71.2399 -262.571 71.2963 -260.858 70.6458C-259.145 69.9953 -257.761 68.691 -257.01 67.0199C-256.259 65.3489 -256.202 63.4479 -256.853 61.7352C-257.504 60.0225 -258.808 58.6384 -260.479 57.8873C-262.15 57.1363 -264.051 57.0798 -265.764 57.7303C-267.476 58.3809 -268.86 59.6852 -269.611 61.3562C-270.363 63.0273 -270.419 64.9283 -269.768 66.641C-269.118 68.3537 -267.814 69.7378 -266.143 70.4888ZM-232.539 85.592C-230.867 86.3431 -228.966 86.3996 -227.254 85.749C-225.541 85.0985 -224.157 83.7942 -223.406 82.1232C-222.655 80.4521 -222.598 78.5511 -223.249 76.8384C-223.899 75.1257 -225.204 73.7416 -226.875 72.9905C-228.546 72.2395 -230.447 72.183 -232.16 72.8336C-233.872 73.4841 -235.256 74.7884 -236.007 76.4595C-236.758 78.1305 -236.815 80.0315 -236.164 81.7442C-235.514 83.4569 -234.21 84.841 -232.539 85.592ZM-190.626 -97.5315C-188.955 -96.7804 -187.054 -96.724 -185.342 -97.3745C-183.629 -98.0251 -182.245 -99.3293 -181.494 -101C-180.743 -102.671 -180.686 -104.572 -181.337 -106.285C-181.987 -107.998 -183.292 -109.382 -184.963 -110.133C-186.634 -110.884 -188.535 -110.941 -190.247 -110.29C-191.96 -109.639 -193.344 -108.335 -194.095 -106.664C-194.846 -104.993 -194.903 -103.092 -194.252 -101.379C-193.602 -99.6667 -192.298 -98.2825 -190.626 -97.5315ZM-183.831 67.0912C-182.16 67.8423 -180.259 67.8987 -178.546 67.2482C-176.834 66.5977 -175.45 65.2934 -174.699 63.6223C-173.948 61.9513 -173.891 60.0503 -174.542 58.3376C-175.192 56.6249 -176.496 55.2408 -178.168 54.4897C-179.839 53.7386 -181.74 53.6822 -183.452 54.3327C-185.165 54.9833 -186.549 56.2875 -187.3 57.9586C-188.051 59.6297 -188.108 61.5307 -187.457 63.2434C-186.807 64.956 -185.502 66.3402 -183.831 67.0912ZM-135.124 48.5904C-133.453 49.3414 -131.552 49.3979 -129.839 48.7474C-128.126 48.0968 -126.742 46.7925 -125.991 45.1215C-125.24 43.4504 -125.184 41.5494 -125.834 39.8367C-126.485 38.124 -127.789 36.7399 -129.46 35.9889C-131.131 35.2378 -133.032 35.1813 -134.745 35.8319C-136.458 36.4824 -137.842 37.7867 -138.593 39.4578C-139.344 41.1288 -139.4 43.0298 -138.75 44.7425C-138.099 46.4552 -136.795 47.8393 -135.124 48.5904Z" fill="#eaa39c" fill-opacity="0.4"/>
</g>
<defs>
<clipPath id="clip0_6840_420">
<rect width="700" height="700" fill="white" transform="translate(-146.77 -290) rotate(24.2014)"/>
</clipPath>
</defs>
</svg>
