<?xml version="1.0" encoding="UTF-8"?>
<svg id="Layer_1" xmlns="http://www.w3.org/2000/svg" xmlns:xlink="http://www.w3.org/1999/xlink" version="1.1" viewBox="0 0 492 436">
  <!-- Generator: Adobe Illustrator 30.1.0, SVG Export Plug-In . SVG Version: 2.1.1 Build 136)  -->
  <defs>
    <style>
      .st0 {
        fill: url(#linear-gradient);
        isolation: isolate;
        opacity: .6;
      }
    </style>
    <linearGradient id="linear-gradient" x1="98.93" y1="194.86" x2="762.68" y2="194.86" gradientTransform="translate(377.26 517.26) rotate(-155.41)" gradientUnits="userSpaceOnUse">
      <stop offset="0" stop-color="#fff" stop-opacity="0"/>
      <stop offset="1" stop-color="#fff" stop-opacity=".5"/>
    </linearGradient>
  </defs>
  <path class="st0" d="M216.12,400.25c.6-2.61.2-5.36-1.12-7.7s-3.47-4.13-6.03-5.01c-2.56-.88-5.35-.78-7.82.27-2.48,1.05-4.46,2.98-5.58,5.41s-1.27,5.2-.45,7.76c.82,2.56,2.57,4.73,4.91,6.1s5.09,1.82,7.73,1.29c2.64-.54,4.98-2.03,6.56-4.19l87.55,40.07,1.8-3.93-87.55-40.07ZM-144.68,349.14c.6-2.61.2-5.36-1.12-7.7-1.32-2.35-3.47-4.13-6.03-5.01-2.56-.88-5.35-.78-7.82.27-2.48,1.05-4.46,2.98-5.58,5.41s-1.27,5.2-.45,7.76c.82,2.56,2.57,4.73,4.91,6.1,2.34,1.36,5.09,1.82,7.73,1.29,2.64-.54,4.98-2.03,6.56-4.19l242.41,110.94,1.8-3.93-242.41-110.94ZM-218.09,206.27c-.6,2.61-.2,5.36,1.12,7.7,1.32,2.35,3.47,4.13,6.03,5.01,2.56.88,5.35.78,7.82-.27,2.48-1.05,4.47-2.98,5.58-5.41s1.27-5.2.45-7.76c-.82-2.56-2.57-4.73-4.91-6.1-2.34-1.37-5.1-1.83-7.74-1.29-2.64.54-4.98,2.03-6.56,4.19l-83.58-38.25-1.8,3.93,83.58,38.25ZM-232.47,237.7c-.6,2.61-.2,5.36,1.12,7.7,1.32,2.35,3.47,4.13,6.03,5.01,2.56.88,5.35.78,7.82-.27,2.48-1.05,4.47-2.98,5.58-5.41s1.27-5.2.45-7.76c-.82-2.56-2.57-4.73-4.91-6.1-2.34-1.37-5.1-1.83-7.74-1.29-2.64.54-4.98,2.03-6.56,4.19l-83.58-38.25-1.8,3.93,83.58,38.25ZM-142.31,8.17c.6-2.61.2-5.36-1.12-7.7-1.32-2.35-3.47-4.13-6.03-5.01-2.56-.88-5.35-.78-7.82.27-2.48,1.05-4.47,2.98-5.58,5.41s-1.27,5.2-.45,7.76c.82,2.56,2.57,4.73,4.91,6.1,2.34,1.37,5.1,1.83,7.74,1.29,2.64-.54,4.98-2.03,6.56-4.19L27.03,90.42c-.6,2.61-.2,5.36,1.12,7.7,1.32,2.35,3.47,4.13,6.03,5.01,2.56.88,5.35.78,7.82-.27,2.48-1.05,4.46-2.98,5.58-5.41s1.27-5.2.45-7.76c-.82-2.56-2.57-4.73-4.91-6.1-2.34-1.36-5.09-1.82-7.73-1.29-2.64.54-4.98,2.03-6.56,4.19L-142.31,8.17ZM409.09,146.5c.6-2.61.2-5.36-1.12-7.7s-3.47-4.13-6.03-5.01c-2.56-.88-5.35-.78-7.82.27-2.48,1.05-4.46,2.98-5.58,5.41s-1.27,5.2-.45,7.76c.82,2.56,2.57,4.73,4.91,6.1,2.34,1.36,5.09,1.82,7.73,1.29,2.64-.54,4.98-2.03,6.56-4.19l24.02,10.99,1.8-3.93-24.02-10.99ZM9.65,44.46c-.6,2.61-.2,5.36,1.12,7.7,1.32,2.35,3.47,4.13,6.03,5.01,2.56.88,5.35.78,7.82-.27,2.48-1.05,4.46-2.98,5.58-5.41s1.27-5.2.45-7.76c-.82-2.56-2.57-4.73-4.91-6.1-2.34-1.36-5.09-1.82-7.73-1.29-2.64.54-4.98,2.03-6.56,4.19L-159.69-37.8c.6-2.61.2-5.36-1.12-7.7-1.32-2.35-3.47-4.14-6.03-5.01-2.56-.88-5.35-.78-7.82.27-2.48,1.05-4.47,2.98-5.58,5.41s-1.27,5.2-.45,7.76c.82,2.56,2.57,4.73,4.91,6.1,2.33,1.36,5.1,1.83,7.74,1.29s4.98-2.03,6.56-4.19L9.65,44.46ZM-18.07-210.28c-2.63-.62-5.39-.24-7.75,1.05-2.36,1.29-4.14,3.41-5,5.95s-.74,5.3.34,7.77c1.07,2.47,3.03,4.46,5.5,5.58s5.25,1.31,7.82.51c2.57-.8,4.75-2.52,6.1-4.82s1.8-5.04,1.24-7.67c-.56-2.62-2.08-4.96-4.27-6.55l10.88-23.76-3.97-1.82-10.88,23.76ZM-77.98,256.38c-2.63-.62-5.39-.24-7.75,1.05-2.35,1.29-4.14,3.41-5,5.95-.86,2.53-.74,5.3.34,7.77,1.08,2.47,3.04,4.46,5.5,5.58s5.25,1.31,7.82.51c2.57-.8,4.75-2.52,6.1-4.82,1.36-2.31,1.8-5.04,1.23-7.67-.56-2.63-2.08-4.96-4.27-6.55l48.72-106.45c2.63.62,5.39.24,7.75-1.05,2.35-1.29,4.14-3.41,5-5.95s.74-5.3-.34-7.77c-1.08-2.47-3.04-4.46-5.5-5.58s-5.25-1.31-7.82-.51c-2.57.8-4.75,2.52-6.1,4.82-1.36,2.31-1.8,5.04-1.23,7.67.56,2.63,2.08,4.96,4.27,6.55l-48.72,106.45ZM4.88-176.5L-47.34-62.39l-123.09-56.34-1.8,3.93L-45.17-56.65,8.86-174.69c2.63.62,5.39.24,7.75-1.05,2.36-1.29,4.14-3.41,5-5.95.86-2.54.74-5.3-.34-7.77-1.08-2.47-3.04-4.46-5.5-5.58s-5.25-1.31-7.82-.51c-2.57.8-4.75,2.52-6.1,4.83-1.36,2.31-1.8,5.04-1.24,7.67.56,2.62,2.08,4.96,4.27,6.55ZM-41.26-159.61l-23.46,51.26-91.33-41.8-1.8,3.93,95.3,43.61,25.26-55.19c2.63.62,5.39.24,7.75-1.05,2.36-1.29,4.14-3.41,5-5.95.86-2.54.74-5.3-.34-7.77-1.07-2.47-3.03-4.46-5.5-5.58s-5.25-1.31-7.82-.51c-2.57.79-4.74,2.51-6.1,4.82s-1.8,5.04-1.24,7.67c.56,2.63,2.08,4.96,4.27,6.55ZM126.57,145.24l-66.61,145.53-31.77-14.54-10.88,23.77c-2.63-.62-5.39-.24-7.75,1.05-2.35,1.29-4.14,3.41-5,5.95-.86,2.53-.74,5.3.34,7.77,1.08,2.47,3.04,4.46,5.5,5.58s5.25,1.31,7.82.51c2.57-.8,4.75-2.52,6.1-4.82,1.36-2.31,1.8-5.04,1.23-7.67-.56-2.63-2.08-4.96-4.27-6.55l9.08-19.84,31.77,14.54,68.4-149.46c2.63.62,5.39.24,7.75-1.05,2.35-1.29,4.14-3.41,5-5.95.86-2.53.74-5.3-.34-7.77-1.08-2.47-3.04-4.46-5.5-5.58s-5.25-1.31-7.82-.51c-2.57.8-4.75,2.52-6.1,4.82-1.36,2.31-1.8,5.04-1.23,7.67.56,2.63,2.08,4.96,4.27,6.55ZM157.97,107.59c.6-2.61.2-5.36-1.12-7.7-1.32-2.35-3.47-4.13-6.03-5.01-2.56-.88-5.35-.78-7.82.27-2.48,1.05-4.46,2.98-5.58,5.41s-1.27,5.2-.45,7.76c.82,2.56,2.57,4.73,4.91,6.1,2.34,1.36,5.09,1.82,7.73,1.29s4.98-2.03,6.56-4.19l20.05,9.18-43.15,94.27,55.79,25.53c-.6,2.61-.2,5.36,1.12,7.7s3.47,4.13,6.03,5.01c2.56.88,5.35.78,7.82-.27,2.48-1.05,4.46-2.98,5.58-5.41s1.27-5.2.45-7.76c-.82-2.56-2.57-4.73-4.91-6.1-2.34-1.36-5.09-1.82-7.73-1.29-2.64.54-4.98,2.03-6.56,4.19l-51.82-23.72,43.15-94.27-24.02-10.99ZM53.42,368.54c-.6,2.61-.2,5.36,1.12,7.7,1.32,2.35,3.47,4.13,6.03,5.01,2.56.88,5.35.78,7.82-.27,2.48-1.05,4.46-2.98,5.58-5.41s1.27-5.2.45-7.76c-.82-2.56-2.57-4.73-4.91-6.1-2.34-1.36-5.09-1.82-7.73-1.29-2.64.54-4.98,2.03-6.56,4.19l-115.35-52.79L6.48,166.29c2.63.62,5.39.24,7.75-1.05,2.35-1.29,4.14-3.41,5-5.95.86-2.53.74-5.3-.34-7.77-1.08-2.47-3.04-4.46-5.5-5.58s-5.25-1.31-7.82-.51c-2.57.8-4.75,2.52-6.1,4.82s-1.8,5.04-1.23,7.67c.56,2.63,2.08,4.96,4.27,6.55l-68.4,149.46,119.32,54.61ZM142.71,257.38c-.6,2.61-.2,5.36,1.12,7.7s3.47,4.13,6.03,5.01c2.56.88,5.35.78,7.82-.27s4.46-2.98,5.58-5.41,1.27-5.2.45-7.76c-.82-2.56-2.57-4.73-4.91-6.1-2.34-1.36-5.09-1.82-7.73-1.29-2.64.54-4.98,2.03-6.56,4.19l-24.02-10.99-43.15,94.27-20.05-9.18c.6-2.61.2-5.36-1.12-7.7-1.32-2.35-3.47-4.13-6.03-5.01-2.56-.88-5.35-.78-7.82.27-2.48,1.05-4.46,2.98-5.58,5.41s-1.27,5.2-.45,7.76c.82,2.56,2.57,4.73,4.91,6.1,2.34,1.36,5.09,1.82,7.73,1.29,2.64-.54,4.98-2.03,6.56-4.19l24.02,10.99,43.15-94.27,20.05,9.18ZM118.62,498.39c-2.63-.62-5.39-.24-7.75,1.05-2.35,1.29-4.14,3.41-5,5.95-.86,2.53-.74,5.3.34,7.77,1.08,2.47,3.04,4.46,5.5,5.58s5.25,1.31,7.82.51c2.57-.8,4.75-2.52,6.1-4.82,1.36-2.31,1.8-5.04,1.23-7.67-.56-2.63-2.08-4.96-4.27-6.55l9.08-19.84,27.79,12.72-26.97,58.92,3.97,1.82,28.76-62.85-35.74-16.36-10.88,23.76ZM-121.92,131.52c.6-2.61.2-5.36-1.12-7.7-1.32-2.35-3.47-4.13-6.03-5.01-2.56-.88-5.35-.78-7.82.27-2.48,1.05-4.46,2.98-5.58,5.41s-1.27,5.2-.45,7.76c.82,2.56,2.57,4.73,4.91,6.1,2.34,1.36,5.09,1.82,7.73,1.29,2.64-.54,4.98-2.03,6.56-4.19l20.05,9.18-84.49,184.62-95.3-43.61-28.76,62.85,3.97,1.82,26.97-58.92,95.3,43.61,88.09-192.47-24.02-10.99ZM-146.18,49.15c-.6,2.61-.2,5.35,1.12,7.7s3.47,4.13,6.03,5.01c2.56.88,5.35.78,7.82-.27,2.48-1.05,4.47-2.98,5.58-5.41s1.27-5.2.45-7.76c-.82-2.56-2.57-4.73-4.91-6.1-2.34-1.37-5.1-1.83-7.74-1.29-2.64.54-4.98,2.03-6.56,4.19l-24.02-10.99-39.64,86.61c-2.64-.62-5.39-.24-7.75,1.05-2.36,1.29-4.14,3.41-5,5.95-.86,2.54-.74,5.3.34,7.77,1.07,2.47,3.03,4.46,5.5,5.58s5.25,1.31,7.82.51c2.57-.8,4.75-2.52,6.1-4.82,1.36-2.31,1.8-5.04,1.23-7.67-.56-2.63-2.08-4.96-4.27-6.55l37.84-82.68,20.05,9.18ZM-105.41,295.85c-.6,2.61-.2,5.36,1.12,7.7,1.32,2.35,3.47,4.13,6.03,5.01,2.56.88,5.35.78,7.82-.27,2.48-1.05,4.46-2.98,5.58-5.41s1.27-5.2.45-7.76c-.82-2.56-2.57-4.73-4.91-6.1-2.34-1.36-5.09-1.82-7.73-1.29-2.64.54-4.98,2.03-6.56,4.19l-20.05-9.18L-51.75,125.62l-31.77-14.54,12.58-27.5L12.65,121.84c-.6,2.61-.2,5.35,1.12,7.7,1.32,2.35,3.47,4.14,6.03,5.01,2.56.88,5.35.78,7.82-.27,2.48-1.05,4.46-2.98,5.58-5.41s1.27-5.2.45-7.76c-.82-2.56-2.57-4.73-4.91-6.1-2.34-1.36-5.09-1.82-7.73-1.29-2.64.54-4.98,2.03-6.56,4.19l-87.55-40.07-16.18,35.35,31.77,14.54-71.91,157.12,24.02,10.99ZM-87.78-194.92c.6-2.61.2-5.35-1.12-7.7-1.32-2.35-3.47-4.14-6.03-5.01-2.56-.87-5.35-.78-7.82.27-2.48,1.05-4.47,2.97-5.58,5.41s-1.27,5.2-.45,7.76c.82,2.56,2.57,4.73,4.91,6.09,2.33,1.37,5.09,1.83,7.74,1.29,2.64-.53,4.98-2.03,6.56-4.19l24.02,10.99,30.56-66.77-3.97-1.82-28.76,62.85-20.05-9.18ZM218.86,111.46l-39.64,86.61,87.55,40.07c-.6,2.61-.2,5.35,1.12,7.7,1.32,2.35,3.47,4.14,6.03,5.01,2.56.88,5.35.78,7.82-.27,2.48-1.05,4.46-2.98,5.58-5.41s1.27-5.2.45-7.76c-.82-2.56-2.57-4.73-4.91-6.1-2.34-1.36-5.09-1.82-7.73-1.29-2.64.54-4.98,2.03-6.56,4.19l-83.58-38.25,37.84-82.69c2.63.62,5.39.24,7.75-1.05,2.35-1.29,4.14-3.41,5-5.95.86-2.53.74-5.3-.34-7.77-1.08-2.47-3.04-4.46-5.5-5.58s-5.25-1.31-7.82-.51c-2.57.8-4.75,2.52-6.1,4.82-1.36,2.31-1.8,5.04-1.23,7.67.56,2.63,2.08,4.96,4.27,6.55ZM367.45,18.18c-.6,2.61-.2,5.36,1.12,7.7,1.32,2.35,3.47,4.14,6.03,5.01,2.56.88,5.35.78,7.82-.27,2.48-1.05,4.46-2.98,5.58-5.41s1.27-5.2.45-7.76c-.82-2.56-2.57-4.73-4.91-6.1-2.34-1.36-5.09-1.82-7.73-1.29-2.64.54-4.98,2.03-6.56,4.19l-51.82-23.72,28.76-62.85-3.97-1.82-30.56,66.77,55.79,25.53ZM244.62-28.77l-25.26,55.19,63.53,29.08-57.53,125.7,24.02,10.99c-.6,2.61-.2,5.36,1.12,7.7s3.47,4.13,6.03,5.01c2.56.88,5.35.78,7.82-.27,2.48-1.05,4.46-2.98,5.58-5.41s1.27-5.2.45-7.76c-.82-2.56-2.57-4.73-4.91-6.1-2.34-1.36-5.09-1.82-7.73-1.29s-4.98,2.03-6.56,4.19l-20.05-9.18,57.53-125.7-63.53-29.08,23.46-51.26c2.63.62,5.39.24,7.75-1.05,2.35-1.29,4.14-3.41,5-5.95.86-2.54.74-5.3-.34-7.77-1.08-2.47-3.04-4.46-5.5-5.58s-5.25-1.31-7.82-.51c-2.57.79-4.74,2.51-6.1,4.82-1.36,2.31-1.8,5.04-1.24,7.67.56,2.63,2.08,4.96,4.27,6.55ZM229.01,68.84c-.6,2.61-.2,5.36,1.12,7.7,1.32,2.35,3.47,4.14,6.03,5.01,2.56.88,5.35.78,7.82-.27,2.48-1.05,4.46-2.98,5.58-5.41s1.27-5.2.45-7.76c-.82-2.56-2.57-4.73-4.91-6.1-2.34-1.36-5.09-1.82-7.73-1.29s-4.98,2.03-6.56,4.19l-51.82-23.72,37.84-82.68c2.63.62,5.39.24,7.75-1.05,2.35-1.29,4.14-3.41,5-5.95.86-2.54.74-5.3-.34-7.77-1.08-2.47-3.04-4.46-5.5-5.58s-5.25-1.31-7.82-.51c-2.57.79-4.74,2.51-6.1,4.82-1.36,2.31-1.8,5.04-1.24,7.67.56,2.63,2.08,4.96,4.27,6.55l-39.64,86.61,55.79,25.53ZM254.77-71.4c-.6,2.61-.2,5.35,1.12,7.7,1.32,2.35,3.47,4.13,6.03,5.01,2.56.88,5.35.78,7.82-.27,2.47-1.05,4.46-2.98,5.58-5.41s1.28-5.2.45-7.76c-.82-2.56-2.57-4.74-4.91-6.1s-5.09-1.83-7.73-1.29-4.98,2.03-6.56,4.19l-55.79-25.53L161.14-14.25c-2.63-.62-5.39-.24-7.75,1.05-2.35,1.29-4.14,3.41-5,5.95-.86,2.53-.74,5.3.34,7.77,1.08,2.47,3.04,4.46,5.5,5.58s5.25,1.31,7.82.51c2.57-.8,4.75-2.52,6.1-4.82,1.36-2.31,1.8-5.04,1.23-7.67-.56-2.63-2.08-4.96-4.27-6.55l37.84-82.69,51.82,23.72ZM-190.83,366.02c.6-2.61.2-5.35-1.12-7.7-1.32-2.35-3.47-4.13-6.03-5.01-2.56-.88-5.35-.78-7.82.27-2.48,1.05-4.46,2.98-5.58,5.41s-1.27,5.2-.45,7.76c.82,2.56,2.57,4.73,4.91,6.1,2.34,1.36,5.09,1.82,7.73,1.29,2.64-.54,4.98-2.03,6.56-4.19l242.41,110.94-12.58,27.5,3.97,1.82,14.38-31.42-246.38-112.76ZM-110.17,74.89l-9.08,19.84-31.77-14.54-30.56,66.78,31.77,14.54-55.73,121.77-95.3-43.61-43.15,94.27,3.97,1.82,41.35-90.34,95.3,43.61,59.33-129.62-31.77-14.54,26.97-58.92,31.77,14.54,10.88-23.76c2.63.62,5.39.24,7.75-1.05,2.35-1.29,4.14-3.41,5-5.95.86-2.53.74-5.3-.34-7.77-1.08-2.47-3.04-4.46-5.5-5.58s-5.25-1.31-7.82-.51c-2.57.8-4.75,2.52-6.1,4.82-1.36,2.31-1.8,5.04-1.23,7.67.56,2.63,2.08,4.96,4.27,6.55ZM381.83-13.25c-.6,2.61-.2,5.35,1.12,7.7,1.32,2.35,3.47,4.13,6.03,5.01s5.35.78,7.82-.27c2.47-1.05,4.46-2.98,5.58-5.41s1.28-5.2.45-7.76c-.82-2.56-2.57-4.74-4.91-6.1s-5.09-1.83-7.73-1.29-4.98,2.03-6.56,4.19l-20.05-9.18,12.58-27.5,31.77,14.54,1.8-3.93-35.74-16.36-16.18,35.35,24.02,10.99ZM130.71-52.16c-.6,2.61-.2,5.35,1.12,7.7,1.32,2.35,3.47,4.13,6.03,5.01,2.56.88,5.35.78,7.82-.27,2.48-1.05,4.46-2.98,5.58-5.41s1.27-5.2.45-7.76c-.82-2.56-2.57-4.73-4.91-6.1-2.33-1.37-5.09-1.83-7.73-1.29-2.64.54-4.98,2.03-6.56,4.19l-51.82-23.72,43.14-94.27-99.27-45.43-1.8,3.93,95.3,43.61-43.15,94.27,55.79,25.53ZM269.15-102.82c-.32,1.38-.36,2.81-.12,4.22.24,1.4.76,2.75,1.52,3.95.76,1.21,1.75,2.26,2.92,3.09,1.17.83,2.49,1.43,3.88,1.75s2.84.38,4.25.15c1.41-.23,2.76-.73,3.97-1.48,2.44-1.5,4.18-3.92,4.82-6.71l-4.11-1.88c-1.05-.49-.29-.16-.79-.37-.49-.21,0,0-.97-.45s-.82-.37-1.87-.85l-1.99-.91c-.95-.44-.52-.25-1.01-.47-.97-.45-.49-.22-.88-.39q-.58-.28-1.07-.49c-.97-.45-1.94-.9-2.66-1.22l-123.43-56.49-30.56,66.77,35.74,16.36,10.88-23.76c2.63.62,5.39.24,7.75-1.05,2.36-1.29,4.14-3.41,5-5.95s.74-5.3-.34-7.77c-1.08-2.47-3.04-4.46-5.5-5.58s-5.25-1.31-7.82-.51c-2.57.8-4.75,2.52-6.1,4.83s-1.8,5.04-1.24,7.67c.56,2.62,2.08,4.96,4.27,6.55l-9.08,19.84-27.79-12.72,26.97-58.92,115.35,52.79ZM182.86,85.72c-.6,2.61-.2,5.36,1.12,7.7,1.32,2.35,3.47,4.13,6.03,5.01,2.56.88,5.35.78,7.82-.27,2.48-1.05,4.46-2.98,5.58-5.41s1.27-5.2.45-7.76c-.82-2.56-2.57-4.73-4.91-6.1-2.34-1.36-5.09-1.82-7.73-1.29s-4.98,2.03-6.56,4.19l-37.92-17.36L111.97-27.49,34.54-62.92l37.84-82.69c2.63.62,5.39.24,7.75-1.05,2.36-1.29,4.14-3.41,5-5.95s.74-5.3-.34-7.77c-1.08-2.47-3.04-4.46-5.5-5.58s-5.25-1.31-7.82-.51c-2.57.8-4.75,2.52-6.1,4.83s-1.8,5.04-1.24,7.67c.56,2.62,2.08,4.96,4.27,6.55L28.77-60.81,108.52-24.31l34.77,91.92,39.57,18.11ZM46.08,237.15c-2.63-.62-5.39-.24-7.75,1.05-2.36,1.29-4.14,3.41-5,5.95-.86,2.53-.74,5.3.34,7.77,1.08,2.47,3.04,4.46,5.5,5.58s5.25,1.31,7.82.51c2.57-.8,4.75-2.52,6.1-4.82,1.36-2.31,1.79-5.04,1.23-7.67-.56-2.63-2.08-4.96-4.27-6.55L118.83,88.7,84.5-2.05-11.61-46.04l52.23-114.11c2.63.62,5.39.24,7.75-1.05,2.36-1.29,4.14-3.41,5-5.95s.74-5.3-.34-7.77c-1.08-2.47-3.04-4.46-5.5-5.58s-5.25-1.31-7.82-.51c-2.57.8-4.75,2.52-6.1,4.83s-1.8,5.04-1.24,7.67c.56,2.62,2.08,4.96,4.27,6.55L-17.37-43.93,81.08,1.13l33.04,87.36L46.08,237.15ZM-14.45,285.46c-2.63-.62-5.39-.24-7.75,1.05-2.35,1.29-4.14,3.41-5,5.95-.86,2.53-.74,5.3.34,7.77,1.08,2.47,3.04,4.46,5.5,5.58s5.25,1.31,7.82.51c2.57-.8,4.75-2.52,6.1-4.82,1.36-2.31,1.8-5.04,1.23-7.67-.56-2.63-2.08-4.96-4.27-6.55L78.97,91.84,52.25,21.2l-229.33-104.96c.48-2.06.33-4.23-.43-6.22-.76-1.99-2.08-3.73-3.81-4.98l-1.86,4.07-.86,1.87-1.54,3.37-1.54,3.37-1.15,2.5-1.86,4.07c2.08.49,4.26.36,6.26-.37,2-.73,3.73-2.03,4.99-3.74L48.83,24.38l25.43,67.25L-14.45,285.46ZM328.97,290.61c-2.63-.62-5.39-.24-7.75,1.05-2.36,1.29-4.14,3.41-5,5.95-.86,2.53-.74,5.3.34,7.77,1.08,2.47,3.04,4.46,5.5,5.58s5.25,1.31,7.82.51c2.57-.8,4.75-2.52,6.1-4.82,1.36-2.31,1.8-5.04,1.23-7.67-.56-2.63-2.08-4.96-4.27-6.55l3.16-6.89-52.15-137.89,50.87-111.15-63.53-29.08,43.14-94.27-3.97-1.82-44.94,98.2,63.53,29.08-49.81,108.82,52.15,137.89-2.42,5.28ZM357.3,60.81l-39.11,85.45,52.15,137.89-56.26,122.93-51.82-23.72c.6-2.61.2-5.35-1.12-7.7-1.32-2.35-3.47-4.13-6.03-5.01-2.56-.88-5.35-.78-7.82.27-2.48,1.05-4.46,2.98-5.58,5.41s-1.27,5.2-.45,7.76,2.57,4.73,4.91,6.1c2.34,1.36,5.09,1.82,7.73,1.29,2.64-.54,4.98-2.03,6.56-4.19l55.79,25.53,58.8-128.47-52.15-137.89,38.37-83.84c2.63.62,5.39.24,7.75-1.05,2.36-1.29,4.14-3.41,5-5.94.86-2.54.74-5.3-.34-7.77-1.08-2.47-3.04-4.46-5.5-5.58s-5.25-1.31-7.82-.51c-2.57.8-4.75,2.52-6.1,4.83-1.35,2.3-1.79,5.04-1.23,7.67.56,2.63,2.08,4.96,4.27,6.55ZM374.69,106.77l-17.54,38.32,36.94,97.67,2.53-5.54-34.77-91.92,16.8-36.71c2.63.62,5.39.24,7.75-1.05,2.35-1.29,4.14-3.41,5-5.95.86-2.53.74-5.3-.34-7.77-1.08-2.47-3.04-4.46-5.5-5.58s-5.25-1.31-7.82-.51c-2.57.8-4.75,2.52-6.1,4.82-1.36,2.31-1.8,5.04-1.23,7.67.56,2.63,2.08,4.96,4.27,6.55ZM452.23,52.23c.6-2.61.2-5.35-1.12-7.7-1.32-2.35-3.47-4.13-6.03-5.01-2.56-.87-5.35-.78-7.82.27-2.48,1.05-4.46,2.98-5.58,5.41s-1.27,5.2-.45,7.76c.83,2.56,2.57,4.73,4.91,6.09,2.33,1.37,5.09,1.83,7.73,1.29,2.64-.53,4.98-2.03,6.56-4.19l5.34,2.44,10.22,27.03,2.53-5.52-9.32-24.7-6.97-3.19ZM-91.65-153.93c-.6,2.61-.2,5.35,1.12,7.7,1.32,2.35,3.47,4.13,6.03,5.01,2.56.88,5.35.78,7.82-.27,2.48-1.05,4.47-2.98,5.58-5.41s1.27-5.2.45-7.76c-.82-2.56-2.57-4.73-4.91-6.09-2.34-1.37-5.09-1.83-7.73-1.29-2.64.54-4.98,2.03-6.56,4.19l-37.11-16.98-8.05-21.29-2.54,5.54,7.16,18.93,38.73,17.73ZM-203.7,174.85c-.6,2.61-.2,5.36,1.12,7.7s3.47,4.13,6.03,5.01c2.56.88,5.35.78,7.82-.27,2.48-1.05,4.47-2.98,5.58-5.41s1.27-5.2.45-7.76c-.82-2.56-2.57-4.73-4.91-6.1-2.34-1.37-5.1-1.83-7.74-1.29-2.64.54-4.98,2.03-6.56,4.19l-51.82-23.72L-189.53,6.95l-17.38-45.96-2.53,5.54,15.21,40.22-65.25,142.57,55.79,25.53ZM180.48,426.69c-.6,2.61-.2,5.36,1.12,7.7,1.32,2.35,3.47,4.13,6.03,5.01,2.56.88,5.35.78,7.82-.27,2.48-1.05,4.46-2.98,5.58-5.41s1.27-5.2.45-7.76c-.82-2.56-2.57-4.73-4.91-6.1-2.34-1.36-5.09-1.82-7.73-1.29-2.64.54-4.98,2.03-6.56,4.19l-20.05-9.18,20.31-44.37,67.52-24.71,37.11,16.98c-.6,2.61-.2,5.36,1.12,7.7,1.32,2.35,3.47,4.14,6.03,5.01,2.56.88,5.35.78,7.82-.27,2.48-1.05,4.46-2.98,5.58-5.41s1.27-5.2.45-7.76c-.82-2.56-2.57-4.73-4.91-6.1-2.34-1.36-5.09-1.82-7.73-1.29-2.64.54-4.98,2.03-6.56,4.19l-38.73-17.73-70.92,25.95-22.84,49.91,24.02,10.99ZM-130.3,317.71c.6-2.61.2-5.36-1.12-7.7-1.32-2.35-3.47-4.13-6.03-5.01-2.56-.88-5.35-.78-7.82.27-2.48,1.05-4.46,2.98-5.58,5.41s-1.27,5.2-.45,7.76c.82,2.56,2.57,4.73,4.91,6.1,2.34,1.36,5.09,1.82,7.73,1.29,2.64-.54,4.98-2.03,6.56-4.19l214.62,98.22,50.88-111.16,113.64-41.58,37.13,16.99c-.6,2.61-.2,5.36,1.12,7.7,1.32,2.35,3.47,4.13,6.03,5.01,2.56.88,5.35.78,7.82-.27,2.48-1.05,4.46-2.98,5.58-5.41s1.27-5.2.45-7.76c-.82-2.56-2.57-4.73-4.91-6.1-2.34-1.36-5.09-1.82-7.73-1.29-2.64.54-4.98,2.03-6.56,4.19l-38.71-17.72-117.1,42.85-49.8,108.81-210.64-96.41ZM166.1,458.12c-.6,2.61-.2,5.36,1.12,7.7,1.32,2.35,3.47,4.13,6.03,5.01s5.35.78,7.82-.27c2.48-1.05,4.46-2.98,5.58-5.41s1.27-5.2.45-7.76c-.82-2.56-2.57-4.73-4.91-6.1-2.34-1.36-5.09-1.82-7.73-1.29s-4.98,2.03-6.56,4.19l-51.82-23.72,41.88-91.5,90.59-33.15,52.99,24.25c-.6,2.61-.2,5.36,1.12,7.7,1.32,2.35,3.47,4.13,6.03,5.01,2.56.88,5.35.78,7.82-.27,2.48-1.05,4.46-2.98,5.58-5.41s1.27-5.2.45-7.76c-.82-2.56-2.57-4.73-4.91-6.1-2.34-1.36-5.09-1.82-7.73-1.29-2.64.54-4.98,2.03-6.56,4.19l-54.62-25-94,34.39-44.41,97.04,55.79,25.53ZM400.3,50.82l26.72,70.64,18.68,8.55,1.8-3.93-17.05-7.81-25.43-67.25,36.48-79.72-3.97-1.82-37.22,81.33ZM231.3,587.96c-2.08-.49-4.26-.36-6.26.37-2,.73-3.73,2.03-4.99,3.74l4.11,1.88c1.28.57.31.13,1.28.57l1.95.89c.97.45,1.63.8,2.43,1.11l1.95.89,43.14-94.26-35.74-16.36-43.15,94.27,3.97,1.82,41.35-90.34,27.79,12.72-37.84,82.69ZM164.26,566.55l3.97,1.82,55.73-121.77,63.53,29.08,1.8-3.93-67.5-30.89-57.53,125.7ZM488.84,35.73l1.8-3.93-31.77-14.54,14.38-31.42-3.97-1.82-16.18,35.35,35.74,16.36ZM-85.11-231.7l-27.79-12.72-1.8,3.93,31.77,14.54,16.18-35.35-3.97-1.82-14.38,31.42ZM-280.46,363.01l3.97,1.82,12.58-27.5,27.79,12.72-12.58,27.5,3.97,1.82,14.38-31.42-35.74-16.36-14.38,31.42ZM422.23,181.26c-1.31-.94-2.81-1.59-4.4-1.89-1.59-.3-3.22-.25-4.78.15-1.56.4-3.01,1.14-4.24,2.16-1.23,1.02-2.22,2.31-2.89,3.76-.67,1.46-1,3.04-.97,4.65.03,1.6.42,3.19,1.13,4.63.72,1.44,1.75,2.71,3.02,3.71,1.27,1,2.75,1.71,4.32,2.08l1.86-4.07c.05-.11.27-.59.27-.59.22-.48.44-.96.44-.96q.22-.48.44-.96c.22-.48.23-.5.66-1.44q.44-.96.88-1.93t.66-1.44.44-.96c.22-.48.88-1.93,1.29-2.82l1.86-4.07ZM101.7,461.9l-3.97-1.82-28.76,62.85,3.97,1.82,28.76-62.85ZM-90.78-272.3l-4.11-1.88q-1.19-.56-2.16-1.02s-.97-.45-1.46-.67l-2.64,5.78-.81,1.77-1.86,4.07c1.39.33,2.84.38,4.25.15,1.41-.23,2.76-.73,3.97-1.47,1.21-.75,2.26-1.73,3.09-2.88.83-1.15,1.42-2.46,1.73-3.84ZM-368.28,313.55l-1.86,4.07q-1.64,3.58-1.16,3.82c.98.43,1.95.89,3.15,1.44l4.11,1.88c.48-2.06.33-4.23-.43-6.22-.76-1.99-2.08-3.73-3.81-4.98ZM222.56,108.64c-.78-.36-1.49-.87-2.07-1.49-.59-.63-1.05-1.36-1.35-2.16-.3-.8-.44-1.65-.42-2.5.03-.85.22-1.69.58-2.46s.86-1.47,1.48-2.05c.63-.58,1.36-1.03,2.17-1.32.8-.29,1.66-.43,2.52-.39.86.03,1.7.24,2.48.59,1.58.72-6.74-4.1-6.13-2.48.61,1.62,1.19-.04-5.01,4.51.21,7.27,1.87,7.86.25,8.45-1.62.59,7.07,2.02,5.49,1.3ZM236.94,77.22c-1.58-.72,5.8,3.99,5.19,2.37-.61-1.62,5.1-3.73,5.82-5.29s-4.33-9.38-2.7-9.98-4.49.39-2.91,1.11,2.81,2.04,3.42,3.65c.61,1.62.55,3.4-.16,4.96s-2.03,2.77-3.65,3.37c-1.62.59-3.42.52-5-.2ZM190.79,94.1c-.78-.36-1.49-.87-2.07-1.49-.59-.63-1.05-1.36-1.35-2.16-.3-.8-.44-1.65-.42-2.5.03-.85.22-1.69.58-2.46s.86-1.47,1.48-2.05c.63-.58,1.36-1.03,2.17-1.32.8-.29,1.66-.43,2.52-.39.86.03,1.7.24,2.48.59,1.58.72-7.67-4.3-7.06-2.69.61,1.62-3.09,2.88-3.8,4.45s1.41,6.29-.21,6.88c-1.62.59,7.26,3.87,5.68,3.14ZM144.64,110.99c-1.58-.72,4.76,4.36,4.15,2.74-.61-1.62,6.18-3.21,6.9-4.78s-2.16-7.22-.54-7.82c1.62-.59-6.69-2.65-5.11-1.93s2.81,2.04,3.42,3.65c.61,1.62.55,3.4-.16,4.96s-2.03,2.77-3.65,3.37c-1.62.59-3.42.52-5-.2ZM130.26,142.41c-1.58-.72,5.89,3.19,5.28,1.57-.61-1.62,4.14-2.62,4.86-4.18s-.93-6.08.7-6.67c1.62-.59-7.02-3.23-5.44-2.51s2.81,2.04,3.42,3.65c.61,1.62.55,3.4-.16,4.96s-2.03,2.77-3.65,3.37c-1.62.59-3.42.52-5-.2ZM196.79,248.88c-1.58-.72,4.82,3.54,4.21,1.93-.61-1.62,5.69-2.48,6.41-4.04s-1.68-7-.06-7.6c1.62-.59-6.75-2.8-5.17-2.08s2.81,2.04,3.42,3.65c.61,1.62.55,3.4-.16,4.96s-2.03,2.77-3.65,3.37c-1.62.59-3.42.52-5-.2ZM150.64,265.76c-1.58-.72,5.63,4.36,5.02,2.74-.61-1.62,4.1-3.81,4.81-5.37s-1.19-6.78.43-7.37c1.62-.59-6.45-2.51-4.87-1.79s2.81,2.04,3.42,3.65c.61,1.62.55,3.4-.16,4.96s-2.03,2.77-3.65,3.37c-1.62.59-3.42.52-5-.2ZM43.97,330.96c-1.58-.72,4.16,4.39,3.55,2.78-.61-1.62,7.28-3.05,8-4.62s-3.81-11.35-2.19-11.94c1.62-.59-5.55,1.28-3.97,2s2.81,2.04,3.42,3.65c.61,1.62.55,3.4-.16,4.96s-2.03,2.77-3.65,3.37c-1.62.59-3.42.52-5-.2ZM61.35,376.92c-1.58-.72,5.93,4.05,5.32,2.43-.61-1.62,4.43-3.24,5.14-4.8s-2.47-6.89-.85-7.49c1.62-.59-5.79-2.65-4.21-1.93s2.81,2.04,3.42,3.65c.61,1.62.55,3.4-.16,4.96s-2.03,2.77-3.65,3.37c-1.62.59-3.42.52-5-.2ZM12.2,316.42c-1.58-.72,4.39,4.5,3.78,2.88-.61-1.62,6.2-3.55,6.92-5.11s-2.51-9.01-.89-9.6c1.62-.59-5.99-.67-4.41.05s2.81,2.04,3.42,3.65c.61,1.62.55,3.4-.16,4.96s-2.03,2.77-3.65,3.37c-1.62.59-3.42.52-5-.2ZM40.97,253.57c-1.58-.72,5.7,3.94,5.08,2.33-.61-1.62,5.45-2.9,6.16-4.46s-1.73-5.86-.11-6.46c1.62-.59-7.32-3.92-5.74-3.2s2.81,2.04,3.42,3.65c.61,1.62.55,3.4-.16,4.96s-2.03,2.77-3.65,3.37c-1.62.59-3.42.52-5-.2ZM-19.56,301.88c-1.58-.72,5.12,4.25,4.51,2.63-.61-1.62,6.04-2.92,6.76-4.48s-1.9-6.52-.28-7.11c1.62-.59-7.18-3.55-5.6-2.83s2.81,2.04,3.42,3.65c.61,1.62.55,3.4-.16,4.96s-2.03,2.77-3.65,3.37c-1.62.59-3.42.52-5-.2ZM-97.48,304.23c-1.58-.72,4.51,4.24,3.89,2.62-.61-1.62,6.22-3.84,6.94-5.4s-2.53-7.18-.91-7.77c1.62-.59-6.11-1.96-4.53-1.23s2.81,2.04,3.42,3.65c.61,1.62.55,3.4-.16,4.96s-2.03,2.77-3.65,3.37c-1.62.59-3.42.52-5-.2ZM-83.09,272.81c-1.58-.72,4.47,5.06,3.86,3.45-.61-1.62,5.71-4.76,6.43-6.32s-.88-4.89.74-5.48c1.62-.59-7.22-4.15-5.64-3.42s2.81,2.04,3.42,3.65c.61,1.62.55,3.4-.16,4.96s-2.03,2.77-3.65,3.37c-1.62.59-3.42.52-5-.2ZM6.2,161.65c-1.58-.72,3.78,3.67,3.17,2.05,1.9-.29,6.81-2.72,7.52-4.28s.46-5.46.15-7.35c.17-1.67-7.03-2.93-5.45-2.21s2.81,2.04,3.42,3.65c.61,1.62.55,3.4-.16,4.96s-2.03,2.77-3.65,3.37c-1.62.59-3.42.52-5-.2ZM-25.57,147.11c-1.58-.72,3.47,4.69,2.85,3.07,2.39-.07,7.12-3.74,7.84-5.3s-.8-7.49-2.11-9.78c1.62-.59-4.76-.5-3.18.22s2.81,2.04,3.42,3.65c.61,1.62.55,3.4-.16,4.96s-2.03,2.77-3.65,3.37c-1.62.59-3.42.52-5-.2ZM-143.62,321.12c-1.58-.72,3.46,3.76,2.85,2.14,1.9-.29,4.55.34,8.86-3.91-.16-6.08-2.37-7.67-3.17-9.79,1.62-.59-4.71-.95-3.13-.23s2.81,2.04,3.42,3.65c.61,1.62.55,3.4-.16,4.96s-2.03,2.77-3.65,3.37c-1.62.59-3.42.52-5-.2ZM-158.01,352.54c-1.58-.72,2.81,3.89,2.19,2.28-.61-1.62,5.04.56,8.85-4.35.78-6.39-3.59-8.8-1.97-9.39,1.62-.59-5.26-1.04-3.68-.32s2.81,2.04,3.42,3.65c.61,1.62.55,3.4-.16,4.96s-2.03,2.77-3.65,3.37c-1.62.59-3.42.52-5-.2ZM-204.15,369.43c-1.58-.72,3.7,3.57,3.09,1.95-.61-1.62,3.61,1.11,7.28-4.33,1.72-6.34.66-6.59-.88-8.37,1.62-.59-5.68-1.76-4.1-1.04s2.81,2.04,3.42,3.65c.61,1.62.55,3.4-.16,4.96s-2.03,2.77-3.65,3.37c-1.62.59-3.42.52-5-.2ZM-106.48,72.07c-1.58-.72-2.81-2.04-3.42-3.65-.61-1.62-.2,3.88.51,2.32s1.54,3.97,3.16,3.38c1.62-.59,2.85.21,4.75-1.85,1.58.72.38.84.99,2.45s3.38-7.38,2.66-5.82-2.03,2.77-3.65,3.37c-1.62.59-3.42.52-5-.2ZM-135.24,134.92c-1.58-.72,1.16,4.31.55,2.69-.61-1.62,5.34,0,10.43-4.79.48-6.19-4.16-9.3-2.54-9.89s-4.63-.51-3.05.21,2.81,2.04,3.42,3.65c.61,1.62.55,3.4-.16,4.96s-2.03,2.77-3.65,3.37c-1.62.59-3.42.52-5-.2ZM-138.25,57.53c-1.58-.72,4.76,3.69,4.15,2.07-.62-1.62,3.35-.07,4.06-1.63-1.06,3.59.72-1.56,0,0,1.62-.59,1.07-6.5,2.64-5.78s-2.65-4.4-2.04-2.79c.61,1.62.55,3.4-.16,4.96s-2.03,2.78-3.65,3.37c-1.63.59-3.43.52-5-.2ZM-155.63,11.57c-1.58-.72-.74,2.33,6.69,2.82,3.71-2.96,1.25-4.42,1.96-5.98s-.5-.16,1.12-.76-1.07-3.72.51-2.99-2.08-2.83-1.47-1.21c.61,1.62.55,3.4-.16,4.96s-2.03,2.78-3.65,3.37c-1.63.59-3.43.52-5-.2ZM34.96,98.8c-1.58-.72,4.15,4.14,3.54,2.53-.61-1.62,6.75-3.17,7.47-4.74s-1.08-8.34-3.29-10.82c1.62-.59-3.9.53-2.32,1.25s2.81,2.04,3.42,3.65c.61,1.62.55,3.4-.16,4.96s-2.03,2.77-3.65,3.37c-1.62.59-3.42.52-5-.2ZM20.58,130.22c-1.58-.72,3.5,4.27,2.89,2.66-.61-1.62,7.24-2.95,7.95-4.51s-2.54-8.1-.92-8.69c1.62-.59-6.11-1.96-4.53-1.23s2.81,2.04,3.42,3.65c.61,1.62.55,3.4-.16,4.96s-2.03,2.77-3.65,3.37c-1.62.59-3.42.52-5-.2ZM17.58,52.84c-1.58-.72,2.05,3.92,1.44,2.3-.61-1.62,6.28-.86,9.37-5.03,1.03-6.11-4.38-8.82-2.76-9.41,1.62-.59-4.24-.36-2.66.36s2.81,2.04,3.42,3.65c.61,1.62.55,3.4-.16,4.96s-2.03,2.77-3.65,3.37c-1.62.59-3.42.52-5-.2ZM-173.01-34.39c-1.58-.72-3.53-2.29-2.84-.46-.61-1.62,9.52,7.5,13.72-1.69,2.54-8.11-5.91-9.33-4.29-9.93,1.62-.59-2.78-.43-1.2.29s2.81,2.04,3.42,3.65c.61,1.62.55,3.4-.16,4.96s-2.03,2.78-3.65,3.37c-1.63.59-3.43.52-5-.2ZM-83.72-145.55c-1.58-.72,3.12,3.27,2.51,1.66-.62-1.62,1.28,2.33,7.73-4.03,1.58-8.6-4.6-8.34-2.98-8.94,1.62-.59-3.45-1.2-1.87-.47s2.81,2.04,3.42,3.66c.61,1.61.55,3.4-.16,4.96s-2.03,2.78-3.65,3.37c-1.63.59-3.43.52-5-.2ZM-101.1-191.51c-1.58-.72,5.8,2.91,5.19,1.29-.61-1.62-1.67,2.15,5.69-3.43,1.06-7.45-3.79-7.53-2.17-8.12,1.62-.6-4.89-2.24-3.32-1.52s2.81,2.04,3.43,3.65c.61,1.62.55,3.4-.17,4.97s-2.03,2.78-3.65,3.37c-1.63.59-3.43.52-5-.2ZM-37.57-162.44c-1.58-.72-.51,2.76,1.89,2.69,1.74.53,4.55.34,9.22-4.73,1.1-6.27-5.96-10.5-4.34-11.09,1.62-.6-2.95.62-1.37,1.35s2.81,2.04,3.43,3.65c.61,1.62.55,3.4-.17,4.97s-2.03,2.78-3.65,3.37c-1.63.59-3.43.52-5-.2ZM-23.19-193.86c-1.58-.72,4.19,4.93,3.58,3.32-.62-1.62,6.41-4.2,7.13-5.76s-1.94-7.7-.32-8.3-6.57-1.77-4.99-1.05,2.81,2.04,3.42,3.66c.61,1.62.55,3.4-.17,4.97s-2.02,2.77-3.65,3.37c-1.63.59-3.43.52-5-.2ZM8.58-179.32c-1.58-.72,3.24,3.63,2.63,2.01,2.01.11,5-.63,8.07-4.24.68-4.56-3.56-9.83-1.94-10.42,1.62-.6-4.93.14-3.36.87s2.81,2.04,3.42,3.65c.61,1.62.55,3.4-.16,4.97s-2.03,2.77-3.65,3.37c-1.62.6-3.42.52-5-.2ZM40.34-164.78c-1.58-.72,2.18,4.31,1.57,2.69-.61-1.61,4.17.5,9.12-4.93,1.7-5.85-2.94-8.96-1.32-9.55,1.62-.6-5.56-.73-3.98,0s2.81,2.04,3.42,3.65c.61,1.62.55,3.4-.16,4.97s-2.03,2.77-3.65,3.37c-1.62.6-3.42.52-5-.2ZM72.11-150.25c-1.58-.72,3.25,4.22,2.64,2.6-.61-1.61,7.86-3.03,8.58-4.59s-2.57-7.62-.95-8.22-6.45-2.3-4.87-1.58,2.81,2.04,3.42,3.65c.61,1.62.55,3.4-.16,4.97s-2.03,2.77-3.65,3.37c-1.62.6-3.42.52-5-.2ZM375.38,26.56c-1.58-.72-.07,2.77,4.07,2.52,2.04-.12,4.24-1.55,6.84-4.66-1.62.59.72-1.56,0,0,1.62-.6-1.2-10.23-1.6-8.09-3.18-2.07-1.11.47-.49,2.09.61,1.62.55,3.4-.16,4.97s-2.03,2.78-3.65,3.37c-1.62.6-3.42.52-5-.2ZM438.91,55.64c-1.58-.72,6.06,3.02,5.44,1.41-.61-1.62,4.98-1.87,5.69-3.43s-3.15-7.24-1.53-7.83c1.62-.6-5.79-2.65-4.21-1.93s2.81,2.04,3.42,3.65c.61,1.62.55,3.4-.16,4.97s-2.03,2.78-3.65,3.37c-1.62.6-3.42.52-5-.2ZM361,57.98c-1.58-.72,4.03,4.27,3.42,2.65-.61-1.62,6.56-3.32,7.27-4.89s-2.45-8.6-.83-9.19c1.62-.6-6.05-1.09-4.47-.36s2.81,2.04,3.42,3.65c.61,1.61.55,3.4-.16,4.96s-2.03,2.78-3.65,3.37c-1.62.6-3.42.52-5-.2ZM378.38,103.95c-1.58-.72,4.25,4.8,3.64,3.18-.61-1.62,6.34-3.85,7.06-5.42s-2.58-8.65-.96-9.25c1.62-.59-5.92-1.03-4.34-.3s2.81,2.04,3.42,3.65c.61,1.62.55,3.4-.16,4.96s-2.03,2.77-3.65,3.37c-1.62.59-3.42.52-5-.2ZM389.76-4.86c-1.58-.72,6.92,3.57,6.31,1.95-.61-1.61,3.88-2.53,4.6-4.09s-1.33-6.47.29-7.07c1.62-.6-7.38-3.31-5.8-2.58s2.81,2.04,3.42,3.65c.61,1.62.55,3.4-.16,4.97s-2.03,2.77-3.65,3.37c-1.62.6-3.42.52-5-.2ZM174.03,466.5c-1.58-.72,6.99,3.42,6.38,1.8-.61-1.62,3.33-2.6,4.04-4.16s-1.02-5.4.61-6-7.21-4.15-5.63-3.43,2.81,2.04,3.42,3.65c.61,1.62.55,3.4-.16,4.96s-2.03,2.77-3.65,3.37c-1.62.59-3.42.52-5-.2ZM113.5,514.81c-1.58-.72,6.97,3.32,6.36,1.7-.61-1.62,3.61-2.37,4.33-3.94s-1.32-5.58.3-6.18c1.62-.59-7.18-4.1-5.6-3.38s2.81,2.04,3.42,3.65c.61,1.62.55,3.4-.16,4.96s-2.03,2.77-3.65,3.37c-1.62.59-3.42.52-5-.2ZM202.79,403.65c-1.58-.72,6.13,3.54,5.52,1.93-.61-1.62,4-3.27,4.72-4.83s-2.56-7.99-.93-8.58c1.62-.59-5.48-1.03-3.9-.3s2.81,2.04,3.42,3.65c.61,1.62.55,3.4-.16,4.96s-2.03,2.77-3.65,3.37c-1.62.59-3.42.52-5-.2ZM188.41,435.08c-1.58-.72,6.4,2.94,5.79,1.32-.61-1.62,3.91-2.11,4.63-3.68s-1.67-7.03-.04-7.62c1.62-.59-6.56-2.53-4.98-1.81s2.81,2.04,3.42,3.65c.61,1.62.55,3.4-.16,4.96s-2.03,2.77-3.65,3.37c-1.62.59-3.42.52-5-.2ZM248.94,386.76c-1.58-.72,5.29,3.76,4.67,2.14-.61-1.62,5.39-2.77,6.1-4.33s-2.99-8-1.37-8.59c1.62-.59-5.6-1.72-4.02-1s2.81,2.04,3.42,3.65c.61,1.62.55,3.4-.16,4.96s-2.03,2.77-3.65,3.37c-1.62.59-3.42.52-5-.2ZM248.32-31.59c-1.58-.72,5.96,3.98,5.35,2.36-.61-1.62,5.36-2.7,6.07-4.26s-3.13-8.04-1.51-8.63c1.62-.6-6.1-1.98-4.52-1.26s2.81,2.04,3.42,3.65c.61,1.62.55,3.4-.16,4.97s-2.03,2.78-3.65,3.37c-1.62.6-3.42.52-5-.2ZM216.55-46.13c-1.58-.72,5.6,3.81,4.99,2.2-.61-1.62,5.36-2.7,6.07-4.26s-2.33-6.86-.71-7.45c1.62-.6-6.54-2.99-4.96-2.27s2.81,2.04,3.42,3.65c.61,1.62.55,3.4-.16,4.97s-2.03,2.78-3.65,3.37c-1.62.6-3.42.52-5-.2ZM262.7-63.02c-1.58-.72,5.57,3.54,4.96,1.92-.61-1.61,5.74-2.26,6.46-3.82s-2.82-7.08-1.2-7.68c1.62-.59-6.41-2.93-4.83-2.21s2.81,2.04,3.42,3.65c.61,1.62.55,3.4-.16,4.97s-2.03,2.77-3.65,3.37c-1.62.6-3.42.52-5-.2ZM156.02,2.18c-1.58-.72,5.21,3.72,4.6,2.1-.61-1.62,5.88-2.55,6.59-4.11s-3-7.7-1.38-8.29c1.62-.59-5.99-2.21-4.41-1.49s2.81,2.04,3.42,3.65c.61,1.62.55,3.4-.16,4.96s-2.03,2.77-3.65,3.37c-1.62.59-3.42.52-5-.2ZM138.64-43.78c-1.58-.72,4.19,4.93,3.58,3.31-.61-1.62,7.02-3.69,7.74-5.26s-2.75-8.59-1.13-9.19c1.62-.59-6.38-1.37-4.8-.65s2.81,2.04,3.42,3.65c.61,1.61.55,3.4-.16,4.96s-2.03,2.78-3.65,3.37c-1.62.6-3.42.52-5-.2ZM167.4-106.63c-1.58-.72,5.34,3.78,4.73,2.16-.61-1.62,5.88-2.55,6.59-4.11s-2.88-9.52-1.26-10.11c1.62-.6-6.24-.46-4.66.27s2.81,2.04,3.42,3.65c.61,1.62.55,3.4-.16,4.97s-2.03,2.77-3.65,3.37c-1.62.6-3.42.52-5-.2ZM-213.16,137.27c-1.58-.72,3.17,4.47,2.56,2.85s7.54-3.62,8.25-5.18-1.93-6.44-.31-7.03c1.62-.59-6.68-3.14-5.11-2.42s2.81,2.04,3.42,3.65c.61,1.62.55,3.4-.16,4.96s-2.03,2.78-3.65,3.37c-1.63.59-3.43.52-5-.2ZM-195.77,183.23c-1.58-.72,2.21,3.65,1.6,2.03-.61-1.62,4.82,1.04,9.14-4.55.65-7.85-4.37-8.82-2.75-9.41,1.62-.59-4.17-.58-2.59.14s2.81,2.04,3.42,3.65c.61,1.62.55,3.4-.16,4.96s-2.03,2.78-3.65,3.37c-1.63.59-3.43.52-5-.2ZM-210.16,214.65c-1.58-.72.8,2.85.19,1.24-.61-1.62,3.24,3.23,10.43-3.5.83-8.23-5.18-9.64-3.55-10.24,1.62-.59-3.26,0-1.68.72s2.81,2.04,3.42,3.65c.61,1.62.55,3.4-.16,4.96s-2.03,2.78-3.65,3.37c-1.63.59-3.43.52-5-.2ZM-224.54,246.08c-1.58-.72,4.65,3.46,4.04,1.85s4.62.2,6.59-4.11c1.55-3.39,1.24-6.56-.4-8.95,1.62-.59-6.41-1.3-4.83-.57s2.81,2.04,3.42,3.65c.61,1.62.55,3.4-.16,4.96s-2.03,2.78-3.65,3.37c-1.63.59-3.43.52-5-.2ZM309.47,338.45c-1.58-.72,7.06,3.27,6.45,1.65-.61-1.62,3.97-2.12,4.69-3.68s-2.02-7.55-.39-8.14c1.62-.59-6.93-2.33-5.35-1.61s2.81,2.04,3.42,3.65c.61,1.62.55,3.4-.16,4.96s-2.03,2.77-3.65,3.37c-1.62.59-3.42.52-5-.2ZM295.09,369.88c-1.58-.72,6.13,4.14,5.52,2.53-.61-1.62,4.9-2.99,5.62-4.56s-1.85-6.63-.22-7.23c1.62-.59-7.1-3.25-5.52-2.53s2.81,2.04,3.42,3.65c.61,1.62.55,3.4-.16,4.96s-2.03,2.77-3.65,3.37c-1.62.59-3.42.52-5-.2ZM323.85,307.03c-1.58-.72,6.57,4.34,5.96,2.73-.61-1.62,3.43-3.51,4.15-5.07s-.93-4.91.69-5.51c1.62-.59-6.98-4.65-5.4-3.93s2.81,2.04,3.42,3.65c.61,1.62.55,3.4-.16,4.96s-2.03,2.77-3.65,3.37c-1.62.59-3.42.52-5-.2ZM292.09,292.49c-1.58-.72,4.38,4.52,3.76,2.9-.61-1.62,6.46-3.89,7.18-5.45s-3.63-7.89-2-8.49c1.62-.59-5.12-1.47-3.54-.75s2.81,2.04,3.42,3.65c.61,1.62.55,3.4-.16,4.96s-2.03,2.77-3.65,3.37c-1.62.59-3.42.52-5-.2ZM395.76,149.91c-1.58-.72,5.65,3.92,5.03,2.3s5.39-2.77,6.1-4.33-2.83-8.35-1.2-8.95c1.62-.59-6.12-1.53-4.54-.81s2.81,2.04,3.42,3.65c.61,1.62.55,3.4-.16,4.96s-2.03,2.77-3.65,3.37c-1.62.59-3.42.52-5-.2ZM274.71,246.53c-1.58-.72,4.91,4.92,4.3,3.3-.61-1.62,5.02-4.55,5.74-6.11s-1.28-9.15.34-9.74c1.62-.59-6.56.04-4.98.77s2.81,2.04,3.42,3.65c.61,1.62.55,3.4-.16,4.96s-2.03,2.77-3.65,3.37c-1.62.59-3.42.52-5-.2ZM257.32,200.57c-1.58-.72,5.4,3.81,4.79,2.19-.61-1.62,4.83-3.73,5.54-5.29s-1.41-6.3.21-6.89c1.62-.59-6.72-2.51-5.15-1.79s2.81,2.04,3.42,3.65c.61,1.62.55,3.4-.16,4.96s-2.03,2.77-3.65,3.37c-1.62.59-3.42.52-5-.2Z"/>
</svg>