<svg width="1440" height="636" viewBox="0 0 1440 636" fill="none" xmlns="http://www.w3.org/2000/svg">
<g clip-path="url(#clip0_6840_341)">
<mask id="mask0_6840_341" style="mask-type:luminance" maskUnits="userSpaceOnUse" x="-1071" y="-920" width="4000" height="1556">
<path d="M-1071 -920H2929V636H-1071V-920Z" fill="white"/>
<path d="M-1070.5 -919.5V635.5H2928.5V-919.5H-1070.5Z" stroke="white" stroke-opacity="0.8"/>
</mask>
<g mask="url(#mask0_6840_341)">
<mask id="mask1_6840_341" style="mask-type:luminance" maskUnits="userSpaceOnUse" x="-1072" y="-920" width="4001" height="1556">
<path d="M-1071 -920H2929V636H-1071V-920Z" fill="white" fill-opacity="0.8"/>
<path d="M-1070.5 -919.5V635.5H2928.5V-919.5H-1070.5Z" stroke="white" stroke-opacity="0.8"/>
<path d="M397.75 205.321C397.75 208.085 396.653 210.735 394.699 212.689C392.746 214.643 390.096 215.741 387.333 215.741C384.571 215.741 381.921 214.643 379.968 212.689C378.014 210.735 376.917 208.085 376.917 205.321C376.917 202.558 378.014 199.908 379.968 197.954C381.921 196 384.571 194.902 387.333 194.902C390.096 194.902 392.746 196 394.699 197.954C396.653 199.908 397.75 202.558 397.75 205.321ZM-18.9166 121.964C-18.9166 124.728 -20.0142 127.378 -21.9677 129.332C-23.9212 131.286 -26.5706 132.384 -29.3333 132.384C-32.096 132.384 -34.7454 131.286 -36.6989 129.332C-38.6524 127.378 -39.75 124.728 -39.75 121.964C-39.75 119.201 -38.6524 116.551 -36.6989 114.597C-34.7454 112.642 -32.096 111.545 -29.3333 111.545C-26.5706 111.545 -23.9212 112.642 -21.9677 114.597C-20.0142 116.551 -18.9166 119.201 -18.9166 121.964ZM481.083 288.679C481.083 291.442 479.986 294.092 478.032 296.046C476.079 298 473.429 299.098 470.667 299.098C467.904 299.098 465.254 298 463.301 296.046C461.347 294.092 460.25 291.442 460.25 288.679C460.25 285.915 461.347 283.265 463.301 281.311C465.254 279.357 467.904 278.259 470.667 278.259C473.429 278.259 476.079 279.357 478.032 281.311C479.986 283.265 481.083 285.915 481.083 288.679ZM-518.917 121.964C-518.917 124.728 -520.014 127.378 -521.968 129.332C-523.921 131.286 -526.571 132.384 -529.333 132.384C-532.096 132.384 -534.745 131.286 -536.699 129.332C-538.652 127.378 -539.75 124.728 -539.75 121.964C-539.75 119.201 -538.652 116.551 -536.699 114.597C-534.745 112.642 -532.096 111.545 -529.333 111.545C-526.571 111.545 -523.921 112.642 -521.968 114.597C-520.014 116.551 -518.917 119.201 -518.917 121.964ZM314.417 38.6071C314.417 41.3706 313.319 44.0209 311.366 45.9749C309.412 47.929 306.763 49.0268 304 49.0268C301.237 49.0268 298.588 47.929 296.634 45.9749C294.681 44.0209 293.583 41.3706 293.583 38.6071C293.583 35.8437 294.681 33.1934 296.634 31.2394C298.588 29.2853 301.237 28.1875 304 28.1875C306.763 28.1875 309.412 29.2853 311.366 31.2394C313.319 33.1934 314.417 35.8437 314.417 38.6071ZM647.75 38.6071C647.75 41.3706 646.653 44.0209 644.699 45.9749C642.746 47.929 640.096 49.0268 637.333 49.0268C634.571 49.0268 631.921 47.929 629.968 45.9749C628.014 44.0209 626.917 41.3706 626.917 38.6071C626.917 35.8437 628.014 33.1934 629.968 31.2394C631.921 29.2853 634.571 28.1875 637.333 28.1875C640.096 28.1875 642.746 29.2853 644.699 31.2394C646.653 33.1934 647.75 35.8437 647.75 38.6071Z" fill="black"/>
<path d="M470.667 278.759C468.037 278.759 465.514 279.804 463.654 281.664C461.795 283.524 460.75 286.048 460.75 288.679C460.75 291.309 461.795 293.832 463.654 295.692C465.514 297.553 468.037 298.599 470.667 298.599C473.297 298.599 475.819 297.553 477.679 295.692C479.538 293.832 480.583 291.309 480.583 288.679C480.583 286.048 479.538 283.524 477.679 281.664C475.819 279.804 473.297 278.759 470.667 278.759ZM387.333 195.401C384.703 195.401 382.181 196.447 380.321 198.308C378.462 200.168 377.417 202.691 377.417 205.321C377.417 207.952 378.462 210.476 380.321 212.336C382.181 214.196 384.703 215.241 387.333 215.241C389.963 215.241 392.486 214.196 394.346 212.336C396.205 210.476 397.25 207.952 397.25 205.321C397.25 202.691 396.205 200.168 394.346 198.308C392.486 196.447 389.963 195.401 387.333 195.401ZM-29.333 112.045C-31.963 112.045 -34.4859 113.09 -36.3457 114.95C-38.2052 116.81 -39.2499 119.333 -39.25 121.964C-39.25 124.595 -38.2053 127.118 -36.3457 128.979C-34.4859 130.839 -31.963 131.884 -29.333 131.884C-26.7031 131.884 -24.181 130.839 -22.3213 128.979C-20.4616 127.118 -19.417 124.595 -19.417 121.964C-19.4171 119.333 -20.4617 116.81 -22.3213 114.95C-24.181 113.09 -26.7031 112.045 -29.333 112.045ZM-529.333 112.045C-531.963 112.045 -534.486 113.09 -536.346 114.95C-538.205 116.81 -539.25 119.333 -539.25 121.964C-539.25 124.595 -538.205 127.118 -536.346 128.979C-534.486 130.839 -531.963 131.884 -529.333 131.884C-526.703 131.884 -524.181 130.839 -522.321 128.979C-520.462 127.118 -519.417 124.595 -519.417 121.964C-519.417 119.333 -520.462 116.81 -522.321 114.95C-524.181 113.09 -526.703 112.045 -529.333 112.045ZM637.333 28.6875C634.703 28.6876 632.181 29.7326 630.321 31.5928C628.462 33.4531 627.417 35.9765 627.417 38.6074C627.417 41.2382 628.462 43.7609 630.321 45.6211C632.181 47.4813 634.703 48.5263 637.333 48.5264C639.963 48.5264 642.486 47.4814 644.346 45.6211C646.205 43.7609 647.25 41.2381 647.25 38.6074C647.25 35.9765 646.205 33.453 644.346 31.5928C642.486 29.7325 639.963 28.6875 637.333 28.6875ZM304 28.6875C301.37 28.6875 298.848 29.7327 296.988 31.5928C295.129 33.4531 294.083 35.9765 294.083 38.6074C294.083 41.2382 295.129 43.7609 296.988 45.6211C298.848 47.4813 301.37 48.5264 304 48.5264C306.63 48.5264 309.152 47.4813 311.012 45.6211C312.871 43.7609 313.917 41.2382 313.917 38.6074C313.917 35.9765 312.871 33.4531 311.012 31.5928C309.152 29.7327 306.63 28.6875 304 28.6875Z" stroke="white" stroke-opacity="0.8"/>
<path d="M564.417 372.036C564.417 374.799 563.319 377.449 561.366 379.403C559.412 381.357 556.763 382.455 554 382.455C551.237 382.455 548.588 381.357 546.634 379.403C544.681 377.449 543.583 374.799 543.583 372.036C543.583 369.272 544.681 366.622 546.634 364.668C548.588 362.714 551.237 361.616 554 361.616C556.763 361.616 559.412 362.714 561.366 364.668C563.319 366.622 564.417 369.272 564.417 372.036ZM481.083 455.393C481.083 458.156 479.986 460.806 478.032 462.76C476.079 464.715 473.429 465.812 470.666 465.812C467.904 465.812 465.254 464.715 463.301 462.76C461.347 460.806 460.25 458.156 460.25 455.393C460.25 452.629 461.347 449.979 463.301 448.025C465.254 446.071 467.904 444.973 470.666 444.973C473.429 444.973 476.079 446.071 478.032 448.025C479.986 449.979 481.083 452.629 481.083 455.393ZM314.416 288.678C314.416 291.442 313.319 294.092 311.366 296.046C309.412 298 306.762 299.098 304 299.098C301.237 299.098 298.588 298 296.634 296.046C294.681 294.092 293.583 291.442 293.583 288.678C293.583 285.915 294.681 283.265 296.634 281.311C298.588 279.357 301.237 278.259 304 278.259C306.762 278.259 309.412 279.357 311.366 281.311C313.319 283.265 314.416 285.915 314.416 288.678Z" fill="black"/>
<path d="M470.667 445.473C468.036 445.473 465.515 446.519 463.655 448.379C461.795 450.239 460.75 452.762 460.75 455.393C460.75 458.023 461.795 460.547 463.655 462.407C465.515 464.267 468.037 465.312 470.667 465.312C473.296 465.312 475.819 464.267 477.678 462.407C479.538 460.547 480.583 458.023 480.583 455.393C480.583 452.762 479.538 450.239 477.678 448.379C475.818 446.519 473.297 445.473 470.667 445.473ZM554 362.116C551.37 362.116 548.847 363.161 546.988 365.021C545.128 366.882 544.084 369.404 544.083 372.035C544.083 374.666 545.128 377.19 546.988 379.05C548.847 380.91 551.37 381.955 554 381.955C556.63 381.955 559.152 380.91 561.012 379.05C562.872 377.19 563.917 374.666 563.917 372.035C563.916 369.404 562.872 366.882 561.012 365.021C559.152 363.161 556.63 362.116 554 362.116ZM304 278.759C301.37 278.759 298.847 279.804 296.988 281.664C295.128 283.524 294.083 286.048 294.083 288.679C294.084 291.309 295.128 293.832 296.988 295.692C298.847 297.553 301.37 298.598 304 298.598C306.63 298.598 309.152 297.553 311.012 295.692C312.872 293.832 313.916 291.309 313.917 288.679C313.917 286.048 312.872 283.524 311.012 281.664C309.152 279.804 306.63 278.759 304 278.759Z" stroke="white" stroke-opacity="0.8"/>
<path d="M-18.9166 372.036C-18.9166 374.799 -20.0142 377.45 -21.9677 379.404C-23.9212 381.358 -26.5706 382.455 -29.3333 382.455C-32.0959 382.455 -34.7453 381.358 -36.6988 379.404C-38.6523 377.45 -39.7499 374.799 -39.7499 372.036C-39.7499 369.272 -38.6523 366.622 -36.6988 364.668C-34.7453 362.714 -32.0959 361.616 -29.3333 361.616C-26.5706 361.616 -23.9212 362.714 -21.9677 364.668C-20.0142 366.622 -18.9166 369.272 -18.9166 372.036ZM-685.583 372.036C-685.583 374.799 -686.681 377.45 -688.634 379.404C-690.588 381.358 -693.237 382.455 -696 382.455C-698.763 382.455 -701.412 381.358 -703.365 379.404C-705.319 377.45 -706.417 374.799 -706.417 372.036C-706.417 369.272 -705.319 366.622 -703.365 364.668C-701.412 362.714 -698.763 361.616 -696 361.616C-693.237 361.616 -690.588 362.714 -688.634 364.668C-686.681 366.622 -685.583 369.272 -685.583 372.036ZM-185.583 455.393C-185.583 458.156 -186.681 460.807 -188.634 462.761C-190.588 464.715 -193.237 465.813 -196 465.813C-198.763 465.813 -201.412 464.715 -203.366 462.761C-205.319 460.807 -206.417 458.156 -206.417 455.393C-206.417 452.63 -205.319 449.979 -203.366 448.025C-201.412 446.071 -198.763 444.973 -196 444.973C-193.237 444.973 -190.588 446.071 -188.634 448.025C-186.681 449.979 -185.583 452.63 -185.583 455.393ZM64.4167 455.393C64.4167 458.156 63.3192 460.807 61.3657 462.761C59.4122 464.715 56.7628 465.813 54.0001 465.813C51.2374 465.813 48.588 464.715 46.6345 462.761C44.681 460.807 43.5834 458.156 43.5834 455.393C43.5834 452.63 44.681 449.979 46.6345 448.025C48.588 446.071 51.2374 444.973 54.0001 444.973C56.7628 444.973 59.4122 446.071 61.3657 448.025C63.3192 449.979 64.4167 452.63 64.4167 455.393Z" fill="black"/>
<path d="M53.9998 445.474C51.3699 445.474 48.8477 446.519 46.988 448.379C45.1285 450.239 44.0839 452.762 44.0837 455.393C44.0837 458.023 45.1283 460.547 46.988 462.407C48.8477 464.267 51.3699 465.312 53.9998 465.312C56.6298 465.312 59.1527 464.268 61.0125 462.407C62.8721 460.547 63.9167 458.023 63.9167 455.393C63.9166 452.762 62.8719 450.239 61.0125 448.379C59.1527 446.519 56.6298 445.474 53.9998 445.474ZM-196 445.474C-198.63 445.474 -201.152 446.519 -203.012 448.379C-204.872 450.239 -205.916 452.762 -205.916 455.393C-205.916 458.023 -204.872 460.547 -203.012 462.407C-201.152 464.267 -198.63 465.312 -196 465.312C-193.37 465.312 -190.847 464.268 -188.988 462.407C-187.128 460.547 -186.083 458.023 -186.083 455.393C-186.083 452.762 -187.128 450.239 -188.988 448.379C-190.847 446.519 -193.37 445.474 -196 445.474ZM-29.3333 362.116C-31.9632 362.116 -34.4852 363.161 -36.345 365.021C-38.2047 366.882 -39.2502 369.405 -39.2502 372.036C-39.2502 374.667 -38.2046 377.19 -36.345 379.05C-34.4852 380.91 -31.9633 381.955 -29.3333 381.955C-26.7032 381.955 -24.1813 380.91 -22.3215 379.05C-20.4619 377.19 -19.4163 374.667 -19.4163 372.036C-19.4163 369.405 -20.4618 366.882 -22.3215 365.021C-24.1813 363.161 -26.7033 362.116 -29.3333 362.116ZM-696 362.116C-698.63 362.116 -701.152 363.161 -703.012 365.021C-704.872 366.882 -705.916 369.405 -705.916 372.036C-705.916 374.667 -704.872 377.19 -703.012 379.05C-701.152 380.91 -698.63 381.955 -696 381.955C-693.37 381.955 -690.847 380.91 -688.988 379.05C-687.128 377.19 -686.083 374.667 -686.083 372.036C-686.083 369.405 -687.128 366.882 -688.988 365.021C-690.847 363.161 -693.37 362.116 -696 362.116Z" stroke="white" stroke-opacity="0.8"/>
</mask>
<g mask="url(#mask1_6840_341)">
<path d="M-112.667 205.321L-29.3334 121.964M-112.667 205.321H-196H-279.333M-112.667 205.321H-29.3334H53.9999H137.333H220.667M304 205.321L387.333 288.679H470.667M304 205.321H220.667M304 205.321H387.333M-612.667 121.964H-529.333M-612.667 121.964H-696H-779.333L-862.667 38.6071H-946L-1029.33 -44.75H-1112.67H-1196M-612.667 121.964L-529.333 205.321H-446H-362.667H-279.333M-279.333 205.321L-196 121.964H-112.667L-29.3334 38.6071H53.9999H137.333H220.667H304M220.667 205.321L304 121.964H387.333H470.667L554 38.6071H637.333" stroke="#90E0EF" stroke-opacity="0.18" stroke-width="5"/>
<path d="M408.167 205.321C408.167 210.848 405.972 216.149 402.065 220.057C398.158 223.965 392.859 226.161 387.333 226.161C381.808 226.161 376.509 223.965 372.602 220.057C368.695 216.149 366.5 210.848 366.5 205.321C366.5 199.794 368.695 194.494 372.602 190.586C376.509 186.678 381.808 184.482 387.333 184.482C392.859 184.482 398.158 186.678 402.065 190.586C405.972 194.494 408.167 199.794 408.167 205.321ZM-8.49994 121.964C-8.49994 127.491 -10.6948 132.792 -14.6017 136.7C-18.5088 140.608 -23.8079 142.804 -29.3333 142.804C-34.8586 142.804 -40.1578 140.608 -44.0648 136.7C-47.9718 132.792 -50.1666 127.491 -50.1666 121.964C-50.1666 116.437 -47.9718 111.137 -44.0648 107.229C-40.1578 103.32 -34.8586 101.125 -29.3333 101.125C-23.8079 101.125 -18.5088 103.32 -14.6017 107.229C-10.6948 111.137 -8.49994 116.437 -8.49994 121.964ZM491.5 288.679C491.5 294.205 489.305 299.506 485.398 303.414C481.491 307.322 476.192 309.518 470.667 309.518C465.141 309.518 459.842 307.322 455.935 303.414C452.028 299.506 449.833 294.205 449.833 288.679C449.833 283.152 452.028 277.851 455.935 273.943C459.842 270.035 465.141 267.839 470.667 267.839C476.192 267.839 481.491 270.035 485.398 273.943C489.305 277.851 491.5 283.152 491.5 288.679ZM-508.5 121.964C-508.5 127.491 -510.695 132.792 -514.602 136.7C-518.509 140.608 -523.808 142.804 -529.333 142.804C-534.859 142.804 -540.158 140.608 -544.065 136.7C-547.972 132.792 -550.167 127.491 -550.167 121.964C-550.167 116.437 -547.972 111.137 -544.065 107.229C-540.158 103.32 -534.859 101.125 -529.333 101.125C-523.808 101.125 -518.509 103.32 -514.602 107.229C-510.695 111.137 -508.5 116.437 -508.5 121.964ZM324.833 38.6071C324.833 44.134 322.638 49.4346 318.731 53.3427C314.824 57.2509 309.525 59.4464 304 59.4464C298.475 59.4464 293.176 57.2509 289.269 53.3427C285.362 49.4346 283.167 44.134 283.167 38.6071C283.167 33.0802 285.362 27.7796 289.269 23.8715C293.176 19.9633 298.475 17.7678 304 17.7678C309.525 17.7678 314.824 19.9633 318.731 23.8715C322.638 27.7796 324.833 33.0802 324.833 38.6071ZM658.167 38.6071C658.167 44.134 655.972 49.4346 652.065 53.3427C648.158 57.2509 642.859 59.4464 637.333 59.4464C631.808 59.4464 626.509 57.2509 622.602 53.3427C618.695 49.4346 616.5 44.134 616.5 38.6071C616.5 33.0802 618.695 27.7796 622.602 23.8715C626.509 19.9633 631.808 17.7678 637.333 17.7678C642.859 17.7678 648.158 19.9633 652.065 23.8715C655.972 27.7796 658.167 33.0802 658.167 38.6071Z" fill="#90E0EF" fill-opacity="0.1"/>
<path d="M470.667 268.339C465.274 268.339 460.102 270.482 456.289 274.296C452.476 278.11 450.334 283.285 450.334 288.679C450.334 294.073 452.476 299.247 456.289 303.061C460.102 306.875 465.274 309.018 470.667 309.018C476.059 309.018 481.231 306.875 485.045 303.061C488.858 299.247 491 294.073 491 288.679C491 283.285 488.858 278.11 485.045 274.296C481.231 270.482 476.059 268.339 470.667 268.339ZM387.334 184.982C381.941 184.982 376.769 187.125 372.956 190.94C369.143 194.754 367 199.927 367 205.322C367 210.716 369.143 215.889 372.956 219.703C376.769 223.518 381.941 225.66 387.334 225.66C392.726 225.66 397.898 223.518 401.711 219.703C405.524 215.889 407.667 210.716 407.667 205.322C407.667 199.927 405.524 194.754 401.711 190.94C397.898 187.125 392.726 184.982 387.334 184.982ZM-29.3333 101.625C-34.7259 101.625 -39.8979 103.768 -43.7112 107.582C-47.5243 111.397 -49.6662 116.57 -49.6663 121.964C-49.6663 127.358 -47.5243 132.532 -43.7112 136.346C-39.8979 140.16 -34.7259 142.304 -29.3333 142.304C-23.9405 142.304 -18.7686 140.16 -14.9553 136.346C-11.1422 132.532 -9.00024 127.358 -9.00024 121.964C-9.00028 116.57 -11.1422 111.397 -14.9553 107.582C-18.7686 103.768 -23.9405 101.625 -29.3333 101.625ZM-529.333 101.625C-534.726 101.625 -539.898 103.768 -543.711 107.582C-547.524 111.397 -549.666 116.57 -549.666 121.964C-549.666 127.358 -547.524 132.532 -543.711 136.346C-539.898 140.16 -534.726 142.304 -529.333 142.304C-523.941 142.304 -518.769 140.16 -514.955 136.346C-511.142 132.532 -509 127.358 -509 121.964C-509 116.57 -511.142 111.397 -514.955 107.582C-518.769 103.768 -523.941 101.625 -529.333 101.625ZM637.334 18.2678C631.941 18.2678 626.769 20.4106 622.956 24.2249C619.143 28.0391 617 33.2125 617 38.6067C617 44.001 619.143 49.1752 622.956 52.9895C626.769 56.8037 631.941 58.9465 637.334 58.9465C642.726 58.9464 647.898 56.8035 651.711 52.9895C655.524 49.1752 657.667 44.001 657.667 38.6067C657.667 33.2125 655.524 28.0391 651.711 24.2249C647.898 20.4108 642.726 18.2679 637.334 18.2678ZM304 18.2678C298.607 18.2679 293.435 20.4106 289.622 24.2249C285.809 28.0391 283.667 33.2126 283.667 38.6067C283.667 44.001 285.809 49.1752 289.622 52.9895C293.435 56.8038 298.607 58.9465 304 58.9465C309.392 58.9465 314.564 56.8037 318.378 52.9895C322.191 49.1752 324.334 44.001 324.334 38.6067C324.334 33.2125 322.191 28.0391 318.378 24.2249C314.564 20.4106 309.392 18.2678 304 18.2678Z" stroke="#90E0EF" stroke-opacity="0.18"/>
<path d="M220.666 372.036L304 455.393H387.333H470.666M220.666 372.036H137.333L53.9998 288.679M220.666 372.036H304H387.333H470.666H554M53.9998 288.679H137.333H220.666H304M53.9998 288.679H-29.3336H-112.667H-196H-279.334H-362.667H-446H-529.334L-612.667 205.321H-696H-779.334L-862.667 121.964H-946L-1029.33 38.6072H-1112.67H-1196" stroke="#90E0EF" stroke-opacity="0.18" stroke-width="5"/>
<path d="M574.833 372.036C574.833 377.563 572.638 382.863 568.731 386.771C564.824 390.68 559.525 392.875 554 392.875C548.475 392.875 543.176 390.68 539.269 386.771C535.362 382.863 533.167 377.563 533.167 372.036C533.167 366.509 535.362 361.208 539.269 357.3C543.176 353.392 548.475 351.196 554 351.196C559.525 351.196 564.824 353.392 568.731 357.3C572.638 361.208 574.833 366.509 574.833 372.036ZM491.5 455.393C491.5 460.92 489.305 466.22 485.398 470.129C481.491 474.037 476.192 476.232 470.667 476.232C465.141 476.232 459.842 474.037 455.935 470.129C452.028 466.22 449.833 460.92 449.833 455.393C449.833 449.866 452.028 444.565 455.935 440.657C459.842 436.749 465.141 434.554 470.667 434.554C476.192 434.554 481.491 436.749 485.398 440.657C489.305 444.565 491.5 449.866 491.5 455.393ZM324.833 288.679C324.833 294.206 322.638 299.506 318.731 303.414C314.824 307.322 309.525 309.518 304 309.518C298.475 309.518 293.176 307.322 289.269 303.414C285.362 299.506 283.167 294.206 283.167 288.679C283.167 283.152 285.362 277.851 289.269 273.943C293.176 270.035 298.475 267.839 304 267.839C309.525 267.839 314.824 270.035 318.731 273.943C322.638 277.851 324.833 283.152 324.833 288.679Z" fill="#90E0EF" fill-opacity="0.1"/>
<path d="M470.666 435.053C465.274 435.053 460.102 437.197 456.289 441.011C452.476 444.826 450.333 449.999 450.333 455.393C450.333 460.787 452.476 465.961 456.289 469.775C460.102 473.589 465.274 475.732 470.666 475.732C476.059 475.732 481.231 473.589 485.044 469.775C488.857 465.961 491 460.787 491 455.393C491 449.999 488.857 444.826 485.044 441.011C481.231 437.197 476.059 435.053 470.666 435.053ZM554 351.697C548.608 351.697 543.436 353.839 539.622 357.654C535.809 361.468 533.666 366.641 533.666 372.036C533.666 377.43 535.809 382.603 539.622 386.417C543.436 390.232 548.608 392.375 554 392.375C559.393 392.375 564.564 390.232 568.377 386.417C572.19 382.603 574.333 377.43 574.333 372.036C574.333 366.641 572.19 361.468 568.377 357.654C564.564 353.84 559.393 351.697 554 351.697ZM304 268.339C298.608 268.339 293.436 270.482 289.622 274.296C285.809 278.111 283.666 283.284 283.666 288.678C283.666 294.073 285.809 299.247 289.622 303.061C293.436 306.875 298.608 309.018 304 309.018C309.393 309.018 314.564 306.875 318.377 303.061C322.19 299.247 324.333 294.073 324.333 288.678C324.333 283.284 322.19 278.111 318.377 274.296C314.564 270.482 309.393 268.339 304 268.339Z" stroke="#90E0EF" stroke-opacity="0.18"/>
<path d="M-779.334 288.679L-696 372.036M-779.334 288.679L-862.667 205.321H-946L-1029.33 121.964H-1112.67H-1196M-779.334 288.679H-696H-612.667L-529.334 372.036H-446M-446 372.036L-362.667 455.393H-279.334H-196M-446 372.036H-362.667H-279.334H-196H-112.667M-112.667 372.036L-29.3336 455.393H53.9998M-112.667 372.036H-29.3336" stroke="#90E0EF" stroke-opacity="0.18" stroke-width="5"/>
<path d="M-8.50008 372.036C-8.50008 377.562 -10.6949 382.863 -14.6019 386.771C-18.5089 390.679 -23.8081 392.875 -29.3334 392.875C-34.8588 392.875 -40.1579 390.679 -44.0649 386.771C-47.9719 382.863 -50.1668 377.562 -50.1668 372.036C-50.1668 366.509 -47.9719 361.208 -44.0649 357.3C-40.1579 353.392 -34.8588 351.196 -29.3334 351.196C-23.8081 351.196 -18.5089 353.392 -14.6019 357.3C-10.6949 361.208 -8.50008 366.509 -8.50008 372.036ZM-675.167 372.036C-675.167 377.562 -677.362 382.863 -681.269 386.771C-685.176 390.679 -690.475 392.875 -696 392.875C-701.525 392.875 -706.825 390.679 -710.732 386.771C-714.639 382.863 -716.833 377.562 -716.833 372.036C-716.833 366.509 -714.639 361.208 -710.732 357.3C-706.825 353.392 -701.525 351.196 -696 351.196C-690.475 351.196 -685.176 353.392 -681.269 357.3C-677.362 361.208 -675.167 366.509 -675.167 372.036ZM-175.167 455.393C-175.167 460.92 -177.362 466.22 -181.269 470.128C-185.176 474.036 -190.475 476.232 -196 476.232C-201.525 476.232 -206.825 474.036 -210.732 470.128C-214.639 466.22 -216.833 460.92 -216.833 455.393C-216.833 449.866 -214.639 444.565 -210.732 440.657C-206.825 436.749 -201.525 434.553 -196 434.553C-190.475 434.553 -185.176 436.749 -181.269 440.657C-177.362 444.565 -175.167 449.866 -175.167 455.393ZM74.8333 455.393C74.8333 460.92 72.6384 466.22 68.7314 470.128C64.8244 474.036 59.5253 476.232 53.9999 476.232C48.4746 476.232 43.1754 474.036 39.2684 470.128C35.3614 466.22 33.1666 460.92 33.1666 455.393C33.1666 449.866 35.3614 444.565 39.2684 440.657C43.1754 436.749 48.4746 434.553 53.9999 434.553C59.5253 434.553 64.8244 436.749 68.7314 440.657C72.6384 444.565 74.8333 449.866 74.8333 455.393Z" fill="#90E0EF" fill-opacity="0.1"/>
<path d="M54.0002 429.554C47.1485 429.554 40.5773 432.276 35.7327 437.122C30.8881 441.968 28.1663 448.54 28.1663 455.393C28.1663 462.245 30.8881 468.817 35.7327 473.663C40.5773 478.509 47.1484 481.232 54.0002 481.232C60.852 481.232 67.4233 478.509 72.2678 473.663C77.1122 468.817 79.8333 462.245 79.8333 455.393C79.8332 448.54 77.1123 441.968 72.2678 437.122C67.4233 432.276 60.852 429.554 54.0002 429.554ZM-196 429.554C-202.852 429.554 -209.423 432.276 -214.267 437.122C-219.112 441.968 -221.834 448.54 -221.834 455.393C-221.834 462.245 -219.112 468.817 -214.267 473.663C-209.423 478.509 -202.852 481.232 -196 481.232C-189.148 481.232 -182.577 478.509 -177.732 473.663C-172.888 468.817 -170.167 462.245 -170.167 455.393C-170.167 448.54 -172.888 441.968 -177.732 437.122C-182.577 432.276 -189.148 429.554 -196 429.554ZM-29.3337 346.196C-36.1855 346.196 -42.7568 348.919 -47.6013 353.765C-52.4458 358.611 -55.1666 365.183 -55.1667 372.035C-55.1667 378.888 -52.4459 385.461 -47.6013 390.307C-42.7568 395.153 -36.1854 397.875 -29.3337 397.875C-22.4821 397.875 -15.9107 395.152 -11.0662 390.307C-6.22158 385.461 -3.49976 378.888 -3.49976 372.035C-3.49987 365.183 -6.22167 358.611 -11.0662 353.765C-15.9108 348.919 -22.482 346.196 -29.3337 346.196ZM-696 346.196C-702.851 346.196 -709.423 348.919 -714.267 353.765C-719.112 358.611 -721.834 365.183 -721.834 372.035C-721.834 378.888 -719.112 385.461 -714.267 390.307C-709.423 395.152 -702.851 397.875 -696 397.875C-689.148 397.875 -682.577 395.153 -677.732 390.307C-672.888 385.461 -670.167 378.888 -670.167 372.035C-670.167 365.183 -672.888 358.611 -677.732 353.765C-682.577 348.919 -689.148 346.196 -696 346.196Z" stroke="#90E0EF" stroke-opacity="0.18" stroke-width="10"/>
</g>
</g>
</g>
<defs>
<clipPath id="clip0_6840_341">
<rect width="4000" height="1556" fill="white" transform="matrix(-1 0 0 1 2929 -920)"/>
</clipPath>
</defs>
</svg>
