<?xml version="1.0" encoding="UTF-8"?>
<svg id="Layer_1" xmlns="http://www.w3.org/2000/svg" version="1.1" viewBox="0 0 1216 1203">
  <!-- Generator: Adobe Illustrator 30.1.0, SVG Export Plug-In . SVG Version: 2.1.1 Build 136)  -->
  <defs>
    <style>
      .st0 {
        fill: #d54335;
        isolation: isolate;
        opacity: .6;
      }
    </style>
  </defs>
  <path class="st0" d="M176.4,316.58c.99,4.8,3.75,9.07,7.74,11.98s8.93,4.24,13.86,3.75c4.93-.49,9.5-2.78,12.83-6.42,3.32-3.64,5.16-8.36,5.16-13.27s-1.84-9.63-5.16-13.27c-3.32-3.64-7.9-5.92-12.83-6.42s-9.87.84-13.86,3.75c-3.99,2.91-6.75,7.18-7.74,11.98H0v7.91h176.4ZM816.4,126.64c.99,4.8,3.75,9.07,7.74,11.98,3.99,2.91,8.93,4.24,13.86,3.75,4.93-.49,9.5-2.78,12.83-6.42,3.32-3.64,5.16-8.37,5.16-13.27s-1.84-9.63-5.16-13.27c-3.32-3.64-7.89-5.92-12.83-6.42-4.93-.49-9.87.84-13.86,3.75-3.99,2.91-6.75,7.17-7.74,11.98h-488.4v7.91h488.4ZM1047.6,308.66c-.99-4.8-3.75-9.07-7.74-11.98-3.99-2.91-8.93-4.24-13.87-3.75-4.93.49-9.5,2.78-12.82,6.42-3.33,3.64-5.17,8.37-5.17,13.27s1.84,9.63,5.17,13.27c3.32,3.64,7.89,5.92,12.82,6.42,4.94.49,9.88-.84,13.87-3.75s6.75-7.17,7.74-11.98h168.4v-7.91h-168.4ZM1047.6,245.35c-.99-4.8-3.75-9.07-7.74-11.98-3.99-2.9-8.93-4.24-13.87-3.75-4.93.49-9.5,2.78-12.82,6.42-3.33,3.64-5.17,8.37-5.17,13.27s1.84,9.63,5.17,13.27c3.32,3.64,7.89,5.92,12.82,6.42,4.94.49,9.88-.84,13.87-3.75,3.99-2.91,6.75-7.18,7.74-11.98h168.4v-7.91h-168.4ZM1072.4,696.45c.99,4.8,3.75,9.07,7.74,11.98s8.93,4.24,13.87,3.75c4.93-.49,9.5-2.78,12.82-6.42,3.33-3.64,5.17-8.37,5.17-13.27s-1.84-9.63-5.17-13.27c-3.32-3.64-7.89-5.92-12.82-6.42-4.94-.49-9.88.84-13.87,3.75s-6.75,7.17-7.74,11.98h-344.8c-.99-4.8-3.75-9.07-7.74-11.98-3.99-2.91-8.93-4.24-13.86-3.75-4.93.49-9.5,2.78-12.83,6.42-3.32,3.64-5.16,8.37-5.16,13.27s1.84,9.63,5.16,13.27c3.32,3.64,7.89,5.92,12.83,6.42,4.93.49,9.87-.84,13.86-3.75,3.99-2.91,6.75-7.17,7.74-11.98h344.8ZM48.4,886.39c.99,4.8,3.75,9.07,7.74,11.98s8.93,4.24,13.86,3.75c4.93-.49,9.5-2.78,12.83-6.42,3.32-3.64,5.16-8.37,5.16-13.27s-1.84-9.63-5.16-13.27c-3.32-3.64-7.89-5.92-12.83-6.42-4.93-.49-9.87.84-13.86,3.75-3.99,2.9-6.75,7.17-7.74,11.98H0v7.91h48.4ZM791.6,751.85c-.99-4.8-3.75-9.07-7.74-11.98-3.99-2.91-8.93-4.24-13.86-3.75-4.93.49-9.5,2.78-12.83,6.42-3.32,3.64-5.16,8.37-5.16,13.27s1.84,9.63,5.16,13.27c3.32,3.64,7.89,5.92,12.83,6.42,4.93.49,9.87-.84,13.86-3.75,3.99-2.91,6.75-7.17,7.74-11.98h344.8c.99,4.8,3.75,9.07,7.74,11.98s8.94,4.24,13.87,3.75c4.93-.49,9.5-2.78,12.82-6.42,3.33-3.64,5.17-8.37,5.17-13.27s-1.84-9.63-5.17-13.27c-3.32-3.64-7.89-5.92-12.82-6.42-4.93-.49-9.88.84-13.87,3.75s-6.75,7.17-7.74,11.98h-344.8ZM1032,1155.07c4.86-.98,9.17-3.71,12.11-7.65,2.94-3.95,4.29-8.84,3.79-13.72s-2.81-9.4-6.49-12.69c-3.67-3.29-8.45-5.11-13.41-5.11s-9.74,1.82-13.41,5.11c-3.68,3.29-5.99,7.81-6.49,12.69s.85,9.77,3.79,13.72c2.94,3.94,7.25,6.67,12.11,7.65v47.88h8v-47.88ZM776,332.01c4.86-.98,9.17-3.71,12.11-7.66,2.94-3.95,4.29-8.84,3.79-13.71-.5-4.88-2.81-9.4-6.49-12.69-3.68-3.29-8.46-5.11-13.41-5.11s-9.74,1.82-13.41,5.11c-3.68,3.29-5.99,7.81-6.49,12.69-.5,4.88.85,9.77,3.79,13.71,2.94,3.95,7.25,6.68,12.11,7.66v214.47c-4.86.98-9.17,3.71-12.11,7.66-2.94,3.95-4.29,8.84-3.79,13.71s2.81,9.4,6.49,12.69c3.68,3.29,8.46,5.11,13.41,5.11s9.74-1.82,13.41-5.11c3.68-3.29,5.99-7.81,6.49-12.69s-.85-9.77-3.79-13.71c-2.94-3.95-7.25-6.68-12.11-7.66v-214.47ZM968,1116.3v-229.91h248v-7.91h-256v237.82c-4.86.98-9.17,3.71-12.11,7.65-2.94,3.95-4.29,8.84-3.79,13.72s2.81,9.4,6.49,12.69c3.68,3.29,8.46,5.11,13.41,5.11s9.74-1.82,13.41-5.11c3.68-3.29,5.99-7.81,6.49-12.69s-.85-9.77-3.79-13.72c-2.94-3.94-7.25-6.67-12.11-7.65ZM1032,1052.98v-103.28h184v-7.91h-192v111.19c-4.86.98-9.17,3.71-12.11,7.66-2.94,3.95-4.29,8.84-3.79,13.72s2.81,9.4,6.49,12.68c3.67,3.29,8.45,5.11,13.41,5.11s9.74-1.82,13.41-5.11c3.68-3.28,5.99-7.8,6.49-12.68s-.85-9.77-3.79-13.72c-2.94-3.95-7.25-6.68-12.11-7.66ZM520,673.11v-293.22h64v-47.88c4.86-.98,9.17-3.71,12.11-7.66,2.94-3.95,4.29-8.84,3.79-13.71-.5-4.88-2.81-9.4-6.49-12.69-3.68-3.29-8.46-5.11-13.41-5.11s-9.74,1.82-13.41,5.11c-3.68,3.29-5.99,7.81-6.49,12.69-.5,4.88.85,9.77,3.79,13.71,2.94,3.95,7.25,6.68,12.11,7.66v39.97h-64v301.13c-4.86.98-9.17,3.71-12.11,7.66-2.94,3.95-4.29,8.84-3.79,13.72.5,4.88,2.81,9.4,6.49,12.69,3.68,3.29,8.46,5.11,13.41,5.11s9.74-1.82,13.41-5.11c3.68-3.29,5.99-7.81,6.49-12.69.5-4.88-.85-9.77-3.79-13.72-2.94-3.95-7.25-6.68-12.11-7.66ZM496.4,759.77c.99,4.8,3.75,9.07,7.74,11.98s8.93,4.24,13.86,3.75c4.93-.49,9.5-2.78,12.83-6.42,3.32-3.64,5.16-8.37,5.16-13.27s-1.84-9.63-5.16-13.27c-3.32-3.64-7.89-5.92-12.83-6.42-4.93-.49-9.87.84-13.86,3.75s-6.75,7.17-7.74,11.98h-40.4v-189.94h-112.4c-.99-4.8-3.75-9.07-7.74-11.98s-8.93-4.24-13.86-3.75c-4.93.49-9.5,2.78-12.83,6.42-3.32,3.64-5.16,8.37-5.16,13.27s1.84,9.63,5.16,13.27c3.32,3.64,7.89,5.92,12.83,6.42,4.93.49,9.87-.84,13.86-3.75,3.99-2.91,6.75-7.17,7.74-11.98h104.4v189.94h48.4ZM471.6,245.35c-.99-4.8-3.75-9.07-7.74-11.98-3.99-2.9-8.93-4.24-13.86-3.75-4.93.49-9.5,2.78-12.83,6.42-3.32,3.64-5.16,8.37-5.16,13.27s1.84,9.63,5.16,13.27c3.32,3.64,7.89,5.92,12.83,6.42,4.93.49,9.87-.84,13.86-3.75,3.99-2.91,6.75-7.18,7.74-11.98h232.4v293.22c-4.86.98-9.17,3.71-12.11,7.66-2.94,3.95-4.29,8.84-3.79,13.71s2.81,9.4,6.49,12.69c3.68,3.29,8.46,5.11,13.41,5.11s9.74-1.82,13.41-5.11c3.68-3.29,5.99-7.81,6.49-12.69s-.85-9.77-3.79-13.71c-2.94-3.95-7.25-6.68-12.11-7.66V245.35h-240.4ZM407.6,498.6c-.99-4.8-3.75-9.07-7.74-11.98s-8.93-4.24-13.86-3.75c-4.93.49-9.5,2.78-12.83,6.42s-5.16,8.37-5.16,13.27,1.84,9.63,5.16,13.27c3.32,3.64,7.89,5.92,12.83,6.42,4.93.49,9.87-.84,13.86-3.75s6.75-7.18,7.74-11.98h48.4v-189.94h40.4c.99,4.8,3.75,9.07,7.74,11.98s8.93,4.24,13.86,3.75c4.93-.49,9.5-2.78,12.83-6.42,3.32-3.64,5.16-8.36,5.16-13.27s-1.84-9.63-5.16-13.27c-3.32-3.64-7.89-5.92-12.83-6.42-4.93-.49-9.87.84-13.86,3.75-3.99,2.91-6.75,7.18-7.74,11.98h-48.4v189.94h-40.4ZM264,78.76c4.86-.98,9.17-3.71,12.11-7.66,2.94-3.95,4.29-8.84,3.79-13.71-.5-4.88-2.81-9.4-6.49-12.69-3.68-3.29-8.46-5.11-13.41-5.11s-9.74,1.82-13.41,5.11c-3.68,3.29-5.99,7.81-6.49,12.69-.5,4.88.85,9.77,3.79,13.71,2.94,3.95,7.25,6.68,12.11,7.66v39.97h-56V.01h-8v126.62h72v-47.88ZM944.4,506.52c.99,4.8,3.75,9.07,7.74,11.98,3.99,2.91,8.93,4.24,13.86,3.75,4.93-.49,9.5-2.78,12.83-6.42,3.32-3.64,5.16-8.36,5.16-13.27s-1.84-9.63-5.16-13.27c-3.32-3.64-7.89-5.92-12.83-6.42-4.93-.49-9.87.84-13.86,3.75-3.99,2.91-6.75,7.17-7.74,11.98h-40.4V126.64h192V.01h-8v118.71h-192v387.79h48.4ZM1047.6,625.23c-.99-4.8-3.75-9.07-7.74-11.98s-8.93-4.24-13.87-3.75c-4.93.49-9.5,2.78-12.82,6.42-3.33,3.64-5.17,8.37-5.17,13.27s1.84,9.63,5.17,13.27c3.32,3.64,7.89,5.92,12.82,6.42,4.94.49,9.88-.84,13.87-3.75s6.75-7.18,7.74-11.98h48.4v-174.51c4.86-.98,9.17-3.71,12.11-7.66,2.94-3.95,4.29-8.84,3.79-13.72-.5-4.88-2.81-9.4-6.49-12.69-3.67-3.29-8.45-5.11-13.41-5.11s-9.74,1.82-13.41,5.11c-3.68,3.29-5.99,7.81-6.49,12.69-.5,4.88.85,9.77,3.79,13.72,2.94,3.95,7.25,6.68,12.11,7.66v166.59h-40.4ZM791.6,245.35c-.99-4.8-3.75-9.07-7.74-11.98-3.99-2.9-8.93-4.24-13.86-3.75-4.93.49-9.5,2.78-12.83,6.42-3.32,3.64-5.16,8.37-5.16,13.27s1.84,9.63,5.16,13.27c3.32,3.64,7.89,5.92,12.83,6.42,4.93.49,9.87-.84,13.86-3.75,3.99-2.91,6.75-7.18,7.74-11.98h40.4v316.56h64v55.4h-168.4c-.99-4.8-3.75-9.07-7.74-11.98-3.99-2.91-8.93-4.24-13.86-3.75-4.93.49-9.5,2.78-12.83,6.42-3.32,3.64-5.16,8.37-5.16,13.27s1.84,9.63,5.16,13.27c3.32,3.64,7.89,5.92,12.83,6.42,4.93.49,9.87-.84,13.86-3.75,3.99-2.91,6.75-7.18,7.74-11.98h176.4v-71.23h-64V245.35h-48.4ZM1136.4,1076.33c.99,4.8,3.75,9.07,7.74,11.98,3.99,2.9,8.94,4.24,13.87,3.75,4.93-.5,9.5-2.78,12.82-6.42,3.33-3.64,5.17-8.36,5.17-13.27s-1.84-9.63-5.17-13.27c-3.32-3.63-7.89-5.92-12.82-6.41-4.93-.5-9.88.84-13.87,3.75-3.99,2.9-6.75,7.17-7.74,11.98h-48.4v134.53h8v-126.62h40.4ZM392,799.73v-174.51h-176.4c-.99-4.8-3.75-9.07-7.74-11.98s-8.93-4.24-13.86-3.75c-4.93.49-9.5,2.78-12.83,6.42-3.32,3.64-5.16,8.37-5.16,13.27s1.84,9.63,5.16,13.27c3.32,3.64,7.9,5.92,12.83,6.42,4.93.49,9.87-.84,13.86-3.75s6.75-7.18,7.74-11.98h168.4v166.59c-4.86.98-9.17,3.71-12.11,7.66-2.94,3.95-4.29,8.84-3.79,13.72.5,4.88,2.81,9.4,6.49,12.69,3.68,3.29,8.46,5.11,13.41,5.11s9.74-1.82,13.41-5.11c3.68-3.29,5.99-7.81,6.49-12.69.5-4.88-.85-9.77-3.79-13.72-2.94-3.95-7.25-6.68-12.11-7.66ZM215.6,1068.42c-.99-4.81-3.75-9.08-7.74-11.98-3.99-2.91-8.93-4.25-13.86-3.75-4.93.49-9.5,2.78-12.83,6.41-3.32,3.64-5.16,8.37-5.16,13.27s1.84,9.63,5.16,13.27,7.9,5.92,12.83,6.42c4.93.49,9.87-.85,13.86-3.75,3.99-2.91,6.75-7.18,7.74-11.98h104.4v126.62h8v-134.53h-112.4ZM456,1052.98v-111.19h-128v-253.25h-48.4c-.99-4.8-3.75-9.07-7.74-11.98s-8.93-4.24-13.86-3.75c-4.93.49-9.5,2.78-12.83,6.42-3.32,3.64-5.16,8.37-5.16,13.27s1.84,9.63,5.16,13.27c3.32,3.64,7.9,5.92,12.83,6.42,4.93.49,9.87-.84,13.86-3.75s6.75-7.17,7.74-11.98h40.4v253.25h128v103.28c-4.86.98-9.17,3.71-12.11,7.66-2.94,3.95-4.29,8.84-3.79,13.72.5,4.88,2.81,9.4,6.49,12.68,3.68,3.29,8.46,5.11,13.41,5.11s9.74-1.82,13.41-5.11c3.68-3.28,5.99-7.8,6.49-12.68.5-4.88-.85-9.77-3.79-13.72-2.94-3.95-7.25-6.68-12.11-7.66ZM407.6,878.48c-.99-4.8-3.75-9.07-7.74-11.98-3.99-2.91-8.93-4.24-13.86-3.75-4.93.49-9.5,2.78-12.83,6.42-3.32,3.64-5.16,8.36-5.16,13.27s1.84,9.63,5.16,13.27,7.89,5.92,12.83,6.42c4.93.49,9.87-.84,13.86-3.75s6.75-7.17,7.74-11.98h104.4v166.59c-4.86.98-9.17,3.71-12.11,7.66-2.94,3.95-4.29,8.84-3.79,13.72.5,4.88,2.81,9.4,6.49,12.68,3.68,3.29,8.46,5.11,13.41,5.11s9.74-1.82,13.41-5.11c3.68-3.28,5.99-7.8,6.49-12.68s-.85-9.77-3.79-13.72c-2.94-3.95-7.25-6.68-12.11-7.66v-174.5h-112.4ZM471.6,1131.73c-.99-4.81-3.75-9.07-7.74-11.98s-8.93-4.24-13.86-3.75-9.5,2.78-12.83,6.42c-3.32,3.63-5.16,8.36-5.16,13.26s1.84,9.64,5.16,13.27c3.32,3.64,7.89,5.93,12.83,6.42s9.87-.84,13.86-3.75,6.75-7.17,7.74-11.98h112.4v-174.5c4.86-.98,9.17-3.71,12.11-7.66,2.94-3.95,4.29-8.84,3.79-13.71-.5-4.88-2.81-9.4-6.49-12.69-3.68-3.29-8.46-5.11-13.41-5.11s-9.74,1.82-13.41,5.11c-3.68,3.29-5.99,7.81-6.49,12.69-.5,4.88.85,9.77,3.79,13.71,2.94,3.95,7.25,6.68,12.11,7.66v166.59h-104.4ZM880.4,63.33c.99,4.8,3.75,9.07,7.74,11.98,3.99,2.91,8.93,4.24,13.86,3.75,4.93-.49,9.5-2.78,12.83-6.42,3.32-3.64,5.16-8.37,5.16-13.27s-1.84-9.63-5.16-13.27c-3.32-3.64-7.89-5.92-12.83-6.42-4.93-.49-9.87.84-13.86,3.75-3.99,2.91-6.75,7.17-7.74,11.98h-488.4V.01h-8v63.31h496.4ZM968,609.79v-39.97h64v-134.54h-64v-245.34h192V.01h-8v182.02h-192v261.16h64v118.71h-64v47.88c-4.86.98-9.17,3.71-12.11,7.66-2.94,3.95-4.29,8.84-3.79,13.72.5,4.88,2.81,9.4,6.49,12.69,3.68,3.29,8.46,5.11,13.41,5.11s9.74-1.82,13.41-5.11c3.68-3.29,5.99-7.81,6.49-12.69.5-4.88-.85-9.77-3.79-13.72-2.94-3.95-7.25-6.68-12.11-7.66ZM215.6,1131.73c-.99-4.81-3.75-9.07-7.74-11.98s-8.93-4.24-13.86-3.75-9.5,2.78-12.83,6.42c-3.32,3.63-5.16,8.36-5.16,13.26s1.84,9.64,5.16,13.27c3.32,3.64,7.9,5.93,12.83,6.42s9.87-.84,13.86-3.75,6.75-7.17,7.74-11.98h40.4v55.4h-64v7.91h72v-71.22h-48.4ZM663.6,1005.1c-.99-4.8-3.75-9.07-7.74-11.98-3.99-2.91-8.93-4.24-13.86-3.75-4.93.49-9.5,2.78-12.83,6.42-3.32,3.64-5.16,8.37-5.16,13.27s1.84,9.63,5.16,13.27c3.32,3.64,7.89,5.92,12.83,6.41,4.93.5,9.87-.84,13.86-3.74,3.99-2.91,6.75-7.18,7.74-11.98h104.4v189.93h200v-7.91h-192v-189.94h-112.4ZM471.6,1195.04c-.52-2.55-1.55-4.96-3.02-7.12-1.47-2.15-3.36-4-5.55-5.43-2.19-1.43-4.65-2.43-7.23-2.92-2.58-.49-5.23-.48-7.8.04s-5.02,1.53-7.2,2.99c-2.18,1.45-4.04,3.32-5.49,5.49-2.93,4.37-3.97,9.72-2.91,14.86h8.28c2.12.01.61.05,1.59.02.98-.02,0,0,1.96,0s1.65-.02,3.77-.02h4c1.92,0,1.06.02,2.04.02,1.96,0,.98,0,1.77-.02q1.18.02,2.16,0c1.96,0,3.92.02,5.36,0h248.68v-134.53h-72v47.88c-4.86.98-9.17,3.71-12.11,7.65-2.94,3.95-4.29,8.84-3.79,13.72s2.81,9.4,6.49,12.69c3.68,3.29,8.46,5.11,13.41,5.11s9.74-1.82,13.41-5.11c3.68-3.29,5.99-7.81,6.49-12.69s-.85-9.77-3.79-13.72c-2.94-3.94-7.25-6.67-12.11-7.65v-39.97h56v118.71h-232.4ZM471.6,815.16c-.99-4.8-3.75-9.07-7.74-11.98-3.99-2.91-8.93-4.24-13.86-3.75-4.93.49-9.5,2.78-12.83,6.42-3.32,3.64-5.16,8.37-5.16,13.27s1.84,9.63,5.16,13.27c3.32,3.64,7.89,5.92,12.83,6.42,4.93.49,9.87-.84,13.86-3.75s6.75-7.17,7.74-11.98h76.4l128,126.62h156v166.6c-4.86.98-9.17,3.71-12.11,7.65-2.94,3.95-4.29,8.84-3.79,13.72s2.81,9.4,6.49,12.69c3.68,3.29,8.46,5.11,13.41,5.11s9.74-1.82,13.41-5.11c3.68-3.29,5.99-7.81,6.49-12.69s-.85-9.77-3.79-13.72c-2.94-3.94-7.25-6.67-12.11-7.65v-174.51h-160.68l-128-126.62h-79.72ZM584,458.64c4.86-.98,9.17-3.71,12.11-7.66,2.94-3.95,4.29-8.84,3.79-13.72-.5-4.88-2.81-9.4-6.49-12.69-3.68-3.29-8.46-5.11-13.41-5.11s-9.74,1.82-13.41,5.11c-3.68,3.29-5.99,7.81-6.49,12.69-.5,4.88.85,9.77,3.79,13.72,2.94,3.95,7.25,6.68,12.11,7.66v302.75l126.36,125h193.64v229.91c-4.86.98-9.17,3.71-12.11,7.65-2.94,3.95-4.29,8.84-3.79,13.72s2.81,9.4,6.49,12.69c3.68,3.29,8.46,5.11,13.41,5.11s9.74-1.82,13.41-5.11c3.68-3.29,5.99-7.81,6.49-12.69s-.85-9.77-3.79-13.72c-2.94-3.94-7.25-6.67-12.11-7.65v-237.82h-198.36l-121.64-120.33v-299.51ZM648,332.01c4.86-.98,9.17-3.71,12.11-7.66,2.94-3.95,4.29-8.84,3.79-13.71-.5-4.88-2.81-9.4-6.49-12.69-3.68-3.29-8.46-5.11-13.41-5.11s-9.74,1.82-13.41,5.11c-3.68,3.29-5.99,7.81-6.49,12.69-.5,4.88.85,9.77,3.79,13.71,2.94,3.95,7.25,6.68,12.11,7.66v393.77l98.36,97.3h462.04c.78,3.8,2.68,7.29,5.45,10.04,2.78,2.74,6.31,4.62,10.15,5.4v-38.78c-3.84.78-7.37,2.65-10.15,5.4-2.77,2.74-4.67,6.23-5.45,10.04h-458.76l-93.64-92.63v-390.52ZM72,585.26c4.86-.98,9.17-3.71,12.11-7.66,2.94-3.95,4.29-8.84,3.79-13.72-.5-4.88-2.81-9.4-6.49-12.69-3.68-3.29-8.46-5.11-13.41-5.11s-9.74,1.82-13.41,5.11c-3.68,3.29-5.99,7.81-6.49,12.69-.5,4.88.85,9.77,3.79,13.72,2.94,3.95,7.25,6.68,12.11,7.66v13.89l192,189.94v223.93h128v189.93h8v-197.85h-128v-219.26l-192-189.94v-10.65ZM200,989.67v-172.17L8,627.56v-247.67h104.4c.99,4.8,3.75,9.07,7.74,11.98,3.99,2.91,8.93,4.24,13.86,3.75,4.93-.49,9.5-2.78,12.83-6.42,3.32-3.64,5.16-8.36,5.16-13.27s-1.84-9.63-5.16-13.27-7.9-5.92-12.83-6.42c-4.93-.49-9.87.84-13.86,3.75-3.99,2.91-6.75,7.17-7.74,11.98H0v258.83l192,189.94v168.93c-4.86.98-9.17,3.71-12.11,7.66-2.94,3.95-4.29,8.84-3.79,13.71.5,4.88,2.81,9.4,6.49,12.69,3.68,3.29,8.46,5.11,13.41,5.11s9.74-1.82,13.41-5.11c3.68-3.29,5.99-7.81,6.49-12.69.5-4.87-.85-9.76-3.79-13.71-2.94-3.95-7.25-6.68-12.11-7.66ZM136,926.36v-77.2L0,714.62v11.16l128,126.62v73.96c-4.86.98-9.17,3.71-12.11,7.66-2.94,3.95-4.29,8.84-3.79,13.71.5,4.88,2.81,9.4,6.49,12.69,3.68,3.29,8.46,5.11,13.41,5.11s9.74-1.82,13.41-5.11c3.68-3.29,5.99-7.81,6.49-12.69.5-4.88-.85-9.77-3.79-13.71-2.94-3.95-7.25-6.68-12.11-7.66ZM48.4,1076.33c.99,4.8,3.75,9.07,7.74,11.98,3.99,2.9,8.93,4.24,13.86,3.75,4.93-.5,9.5-2.78,12.83-6.42,3.32-3.64,5.16-8.36,5.16-13.27s-1.84-9.63-5.16-13.27c-3.32-3.63-7.89-5.92-12.83-6.41-4.93-.5-9.87.84-13.86,3.75-3.99,2.9-6.75,7.17-7.74,11.98h-10.76L0,1031.18v11.12l34.36,34.03h14.04ZM1111.6,1005.1c-.99-4.8-3.75-9.07-7.74-11.98s-8.93-4.24-13.87-3.75c-4.93.49-9.5,2.78-12.82,6.42-3.33,3.64-5.17,8.37-5.17,13.27s1.84,9.63,5.17,13.27c3.32,3.64,7.89,5.92,12.82,6.41,4.94.5,9.88-.84,13.87-3.74,3.99-2.91,6.75-7.18,7.74-11.98h74.76l29.64,29.32v-11.16l-26.36-26.08h-78.04ZM1047.6,371.98c-.99-4.8-3.75-9.07-7.74-11.98s-8.93-4.24-13.87-3.75c-4.93.49-9.5,2.78-12.82,6.42-3.33,3.64-5.17,8.37-5.17,13.27s1.84,9.63,5.17,13.27c3.32,3.64,7.89,5.92,12.82,6.42,4.94.49,9.88-.84,13.87-3.75,3.99-2.91,6.75-7.17,7.74-11.98h104.4v282.57l64,63.31v-11.16l-56-55.4v-287.24h-112.4ZM215.6,245.35c-.99-4.8-3.75-9.07-7.74-11.98-3.99-2.9-8.93-4.24-13.86-3.75-4.93.49-9.5,2.78-12.83,6.42-3.32,3.64-5.16,8.37-5.16,13.27s1.84,9.63,5.16,13.27c3.32,3.64,7.9,5.92,12.83,6.42,4.93.49,9.87-.84,13.86-3.75,3.99-2.91,6.75-7.18,7.74-11.98h40.4v89.39l-93.64,92.63h-74.76c-.99-4.8-3.75-9.07-7.74-11.98-3.99-2.91-8.93-4.24-13.86-3.75-4.93.49-9.5,2.78-12.83,6.42-3.32,3.64-5.16,8.37-5.16,13.27s1.84,9.63,5.16,13.27c3.32,3.64,7.89,5.92,12.83,6.42,4.93.49,9.87-.84,13.86-3.75,3.99-2.91,6.75-7.17,7.74-11.98h78.04l98.36-97.3v-100.55h-48.4ZM816.4,189.95c.99,4.8,3.75,9.07,7.74,11.98,3.99,2.91,8.93,4.24,13.86,3.75,4.93-.49,9.5-2.78,12.83-6.42,3.32-3.64,5.16-8.37,5.16-13.27s-1.84-9.63-5.16-13.27c-3.32-3.64-7.89-5.92-12.83-6.42-4.93-.49-9.87.84-13.86,3.75-3.99,2.91-6.75,7.17-7.74,11.98h-432.4v223.97l-157.6,155.91h-74.8c-.99-4.8-3.75-9.07-7.74-11.98s-8.93-4.24-13.86-3.75c-4.93.49-9.5,2.78-12.83,6.42-3.32,3.64-5.16,8.37-5.16,13.27s1.84,9.63,5.16,13.27c3.32,3.64,7.9,5.92,12.83,6.42,4.93.49,9.87-.84,13.86-3.75,3.99-2.91,6.75-7.17,7.74-11.98h78l162.4-160.66v-219.22h424.4ZM215.6,182.04c-.99-4.8-3.75-9.07-7.74-11.98-3.99-2.91-8.93-4.24-13.86-3.75s-9.5,2.78-12.83,6.42c-3.32,3.64-5.16,8.37-5.16,13.27s1.84,9.63,5.16,13.27c3.32,3.64,7.9,5.92,12.83,6.42,4.93.49,9.87-.84,13.86-3.75s6.75-7.18,7.74-11.98h104.4v184.36l-125.64,124.29h-106.76c-.99-4.8-3.75-9.07-7.74-11.98-3.99-2.91-8.93-4.24-13.86-3.75-4.93.49-9.5,2.78-12.83,6.42-3.32,3.64-5.16,8.37-5.16,13.27s1.84,9.63,5.16,13.27c3.32,3.64,7.89,5.92,12.83,6.42,4.93.49,9.87-.84,13.86-3.75,3.99-2.91,6.75-7.18,7.74-11.98h110.04l130.36-128.96v-195.52h-112.4ZM136,1039.09l-98.36-97.3H0v7.91h34.36l93.64,92.64v160.61h8v-163.86ZM8,15.45c3.84-.78,7.37-2.65,10.15-5.4C20.92,7.31,22.82,3.82,23.6.01h-8.28c-2.57.02-.61.02-2.57.02h-3.92C6.86.04,5.5-.05,3.92.04H0v189.92h72V.01h-8v182.02H8V15.45ZM136,.01h-8v245.34H0v7.91h136V.01ZM0,1131.73v7.91h64v63.31h8v-71.22H0ZM1160,1139.64h56v-7.91h-64v71.22h8v-63.31ZM1032,.01h-8v55.4h-56V.01h-8v63.31h72V.01ZM0,838.51c2.9.57,5.9.5,8.77-.21,2.87-.71,5.55-2.04,7.85-3.89,2.29-1.85,4.14-4.19,5.42-6.83,1.28-2.64,1.94-5.53,1.96-8.46,0-2.93-.66-5.83-1.93-8.48-1.27-2.65-3.12-4.99-5.42-6.85-2.3-1.86-4.98-3.18-7.86-3.89-2.88-.7-5.88-.76-8.79-.18v8.19c0,.22,0,1.19,0,1.19,0,.97,0,1.94,0,1.94q0,.97,0,1.94c0,.97,0,1.01,0,2.91q0,1.94,0,3.88T0,822.69,0,824.63c0,.97,0,3.88,0,5.69v8.19ZM320,126.64h8V.01h-8v126.62ZM23.6,1202.95c.64-3.2.48-6.51-.48-9.63s-2.68-5.96-5.01-8.27c-2.33-2.31-5.21-4.01-8.36-4.96-3.16-.95-6.5-1.12-9.74-.48v8.19c0,2.56,0,13.23,0,15.17,2.94,0,2.94-.02,4.9,0,1.96.02,1.96-.02,3.92,0,1.96.02,3.92-.02,6.49-.02h8.28ZM1200.4,1202.95h8.28q2.42.03,4.38.05s1.96,0,2.94,0v-23.39c-2.57.52-5.02,1.53-7.2,2.99-2.17,1.45-4.04,3.32-5.49,5.48-1.45,2.17-2.45,4.6-2.95,7.15-.5,2.55-.49,5.18.04,7.72ZM1216,15.45V7.26q0-7.22-.98-7.24c-1.96.02-3.92,0-6.34,0h-8.28c.78,3.8,2.68,7.29,5.45,10.04,2.78,2.74,6.31,4.62,10.15,5.4ZM388,807.25c1.58,0,3.14.31,4.59.9,1.46.6,2.78,1.47,3.89,2.57,1.12,1.1,2,2.41,2.6,3.85.6,1.44.91,2.98.91,4.54s-.31,3.1-.91,4.54c-.6,1.44-1.49,2.75-2.6,3.85-1.11,1.1-2.44,1.98-3.89,2.57-1.46.6-3.02.9-4.59.9-3.18,0,14.35,1.69,12.1-.54-2.25-2.23-1.96.97,4.9-11.33-5.88-11.95-9.11-11.67-6.86-13.89,2.25-2.23-13.33,2.02-10.14,2.02ZM388,870.56c3.18,0-12.7-2.23-10.45,0,2.25,2.23-5.66,10.1-5.66,13.25s14.36,12.33,12.11,14.56,7.18-4.07,4-4.07-6.23-1.25-8.48-3.48c-2.25-2.23-3.52-5.24-3.52-8.39s1.26-6.17,3.52-8.39c2.25-2.23,5.3-3.48,8.48-3.48ZM452,807.25c1.58,0,3.14.31,4.59.9,1.46.6,2.78,1.47,3.89,2.57,1.12,1.1,2,2.41,2.6,3.85.6,1.44.91,2.98.91,4.54s-.31,3.1-.91,4.54c-.6,1.44-1.49,2.75-2.6,3.85-1.11,1.1-2.44,1.98-3.89,2.57-1.46.6-3.02.9-4.59.9-3.18,0,16.06,1.32,13.81-.9-2.25-2.23,2.94-7.16,2.94-10.31s-7.14-9.4-4.89-11.63c2.25-2.23-15.04-.9-11.86-.9ZM516,743.94c3.18,0-11.26-3.62-9.01-1.4,2.25,2.23-7.85,10.07-7.85,13.22s9.11,10.39,6.86,12.61c-2.25,2.23,13.17-.69,9.99-.69s-6.23-1.25-8.48-3.48c-2.25-2.23-3.52-5.25-3.52-8.39s1.26-6.17,3.52-8.39c2.25-2.23,5.3-3.48,8.48-3.48ZM516,680.62c3.18,0-12.24-.83-9.99,1.4,2.25,2.23-4.9,7.52-4.9,10.67s6.17,9.41,3.92,11.64c-2.25,2.23,14.15.03,10.97.03s-6.23-1.25-8.48-3.48c-2.25-2.23-3.52-5.25-3.52-8.39s1.26-6.17,3.52-8.39c2.25-2.23,5.3-3.48,8.48-3.48ZM324,554c3.18,0-10.74-2.23-8.48,0,2.25,2.23-7.59,8.46-7.59,11.61s8.13,10.39,5.88,12.61c-2.25,2.23,13.38-.48,10.19-.48s-6.23-1.25-8.48-3.48c-2.25-2.23-3.52-5.25-3.52-8.39s1.26-6.17,3.52-8.39c2.25-2.23,5.3-3.48,8.48-3.48ZM388,490.69c3.18,0-12.7-2.97-10.45-.74,2.25,2.23-3.92,9.46-3.92,12.61s7.15,10.39,4.9,12.61c-2.25,2.23,12.65-.74,9.47-.74s-6.23-1.25-8.48-3.48c-2.25-2.23-3.52-5.25-3.52-8.39s1.26-6.17,3.52-8.39c2.25-2.23,5.3-3.48,8.48-3.48ZM516,300.75c3.18,0-10.28-4.14-8.03-1.92,2.25,2.23-9.81,10.64-9.81,13.79s15,16,12.75,18.23c-2.25,2.23,8.27-6.35,5.08-6.35s-6.23-1.25-8.48-3.48c-2.25-2.23-3.52-5.25-3.52-8.39s1.26-6.17,3.52-8.39c2.25-2.23,5.3-3.48,8.48-3.48ZM452,237.44c3.18,0-12.96-2.23-10.71,0,2.25,2.23-4.9,8.77-4.9,11.92s9.38,9.6,7.13,11.82c-2.25,2.23,11.67,0,8.48,0s-6.23-1.25-8.48-3.48c-2.25-2.23-3.52-5.24-3.52-8.39s1.26-6.17,3.52-8.39c2.25-2.23,5.3-3.48,8.48-3.48ZM580,300.75c3.18,0-10.74-4.14-8.48-1.92,2.25,2.23-7.62,10.64-7.62,13.79s11.06,13.09,8.81,15.32c-2.25,2.23,10.49-3.44,7.3-3.44s-6.23-1.25-8.48-3.48c-2.25-2.23-3.52-5.25-3.52-8.39s1.26-6.17,3.52-8.39c2.25-2.23,5.3-3.48,8.48-3.48ZM580,427.37c3.18,0-12.49-2.23-10.24,0,2.25,2.23-6.86,8.98-6.86,12.12s7.36,8.45,5.11,10.67c-2.25,2.23,15.18.95,12,.95s-6.23-1.25-8.48-3.48c-2.25-2.23-3.52-5.24-3.52-8.39s1.26-6.17,3.52-8.39c2.25-2.23,5.3-3.48,8.48-3.48ZM644,300.75c3.18,0-11.77-3.17-9.52-.95,2.25,2.23-7.85,9.46-7.85,12.61s8.14,9.42,5.88,11.64c-2.25,2.23,14.67.44,11.48.44s-6.23-1.25-8.48-3.48c-2.25-2.23-3.52-5.25-3.52-8.39s1.26-6.17,3.52-8.39c2.25-2.23,5.3-3.48,8.48-3.48ZM772,237.44c3.18,0-10.74-3.62-8.48-1.4,2.25,2.23-7.44,11.14-7.44,14.29s9.69,10.02,7.44,12.25c-2.25,2.23,11.67-1.4,8.48-1.4s-6.23-1.25-8.48-3.48c-2.25-2.23-3.52-5.24-3.52-8.39s1.26-6.17,3.52-8.39c2.25-2.23,5.3-3.48,8.48-3.48ZM772,300.75c3.18,0-11.31-5.03-9.06-2.8,2.25,2.23-5.88,12.29-5.88,15.43s5.19,7.48,2.94,9.7c-2.25,2.23,15.18,1.41,12,1.41s-6.23-1.25-8.48-3.48c-2.25-2.23-3.52-5.25-3.52-8.39s1.26-6.17,3.52-8.39c2.25-2.23,5.3-3.48,8.48-3.48ZM708,554c3.18,0-9.09-3.22-6.84-1-2.94,1.94-9.27,9.72-9.27,12.87s3.39,9.44,5.35,12.35c.98,2.91,13.94-.48,10.76-.48s-6.23-1.25-8.48-3.48c-2.25-2.23-3.52-5.25-3.52-8.39s1.26-6.17,3.52-8.39c2.25-2.23,5.3-3.48,8.48-3.48ZM772,554c3.18,0-9.35-5.16-7.1-2.94-3.92,1.94-9.01,11.66-9.01,14.81s7.05,11.87,10.97,14.67c-2.25,2.23,8.32-2.8,5.14-2.8s-6.23-1.25-8.48-3.48c-2.25-2.23-3.52-5.25-3.52-8.39s1.26-6.17,3.52-8.39c2.25-2.23,5.3-3.48,8.48-3.48ZM836,174.12c3.18,0-8.62-3.62-6.37-1.4-2.94,1.93-7.84,2.9-11.77,13.27,4.9,10,9.81,10.97,12.75,13.89-2.25,2.23,8.58-2.01,5.39-2.01s-6.23-1.25-8.48-3.48c-2.25-2.23-3.52-5.25-3.52-8.39s1.26-6.17,3.52-8.39c2.25-2.23,5.3-3.48,8.48-3.48ZM836,110.81c3.18,0-7.64-4.35-5.39-2.12,2.25,2.23-8.83,2.91-11.42,13.99,3.57,11.23,12.69,11.91,10.44,14.14-2.25,2.23,9.56-2.27,6.37-2.27s-6.23-1.25-8.48-3.48c-2.25-2.23-3.52-5.25-3.52-8.39s1.26-6.17,3.52-8.39c2.25-2.23,5.3-3.48,8.48-3.48ZM900,47.5c3.18,0-8.88-3.12-6.63-.9,2.25,2.23-6.86.9-8.83,12.77,1.96,11.87,3.92,11.48,7.85,13.27-2.25,2.23,10.8-1.4,7.61-1.4s-6.23-1.25-8.48-3.48c-2.25-2.23-3.52-5.25-3.52-8.39s1.26-6.17,3.52-8.39c2.25-2.23,5.3-3.48,8.48-3.48ZM964,617.31c3.18,0,6.23,1.25,8.48,3.48,2.25,2.23-2.63-6.62-2.63-3.48s-5.59-5.44-7.84-3.22c-2.25,2.23-4.9,1.82-6.5,6.69-3.18,0-1.27-1.11-3.52-3.34s0,14.88,0,11.73,1.26-6.17,3.52-8.39c2.25-2.23,5.3-3.48,8.48-3.48ZM964,490.69c3.18,0-5.22-6.29-2.97-4.07,2.25,2.23-8.89,4.07-13.73,15.94,3.92,10.67,14.02,12.32,11.77,14.55s8.11-2.68,4.93-2.68-6.23-1.25-8.48-3.48c-2.25-2.23-3.52-5.25-3.52-8.39s1.26-6.17,3.52-8.39c2.25-2.23,5.3-3.48,8.48-3.48ZM1028,617.31c3.18,0-10.74-2.51-8.49-.28,2.26,2.23-5.52,2.67-5.52,5.82-.98-6.79,0,3.15,0,0-2.25,2.23,3.18,11.64,0,11.64s7.78,5.31,5.52,3.09c-2.25-2.23-3.51-5.25-3.51-8.39s1.26-6.17,3.51-8.39c2.26-2.23,5.31-3.48,8.49-3.48ZM1092,680.62c3.18,0-.54-4.44-13.29.41-3.92,7.76,1.29,8.32,1.29,11.46s.96-.11-1.29,2.12,4.62,5.37,1.43,5.37,5.63,3.13,3.37.9c-2.25-2.23-3.51-5.25-3.51-8.39s1.26-6.17,3.51-8.39c2.26-2.23,5.31-3.48,8.49-3.48ZM708,680.62c3.18,0-10.07-3.73-7.82-1.51,2.25,2.23-8.83,10.43-8.83,13.58s8.16,13.07,13.73,15.52c-2.25,2.23,6.1-3.85,2.92-3.85s-6.23-1.25-8.48-3.48c-2.25-2.23-3.52-5.25-3.52-8.39s1.26-6.17,3.52-8.39c2.25-2.23,5.3-3.48,8.48-3.48ZM708,617.31c3.18,0-9.09-4.45-6.84-2.22,2.25,2.23-9.81,10.43-9.81,13.58s10.41,11.56,8.16,13.78c-2.25,2.23,11.67-1.4,8.48-1.4s-6.23-1.25-8.48-3.48c-2.25-2.23-3.52-5.25-3.52-8.39s1.26-6.17,3.52-8.39c2.25-2.23,5.3-3.48,8.48-3.48ZM772,743.94c3.18,0-6.41-4.96-4.16-2.73,2.25,2.23-9.81,6.21-11.77,15.52,2.94,10.96,14.02,11.36,11.77,13.58-2.25,2.23,7.34-2.63,4.16-2.63s-6.23-1.25-8.48-3.48c-2.25-2.23-3.52-5.25-3.52-8.39s1.26-6.17,3.52-8.39c2.25-2.23,5.3-3.48,8.48-3.48ZM1156,743.94c3.18,0,7.63,1.12,5.08-1.4,2.25,2.23-21.57-5.24-21.57,13.27,1.96,15.45,16.96,11.04,14.71,13.27-2.25,2.23,4.96-1.4,1.78-1.4s-6.23-1.25-8.49-3.48c-2.25-2.23-3.51-5.25-3.51-8.39s1.26-6.17,3.51-8.39c2.26-2.23,5.31-3.48,8.49-3.48ZM1092,997.19c3.18,0-7.7-3.07-5.45-.84,2.26,2.23-3.92-2.91-9.8,12.61,3.92,15.53,14.02,10.39,11.77,12.62-2.25,2.22,6.66-.64,3.48-.64s-6.23-1.25-8.49-3.48c-2.25-2.22-3.51-5.24-3.51-8.39s1.26-6.17,3.51-8.39c2.26-2.23,5.31-3.48,8.49-3.48ZM1156,1060.5c3.18,0-11.88-.42-9.63,1.81,2.25,2.23,1.14-4.85-6.86,10.06,3.92,13.22,12.06,9.65,9.81,11.87-2.25,2.23,9.86,0,6.68,0s-6.23-1.25-8.49-3.47c-2.25-2.23-3.51-5.25-3.51-8.4s1.26-6.17,3.51-8.39c2.26-2.23,5.31-3.48,8.49-3.48ZM1028,1060.5c3.18,0-1.26-4.98-5.19-3.04-3.3.45-7.84,2.91-11.76,14.91,2.94,11.28,17.94,12.94,15.69,15.16-2.25,2.23,4.44-3.29,1.26-3.29s-6.23-1.25-8.49-3.47c-2.25-2.23-3.51-5.25-3.51-8.4s1.26-6.17,3.51-8.39c2.26-2.23,5.31-3.48,8.49-3.48ZM1028,1123.81c3.18,0-10.74-5.02-8.49-2.8,2.26,2.23-7.48,11.88-7.48,15.03s9.11,11.35,6.86,13.58,12.29-2.06,9.11-2.06-6.23-1.25-8.49-3.48c-2.25-2.23-3.51-5.25-3.51-8.4s1.26-6.16,3.51-8.39c2.26-2.23,5.31-3.48,8.49-3.48ZM964,1123.81c3.18,0-8.16-3.58-5.91-1.35-3.43,1.35-7.85,4.85-10.2,13.22,2.35,8.12,13.43,13.66,11.18,15.88-2.25,2.23,8.11-4,4.93-4s-6.23-1.25-8.48-3.48c-2.25-2.23-3.52-5.25-3.52-8.4s1.26-6.16,3.52-8.39c2.25-2.23,5.3-3.48,8.48-3.48ZM900,1123.81c3.18,0-6.92-5.52-4.67-3.29,2.25,2.22-7.33,2.34-11.44,15.16,1.63,11.03,11.73,12.68,9.48,14.91-2.25,2.23,9.82-3.03,6.63-3.03s-6.23-1.25-8.48-3.48c-2.25-2.23-3.52-5.25-3.52-8.4s1.26-6.16,3.52-8.39c2.25-2.23,5.3-3.48,8.48-3.48ZM836,1123.81c3.18,0-8.62-4.55-6.37-2.32,2.25,2.22-10.79,11.05-10.79,14.19s10.1,10.74,7.85,12.97,12.5-1.09,9.32-1.09-6.23-1.25-8.48-3.48c-2.25-2.23-3.52-5.25-3.52-8.4s1.26-6.16,3.52-8.39c2.25-2.23,5.3-3.48,8.48-3.48ZM196,1060.5c3.18,0-2.01-4.67-8.7-1.1-3.3,1.76-5.88,5.82-7.85,12.97,2.25-2.22,0,3.15,0,0-2.25,2.23,9.81,16.13,8.83,12.25,6.87,1.02,1.48-1.63-.77-3.85-2.25-2.23-3.51-5.25-3.51-8.4s1.26-6.17,3.51-8.39c2.25-2.23,5.3-3.48,8.49-3.48ZM68,1060.5c3.18,0-12.39-.42-10.14,1.81,2.25,2.23-6.86,6.91-6.86,10.06s10.77,9.65,8.52,11.87c-2.25,2.23,11.67,0,8.49,0s-6.23-1.25-8.49-3.47c-2.25-2.23-3.51-5.25-3.51-8.4s1.26-6.17,3.51-8.39c2.25-2.23,5.3-3.48,8.49-3.48ZM196,997.19c3.18,0-9.97-4.04-7.72-1.82,2.25,2.23-8.39,10.54-8.39,13.69s10.64,12.45,8.39,14.67c-2.25,2.23,10.9-2.8,7.72-2.8s-6.24-1.25-8.49-3.48c-2.25-2.22-3.51-5.24-3.51-8.39s1.26-6.17,3.51-8.39c2.25-2.23,5.3-3.48,8.49-3.48ZM132,933.88c3.18,0-10.74-4.76-8.49-2.53,2.25,2.23-7.62,11.25-7.62,14.4s10.9,12.45,8.65,14.67c-2.25,2.23,10.64-2.8,7.46-2.8s-6.24-1.25-8.49-3.48c-2.25-2.23-3.51-5.25-3.51-8.39s1.26-6.17,3.51-8.39c2.25-2.23,5.3-3.48,8.49-3.48ZM196,1123.81c3.18,0-14.25-.67-12,1.56,2.25,2.22-4.54,7.17-4.54,10.31s7.15,9.77,4.9,12c-2.25,2.23,14.82-.12,11.64-.12s-6.24-1.25-8.49-3.48c-2.25-2.23-3.51-5.25-3.51-8.4s1.26-6.16,3.51-8.39c2.25-2.23,5.3-3.48,8.49-3.48ZM196,174.12c3.18,0-14.25-.37-12,1.86,2.25,2.23-3.56,6.87-3.56,10.01s5.81,8.23,3.56,10.45,15.18,1.42,12,1.42-6.24-1.25-8.49-3.48c-2.25-2.23-3.51-5.25-3.51-8.39s1.26-6.17,3.51-8.39c2.25-2.23,5.3-3.48,8.49-3.48ZM260,47.5c3.18,0-14.15-.21-11.9,2.01,2.25,2.23-4.21,6.71-4.21,9.86s6.46,8.29,4.21,10.51c-2.25,2.23,15.08,1.36,11.9,1.36s-6.24-1.25-8.49-3.48c-2.25-2.23-3.51-5.25-3.51-8.39s1.26-6.17,3.51-8.39c2.25-2.23,5.3-3.48,8.49-3.48ZM196,300.75c3.18,0-12.91-1.23-10.66.99,2.25,2.23-4.17,8.49-4.17,11.64s10.35,11.36,8.1,13.58c-2.25,2.23,9.92-2.47,6.74-2.47s-6.24-1.25-8.49-3.48c-2.25-2.23-3.51-5.25-3.51-8.39s1.26-6.17,3.51-8.39c2.25-2.23,5.3-3.48,8.49-3.48ZM196,237.44c3.18,0-12.91,0-10.66,2.22,2.25,2.23-4.9,6.5-4.9,9.65s8.13,10.43,5.88,12.66c-2.25,2.23,12.86-.79,9.68-.79s-6.24-1.25-8.49-3.48c-2.25-2.23-3.51-5.24-3.51-8.39s1.26-6.17,3.51-8.39c2.25-2.23,5.3-3.48,8.49-3.48ZM132,364.06c3.18,0-11.67-2.23-9.42,0,2.25,2.23-6.86,8.72-6.86,11.87s11.08,11.04,8.83,13.27c-2.25,2.23,10.64-1.4,7.46-1.4s-6.24-1.25-8.49-3.48c-2.25-2.23-3.51-5.25-3.51-8.39s1.26-6.17,3.51-8.4c2.25-2.23,5.3-3.48,8.49-3.48ZM452,1060.5c3.18,0-12.96-2.08-10.71.14,2.25,2.23-6.86,8.58-6.86,11.73s11.34,11,9.09,13.22c-2.25,2.23,11.67-1.35,8.48-1.35s-6.23-1.25-8.48-3.47c-2.25-2.23-3.52-5.25-3.52-8.4s1.26-6.17,3.52-8.39c2.25-2.23,5.3-3.48,8.48-3.48ZM516,1060.5c3.18,0-12.24-2.08-9.99.14,2.25,2.23-6.86,8.58-6.86,11.73s9.11,9.65,6.86,11.87c-2.25,2.23,13.17,0,9.99,0s-6.23-1.25-8.48-3.47c-2.25-2.23-3.52-5.25-3.52-8.4s1.26-6.17,3.52-8.39c2.25-2.23,5.3-3.48,8.48-3.48ZM452,1123.81c3.18,0-11.98-1.64-9.73.59,2.25,2.22-7.85,8.14-7.85,11.28s10.1,9.65,7.85,11.88c-2.25,2.22,12.91,0,9.73,0s-6.23-1.25-8.48-3.48c-2.25-2.23-3.52-5.25-3.52-8.4s1.26-6.16,3.52-8.39c2.25-2.23,5.3-3.48,8.48-3.48ZM580,933.88c3.18,0-11.52-2.23-9.26,0,2.25,2.23-7.85,8.72-7.85,11.87s10.87,10.53,8.62,12.76c-2.25,2.23,11.67-.89,8.48-.89s-6.23-1.25-8.48-3.48c-2.25-2.23-3.52-5.25-3.52-8.39s1.26-6.17,3.52-8.39c2.25-2.23,5.3-3.48,8.48-3.48ZM644,997.19c3.18,0-10.74-5.01-8.48-2.78,2.25,2.23-8.88,11.51-8.88,14.66s11.13,12.22,8.88,14.45c-2.25,2.22,11.67-2.58,8.48-2.58s-6.23-1.25-8.48-3.48c-2.25-2.22-3.52-5.24-3.52-8.39s1.26-6.17,3.52-8.39c2.25-2.23,5.3-3.48,8.48-3.48ZM644,1123.81c3.18,0-11.77-2.22-9.52,0,2.25,2.23-7.85,8.73-7.85,11.87s12.06,13.66,9.81,15.88c-2.25,2.23,10.74-4,7.56-4s-6.23-1.25-8.48-3.48c-2.25-2.23-3.52-5.25-3.52-8.4s1.26-6.16,3.52-8.39c2.25-2.23,5.3-3.48,8.48-3.48ZM1092,427.37c3.18,0-8.68-5.03-6.43-2.8s-9.8,11.78-9.8,14.92,8.13,9.25,5.88,11.48c-2.25,2.23,13.53.14,10.35.14s-6.23-1.25-8.49-3.48c-2.25-2.23-3.51-5.24-3.51-8.39s1.26-6.17,3.51-8.39c2.26-2.23,5.31-3.48,8.49-3.48ZM1028,364.06c3.18,0-6.46-4.4-4.21-2.17,2.25,2.23-8.82,1.94-11.76,14.55,4.9,13.58,14.01,11.35,11.76,13.58-2.25,2.23,7.39-2.22,4.21-2.22s-6.23-1.25-8.49-3.48c-2.25-2.23-3.51-5.25-3.51-8.39s1.26-6.17,3.51-8.4c2.26-2.23,5.31-3.48,8.49-3.48ZM1028,300.75c3.18,0-3.51-4.14-1.26-1.92,2.25,2.23-7.85-2.91-14.71,13.79,4.9,14.35,15.98,12.12,13.72,14.35-2.25,2.23,5.43-2.47,2.25-2.47s-6.23-1.25-8.49-3.48c-2.25-2.23-3.51-5.25-3.51-8.39s1.26-6.17,3.51-8.39c2.26-2.23,5.31-3.48,8.49-3.48ZM1028,237.44c3.18,0-10.38-2.23-8.13,0s-7.84,3.19-7.84,11.87c0,6.84,2.94,11.87,7.48,14.6-2.25,2.23,11.67-2.73,8.49-2.73s-6.23-1.25-8.49-3.48c-2.25-2.23-3.51-5.24-3.51-8.39s1.26-6.17,3.51-8.39c2.26-2.23,5.31-3.48,8.49-3.48ZM68,490.69c3.18,0-14.25-.06-12,2.17,2.25,2.23-5.01,6.56-5.01,9.7s9.11,11.04,6.86,13.27c-2.25,2.23,13.32-1.4,10.14-1.4s-6.23-1.25-8.49-3.48c-2.25-2.23-3.51-5.25-3.51-8.39s1.26-6.17,3.51-8.39c2.25-2.23,5.3-3.48,8.49-3.48ZM68,427.37c3.18,0-13.37-2.23-11.12,0,2.25,2.23-5.88,8.72-5.88,11.87s8.13,9.65,5.88,11.87c-2.25,2.23,14.31,0,11.12,0s-6.23-1.25-8.49-3.48c-2.25-2.23-3.51-5.24-3.51-8.39s1.26-6.17,3.51-8.39c2.25-2.23,5.3-3.48,8.49-3.48ZM68,554c3.18,0-14.25-2.23-12,0,2.25,2.23-3.04,8.46-3.04,11.61s5.3,7.48,3.04,9.7c-2.25,2.23,15.18,2.43,12,2.43s-6.23-1.25-8.49-3.48c-2.25-2.23-3.51-5.25-3.51-8.39s1.26-6.17,3.51-8.39c2.25-2.23,5.3-3.48,8.49-3.48ZM132,554c3.18,0-10.74-4.2-8.49-1.97,2.25,2.23-7.8,11.4-7.8,14.55s12.06,10.39,9.81,12.61c-2.25,2.23,9.66-1.45,6.48-1.45s-6.24-1.25-8.49-3.48c-2.25-2.23-3.51-5.25-3.51-8.39s1.26-6.17,3.51-8.39c2.25-2.23,5.3-3.48,8.49-3.48ZM68,870.56c3.18,0-12.39-2.23-10.14,0s-6.86,8.72-6.86,11.87,11.08,11.76,8.83,13.99c-2.25,2.23,11.36-2.12,8.18-2.12s-6.23-1.25-8.49-3.48c-2.25-2.23-3.51-5.24-3.51-8.39s1.26-6.17,3.51-8.39c2.25-2.23,5.3-3.48,8.49-3.48ZM196,617.31c3.18,0-11.93-4.45-9.68-2.22,2.25,2.23-4.9,11.4-4.9,14.55s9.12,14.27,6.86,16.49c-2.25,2.23,10.9-5.08,7.72-5.08s-6.24-1.25-8.49-3.48c-2.25-2.23-3.51-5.25-3.51-8.39s1.26-6.17,3.51-8.39c2.25-2.23,5.3-3.48,8.49-3.48ZM260,680.62c3.18,0-11.9-2.23-9.65,0,2.25,2.23-5.19,9.89-5.19,13.04s7.15,9.41,4.9,11.64c-2.25,2.23,13.12-.94,9.93-.94s-6.24-1.25-8.49-3.48c-2.25-2.23-3.51-5.25-3.51-8.39s1.26-6.17,3.51-8.39c2.25-2.23,5.3-3.48,8.49-3.48Z"/>
</svg>