<svg width="1440" height="417" viewBox="0 0 1440 417" fill="none" xmlns="http://www.w3.org/2000/svg">
<mask id="mask0_6840_177" style="mask-type:luminance" maskUnits="userSpaceOnUse" x="-450" y="0" width="2000" height="778">
<path d="M1550 0H-450V778H1550V0Z" fill="white" fill-opacity="0.8"/>
<path d="M1549.5 0.5V777.5H-449.5V0.5H1549.5Z" stroke="white" stroke-opacity="0.8"/>
<path d="M1482.29 354.268C1482.29 355.65 1482.84 356.975 1483.82 357.952C1484.79 358.929 1486.12 359.478 1487.5 359.478C1488.88 359.478 1490.21 358.929 1491.18 357.952C1492.16 356.975 1492.71 355.65 1492.71 354.268C1492.71 352.886 1492.16 351.561 1491.18 350.584C1490.21 349.607 1488.88 349.058 1487.5 349.058C1486.12 349.058 1484.79 349.607 1483.82 350.584C1482.84 351.561 1482.29 352.886 1482.29 354.268ZM1398.96 437.625C1398.96 439.007 1399.51 440.332 1400.48 441.309C1401.46 442.286 1402.79 442.835 1404.17 442.835C1405.55 442.835 1406.87 442.286 1407.85 441.309C1408.83 440.332 1409.38 439.007 1409.38 437.625C1409.38 436.243 1408.83 434.918 1407.85 433.941C1406.87 432.964 1405.55 432.415 1404.17 432.415C1402.79 432.415 1401.46 432.964 1400.48 433.941C1399.51 434.918 1398.96 436.243 1398.96 437.625Z" fill="black"/>
<path d="M1404.17 432.916C1405.42 432.916 1406.61 433.411 1407.5 434.294C1408.38 435.178 1408.88 436.376 1408.88 437.625C1408.88 438.874 1408.38 440.072 1407.5 440.956C1406.61 441.839 1405.42 442.334 1404.17 442.334C1402.92 442.334 1401.72 441.839 1400.84 440.956C1399.95 440.072 1399.46 438.874 1399.46 437.625C1399.46 436.376 1399.95 435.178 1400.84 434.294C1401.72 433.411 1402.92 432.916 1404.17 432.916ZM1487.5 349.558C1488.75 349.558 1489.95 350.055 1490.83 350.938C1491.71 351.821 1492.21 353.019 1492.21 354.268C1492.21 355.517 1491.71 356.715 1490.83 357.598C1489.95 358.481 1488.75 358.978 1487.5 358.978C1486.25 358.978 1485.05 358.481 1484.17 357.598C1483.29 356.715 1482.79 355.517 1482.79 354.268C1482.79 353.019 1483.29 351.821 1484.17 350.938C1485.05 350.055 1486.25 349.558 1487.5 349.558Z" stroke="white" stroke-opacity="0.8"/>
<path d="M940.625 229.232C940.625 230.614 941.174 231.939 942.15 232.916C943.127 233.893 944.452 234.442 945.833 234.442C947.215 234.442 948.539 233.893 949.516 232.916C950.493 231.939 951.042 230.614 951.042 229.232C951.042 227.85 950.493 226.525 949.516 225.548C948.539 224.571 947.215 224.022 945.833 224.022C944.452 224.022 943.127 224.571 942.15 225.548C941.174 226.525 940.625 227.85 940.625 229.232ZM1232.29 312.589C1232.29 313.971 1232.84 315.296 1233.82 316.273C1234.79 317.25 1236.12 317.799 1237.5 317.799C1238.88 317.799 1240.21 317.25 1241.18 316.273C1242.16 315.296 1242.71 313.971 1242.71 312.589C1242.71 311.208 1242.16 309.882 1241.18 308.905C1240.21 307.928 1238.88 307.379 1237.5 307.379C1236.12 307.379 1234.79 307.928 1233.82 308.905C1232.84 309.882 1232.29 311.208 1232.29 312.589ZM1065.63 270.911C1065.63 272.292 1066.17 273.618 1067.15 274.595C1068.13 275.572 1069.45 276.121 1070.83 276.121C1072.21 276.121 1073.54 275.572 1074.52 274.595C1075.49 273.618 1076.04 272.292 1076.04 270.911C1076.04 269.529 1075.49 268.204 1074.52 267.227C1073.54 266.25 1072.21 265.701 1070.83 265.701C1069.45 265.701 1068.13 266.25 1067.15 267.227C1066.17 268.204 1065.63 269.529 1065.63 270.911ZM1023.96 354.268C1023.96 355.65 1024.51 356.975 1025.48 357.952C1026.46 358.929 1027.79 359.478 1029.17 359.478C1030.55 359.478 1031.87 358.929 1032.85 357.952C1033.83 356.975 1034.38 355.65 1034.38 354.268C1034.38 352.886 1033.83 351.561 1032.85 350.584C1031.87 349.607 1030.55 349.058 1029.17 349.058C1027.79 349.058 1026.46 349.607 1025.48 350.584C1024.51 351.561 1023.96 352.886 1023.96 354.268Z" fill="black"/>
<path d="M1029.17 349.558C1030.42 349.559 1031.61 350.054 1032.5 350.937C1033.38 351.821 1033.87 353.018 1033.88 354.267C1033.88 355.517 1033.38 356.715 1032.5 357.599C1031.61 358.482 1030.42 358.977 1029.17 358.977C1027.92 358.977 1026.72 358.482 1025.84 357.599C1024.95 356.715 1024.46 355.517 1024.46 354.267C1024.46 353.018 1024.95 351.821 1025.84 350.937C1026.72 350.054 1027.92 349.558 1029.17 349.558ZM1237.5 307.88C1238.75 307.88 1239.95 308.376 1240.83 309.259C1241.71 310.142 1242.21 311.341 1242.21 312.59C1242.21 313.839 1241.71 315.037 1240.83 315.92C1239.95 316.803 1238.75 317.299 1237.5 317.299C1236.25 317.299 1235.05 316.803 1234.17 315.92C1233.29 315.037 1232.79 313.839 1232.79 312.59C1232.79 311.341 1233.29 310.142 1234.17 309.259C1235.05 308.376 1236.25 307.88 1237.5 307.88ZM1070.83 266.201C1072.08 266.201 1073.28 266.697 1074.16 267.58C1075.05 268.463 1075.54 269.662 1075.54 270.911C1075.54 272.16 1075.05 273.358 1074.16 274.241C1073.28 275.124 1072.08 275.621 1070.83 275.621C1069.58 275.621 1068.39 275.124 1067.5 274.241C1066.62 273.358 1066.13 272.16 1066.12 270.911C1066.12 269.662 1066.62 268.463 1067.5 267.58C1068.39 266.697 1069.58 266.201 1070.83 266.201ZM945.833 224.522C947.082 224.522 948.28 225.019 949.163 225.902C950.046 226.785 950.542 227.983 950.542 229.232C950.542 230.481 950.046 231.679 949.163 232.562C948.28 233.446 947.082 233.942 945.833 233.942C944.584 233.942 943.387 233.446 942.504 232.562C941.621 231.679 941.125 230.481 941.125 229.232C941.125 227.983 941.621 226.785 942.504 225.902C943.387 225.019 944.584 224.522 945.833 224.522Z" stroke="white" stroke-opacity="0.8"/>
<path d="M1107.29 187.554C1107.29 188.935 1107.84 190.26 1108.82 191.237C1109.79 192.215 1111.12 192.763 1112.5 192.763C1113.88 192.763 1115.21 192.215 1116.18 191.237C1117.16 190.26 1117.71 188.935 1117.71 187.554C1117.71 186.172 1117.16 184.847 1116.18 183.87C1115.21 182.893 1113.88 182.344 1112.5 182.344C1111.12 182.344 1109.79 182.893 1108.82 183.87C1107.84 184.847 1107.29 186.172 1107.29 187.554Z" fill="black"/>
<path d="M1112.5 182.844C1113.75 182.844 1114.95 183.34 1115.83 184.224C1116.71 185.107 1117.21 186.305 1117.21 187.554C1117.21 188.803 1116.71 190.001 1115.83 190.884C1114.95 191.767 1113.75 192.264 1112.5 192.264C1111.25 192.264 1110.05 191.767 1109.17 190.884C1108.29 190.001 1107.79 188.803 1107.79 187.554C1107.79 186.305 1108.29 185.107 1109.17 184.224C1110.05 183.34 1111.25 182.844 1112.5 182.844Z" stroke="white" stroke-opacity="0.8"/>
<path d="M815.625 104.196C815.625 105.578 816.174 106.903 817.15 107.88C818.127 108.857 819.452 109.406 820.833 109.406C822.215 109.406 823.539 108.857 824.516 107.88C825.493 106.903 826.042 105.578 826.042 104.196C826.042 102.815 825.493 101.49 824.516 100.512C823.539 99.5355 822.215 98.9866 820.833 98.9866C819.452 98.9866 818.127 99.5355 817.15 100.512C816.174 101.49 815.625 102.815 815.625 104.196ZM1065.62 104.196C1065.62 105.578 1066.17 106.903 1067.15 107.88C1068.13 108.857 1069.45 109.406 1070.83 109.406C1072.21 109.406 1073.54 108.857 1074.52 107.88C1075.49 106.903 1076.04 105.578 1076.04 104.196C1076.04 102.815 1075.49 101.49 1074.52 100.512C1073.54 99.5355 1072.21 98.9866 1070.83 98.9866C1069.45 98.9866 1068.13 99.5355 1067.15 100.512C1066.17 101.49 1065.62 102.815 1065.62 104.196ZM857.292 104.196C857.292 105.578 857.84 106.903 858.817 107.88C859.794 108.857 861.119 109.406 862.5 109.406C863.881 109.406 865.206 108.857 866.183 107.88C867.16 106.903 867.708 105.578 867.708 104.196C867.708 102.815 867.16 101.49 866.183 100.512C865.206 99.5355 863.881 98.9866 862.5 98.9866C861.119 98.9866 859.794 99.5355 858.817 100.512C857.84 101.49 857.292 102.815 857.292 104.196ZM1357.29 145.875C1357.29 147.257 1357.84 148.582 1358.82 149.559C1359.79 150.536 1361.12 151.085 1362.5 151.085C1363.88 151.085 1365.21 150.536 1366.18 149.559C1367.16 148.582 1367.71 147.257 1367.71 145.875C1367.71 144.493 1367.16 143.168 1366.18 142.191C1365.21 141.214 1363.88 140.665 1362.5 140.665C1361.12 140.665 1359.79 141.214 1358.82 142.191C1357.84 143.168 1357.29 144.493 1357.29 145.875ZM857.292 187.554C857.292 188.935 857.84 190.26 858.817 191.237C859.794 192.214 861.119 192.763 862.5 192.763C863.881 192.763 865.206 192.214 866.183 191.237C867.16 190.26 867.708 188.935 867.708 187.554C867.708 186.172 867.16 184.847 866.183 183.87C865.206 182.893 863.881 182.344 862.5 182.344C861.119 182.344 859.794 182.893 858.817 183.87C857.84 184.847 857.292 186.172 857.292 187.554ZM1148.96 104.196C1148.96 105.578 1149.51 106.903 1150.48 107.88C1151.46 108.857 1152.79 109.406 1154.17 109.406C1155.55 109.406 1156.87 108.857 1157.85 107.88C1158.83 106.903 1159.38 105.578 1159.38 104.196C1159.38 102.815 1158.83 101.49 1157.85 100.512C1156.87 99.5355 1155.55 98.9866 1154.17 98.9866C1152.79 98.9866 1151.46 99.5355 1150.48 100.512C1149.51 101.49 1148.96 102.815 1148.96 104.196Z" fill="black"/>
<path d="M862.5 182.844C863.749 182.844 864.946 183.34 865.829 184.223C866.712 185.106 867.208 186.305 867.208 187.554C867.208 188.803 866.712 190.001 865.829 190.884C864.946 191.767 863.749 192.263 862.5 192.263C861.251 192.263 860.054 191.767 859.171 190.884C858.288 190.001 857.792 188.803 857.792 187.554C857.792 186.305 858.288 185.106 859.171 184.223C860.054 183.34 861.251 182.844 862.5 182.844ZM1362.5 141.165C1363.75 141.165 1364.95 141.661 1365.83 142.544C1366.71 143.427 1367.21 144.626 1367.21 145.875C1367.21 147.124 1366.71 148.322 1365.83 149.205C1364.95 150.089 1363.75 150.585 1362.5 150.585C1361.25 150.585 1360.05 150.089 1359.17 149.205C1358.29 148.322 1357.79 147.124 1357.79 145.875C1357.79 144.626 1358.29 143.427 1359.17 142.544C1360.05 141.661 1361.25 141.165 1362.5 141.165ZM820.833 99.4866C822.082 99.4866 823.28 99.9832 824.163 100.866C825.046 101.75 825.542 102.948 825.542 104.197C825.542 105.446 825.046 106.643 824.163 107.527C823.28 108.41 822.082 108.906 820.833 108.906C819.584 108.906 818.387 108.41 817.504 107.527C816.621 106.643 816.125 105.446 816.125 104.197C816.125 102.948 816.621 101.75 817.504 100.866C818.387 99.9833 819.584 99.4867 820.833 99.4866ZM862.5 99.4866C863.749 99.4866 864.946 99.9832 865.829 100.866C866.712 101.75 867.208 102.947 867.208 104.197C867.208 105.446 866.712 106.643 865.829 107.527C864.946 108.41 863.749 108.906 862.5 108.906C861.251 108.906 860.054 108.41 859.171 107.527C858.288 106.643 857.792 105.446 857.792 104.197C857.792 102.947 858.288 101.75 859.171 100.866C860.054 99.9832 861.251 99.4866 862.5 99.4866ZM1070.83 99.4866C1072.08 99.4866 1073.28 99.9832 1074.16 100.866C1075.05 101.75 1075.54 102.947 1075.54 104.197C1075.54 105.446 1075.05 106.643 1074.16 107.527C1073.28 108.41 1072.08 108.906 1070.83 108.906C1069.58 108.906 1068.39 108.41 1067.5 107.527C1066.62 106.643 1066.13 105.446 1066.12 104.197C1066.12 102.948 1066.62 101.75 1067.5 100.866C1068.39 99.9833 1069.58 99.4867 1070.83 99.4866ZM1154.17 99.4866C1155.42 99.4867 1156.61 99.9833 1157.5 100.866C1158.38 101.75 1158.88 102.948 1158.88 104.197C1158.87 105.446 1158.38 106.643 1157.5 107.527C1156.61 108.41 1155.42 108.906 1154.17 108.906C1152.92 108.906 1151.72 108.41 1150.84 107.527C1149.95 106.643 1149.46 105.446 1149.46 104.197C1149.46 102.947 1149.95 101.75 1150.84 100.866C1151.72 99.9832 1152.92 99.4866 1154.17 99.4866Z" stroke="white" stroke-opacity="0.8"/>
</mask>
<g mask="url(#mask0_6840_177)">
<path d="M1570.83 395.946H1529.17H1487.5H1445.83L1404.17 437.625M1570.83 395.946H1612.5M1570.83 395.946L1529.17 354.268H1487.5" stroke="#90E0EF" stroke-opacity="0.18" stroke-width="5"/>
<path d="M1477.08 354.268C1477.08 357.031 1478.18 359.682 1480.13 361.636C1482.09 363.59 1484.74 364.687 1487.5 364.687C1490.26 364.687 1492.91 363.59 1494.87 361.636C1496.82 359.682 1497.92 357.031 1497.92 354.268C1497.92 351.504 1496.82 348.854 1494.87 346.9C1492.91 344.946 1490.26 343.848 1487.5 343.848C1484.74 343.848 1482.09 344.946 1480.13 346.9C1478.18 348.854 1477.08 351.504 1477.08 354.268ZM1393.75 437.625C1393.75 440.388 1394.85 443.039 1396.8 444.993C1398.75 446.947 1401.4 448.045 1404.17 448.045C1406.93 448.045 1409.58 446.947 1411.53 444.993C1413.49 443.039 1414.58 440.388 1414.58 437.625C1414.58 434.861 1413.49 432.211 1411.53 430.257C1409.58 428.303 1406.93 427.205 1404.17 427.205C1401.4 427.205 1398.75 428.303 1396.8 430.257C1394.85 432.211 1393.75 434.861 1393.75 437.625Z" fill="#90E0EF" fill-opacity="0.1"/>
<path d="M1404.17 427.706C1406.8 427.706 1409.32 428.751 1411.18 430.611C1413.04 432.471 1414.08 434.994 1414.08 437.625C1414.08 440.255 1413.04 442.779 1411.18 444.639C1409.32 446.499 1406.8 447.544 1404.17 447.544C1401.54 447.544 1399.01 446.499 1397.15 444.639C1395.29 442.779 1394.25 440.255 1394.25 437.625C1394.25 434.994 1395.29 432.471 1397.15 430.611C1399.01 428.751 1401.54 427.706 1404.17 427.706ZM1487.5 344.348C1490.13 344.348 1492.65 345.393 1494.51 347.253C1496.37 349.114 1497.42 351.637 1497.42 354.268C1497.42 356.899 1496.37 359.422 1494.51 361.282C1492.65 363.142 1490.13 364.187 1487.5 364.187C1484.87 364.187 1482.35 363.142 1480.49 361.282C1478.63 359.422 1477.58 356.899 1477.58 354.268C1477.58 351.637 1478.63 349.114 1480.49 347.253C1482.35 345.393 1484.87 344.348 1487.5 344.348Z" stroke="#90E0EF" stroke-opacity="0.18"/>
<path d="M1404.17 270.911L1362.5 312.589H1320.83H1279.17H1237.5M1404.17 270.911L1445.83 312.589H1487.5H1529.17L1570.83 354.268H1612.5M1404.17 270.911H1362.5H1320.83H1279.17H1237.5H1195.83M1112.5 270.911H1070.83M1112.5 270.911H1154.17H1195.83M1112.5 270.911L1070.83 229.232H1029.17H987.5H945.833M1195.83 270.911L1154.17 312.589H1112.5L1070.83 354.268H1029.17" stroke="#90E0EF" stroke-opacity="0.18" stroke-width="5"/>
<path d="M935.417 229.232C935.417 231.996 936.514 234.646 938.467 236.6C940.421 238.554 943.07 239.652 945.833 239.652C948.596 239.652 951.245 238.554 953.199 236.6C955.152 234.646 956.25 231.996 956.25 229.232C956.25 226.469 955.152 223.818 953.199 221.864C951.245 219.91 948.596 218.812 945.833 218.812C943.07 218.812 940.421 219.91 938.467 221.864C936.514 223.818 935.417 226.469 935.417 229.232ZM1227.08 312.589C1227.08 315.353 1228.18 318.003 1230.13 319.957C1232.09 321.911 1234.74 323.009 1237.5 323.009C1240.26 323.009 1242.91 321.911 1244.87 319.957C1246.82 318.003 1247.92 315.353 1247.92 312.589C1247.92 309.826 1246.82 307.176 1244.87 305.221C1242.91 303.267 1240.26 302.17 1237.5 302.17C1234.74 302.17 1232.09 303.267 1230.13 305.221C1228.18 307.176 1227.08 309.826 1227.08 312.589ZM1060.42 270.911C1060.42 273.674 1061.51 276.324 1063.47 278.279C1065.42 280.233 1068.07 281.33 1070.83 281.33C1073.6 281.33 1076.25 280.233 1078.2 278.279C1080.15 276.324 1081.25 273.674 1081.25 270.911C1081.25 268.147 1080.15 265.497 1078.2 263.543C1076.25 261.589 1073.6 260.491 1070.83 260.491C1068.07 260.491 1065.42 261.589 1063.47 263.543C1061.51 265.497 1060.42 268.147 1060.42 270.911ZM1018.75 354.268C1018.75 357.031 1019.85 359.682 1021.8 361.636C1023.75 363.59 1026.4 364.688 1029.17 364.688C1031.93 364.688 1034.58 363.59 1036.53 361.636C1038.49 359.682 1039.58 357.031 1039.58 354.268C1039.58 351.504 1038.49 348.854 1036.53 346.9C1034.58 344.946 1031.93 343.848 1029.17 343.848C1026.4 343.848 1023.75 344.946 1021.8 346.9C1019.85 348.854 1018.75 351.504 1018.75 354.268Z" fill="#90E0EF" fill-opacity="0.1"/>
<path d="M1029.17 348.849C1030.6 348.849 1031.98 349.419 1033 350.436C1034.01 351.452 1034.58 352.83 1034.58 354.268C1034.58 355.705 1034.01 357.084 1033 358.101C1031.98 359.117 1030.6 359.688 1029.17 359.688C1027.73 359.688 1026.35 359.117 1025.34 358.101C1024.32 357.084 1023.75 355.705 1023.75 354.268C1023.75 352.83 1024.32 351.452 1025.34 350.436C1026.35 349.419 1027.73 348.849 1029.17 348.849ZM1237.5 307.17C1238.94 307.17 1240.31 307.741 1241.33 308.757C1242.35 309.773 1242.92 311.151 1242.92 312.589C1242.92 314.027 1242.35 315.406 1241.33 316.422C1240.31 317.438 1238.94 318.009 1237.5 318.009C1236.06 318.009 1234.69 317.438 1233.67 316.422C1232.65 315.406 1232.08 314.027 1232.08 312.589C1232.08 311.151 1232.65 309.773 1233.67 308.757C1234.69 307.741 1236.06 307.17 1237.5 307.17ZM1070.83 265.491C1072.27 265.491 1073.65 266.062 1074.66 267.078C1075.68 268.094 1076.25 269.473 1076.25 270.911C1076.25 272.349 1075.68 273.727 1074.66 274.743C1073.65 275.759 1072.27 276.33 1070.83 276.33C1069.4 276.33 1068.02 275.759 1067 274.743C1065.99 273.727 1065.42 272.349 1065.42 270.911C1065.42 269.473 1065.99 268.094 1067 267.078C1068.02 266.062 1069.4 265.491 1070.83 265.491ZM945.833 223.812C947.269 223.813 948.647 224.383 949.663 225.399C950.679 226.416 951.25 227.795 951.25 229.232C951.249 230.67 950.678 232.048 949.663 233.064C948.647 234.081 947.269 234.651 945.833 234.651C944.397 234.651 943.019 234.081 942.003 233.064C940.988 232.048 940.417 230.67 940.417 229.232C940.417 227.795 940.987 226.416 942.003 225.399C943.019 224.383 944.397 223.812 945.833 223.812Z" stroke="#90E0EF" stroke-opacity="0.18" stroke-width="10"/>
<path d="M1612.5 270.911H1570.83L1529.17 229.232H1487.5H1445.83H1404.17H1362.5H1320.83H1279.17H1237.5H1195.83H1154.17L1112.5 187.553" stroke="#90E0EF" stroke-opacity="0.18" stroke-width="5"/>
<path d="M1102.08 187.554C1102.08 190.317 1103.18 192.967 1105.13 194.921C1107.09 196.875 1109.74 197.973 1112.5 197.973C1115.26 197.973 1117.91 196.875 1119.87 194.921C1121.82 192.967 1122.92 190.317 1122.92 187.554C1122.92 184.79 1121.82 182.14 1119.87 180.186C1117.91 178.232 1115.26 177.134 1112.5 177.134C1109.74 177.134 1107.09 178.232 1105.13 180.186C1103.18 182.14 1102.08 184.79 1102.08 187.554Z" fill="#90E0EF" fill-opacity="0.1"/>
<path d="M1112.5 182.134C1113.94 182.134 1115.31 182.705 1116.33 183.721C1117.35 184.737 1117.92 186.116 1117.92 187.554C1117.92 188.992 1117.35 190.37 1116.33 191.386C1115.31 192.402 1113.94 192.973 1112.5 192.973C1111.06 192.973 1109.69 192.402 1108.67 191.386C1107.65 190.37 1107.08 188.992 1107.08 187.554C1107.08 186.116 1107.65 184.737 1108.67 183.721C1109.69 182.705 1111.06 182.134 1112.5 182.134Z" stroke="#90E0EF" stroke-opacity="0.18" stroke-width="10"/>
<path d="M1237.5 187.554L1195.83 145.875H1154.17L1112.5 104.196H1070.83M1237.5 187.554H1279.17M1237.5 187.554H1195.83H1154.17L1112.5 145.875H1070.83H1029.17H987.5M904.167 145.875L862.5 104.196M904.167 145.875H945.833H987.5M904.167 145.875H862.5L820.833 104.196M1529.17 187.554L1487.5 145.875H1445.83H1404.17H1362.5M1529.17 187.554L1570.83 229.232H1612.5M1529.17 187.554H1487.5H1445.83H1404.17H1362.5H1320.83H1279.17M987.5 145.875L945.833 187.554H904.167H862.5M1279.17 187.554L1237.5 145.875L1195.83 104.196H1154.17" stroke="#90E0EF" stroke-opacity="0.18" stroke-width="5"/>
<path d="M810.417 104.196C810.417 106.96 811.514 109.61 813.467 111.564C815.421 113.518 818.07 114.616 820.833 114.616C823.596 114.616 826.245 113.518 828.199 111.564C830.152 109.61 831.25 106.96 831.25 104.196C831.25 101.433 830.152 98.7826 828.199 96.8286C826.245 94.8745 823.596 93.7767 820.833 93.7767C818.07 93.7767 815.421 94.8745 813.467 96.8286C811.514 98.7826 810.417 101.433 810.417 104.196ZM1060.42 104.196C1060.42 106.96 1061.51 109.61 1063.47 111.564C1065.42 113.518 1068.07 114.616 1070.83 114.616C1073.6 114.616 1076.25 113.518 1078.2 111.564C1080.15 109.61 1081.25 106.96 1081.25 104.196C1081.25 101.433 1080.15 98.7826 1078.2 96.8286C1076.25 94.8745 1073.6 93.7767 1070.83 93.7767C1068.07 93.7767 1065.42 94.8745 1063.47 96.8286C1061.51 98.7826 1060.42 101.433 1060.42 104.196ZM852.083 104.196C852.083 106.96 853.181 109.61 855.134 111.564C857.088 113.518 859.737 114.616 862.5 114.616C865.263 114.616 867.912 113.518 869.866 111.564C871.819 109.61 872.917 106.96 872.917 104.196C872.917 101.433 871.819 98.7826 869.866 96.8286C867.912 94.8745 865.263 93.7767 862.5 93.7767C859.737 93.7767 857.088 94.8745 855.134 96.8286C853.181 98.7826 852.083 101.433 852.083 104.196ZM1352.08 145.875C1352.08 148.638 1353.18 151.289 1355.13 153.243C1357.09 155.197 1359.74 156.295 1362.5 156.295C1365.26 156.295 1367.91 155.197 1369.87 153.243C1371.82 151.289 1372.92 148.638 1372.92 145.875C1372.92 143.111 1371.82 140.461 1369.87 138.507C1367.91 136.553 1365.26 135.455 1362.5 135.455C1359.74 135.455 1357.09 136.553 1355.13 138.507C1353.18 140.461 1352.08 143.111 1352.08 145.875ZM852.083 187.554C852.083 190.317 853.181 192.967 855.134 194.921C857.088 196.875 859.737 197.973 862.5 197.973C865.263 197.973 867.912 196.875 869.866 194.921C871.819 192.967 872.917 190.317 872.917 187.554C872.917 184.79 871.819 182.14 869.866 180.186C867.912 178.232 865.263 177.134 862.5 177.134C859.737 177.134 857.088 178.232 855.134 180.186C853.181 182.14 852.083 184.79 852.083 187.554ZM1143.75 104.196C1143.75 106.96 1144.85 109.61 1146.8 111.564C1148.75 113.518 1151.4 114.616 1154.17 114.616C1156.93 114.616 1159.58 113.518 1161.53 111.564C1163.49 109.61 1164.58 106.96 1164.58 104.196C1164.58 101.433 1163.49 98.7826 1161.53 96.8286C1159.58 94.8745 1156.93 93.7767 1154.17 93.7767C1151.4 93.7767 1148.75 94.8745 1146.8 96.8286C1144.85 98.7826 1143.75 101.433 1143.75 104.196Z" fill="#90E0EF" fill-opacity="0.1" stroke="#90E0EF" stroke-opacity="0.18" stroke-width="20"/>
</g>
</svg>
