<svg width="1440" height="338" viewBox="0 0 1440 338" fill="none" xmlns="http://www.w3.org/2000/svg">
<mask id="mask0_6840_211" style="mask-type:luminance" maskUnits="userSpaceOnUse" x="-271" y="-440" width="2001" height="778">
<path d="M-270 -440H1730V338H-270V-440Z" fill="white" fill-opacity="0.8"/>
<path d="M-269.5 -439.5V337.5H1729.5V-439.5H-269.5Z" stroke="white" stroke-opacity="0.8"/>
<path d="M464.375 122.661C464.375 124.042 463.826 125.368 462.85 126.345C461.873 127.322 460.548 127.871 459.167 127.871C457.785 127.871 456.461 127.322 455.484 126.345C454.507 125.368 453.958 124.042 453.958 122.661C453.958 121.279 454.507 119.954 455.484 118.977C456.461 118 457.785 117.451 459.167 117.451C460.548 117.451 461.873 118 462.85 118.977C463.826 119.954 464.375 121.279 464.375 122.661ZM256.042 80.9821C256.042 82.3639 255.493 83.689 254.516 84.666C253.539 85.6431 252.215 86.192 250.833 86.192C249.452 86.192 248.127 85.6431 247.151 84.666C246.174 83.689 245.625 82.3639 245.625 80.9821C245.625 79.6004 246.174 78.2753 247.151 77.2983C248.127 76.3212 249.452 75.7723 250.833 75.7723C252.215 75.7723 253.539 76.3212 254.516 77.2983C255.493 78.2753 256.042 79.6004 256.042 80.9821ZM506.042 164.339C506.042 165.721 505.493 167.046 504.516 168.023C503.539 169 502.215 169.549 500.833 169.549C499.452 169.549 498.127 169 497.15 168.023C496.174 167.046 495.625 165.721 495.625 164.339C495.625 162.958 496.174 161.632 497.15 160.655C498.127 159.678 499.452 159.129 500.833 159.129C502.215 159.129 503.539 159.678 504.516 160.655C505.493 161.632 506.042 162.958 506.042 164.339ZM6.04169 80.9821C6.04169 82.3639 5.49292 83.689 4.51617 84.666C3.53937 85.6431 2.21472 86.192 0.833374 86.192C-0.547974 86.192 -1.87268 85.6431 -2.84943 84.666C-3.82617 83.689 -4.375 82.3639 -4.375 80.9821C-4.375 79.6004 -3.82617 78.2753 -2.84943 77.2983C-1.87268 76.3212 -0.547974 75.7723 0.833374 75.7723C2.21472 75.7723 3.53937 76.3212 4.51617 77.2983C5.49292 78.2753 6.04169 79.6004 6.04169 80.9821ZM422.708 39.3036C422.708 40.6853 422.16 42.0104 421.183 42.9875C420.206 43.9645 418.881 44.5134 417.5 44.5134C416.119 44.5134 414.794 43.9645 413.817 42.9875C412.84 42.0104 412.292 40.6853 412.292 39.3036C412.292 37.9218 412.84 36.5967 413.817 35.6197C414.794 34.6427 416.119 34.0938 417.5 34.0938C418.881 34.0938 420.206 34.6427 421.183 35.6197C422.16 36.5967 422.708 37.9218 422.708 39.3036ZM589.375 39.3036C589.375 40.6853 588.826 42.0104 587.85 42.9875C586.873 43.9645 585.548 44.5134 584.167 44.5134C582.785 44.5134 581.461 43.9645 580.484 42.9875C579.507 42.0104 578.958 40.6853 578.958 39.3036C578.958 37.9218 579.507 36.5967 580.484 35.6197C581.461 34.6427 582.785 34.0938 584.167 34.0938C585.548 34.0938 586.873 34.6427 587.85 35.6197C588.826 36.5967 589.375 37.9218 589.375 39.3036Z" fill="black"/>
<path d="M500.833 159.63C499.584 159.63 498.387 160.126 497.504 161.009C496.621 161.892 496.125 163.09 496.125 164.339C496.125 165.588 496.621 166.787 497.504 167.67C498.387 168.553 499.584 169.049 500.833 169.049C502.082 169.049 503.28 168.553 504.163 167.67C505.046 166.787 505.542 165.588 505.542 164.339C505.542 163.09 505.046 161.892 504.163 161.009C503.28 160.126 502.082 159.63 500.833 159.63ZM459.167 117.951C457.918 117.951 456.72 118.447 455.837 119.33C454.954 120.213 454.458 121.412 454.458 122.661C454.458 123.91 454.954 125.108 455.837 125.991C456.72 126.874 457.918 127.37 459.167 127.37C460.416 127.37 461.613 126.874 462.496 125.991C463.379 125.108 463.875 123.91 463.875 122.661C463.875 121.412 463.379 120.213 462.496 119.33C461.613 118.447 460.416 117.951 459.167 117.951ZM250.833 76.2725C249.584 76.2725 248.387 76.7682 247.504 77.6514C246.621 78.5346 246.125 79.7333 246.125 80.9824C246.125 82.2314 246.621 83.4293 247.504 84.3125C248.387 85.1957 249.584 85.6923 250.833 85.6924C252.082 85.6924 253.279 85.1956 254.162 84.3125C255.045 83.4293 255.542 82.2315 255.542 80.9824C255.542 79.7333 255.045 78.5346 254.162 77.6514C253.279 76.7684 252.082 76.2725 250.833 76.2725ZM0.833008 76.2725C-0.415518 76.2726 -1.61319 76.7682 -2.49609 77.6514C-3.37911 78.5346 -3.875 79.7333 -3.875 80.9824C-3.87493 82.2314 -3.37895 83.4293 -2.49609 84.3125C-1.61319 85.1957 -0.415546 85.6923 0.833008 85.6924C2.08158 85.6924 3.27907 85.1956 4.16211 84.3125C5.04504 83.4293 5.54192 82.2315 5.54199 80.9824C5.54199 79.7333 5.04511 78.5346 4.16211 77.6514C3.27909 76.7684 2.08148 76.2725 0.833008 76.2725ZM584.167 34.5938C582.918 34.5938 581.72 35.0904 580.837 35.9736C579.954 36.8568 579.458 38.0548 579.458 39.3037C579.458 40.5527 579.954 41.7506 580.837 42.6338C581.72 43.517 582.918 44.0137 584.167 44.0137C585.416 44.0136 586.613 43.517 587.496 42.6338C588.379 41.7506 588.875 40.5528 588.875 39.3037C588.875 38.0547 588.379 36.8569 587.496 35.9736C586.613 35.0905 585.416 34.5938 584.167 34.5938ZM417.5 34.5938C416.251 34.5938 415.054 35.0904 414.171 35.9736C413.288 36.8569 412.792 38.0546 412.792 39.3037C412.792 40.5528 413.288 41.7506 414.171 42.6338C415.054 43.517 416.251 44.0137 417.5 44.0137C418.749 44.0137 419.946 43.517 420.829 42.6338C421.712 41.7506 422.208 40.5528 422.208 39.3037C422.208 38.0546 421.712 36.8569 420.829 35.9736C419.946 35.0904 418.749 34.5938 417.5 34.5938Z" stroke="white" stroke-opacity="0.8"/>
<path d="M547.708 206.018C547.708 207.4 547.16 208.725 546.183 209.702C545.206 210.679 543.881 211.228 542.5 211.228C541.119 211.228 539.794 210.679 538.817 209.702C537.84 208.725 537.292 207.4 537.292 206.018C537.292 204.636 537.84 203.311 538.817 202.334C539.794 201.357 541.119 200.808 542.5 200.808C543.881 200.808 545.206 201.357 546.183 202.334C547.16 203.311 547.708 204.636 547.708 206.018ZM506.042 247.696C506.042 249.078 505.493 250.403 504.516 251.38C503.539 252.357 502.215 252.906 500.833 252.906C499.452 252.906 498.127 252.357 497.15 251.38C496.174 250.403 495.625 249.078 495.625 247.696C495.625 246.315 496.174 244.99 497.15 244.012C498.127 243.035 499.452 242.487 500.833 242.487C502.215 242.487 503.539 243.035 504.516 244.012C505.493 244.99 506.042 246.315 506.042 247.696ZM422.708 164.339C422.708 165.721 422.16 167.046 421.183 168.023C420.206 169 418.881 169.549 417.5 169.549C416.119 169.549 414.794 169 413.817 168.023C412.84 167.046 412.292 165.721 412.292 164.339C412.292 162.957 412.84 161.632 413.817 160.655C414.794 159.678 416.119 159.129 417.5 159.129C418.881 159.129 420.206 159.678 421.183 160.655C422.16 161.632 422.708 162.957 422.708 164.339Z" fill="black"/>
<path d="M500.833 242.987C499.585 242.987 498.387 243.483 497.504 244.366C496.621 245.249 496.125 246.448 496.125 247.697C496.125 248.946 496.621 250.144 497.504 251.027C498.387 251.91 499.585 252.406 500.833 252.406C502.082 252.406 503.279 251.91 504.162 251.027C505.045 250.144 505.541 248.946 505.541 247.697C505.541 246.448 505.045 245.249 504.162 244.366C503.279 243.483 502.082 242.987 500.833 242.987ZM542.5 201.308C541.252 201.308 540.053 201.804 539.17 202.687C538.287 203.57 537.791 204.769 537.791 206.018C537.791 207.267 538.287 208.465 539.17 209.348C540.053 210.231 541.252 210.728 542.5 210.728C543.749 210.728 544.946 210.231 545.829 209.348C546.712 208.465 547.208 207.267 547.208 206.018C547.208 204.769 546.712 203.57 545.829 202.687C544.946 201.804 543.749 201.308 542.5 201.308ZM417.5 159.629C416.252 159.629 415.053 160.126 414.17 161.009C413.287 161.892 412.791 163.09 412.791 164.339C412.791 165.588 413.287 166.786 414.17 167.669C415.053 168.553 416.252 169.049 417.5 169.049C418.749 169.049 419.946 168.553 420.829 167.669C421.712 166.786 422.208 165.588 422.208 164.339C422.208 163.09 421.712 161.892 420.829 161.009C419.946 160.126 418.749 159.629 417.5 159.629Z" stroke="white" stroke-opacity="0.8"/>
<path d="M256.042 206.018C256.042 207.4 255.493 208.725 254.516 209.702C253.54 210.679 252.215 211.228 250.833 211.228C249.452 211.228 248.127 210.679 247.151 209.702C246.174 208.725 245.625 207.4 245.625 206.018C245.625 204.636 246.174 203.311 247.151 202.334C248.127 201.357 249.452 200.808 250.833 200.808C252.215 200.808 253.54 201.357 254.516 202.334C255.493 203.311 256.042 204.636 256.042 206.018ZM-77.2915 206.018C-77.2915 207.4 -77.8403 208.725 -78.817 209.702C-79.7938 210.679 -81.1185 211.228 -82.4998 211.228C-83.8812 211.228 -85.2059 210.679 -86.1826 209.702C-87.1594 208.725 -87.7082 207.4 -87.7082 206.018C-87.7082 204.636 -87.1594 203.311 -86.1826 202.334C-85.2059 201.357 -83.8812 200.808 -82.4998 200.808C-81.1185 200.808 -79.7938 201.357 -78.817 202.334C-77.8403 203.311 -77.2915 204.636 -77.2915 206.018ZM172.709 247.696C172.709 249.078 172.16 250.403 171.183 251.38C170.206 252.357 168.882 252.906 167.5 252.906C166.119 252.906 164.794 252.357 163.817 251.38C162.841 250.403 162.292 249.078 162.292 247.696C162.292 246.315 162.841 244.99 163.817 244.013C164.794 243.036 166.119 242.487 167.5 242.487C168.882 242.487 170.206 243.036 171.183 244.013C172.16 244.99 172.709 246.315 172.709 247.696ZM297.708 247.696C297.708 249.078 297.16 250.403 296.183 251.38C295.206 252.357 293.881 252.906 292.5 252.906C291.119 252.906 289.794 252.357 288.817 251.38C287.841 250.403 287.292 249.078 287.292 247.696C287.292 246.315 287.841 244.99 288.817 244.013C289.794 243.036 291.119 242.487 292.5 242.487C293.881 242.487 295.206 243.036 296.183 244.013C297.16 244.99 297.708 246.315 297.708 247.696Z" fill="black"/>
<path d="M292.5 242.987C291.252 242.987 290.054 243.483 289.171 244.366C288.288 245.249 287.792 246.448 287.792 247.697C287.792 248.946 288.288 250.144 289.171 251.027C290.054 251.91 291.252 252.407 292.5 252.407C293.749 252.407 294.947 251.91 295.83 251.027C296.712 250.144 297.208 248.946 297.208 247.697C297.208 246.448 296.713 245.249 295.83 244.366C294.947 243.483 293.749 242.987 292.5 242.987ZM167.5 242.987C166.252 242.987 165.054 243.483 164.171 244.366C163.288 245.249 162.792 246.448 162.792 247.697C162.792 248.946 163.288 250.144 164.171 251.027C165.054 251.91 166.252 252.407 167.5 252.407C168.749 252.407 169.947 251.91 170.83 251.027C171.712 250.144 172.208 248.946 172.208 247.697C172.208 246.448 171.713 245.249 170.83 244.366C169.947 243.483 168.749 242.987 167.5 242.987ZM250.833 201.308C249.585 201.308 248.387 201.805 247.504 202.688C246.621 203.571 246.125 204.769 246.125 206.018C246.126 207.267 246.621 208.465 247.504 209.348C248.387 210.231 249.585 210.728 250.833 210.728C252.082 210.728 253.28 210.231 254.163 209.348C255.046 208.465 255.541 207.267 255.542 206.018C255.542 204.769 255.045 203.571 254.163 202.688C253.28 201.805 252.082 201.308 250.833 201.308ZM-82.4995 201.308C-83.7482 201.308 -84.9456 201.805 -85.8286 202.688C-86.7116 203.571 -87.2085 204.769 -87.2085 206.018C-87.2085 207.267 -86.7116 208.465 -85.8286 209.348C-84.9456 210.231 -83.7481 210.728 -82.4995 210.728C-81.251 210.728 -80.0534 210.231 -79.1704 209.348C-78.2876 208.465 -77.7915 207.267 -77.7915 206.018C-77.7915 204.769 -78.2876 203.571 -79.1704 202.688C-80.0534 201.805 -81.251 201.308 -82.4995 201.308Z" stroke="white" stroke-opacity="0.8"/>
</mask>
<g mask="url(#mask0_6840_211)">
<path d="M209.167 122.661L250.833 80.9821M209.167 122.661H167.5H125.833M209.167 122.661H250.833H292.5H334.167H375.833M417.5 122.661L459.167 164.339H500.833M417.5 122.661H375.833M417.5 122.661H459.167M-40.8333 80.9821H0.833387M-40.8333 80.9821H-82.5H-124.167L-165.833 39.3036H-207.5L-249.167 -2.375H-290.833H-332.5M-40.8333 80.9821L0.833387 122.661H42.5001H84.1667H125.833M125.833 122.661L167.5 80.9821H209.167L250.833 39.3036H292.5H334.167H375.833H417.5M375.833 122.661L417.5 80.9821H459.167H500.833L542.5 39.3036H584.167" stroke="#90E0EF" stroke-opacity="0.18" stroke-width="5"/>
<path d="M469.583 122.661C469.583 125.424 468.486 128.074 466.533 130.029C464.579 131.983 461.929 133.08 459.167 133.08C456.404 133.08 453.755 131.983 451.801 130.029C449.848 128.074 448.75 125.424 448.75 122.661C448.75 119.897 449.848 117.247 451.801 115.293C453.755 113.339 456.404 112.241 459.167 112.241C461.929 112.241 464.579 113.339 466.533 115.293C468.486 117.247 469.583 119.897 469.583 122.661ZM261.25 80.9821C261.25 83.7456 260.153 86.3959 258.199 88.3499C256.246 90.304 253.596 91.4018 250.833 91.4018C248.071 91.4018 245.421 90.304 243.468 88.3499C241.514 86.3959 240.417 83.7456 240.417 80.9821C240.417 78.2187 241.514 75.5684 243.468 73.6143C245.421 71.6602 248.071 70.5625 250.833 70.5625C253.596 70.5625 256.246 71.6602 258.199 73.6143C260.153 75.5684 261.25 78.2187 261.25 80.9821ZM511.25 164.339C511.25 167.103 510.153 169.753 508.199 171.707C506.246 173.661 503.596 174.759 500.833 174.759C498.071 174.759 495.421 173.661 493.468 171.707C491.514 169.753 490.417 167.103 490.417 164.339C490.417 161.576 491.514 158.926 493.468 156.971C495.421 155.017 498.071 153.92 500.833 153.92C503.596 153.92 506.246 155.017 508.199 156.971C510.153 158.926 511.25 161.576 511.25 164.339ZM11.2501 80.9821C11.2501 83.7456 10.1527 86.3959 8.19922 88.3499C6.24573 90.304 3.59613 91.4018 0.833496 91.4018C-1.9292 91.4018 -4.5788 90.304 -6.53229 88.3499C-8.48578 86.3959 -9.58319 83.7456 -9.58319 80.9821C-9.58319 78.2187 -8.48578 75.5684 -6.53229 73.6143C-4.5788 71.6602 -1.9292 70.5625 0.833496 70.5625C3.59613 70.5625 6.24573 71.6602 8.19922 73.6143C10.1527 75.5684 11.2501 78.2187 11.2501 80.9821ZM427.917 39.3036C427.917 42.067 426.819 44.7173 424.866 46.6714C422.912 48.6254 420.263 49.7232 417.5 49.7232C414.737 49.7232 412.088 48.6254 410.134 46.6714C408.181 44.7173 407.083 42.067 407.083 39.3036C407.083 36.5401 408.181 33.8898 410.134 31.9357C412.088 29.9817 414.737 28.8839 417.5 28.8839C420.263 28.8839 422.912 29.9817 424.866 31.9357C426.819 33.8898 427.917 36.5401 427.917 39.3036ZM594.583 39.3036C594.583 42.067 593.486 44.7173 591.533 46.6714C589.579 48.6254 586.93 49.7232 584.167 49.7232C581.404 49.7232 578.755 48.6254 576.801 46.6714C574.848 44.7173 573.75 42.067 573.75 39.3036C573.75 36.5401 574.848 33.8898 576.801 31.9357C578.755 29.9817 581.404 28.8839 584.167 28.8839C586.93 28.8839 589.579 29.9817 591.533 31.9357C593.486 33.8898 594.583 36.5401 594.583 39.3036Z" fill="#90E0EF" fill-opacity="0.1"/>
<path d="M500.833 154.42C498.203 154.42 495.682 155.465 493.822 157.325C491.962 159.186 490.917 161.708 490.917 164.339C490.917 166.97 491.962 169.493 493.822 171.354C495.682 173.214 498.204 174.259 500.833 174.259C503.463 174.259 505.985 173.214 507.845 171.354C509.705 169.493 510.75 166.97 510.75 164.339C510.75 161.708 509.705 159.186 507.845 157.325C505.985 155.465 503.464 154.42 500.833 154.42ZM459.167 112.741C456.537 112.741 454.014 113.786 452.155 115.647C450.295 117.507 449.251 120.03 449.25 122.66C449.25 125.291 450.295 127.815 452.155 129.675C454.014 131.535 456.537 132.58 459.167 132.58C461.797 132.58 464.319 131.535 466.179 129.675C468.039 127.815 469.083 125.291 469.083 122.66C469.083 120.03 468.039 117.507 466.179 115.647C464.319 113.786 461.797 112.741 459.167 112.741ZM250.833 71.0626C248.204 71.0626 245.682 72.1077 243.822 73.9679C241.962 75.8282 240.917 78.3516 240.917 80.9825C240.917 83.6133 241.962 86.136 243.822 87.9962C245.682 89.8564 248.204 90.9015 250.833 90.9015C253.463 90.9015 255.985 89.8564 257.845 87.9962C259.705 86.136 260.75 83.6133 260.75 80.9825C260.75 78.3516 259.705 75.8282 257.845 73.9679C255.985 72.1077 253.463 71.0626 250.833 71.0626ZM0.833496 71.0626C-1.79646 71.0626 -4.31851 72.1077 -6.17822 73.9679C-8.03796 75.8282 -9.0835 78.3516 -9.0835 80.9825C-9.08339 83.6133 -8.03786 86.136 -6.17822 87.9962C-4.31851 89.8564 -1.7965 90.9015 0.833496 90.9015C3.46344 90.9015 5.98549 89.8564 7.84521 87.9962C9.70485 86.136 10.7504 83.6133 10.7505 80.9825C10.7505 78.3516 9.70495 75.8282 7.84521 73.9679C5.9855 72.1077 3.46341 71.0626 0.833496 71.0626ZM584.167 29.3839C581.537 29.384 579.014 30.429 577.155 32.2892C575.295 34.1495 574.25 36.6729 574.25 39.3038C574.251 41.9345 575.295 44.4573 577.155 46.3175C579.014 48.1777 581.537 49.2227 584.167 49.2228C586.797 49.2228 589.319 48.1778 591.179 46.3175C593.039 44.4573 594.083 41.9345 594.083 39.3038C594.083 36.673 593.039 34.1495 591.179 32.2892C589.319 30.4289 586.797 29.3839 584.167 29.3839ZM417.5 29.3839C414.87 29.3839 412.348 30.4289 410.488 32.2892C408.628 34.1495 407.583 36.673 407.583 39.3038C407.584 41.9345 408.628 44.4573 410.488 46.3175C412.348 48.1778 414.87 49.2228 417.5 49.2228C420.13 49.2227 422.653 48.1777 424.512 46.3175C426.372 44.4573 427.416 41.9345 427.417 39.3038C427.417 36.6729 426.372 34.1495 424.512 32.2892C422.653 30.429 420.13 29.384 417.5 29.3839Z" stroke="#90E0EF" stroke-opacity="0.18"/>
<path d="M375.833 206.018L417.5 247.696H459.167H500.833M375.833 206.018H334.167L292.5 164.339M375.833 206.018H417.5H459.167H500.833H542.5M292.5 164.339H334.167H375.833H417.5M292.5 164.339H250.833H209.167H167.5H125.833H84.1667H42.5H0.833354L-40.8333 122.661H-82.5H-124.167L-165.833 80.9822H-207.5L-249.167 39.3036H-290.833H-332.5" stroke="#90E0EF" stroke-opacity="0.18" stroke-width="5"/>
<path d="M552.917 206.018C552.917 208.781 551.819 211.432 549.866 213.386C547.912 215.34 545.263 216.438 542.5 216.438C539.737 216.438 537.088 215.34 535.134 213.386C533.181 211.432 532.083 208.781 532.083 206.018C532.083 203.254 533.181 200.604 535.134 198.65C537.088 196.696 539.737 195.598 542.5 195.598C545.263 195.598 547.912 196.696 549.866 198.65C551.819 200.604 552.917 203.254 552.917 206.018ZM511.25 247.696C511.25 250.46 510.153 253.11 508.199 255.064C506.246 257.018 503.596 258.116 500.833 258.116C498.071 258.116 495.421 257.018 493.468 255.064C491.514 253.11 490.417 250.46 490.417 247.696C490.417 244.933 491.514 242.283 493.468 240.329C495.421 238.375 498.071 237.277 500.833 237.277C503.596 237.277 506.246 238.375 508.199 240.329C510.153 242.283 511.25 244.933 511.25 247.696ZM427.917 164.339C427.917 167.103 426.819 169.753 424.866 171.707C422.912 173.661 420.263 174.759 417.5 174.759C414.737 174.759 412.088 173.661 410.134 171.707C408.181 169.753 407.083 167.103 407.083 164.339C407.083 161.576 408.181 158.926 410.134 156.972C412.088 155.017 414.737 153.92 417.5 153.92C420.263 153.92 422.912 155.017 424.866 156.972C426.819 158.926 427.917 161.576 427.917 164.339Z" fill="#90E0EF" fill-opacity="0.1"/>
<path d="M500.834 237.777C498.204 237.777 495.681 238.822 493.821 240.682C491.962 242.543 490.917 245.065 490.917 247.696C490.917 250.327 491.961 252.85 493.821 254.711C495.681 256.571 498.204 257.616 500.834 257.616C503.464 257.616 505.986 256.571 507.845 254.711C509.705 252.85 510.75 250.327 510.75 247.696C510.75 245.065 509.705 242.543 507.845 240.682C505.986 238.822 503.464 237.777 500.834 237.777ZM542.5 196.098C539.87 196.098 537.348 197.143 535.488 199.004C533.628 200.864 532.584 203.387 532.584 206.018C532.584 208.649 533.628 211.172 535.488 213.032C537.348 214.892 539.87 215.937 542.5 215.937C545.13 215.937 547.653 214.892 549.512 213.032C551.372 211.172 552.417 208.649 552.417 206.018C552.417 203.388 551.372 200.864 549.512 199.004C547.653 197.143 545.13 196.098 542.5 196.098ZM417.5 154.42C414.87 154.42 412.348 155.465 410.488 157.325C408.628 159.185 407.584 161.709 407.584 164.34C407.584 166.97 408.628 169.493 410.488 171.353C412.348 173.213 414.87 174.258 417.5 174.259C420.13 174.259 422.653 173.214 424.512 171.353C426.372 169.493 427.417 166.97 427.417 164.34C427.417 161.709 426.372 159.185 424.512 157.325C422.653 155.465 420.13 154.42 417.5 154.42Z" stroke="#90E0EF" stroke-opacity="0.18"/>
<path d="M-124.167 164.339L-82.5 206.018M-124.167 164.339L-165.833 122.661H-207.5L-249.167 80.9822H-290.833H-332.5M-124.167 164.339H-82.5H-40.8333L0.833344 206.018H42.5M42.5 206.018L84.1667 247.696H125.833H167.5M42.5 206.018H84.1667H125.833H167.5H209.167M209.167 206.018L250.833 247.696H292.5M209.167 206.018H250.833" stroke="#90E0EF" stroke-opacity="0.18" stroke-width="5"/>
<path d="M261.25 206.018C261.25 208.781 260.153 211.432 258.199 213.386C256.246 215.34 253.596 216.437 250.833 216.437C248.071 216.437 245.421 215.34 243.468 213.386C241.514 211.432 240.417 208.781 240.417 206.018C240.417 203.254 241.514 200.604 243.468 198.65C245.421 196.696 248.071 195.598 250.833 195.598C253.596 195.598 256.246 196.696 258.199 198.65C260.153 200.604 261.25 203.254 261.25 206.018ZM-72.0833 206.018C-72.0833 208.781 -73.1807 211.432 -75.1342 213.386C-77.0877 215.34 -79.7373 216.437 -82.4999 216.437C-85.2626 216.437 -87.9122 215.34 -89.8657 213.386C-91.8192 211.432 -92.9166 208.781 -92.9166 206.018C-92.9166 203.254 -91.8192 200.604 -89.8657 198.65C-87.9122 196.696 -85.2626 195.598 -82.4999 195.598C-79.7373 195.598 -77.0877 196.696 -75.1342 198.65C-73.1807 200.604 -72.0833 203.254 -72.0833 206.018ZM177.917 247.696C177.917 250.46 176.819 253.11 174.866 255.064C172.912 257.018 170.263 258.116 167.5 258.116C164.737 258.116 162.088 257.018 160.134 255.064C158.181 253.11 157.083 250.46 157.083 247.696C157.083 244.933 158.181 242.283 160.134 240.329C162.088 238.374 164.737 237.277 167.5 237.277C170.263 237.277 172.912 238.374 174.866 240.329C176.819 242.283 177.917 244.933 177.917 247.696ZM302.917 247.696C302.917 250.46 301.819 253.11 299.866 255.064C297.912 257.018 295.263 258.116 292.5 258.116C289.737 258.116 287.088 257.018 285.134 255.064C283.181 253.11 282.083 250.46 282.083 247.696C282.083 244.933 283.181 242.283 285.134 240.329C287.088 238.374 289.737 237.277 292.5 237.277C295.263 237.277 297.912 238.374 299.866 240.329C301.819 242.283 302.917 244.933 302.917 247.696Z" fill="#90E0EF" fill-opacity="0.1"/>
<path d="M292.5 232.277C288.411 232.277 284.489 233.902 281.598 236.793C278.707 239.685 277.084 243.608 277.084 247.697C277.084 251.786 278.707 255.707 281.598 258.599C284.489 261.491 288.411 263.116 292.5 263.116C296.589 263.116 300.511 261.491 303.402 258.599C306.293 255.707 307.917 251.786 307.917 247.697C307.917 243.608 306.293 239.685 303.402 236.793C300.511 233.902 296.589 232.277 292.5 232.277ZM167.5 232.277C163.411 232.277 159.489 233.902 156.598 236.793C153.707 239.685 152.084 243.608 152.084 247.697C152.084 251.786 153.707 255.707 156.598 258.599C159.489 261.491 163.411 263.116 167.5 263.116C171.589 263.116 175.511 261.491 178.402 258.599C181.293 255.707 182.917 251.786 182.917 247.697C182.917 243.608 181.293 239.685 178.402 236.793C175.511 233.902 171.589 232.277 167.5 232.277ZM250.834 190.598C246.745 190.598 242.823 192.223 239.931 195.115C237.04 198.007 235.417 201.929 235.417 206.018C235.417 210.107 237.041 214.029 239.931 216.92C242.823 219.812 246.745 221.437 250.834 221.437C254.923 221.437 258.844 219.812 261.735 216.92C264.626 214.029 266.25 210.107 266.25 206.018C266.25 201.929 264.626 198.007 261.735 195.115C258.844 192.223 254.923 190.598 250.834 190.598ZM-82.5002 190.598C-86.5892 190.598 -90.5106 192.223 -93.4016 195.115C-96.2927 198.007 -97.9163 201.929 -97.9163 206.018C-97.9162 210.107 -96.2926 214.029 -93.4016 216.92C-90.5106 219.812 -86.5893 221.437 -82.5002 221.437C-78.4111 221.437 -74.489 219.812 -71.5979 216.92C-68.707 214.029 -67.0833 210.107 -67.0833 206.018C-67.0833 201.929 -68.7068 198.007 -71.5979 195.115C-74.489 192.223 -78.4111 190.598 -82.5002 190.598Z" stroke="#90E0EF" stroke-opacity="0.18" stroke-width="10"/>
</g>
</svg>
