<?xml version="1.0" encoding="UTF-8"?>
<svg id="Layer_1" xmlns="http://www.w3.org/2000/svg" xmlns:xlink="http://www.w3.org/1999/xlink" version="1.1" viewBox="0 0 620 510">
  <!-- Generator: Adobe Illustrator 30.1.0, SVG Export Plug-In . SVG Version: 2.1.1 Build 136)  -->
  <defs>
    <style>
      .st0 {
        fill: url(#linear-gradient);
        isolation: isolate;
        opacity: .6;
      }
    </style>
    <linearGradient id="linear-gradient" x1="0" y1="254.73" x2="806.2" y2="254.73" gradientUnits="userSpaceOnUse">
      <stop offset="0" stop-color="#fff" stop-opacity="0"/>
      <stop offset="1" stop-color="#fff" stop-opacity=".5"/>
    </linearGradient>
  </defs>
  <path class="st0" d="M116.95,65.83c.66,3.19,2.49,6.02,5.13,7.94,2.65,1.93,5.92,2.81,9.19,2.49,3.27-.33,6.3-1.84,8.5-4.25,2.2-2.41,3.42-5.55,3.42-8.8s-1.22-6.39-3.42-8.8c-2.2-2.41-5.23-3.93-8.5-4.25s-6.55.56-9.19,2.49c-2.65,1.93-4.48,4.76-5.13,7.94H0v5.25h116.95ZM541.27-60.1c.66,3.19,2.49,6.02,5.13,7.94,2.65,1.93,5.92,2.81,9.19,2.49,3.27-.33,6.3-1.84,8.5-4.25,2.2-2.41,3.42-5.55,3.42-8.8s-1.22-6.39-3.42-8.8c-2.2-2.41-5.23-3.93-8.5-4.25-3.27-.33-6.55.56-9.19,2.49-2.65,1.93-4.48,4.76-5.13,7.94H217.46v5.25h323.81ZM694.55,60.59c-.66-3.19-2.49-6.02-5.13-7.94-2.65-1.93-5.92-2.81-9.2-2.49-3.27.33-6.3,1.84-8.5,4.25-2.21,2.41-3.43,5.55-3.43,8.8s1.22,6.39,3.43,8.8c2.2,2.41,5.23,3.93,8.5,4.25,3.28.33,6.55-.56,9.2-2.49,2.65-1.93,4.48-4.76,5.13-7.94h111.65v-5.25h-111.65ZM694.55,18.61c-.66-3.19-2.49-6.02-5.13-7.94-2.65-1.93-5.92-2.81-9.2-2.49-3.27.33-6.3,1.84-8.5,4.25-2.21,2.41-3.43,5.55-3.43,8.8s1.22,6.39,3.43,8.8c2.2,2.41,5.23,3.93,8.5,4.25,3.28.33,6.55-.56,9.2-2.49,2.65-1.93,4.48-4.76,5.13-7.94h111.65v-5.25h-111.65ZM710.99,317.69c.66,3.19,2.49,6.02,5.13,7.94s5.92,2.81,9.2,2.49c3.27-.33,6.3-1.84,8.5-4.25,2.21-2.41,3.43-5.55,3.43-8.8s-1.22-6.39-3.43-8.8c-2.2-2.41-5.23-3.93-8.5-4.25-3.28-.33-6.55.56-9.2,2.49-2.65,1.93-4.48,4.76-5.13,7.94h-228.6c-.66-3.19-2.49-6.02-5.13-7.94-2.65-1.93-5.92-2.81-9.19-2.49-3.27.33-6.3,1.84-8.5,4.25-2.2,2.41-3.42,5.55-3.42,8.8s1.22,6.39,3.42,8.8c2.2,2.41,5.23,3.93,8.5,4.25,3.27.33,6.55-.56,9.19-2.49,2.65-1.93,4.48-4.76,5.13-7.94h228.6ZM32.09,443.61c.66,3.19,2.49,6.02,5.13,7.94s5.92,2.81,9.19,2.49c3.27-.33,6.3-1.84,8.5-4.25,2.2-2.41,3.42-5.55,3.42-8.8s-1.22-6.39-3.42-8.8c-2.2-2.41-5.23-3.93-8.5-4.25-3.27-.33-6.54.56-9.19,2.49-2.65,1.93-4.48,4.76-5.13,7.94H0v5.25h32.09ZM524.83,354.42c-.66-3.19-2.49-6.02-5.13-7.94-2.65-1.93-5.92-2.81-9.19-2.49-3.27.33-6.3,1.84-8.5,4.25-2.2,2.41-3.42,5.55-3.42,8.8s1.22,6.39,3.42,8.8c2.2,2.41,5.23,3.93,8.5,4.25,3.27.33,6.55-.56,9.19-2.49,2.65-1.93,4.48-4.76,5.13-7.94h228.6c.66,3.19,2.49,6.02,5.13,7.94,2.65,1.93,5.93,2.81,9.2,2.49,3.27-.33,6.3-1.84,8.5-4.25,2.21-2.41,3.43-5.55,3.43-8.8s-1.22-6.39-3.43-8.8c-2.2-2.41-5.23-3.93-8.5-4.25-3.27-.33-6.55.56-9.2,2.49s-4.48,4.76-5.13,7.94h-228.6ZM684.21,621.75c3.22-.65,6.08-2.46,8.03-5.07,1.95-2.62,2.84-5.86,2.51-9.1-.33-3.24-1.86-6.23-4.3-8.41-2.43-2.18-5.6-3.39-8.89-3.39s-6.46,1.21-8.89,3.39c-2.44,2.18-3.97,5.18-4.3,8.41-.33,3.24.56,6.48,2.51,9.1,1.95,2.61,4.81,4.42,8.03,5.07v31.74h5.3v-31.74ZM514.48,76.06c3.22-.65,6.08-2.46,8.03-5.08,1.95-2.62,2.84-5.86,2.51-9.09-.33-3.23-1.86-6.23-4.3-8.41-2.44-2.18-5.61-3.39-8.89-3.39s-6.45,1.21-8.89,3.39c-2.44,2.18-3.97,5.18-4.3,8.41-.33,3.23.57,6.47,2.51,9.09,1.95,2.62,4.81,4.43,8.03,5.08v142.19c-3.22.65-6.08,2.46-8.03,5.08-1.95,2.62-2.84,5.86-2.51,9.09.33,3.23,1.86,6.23,4.3,8.41,2.44,2.18,5.61,3.39,8.89,3.39s6.45-1.21,8.89-3.39c2.44-2.18,3.97-5.18,4.3-8.41.33-3.23-.57-6.47-2.51-9.09-1.95-2.62-4.81-4.43-8.03-5.08V76.06ZM641.78,596.04v-152.43h164.42v-5.25h-169.73v157.68c-3.22.65-6.08,2.46-8.03,5.07-1.95,2.62-2.84,5.86-2.51,9.1.33,3.24,1.86,6.23,4.3,8.41,2.44,2.18,5.61,3.39,8.89,3.39s6.45-1.21,8.89-3.39c2.44-2.18,3.97-5.18,4.3-8.41.33-3.24-.57-6.48-2.51-9.1-1.95-2.61-4.81-4.42-8.03-5.07ZM684.21,554.06v-68.47h121.99v-5.25h-127.29v73.72c-3.22.65-6.08,2.46-8.03,5.08-1.95,2.62-2.84,5.86-2.51,9.1.33,3.24,1.86,6.23,4.3,8.41,2.43,2.18,5.6,3.39,8.89,3.39s6.46-1.21,8.89-3.39c2.44-2.17,3.97-5.17,4.3-8.41.33-3.24-.56-6.48-2.51-9.1-1.95-2.62-4.81-4.43-8.03-5.08ZM344.76,302.21V107.81h42.43v-31.74c3.22-.65,6.08-2.46,8.03-5.08,1.95-2.62,2.84-5.86,2.51-9.09-.33-3.23-1.86-6.23-4.3-8.41-2.44-2.18-5.61-3.39-8.89-3.39s-6.45,1.21-8.89,3.39c-2.44,2.18-3.97,5.18-4.3,8.41-.33,3.23.57,6.47,2.51,9.09,1.95,2.62,4.81,4.43,8.03,5.08v26.5h-42.43v199.65c-3.22.65-6.08,2.46-8.03,5.08-1.95,2.62-2.84,5.86-2.51,9.09.33,3.23,1.86,6.23,4.3,8.41,2.44,2.18,5.61,3.39,8.89,3.39s6.45-1.21,8.89-3.39c2.44-2.18,3.97-5.18,4.3-8.41.33-3.23-.57-6.47-2.51-9.09-1.95-2.62-4.81-4.43-8.03-5.08ZM329.11,359.66c.66,3.19,2.49,6.02,5.13,7.94,2.65,1.93,5.92,2.81,9.19,2.49,3.27-.33,6.3-1.84,8.5-4.25,2.2-2.41,3.42-5.55,3.42-8.8s-1.22-6.39-3.42-8.8c-2.2-2.41-5.23-3.93-8.5-4.25-3.27-.33-6.55.56-9.19,2.49s-4.48,4.76-5.13,7.94h-26.78v-125.93h-74.52c-.66-3.19-2.49-6.02-5.13-7.94s-5.92-2.81-9.19-2.49c-3.27.33-6.3,1.84-8.5,4.25-2.2,2.41-3.42,5.55-3.42,8.8s1.22,6.39,3.42,8.8c2.2,2.41,5.23,3.93,8.5,4.25,3.27.33,6.55-.56,9.19-2.49,2.65-1.93,4.48-4.76,5.13-7.94h69.22v125.93h32.09ZM312.67,18.61c-.66-3.19-2.49-6.02-5.13-7.94-2.65-1.93-5.92-2.81-9.19-2.49-3.27.33-6.3,1.84-8.5,4.25-2.2,2.41-3.42,5.55-3.42,8.8s1.22,6.39,3.42,8.8c2.2,2.41,5.23,3.93,8.5,4.25,3.27.33,6.55-.56,9.19-2.49,2.65-1.93,4.48-4.76,5.13-7.94h154.08v194.4c-3.22.65-6.08,2.46-8.03,5.08-1.95,2.62-2.84,5.86-2.51,9.09.33,3.23,1.86,6.23,4.3,8.41,2.44,2.18,5.61,3.39,8.89,3.39s6.45-1.21,8.89-3.39c2.44-2.18,3.97-5.18,4.3-8.41s-.57-6.47-2.51-9.09c-1.95-2.62-4.81-4.43-8.03-5.08V18.61h-159.38ZM270.24,186.51c-.66-3.19-2.49-6.02-5.13-7.94s-5.92-2.81-9.19-2.49c-3.27.33-6.3,1.84-8.5,4.25-2.2,2.41-3.42,5.55-3.42,8.8s1.22,6.39,3.42,8.8c2.2,2.41,5.23,3.93,8.5,4.25,3.27.33,6.55-.56,9.19-2.49,2.65-1.93,4.48-4.76,5.13-7.94h32.09v-125.93h26.78c.66,3.19,2.49,6.02,5.13,7.94,2.65,1.93,5.92,2.81,9.19,2.49,3.27-.33,6.3-1.84,8.5-4.25,2.2-2.41,3.42-5.55,3.42-8.8s-1.22-6.39-3.42-8.8c-2.2-2.41-5.23-3.93-8.5-4.25-3.27-.33-6.55.56-9.19,2.49-2.65,1.93-4.48,4.76-5.13,7.94h-32.09v125.93h-26.78ZM175.03-91.84c3.22-.65,6.08-2.46,8.03-5.08,1.95-2.62,2.84-5.86,2.51-9.09-.33-3.23-1.86-6.23-4.3-8.41-2.44-2.18-5.61-3.39-8.89-3.39s-6.45,1.21-8.89,3.39c-2.44,2.18-3.97,5.18-4.3,8.41-.33,3.23.57,6.47,2.51,9.09,1.95,2.62,4.81,4.43,8.03,5.08v26.5h-37.13v-78.7h-5.3V-60.1h47.74v-31.74ZM626.13,191.76c.66,3.19,2.49,6.02,5.13,7.94,2.65,1.93,5.92,2.81,9.19,2.49,3.27-.33,6.3-1.84,8.5-4.25,2.2-2.41,3.42-5.55,3.42-8.8s-1.22-6.39-3.42-8.8c-2.2-2.41-5.23-3.93-8.5-4.25-3.27-.33-6.55.56-9.19,2.49-2.65,1.93-4.48,4.76-5.13,7.94h-26.78V-60.1h127.29v-83.95h-5.3v78.7h-127.29V191.76h32.09ZM694.55,270.46c-.66-3.19-2.49-6.01-5.13-7.94s-5.92-2.81-9.2-2.49c-3.27.33-6.3,1.84-8.5,4.25-2.21,2.41-3.43,5.55-3.43,8.8s1.22,6.39,3.43,8.8c2.2,2.41,5.23,3.93,8.5,4.25,3.28.33,6.55-.56,9.2-2.49,2.65-1.93,4.48-4.76,5.13-7.94h32.09v-115.7c3.22-.65,6.08-2.46,8.03-5.08,1.95-2.62,2.84-5.86,2.51-9.09-.33-3.23-1.86-6.23-4.3-8.41-2.43-2.18-5.6-3.39-8.89-3.39s-6.46,1.21-8.89,3.39c-2.44,2.18-3.97,5.18-4.3,8.41-.33,3.23.56,6.47,2.51,9.09,1.95,2.62,4.81,4.43,8.03,5.08v110.45h-26.78ZM524.83,18.61c-.66-3.19-2.49-6.02-5.13-7.94-2.65-1.93-5.92-2.81-9.19-2.49-3.27.33-6.3,1.84-8.5,4.25-2.2,2.41-3.42,5.55-3.42,8.8s1.22,6.39,3.42,8.8c2.2,2.41,5.23,3.93,8.5,4.25,3.27.33,6.55-.56,9.19-2.49,2.65-1.93,4.48-4.76,5.13-7.94h26.78v209.88h42.43v36.73h-111.65c-.66-3.19-2.49-6.01-5.13-7.94-2.65-1.93-5.92-2.81-9.19-2.49-3.27.33-6.3,1.84-8.5,4.25-2.2,2.41-3.42,5.55-3.42,8.8s1.22,6.39,3.42,8.8c2.2,2.41,5.23,3.93,8.5,4.25,3.27.33,6.55-.56,9.19-2.49,2.65-1.93,4.48-4.76,5.13-7.94h116.95v-47.22h-42.43V18.61h-32.09ZM753.43,569.54c.66,3.18,2.49,6.01,5.13,7.94,2.65,1.92,5.93,2.81,9.2,2.49,3.27-.33,6.3-1.84,8.5-4.26,2.21-2.41,3.43-5.54,3.43-8.8s-1.22-6.38-3.43-8.8c-2.2-2.41-5.23-3.92-8.5-4.25-3.27-.33-6.55.56-9.2,2.49-2.65,1.92-4.48,4.75-5.13,7.94h-32.09v89.19h5.3v-83.95h26.78ZM259.89,386.16v-115.7h-116.95c-.66-3.19-2.49-6.01-5.13-7.94s-5.92-2.81-9.19-2.49c-3.27.33-6.3,1.84-8.5,4.25-2.2,2.41-3.42,5.55-3.42,8.8s1.22,6.39,3.42,8.8c2.2,2.41,5.23,3.93,8.5,4.25,3.27.33,6.55-.56,9.19-2.49,2.65-1.93,4.48-4.76,5.13-7.94h111.65v110.45c-3.22.65-6.08,2.46-8.03,5.08-1.95,2.62-2.84,5.86-2.51,9.09.33,3.23,1.86,6.23,4.3,8.41,2.44,2.18,5.61,3.39,8.89,3.39s6.45-1.21,8.89-3.39c2.44-2.18,3.97-5.18,4.3-8.41.33-3.23-.57-6.47-2.51-9.09-1.95-2.62-4.81-4.43-8.03-5.08ZM142.94,564.3c-.66-3.19-2.49-6.02-5.13-7.94-2.65-1.93-5.92-2.82-9.19-2.49-3.27.32-6.3,1.84-8.5,4.25-2.2,2.41-3.42,5.55-3.42,8.8s1.22,6.38,3.42,8.8c2.2,2.41,5.23,3.92,8.5,4.26,3.27.32,6.55-.56,9.19-2.49,2.65-1.93,4.48-4.76,5.13-7.94h69.22v83.95h5.3v-89.19h-74.52ZM302.32,554.06v-73.72h-84.86v-167.9h-32.09c-.66-3.19-2.49-6.02-5.13-7.94-2.65-1.93-5.92-2.81-9.19-2.49-3.27.33-6.3,1.84-8.5,4.25-2.2,2.41-3.42,5.55-3.42,8.8s1.22,6.39,3.42,8.8c2.2,2.41,5.23,3.93,8.5,4.25,3.27.33,6.55-.56,9.19-2.49,2.65-1.93,4.48-4.76,5.13-7.94h26.78v167.9h84.86v68.47c-3.22.65-6.08,2.46-8.03,5.08-1.95,2.62-2.84,5.86-2.51,9.1.33,3.24,1.86,6.23,4.3,8.41,2.44,2.18,5.61,3.39,8.89,3.39s6.45-1.21,8.89-3.39c2.44-2.17,3.97-5.17,4.3-8.41.33-3.24-.57-6.48-2.51-9.1-1.95-2.62-4.81-4.43-8.03-5.08ZM270.24,438.37c-.66-3.19-2.49-6.02-5.13-7.94-2.65-1.93-5.92-2.81-9.19-2.49-3.27.33-6.3,1.84-8.5,4.25-2.2,2.41-3.42,5.55-3.42,8.8s1.22,6.39,3.42,8.8c2.2,2.41,5.23,3.93,8.5,4.25,3.27.33,6.55-.56,9.19-2.49s4.48-4.76,5.13-7.94h69.22v110.45c-3.22.65-6.08,2.46-8.03,5.08-1.95,2.62-2.84,5.86-2.51,9.1.33,3.24,1.86,6.23,4.3,8.41,2.44,2.18,5.61,3.39,8.89,3.39s6.45-1.21,8.89-3.39c2.44-2.17,3.97-5.17,4.3-8.41.33-3.24-.57-6.48-2.51-9.1-1.95-2.62-4.81-4.43-8.03-5.08v-115.69h-74.52ZM312.67,606.27c-.66-3.19-2.49-6.01-5.13-7.94-2.65-1.93-5.92-2.81-9.19-2.49-3.27.32-6.3,1.84-8.5,4.26-2.2,2.41-3.42,5.54-3.42,8.79s1.22,6.39,3.42,8.8c2.2,2.41,5.23,3.93,8.5,4.26,3.27.32,6.55-.56,9.19-2.49s4.48-4.75,5.13-7.94h74.52v-115.69c3.22-.65,6.08-2.46,8.03-5.08,1.95-2.62,2.84-5.86,2.51-9.09-.33-3.23-1.86-6.23-4.3-8.41-2.44-2.18-5.61-3.39-8.89-3.39s-6.45,1.21-8.89,3.39c-2.44,2.18-3.97,5.18-4.3,8.41-.33,3.23.57,6.47,2.51,9.09,1.95,2.62,4.81,4.43,8.03,5.08v110.45h-69.22ZM583.7-102.07c.66,3.19,2.49,6.02,5.13,7.94,2.65,1.93,5.92,2.81,9.19,2.49,3.27-.33,6.3-1.84,8.5-4.25,2.2-2.41,3.42-5.55,3.42-8.8s-1.22-6.39-3.42-8.8c-2.2-2.41-5.23-3.93-8.5-4.25-3.27-.33-6.55.56-9.19,2.49-2.65,1.93-4.48,4.76-5.13,7.94h-323.81v-36.73h-5.3v41.98h329.11ZM641.78,260.23v-26.5h42.43v-89.2h-42.43V-18.12h127.29v-125.93h-5.3V-23.37h-127.29v173.15h42.43v78.71h-42.43v31.74c-3.22.65-6.08,2.46-8.03,5.08-1.95,2.62-2.84,5.86-2.51,9.09.33,3.23,1.86,6.23,4.3,8.41,2.44,2.18,5.61,3.39,8.89,3.39s6.45-1.21,8.89-3.39c2.44-2.18,3.97-5.18,4.3-8.41.33-3.23-.57-6.47-2.51-9.09-1.95-2.62-4.81-4.43-8.03-5.08ZM142.94,606.27c-.66-3.19-2.49-6.01-5.13-7.94-2.65-1.93-5.92-2.81-9.19-2.49-3.27.32-6.3,1.84-8.5,4.26-2.2,2.41-3.42,5.54-3.42,8.79s1.22,6.39,3.42,8.8c2.2,2.41,5.23,3.93,8.5,4.26,3.27.32,6.55-.56,9.19-2.49,2.65-1.93,4.48-4.75,5.13-7.94h26.78v36.73h-42.43v5.24h47.74v-47.22h-32.09ZM439.96,522.32c-.66-3.18-2.49-6.01-5.13-7.94-2.65-1.93-5.92-2.81-9.19-2.49-3.27.33-6.3,1.84-8.5,4.25-2.2,2.41-3.42,5.55-3.42,8.8s1.22,6.38,3.42,8.8c2.2,2.41,5.23,3.92,8.5,4.25,3.27.33,6.55-.56,9.19-2.48,2.65-1.93,4.48-4.76,5.13-7.94h69.22v125.92h132.6v-5.24h-127.29v-125.93h-74.52ZM312.67,648.25c-.35-1.69-1.03-3.29-2-4.72-.97-1.43-2.22-2.65-3.68-3.6-1.45-.95-3.08-1.61-4.79-1.94-1.71-.32-3.47-.32-5.17.03s-3.33,1.01-4.77,1.98c-1.44.96-2.68,2.2-3.64,3.64-1.94,2.9-2.63,6.44-1.93,9.85h5.49c1.41,0,.41.03,1.05.01.65-.01,0,0,1.3,0s1.1-.01,2.5-.01h2.65c1.27,0,.7.01,1.35.01,1.3,0,.65,0,1.17-.01q.78.01,1.43,0c1.3,0,2.6.01,3.55,0h164.87v-89.19h-47.74v31.74c-3.22.65-6.08,2.46-8.03,5.07-1.95,2.62-2.84,5.86-2.51,9.1s1.86,6.23,4.3,8.41c2.44,2.18,5.61,3.39,8.89,3.39s6.45-1.21,8.89-3.39c2.44-2.18,3.97-5.18,4.3-8.41s-.57-6.48-2.51-9.1c-1.95-2.61-4.81-4.42-8.03-5.07v-26.5h37.13v78.7h-154.08ZM312.67,396.39c-.66-3.18-2.49-6.02-5.13-7.94-2.65-1.93-5.92-2.81-9.19-2.49-3.27.33-6.3,1.84-8.5,4.25-2.2,2.41-3.42,5.55-3.42,8.8s1.22,6.39,3.42,8.8c2.2,2.41,5.23,3.93,8.5,4.25,3.27.33,6.55-.56,9.19-2.49s4.48-4.76,5.13-7.94h50.65l84.86,83.95h103.43v110.45c-3.22.65-6.08,2.46-8.03,5.07-1.95,2.62-2.84,5.86-2.51,9.1s1.86,6.23,4.3,8.41c2.44,2.18,5.61,3.39,8.89,3.39s6.45-1.21,8.89-3.39c2.44-2.18,3.97-5.18,4.3-8.41s-.57-6.48-2.51-9.1c-1.95-2.61-4.81-4.42-8.03-5.07v-115.7h-106.53l-84.86-83.95h-52.85ZM387.19,160.02c3.22-.65,6.08-2.46,8.03-5.08,1.95-2.62,2.84-5.86,2.51-9.09-.33-3.23-1.86-6.23-4.3-8.41-2.44-2.18-5.61-3.39-8.89-3.39s-6.45,1.21-8.89,3.39c-2.44,2.18-3.97,5.18-4.3,8.41-.33,3.23.57,6.47,2.51,9.09,1.95,2.62,4.81,4.43,8.03,5.08v200.72l83.78,82.88h128.38v152.43c-3.22.65-6.08,2.46-8.03,5.07-1.95,2.62-2.84,5.86-2.51,9.1s1.86,6.23,4.3,8.41c2.44,2.18,5.61,3.39,8.89,3.39s6.45-1.21,8.89-3.39c2.44-2.18,3.97-5.18,4.3-8.41s-.57-6.48-2.51-9.1c-1.95-2.61-4.81-4.42-8.03-5.07v-157.68h-131.51l-80.65-79.78v-198.57ZM429.62,76.06c3.22-.65,6.08-2.46,8.03-5.08,1.95-2.62,2.84-5.86,2.51-9.09-.33-3.23-1.86-6.23-4.3-8.41-2.44-2.18-5.61-3.39-8.89-3.39s-6.45,1.21-8.89,3.39c-2.44,2.18-3.97,5.18-4.3,8.41-.33,3.23.57,6.47,2.51,9.09,1.95,2.62,4.81,4.43,8.03,5.08v261.06l65.21,64.51h306.33c.52,2.52,1.78,4.83,3.61,6.65,1.84,1.82,4.18,3.06,6.73,3.58v-25.71c-2.55.51-4.89,1.76-6.73,3.58-1.84,1.82-3.1,4.13-3.61,6.65h-304.15l-62.08-61.42V76.06ZM47.74,243.97c3.22-.65,6.08-2.46,8.03-5.08,1.95-2.62,2.84-5.86,2.51-9.09-.33-3.23-1.86-6.23-4.3-8.41-2.44-2.18-5.61-3.39-8.89-3.39s-6.45,1.21-8.89,3.39c-2.44,2.18-3.97,5.18-4.3,8.41-.33,3.23.57,6.47,2.51,9.09,1.95,2.62,4.81,4.43,8.03,5.08v9.21l127.29,125.93v148.47h84.86v125.92h5.3v-131.17h-84.86v-145.37l-127.29-125.93v-7.06ZM132.6,512.09v-114.15L5.3,272.01V107.81h69.22c.66,3.19,2.49,6.01,5.13,7.94,2.65,1.93,5.92,2.81,9.19,2.49,3.27-.33,6.3-1.84,8.5-4.25,2.2-2.41,3.42-5.55,3.42-8.8s-1.22-6.39-3.42-8.8-5.23-3.93-8.5-4.25c-3.27-.33-6.55.56-9.19,2.49-2.65,1.93-4.48,4.76-5.13,7.94H0v171.6l127.29,125.93v112c-3.22.65-6.08,2.46-8.03,5.08-1.95,2.62-2.84,5.86-2.51,9.09.33,3.24,1.86,6.23,4.3,8.41,2.44,2.18,5.61,3.39,8.89,3.39s6.45-1.21,8.89-3.39c2.44-2.18,3.97-5.18,4.3-8.41.33-3.23-.57-6.47-2.51-9.09-1.95-2.62-4.81-4.43-8.03-5.08ZM90.17,470.11v-51.18L0,329.73v7.4l84.86,83.95v49.03c-3.22.65-6.08,2.46-8.03,5.08-1.95,2.62-2.84,5.86-2.51,9.09.33,3.23,1.86,6.23,4.3,8.41,2.44,2.18,5.61,3.39,8.89,3.39s6.45-1.21,8.89-3.39c2.44-2.18,3.97-5.18,4.3-8.41.33-3.23-.57-6.47-2.51-9.09-1.95-2.62-4.81-4.43-8.03-5.08ZM32.09,569.54c.66,3.18,2.49,6.01,5.13,7.94,2.65,1.92,5.92,2.81,9.19,2.49,3.27-.33,6.3-1.84,8.5-4.26,2.2-2.41,3.42-5.54,3.42-8.8s-1.22-6.38-3.42-8.8c-2.2-2.41-5.23-3.92-8.5-4.25-3.27-.33-6.54.56-9.19,2.49-2.65,1.92-4.48,4.75-5.13,7.94h-7.13L0,539.61v7.37l22.78,22.56h9.31ZM736.98,522.32c-.66-3.18-2.49-6.01-5.13-7.94-2.65-1.93-5.92-2.81-9.2-2.49-3.27.33-6.3,1.84-8.5,4.25-2.21,2.41-3.43,5.55-3.43,8.8s1.22,6.38,3.43,8.8c2.2,2.41,5.23,3.92,8.5,4.25,3.28.33,6.55-.56,9.2-2.48,2.65-1.93,4.48-4.76,5.13-7.94h49.57l19.65,19.44v-7.4l-17.48-17.29h-51.74ZM694.55,102.56c-.66-3.19-2.49-6.02-5.13-7.94s-5.92-2.81-9.2-2.49c-3.27.33-6.3,1.84-8.5,4.25-2.21,2.41-3.43,5.55-3.43,8.8s1.22,6.39,3.43,8.8c2.2,2.41,5.23,3.93,8.5,4.25,3.28.33,6.55-.56,9.2-2.49,2.65-1.93,4.48-4.76,5.13-7.94h69.22v187.34l42.43,41.98v-7.4l-37.13-36.73V102.56h-74.52ZM142.94,18.61c-.66-3.19-2.49-6.02-5.13-7.94-2.65-1.93-5.92-2.81-9.19-2.49-3.27.33-6.3,1.84-8.5,4.25-2.2,2.41-3.42,5.55-3.42,8.8s1.22,6.39,3.42,8.8c2.2,2.41,5.23,3.93,8.5,4.25,3.27.33,6.55-.56,9.19-2.49,2.65-1.93,4.48-4.76,5.13-7.94h26.78v59.26l-62.08,61.42h-49.57c-.66-3.19-2.49-6.02-5.13-7.94-2.65-1.93-5.92-2.81-9.19-2.49-3.27.33-6.3,1.84-8.5,4.25-2.2,2.41-3.42,5.55-3.42,8.8s1.22,6.39,3.42,8.8c2.2,2.41,5.23,3.93,8.5,4.25,3.27.33,6.54-.56,9.19-2.49,2.65-1.93,4.48-4.76,5.13-7.94h51.74l65.21-64.51V18.61h-32.09ZM541.27-18.12c.66,3.19,2.49,6.02,5.13,7.94,2.65,1.93,5.92,2.81,9.19,2.49,3.27-.33,6.3-1.84,8.5-4.25,2.2-2.41,3.42-5.55,3.42-8.8s-1.22-6.39-3.42-8.8c-2.2-2.41-5.23-3.93-8.5-4.25-3.27-.33-6.55.56-9.19,2.49-2.65,1.93-4.48,4.76-5.13,7.94H254.59V125.12l-104.49,103.37h-49.59c-.66-3.19-2.49-6.02-5.13-7.94s-5.92-2.81-9.19-2.49c-3.27.33-6.3,1.84-8.5,4.25-2.2,2.41-3.42,5.55-3.42,8.8s1.22,6.39,3.42,8.8c2.2,2.41,5.23,3.93,8.5,4.25,3.27.33,6.55-.56,9.19-2.49,2.65-1.93,4.48-4.76,5.13-7.94h51.71l107.67-106.51V-18.12h281.37ZM142.94-23.37c-.66-3.19-2.49-6.02-5.13-7.94-2.65-1.93-5.92-2.81-9.19-2.49s-6.3,1.84-8.5,4.25c-2.2,2.41-3.42,5.55-3.42,8.8s1.22,6.39,3.42,8.8c2.2,2.41,5.23,3.93,8.5,4.25,3.27.33,6.55-.56,9.19-2.49s4.48-4.76,5.13-7.94h69.22v122.23l-83.3,82.4H58.08c-.66-3.19-2.49-6.02-5.13-7.94-2.65-1.93-5.92-2.81-9.19-2.49-3.27.33-6.3,1.84-8.5,4.25-2.2,2.41-3.42,5.55-3.42,8.8s1.22,6.39,3.42,8.8c2.2,2.41,5.23,3.93,8.5,4.25,3.27.33,6.54-.56,9.19-2.49,2.65-1.93,4.48-4.76,5.13-7.94h72.96l86.43-85.5V-23.37h-74.52ZM90.17,544.85l-65.21-64.51H0v5.25h22.78l62.08,61.42v106.48h5.3v-108.64ZM5.3-133.82c2.55-.51,4.89-1.76,6.73-3.58,1.84-1.82,3.1-4.13,3.62-6.65h-5.49c-1.71.01-.4.01-1.71.01h-2.6c-1.3,0-2.21-.05-3.25,0H0V-18.12h47.74v-125.93h-5.3V-23.37H5.3v-110.45ZM90.17-144.05h-5.3V18.61H0v5.25h90.17v-167.9ZM0,606.27v5.24h42.43v41.97h5.3v-47.22H0ZM769.07,611.52h37.13v-5.24h-42.43v47.22h5.3v-41.97ZM684.21-144.05h-5.3v36.73h-37.13v-36.73h-5.3v41.98h47.74v-41.98ZM0,411.87c1.93.38,3.91.33,5.82-.14,1.91-.47,3.68-1.35,5.2-2.58,1.52-1.23,2.75-2.78,3.59-4.53.85-1.75,1.29-3.67,1.3-5.61,0-1.95-.44-3.87-1.28-5.62-.84-1.76-2.07-3.31-3.59-4.54-1.52-1.23-3.3-2.11-5.21-2.58-1.91-.47-3.9-.51-5.83-.12v5.43c0,.14,0,.79,0,.79C0,393.02,0,393.67,0,393.67q0,.64,0,1.29c0,.64,0,.67,0,1.93q0,1.29,0,2.57T0,401.38,0,402.67c0,.64,0,2.57,0,3.77v5.43ZM212.16-60.1h5.3v-83.95h-5.3V-60.1ZM15.65,653.49c.43-2.12.31-4.32-.32-6.38s-1.78-3.95-3.32-5.48c-1.55-1.53-3.45-2.66-5.54-3.29-2.09-.63-4.31-.74-6.46-.32v5.43c0,1.7,0,8.77,0,10.06,1.95,0,1.95-.01,3.25,0,1.3.01,1.3-.01,2.6,0,1.3.01,2.6-.01,4.31-.01h5.49ZM795.86,653.49h5.49q1.6.02,2.9.03s1.3,0,1.95,0v-15.51c-1.7.34-3.33,1.01-4.77,1.98-1.44.96-2.68,2.2-3.64,3.63-.96,1.44-1.62,3.05-1.96,4.74-.33,1.69-.32,3.43.03,5.12ZM806.2-133.82v-5.43q0-4.79-.65-4.8c-1.3.02-2.6,0-4.2,0h-5.49c.52,2.52,1.78,4.83,3.61,6.65,1.84,1.82,4.18,3.06,6.73,3.58ZM257.24,391.15c1.04,0,2.08.2,3.04.6.97.4,1.84.98,2.58,1.71.74.73,1.33,1.6,1.73,2.55.4.95.61,1.98.61,3.01s-.21,2.06-.61,3.01c-.4.96-.99,1.82-1.73,2.55-.74.73-1.62,1.31-2.58,1.71-.97.4-2,.6-3.04.6-2.11,0,9.52,1.12,8.02-.36-1.49-1.48-1.3.64,3.25-7.51-3.9-7.92-6.04-7.73-4.55-9.21,1.49-1.48-8.83,1.34-6.72,1.34ZM257.24,433.12c2.11,0-8.42-1.48-6.93,0,1.49,1.48-3.75,6.69-3.75,8.78s9.52,8.18,8.03,9.65,4.76-2.7,2.65-2.7-4.13-.83-5.63-2.31c-1.49-1.48-2.33-3.48-2.33-5.57s.84-4.09,2.33-5.57c1.49-1.48,3.52-2.31,5.63-2.31ZM299.67,391.15c1.04,0,2.08.2,3.04.6.97.4,1.84.98,2.58,1.71.74.73,1.33,1.6,1.73,2.55.4.95.61,1.98.61,3.01s-.21,2.06-.61,3.01c-.4.96-.99,1.82-1.73,2.55-.74.73-1.62,1.31-2.58,1.71-.97.4-2,.6-3.04.6-2.11,0,10.65.88,9.15-.6-1.49-1.48,1.95-4.75,1.95-6.83s-4.74-6.23-3.24-7.71c1.49-1.48-9.97-.6-7.86-.6ZM342.1,349.17c2.11,0-7.46-2.4-5.97-.93,1.49,1.48-5.2,6.67-5.2,8.76s6.04,6.89,4.55,8.36c-1.49,1.48,8.73-.45,6.62-.45s-4.13-.83-5.63-2.31c-1.49-1.48-2.33-3.48-2.33-5.57s.84-4.09,2.33-5.57c1.49-1.48,3.52-2.31,5.63-2.31ZM342.1,307.19c2.11,0-8.11-.55-6.62.93,1.49,1.48-3.25,4.99-3.25,7.08s4.09,6.24,2.6,7.72c-1.49,1.48,9.38.02,7.27.02s-4.13-.83-5.63-2.31c-1.49-1.48-2.33-3.48-2.33-5.57s.84-4.09,2.33-5.57c1.49-1.48,3.52-2.31,5.63-2.31ZM214.81,223.24c2.11,0-7.12-1.48-5.63,0,1.49,1.48-5.03,5.61-5.03,7.7s5.39,6.89,3.9,8.36c-1.49,1.48,8.87-.32,6.76-.32s-4.13-.83-5.63-2.31c-1.49-1.48-2.33-3.48-2.33-5.57s.84-4.09,2.33-5.57c1.49-1.48,3.52-2.3,5.63-2.3ZM257.24,181.27c2.11,0-8.42-1.97-6.93-.49,1.49,1.48-2.6,6.27-2.6,8.36s4.74,6.89,3.25,8.36c-1.49,1.48,8.39-.49,6.28-.49s-4.13-.83-5.63-2.31c-1.49-1.48-2.33-3.48-2.33-5.57s.84-4.09,2.33-5.57c1.49-1.48,3.52-2.31,5.63-2.31ZM342.1,55.34c2.11,0-6.81-2.75-5.32-1.27,1.49,1.48-6.5,7.05-6.5,9.14s9.94,10.61,8.45,12.08c-1.49,1.48,5.48-4.21,3.37-4.21s-4.13-.83-5.63-2.31c-1.49-1.48-2.33-3.48-2.33-5.57s.84-4.09,2.33-5.57c1.49-1.48,3.52-2.31,5.63-2.31ZM299.67,13.36c2.11,0-8.59-1.48-7.1,0,1.49,1.48-3.25,5.82-3.25,7.9s6.22,6.36,4.73,7.84c-1.49,1.48,7.74,0,5.63,0s-4.13-.83-5.63-2.31c-1.49-1.48-2.33-3.48-2.33-5.57s.84-4.09,2.33-5.57c1.49-1.48,3.52-2.31,5.63-2.31ZM384.54,55.34c2.11,0-7.12-2.75-5.63-1.27,1.49,1.48-5.05,7.05-5.05,9.14s7.33,8.68,5.84,10.15c-1.49,1.48,6.95-2.28,4.84-2.28s-4.13-.83-5.63-2.31c-1.49-1.48-2.33-3.48-2.33-5.57s.84-4.09,2.33-5.57c1.49-1.48,3.52-2.31,5.63-2.31ZM384.54,139.29c2.11,0-8.28-1.48-6.79,0,1.49,1.48-4.55,5.95-4.55,8.04s4.88,5.6,3.39,7.07c-1.49,1.48,10.07.63,7.96.63s-4.13-.83-5.63-2.31c-1.49-1.48-2.33-3.48-2.33-5.57s.84-4.09,2.33-5.57c1.49-1.48,3.52-2.31,5.63-2.31ZM426.97,55.34c2.11,0-7.81-2.1-6.31-.63,1.49,1.48-5.2,6.27-5.2,8.36s5.39,6.24,3.9,7.72c-1.49,1.48,9.72.29,7.61.29s-4.13-.83-5.63-2.31c-1.49-1.48-2.33-3.48-2.33-5.57s.84-4.09,2.33-5.57c1.49-1.48,3.52-2.31,5.63-2.31ZM511.83,13.36c2.11,0-7.12-2.4-5.63-.93,1.49,1.48-4.93,7.38-4.93,9.47s6.42,6.65,4.93,8.12c-1.49,1.48,7.74-.93,5.63-.93s-4.13-.83-5.63-2.31c-1.49-1.48-2.33-3.48-2.33-5.57s.84-4.09,2.33-5.57c1.49-1.48,3.52-2.31,5.63-2.31ZM511.83,55.34c2.11,0-7.5-3.33-6.01-1.86,1.49,1.48-3.9,8.15-3.9,10.23s3.44,4.96,1.95,6.43c-1.49,1.48,10.07.93,7.96.93s-4.13-.83-5.63-2.31c-1.49-1.48-2.33-3.48-2.33-5.57s.84-4.09,2.33-5.57c1.49-1.48,3.52-2.31,5.63-2.31ZM469.4,223.24c2.11,0-6.03-2.14-4.53-.66-1.95,1.29-6.15,6.44-6.15,8.53s2.25,6.26,3.55,8.19c.65,1.93,9.24-.32,7.13-.32s-4.13-.83-5.63-2.31c-1.49-1.48-2.33-3.48-2.33-5.57s.84-4.09,2.33-5.57c1.49-1.48,3.52-2.3,5.63-2.3ZM511.83,223.24c2.11,0-6.2-3.42-4.71-1.95-2.6,1.29-5.97,7.73-5.97,9.82s4.67,7.87,7.28,9.73c-1.49,1.48,5.51-1.86,3.4-1.86s-4.13-.83-5.63-2.31c-1.49-1.48-2.33-3.48-2.33-5.57s.84-4.09,2.33-5.57c1.49-1.48,3.52-2.3,5.63-2.3ZM554.26-28.61c2.11,0-5.72-2.4-4.23-.93-1.95,1.28-5.2,1.92-7.8,8.8,3.25,6.63,6.5,7.28,8.45,9.21-1.49,1.48,5.69-1.34,3.58-1.34s-4.13-.83-5.63-2.31c-1.49-1.48-2.33-3.48-2.33-5.57s.84-4.09,2.33-5.57c1.49-1.48,3.52-2.31,5.63-2.31ZM554.26-70.59c2.11,0-5.07-2.88-3.58-1.41,1.49,1.48-5.85,1.93-7.57,9.28,2.37,7.45,8.41,7.9,6.92,9.37-1.49,1.48,6.34-1.5,4.23-1.5s-4.13-.83-5.63-2.31c-1.49-1.48-2.33-3.48-2.33-5.57s.84-4.09,2.33-5.57c1.49-1.48,3.52-2.31,5.63-2.31ZM596.69-112.57c2.11,0-5.89-2.07-4.4-.59,1.49,1.48-4.55.59-5.85,8.46,1.3,7.87,2.6,7.61,5.2,8.8-1.49,1.48,7.16-.93,5.05-.93s-4.13-.83-5.63-2.31c-1.49-1.48-2.33-3.48-2.33-5.57s.84-4.09,2.33-5.57c1.49-1.48,3.52-2.31,5.63-2.31ZM639.13,265.22c2.11,0,4.13.83,5.63,2.31,1.49,1.48-1.74-4.39-1.74-2.31s-3.71-3.61-5.2-2.13c-1.49,1.48-3.25,1.21-4.31,4.44-2.11,0-.84-.74-2.33-2.21-1.49-1.48,0,9.86,0,7.78s.84-4.09,2.33-5.57c1.49-1.48,3.52-2.31,5.63-2.31ZM639.13,181.27c2.11,0-3.46-4.17-1.97-2.7,1.49,1.48-5.89,2.7-9.1,10.57,2.6,7.07,9.29,8.17,7.8,9.65s5.38-1.78,3.27-1.78-4.13-.83-5.63-2.31c-1.49-1.48-2.33-3.48-2.33-5.57s.84-4.09,2.33-5.57c1.49-1.48,3.52-2.31,5.63-2.31ZM681.56,265.22c2.11,0-7.12-1.66-5.63-.19,1.5,1.48-3.66,1.77-3.66,3.86-.65-4.5,0,2.09,0,0-1.49,1.48,2.11,7.72,0,7.72s5.16,3.52,3.66,2.05c-1.49-1.48-2.33-3.48-2.33-5.57s.84-4.09,2.33-5.57c1.5-1.48,3.52-2.31,5.63-2.31ZM723.99,307.19c2.11,0-.36-2.95-8.81.27-2.6,5.15.86,5.51.86,7.6s.64-.07-.86,1.4,3.06,3.56.95,3.56,3.73,2.07,2.23.6c-1.49-1.48-2.33-3.48-2.33-5.57s.84-4.09,2.33-5.57c1.5-1.48,3.52-2.31,5.63-2.31ZM469.4,307.19c2.11,0-6.68-2.48-5.18-1,1.49,1.48-5.85,6.92-5.85,9s5.41,8.66,9.1,10.29c-1.49,1.48,4.04-2.55,1.93-2.55s-4.13-.83-5.63-2.31c-1.49-1.48-2.33-3.48-2.33-5.57s.84-4.09,2.33-5.57c1.49-1.48,3.52-2.31,5.63-2.31ZM469.4,265.22c2.11,0-6.03-2.95-4.53-1.47,1.49,1.48-6.5,6.92-6.5,9s6.9,7.66,5.41,9.14c-1.49,1.48,7.74-.93,5.63-.93s-4.13-.83-5.63-2.31c-1.49-1.48-2.33-3.48-2.33-5.57s.84-4.09,2.33-5.57c1.49-1.48,3.52-2.31,5.63-2.31ZM511.83,349.17c2.11,0-4.25-3.29-2.75-1.81,1.49,1.48-6.5,4.12-7.8,10.29,1.95,7.26,9.29,7.53,7.8,9-1.49,1.48,4.87-1.74,2.75-1.74s-4.13-.83-5.63-2.31c-1.49-1.48-2.33-3.48-2.33-5.57s.84-4.09,2.33-5.57c1.49-1.48,3.52-2.31,5.63-2.31ZM766.42,349.17c2.11,0,5.06.74,3.37-.93,1.49,1.48-14.3-3.47-14.3,8.8,1.3,10.24,11.24,7.32,9.75,8.8-1.49,1.48,3.29-.93,1.18-.93s-4.13-.83-5.63-2.31c-1.49-1.48-2.33-3.48-2.33-5.57s.84-4.09,2.33-5.57c1.5-1.48,3.52-2.31,5.63-2.31ZM723.99,517.07c2.11,0-5.11-2.04-3.61-.56,1.5,1.48-2.6-1.93-6.5,8.36,2.6,10.3,9.3,6.89,7.8,8.37-1.49,1.47,4.42-.42,2.31-.42s-4.13-.83-5.63-2.31c-1.49-1.47-2.33-3.47-2.33-5.56s.84-4.09,2.33-5.56c1.5-1.48,3.52-2.31,5.63-2.31ZM766.42,559.05c2.11,0-7.88-.28-6.38,1.2,1.49,1.48.76-3.22-4.55,6.67,2.6,8.76,8,6.4,6.5,7.87-1.49,1.48,6.54,0,4.43,0s-4.13-.83-5.63-2.3c-1.49-1.48-2.33-3.48-2.33-5.57s.84-4.09,2.33-5.56c1.5-1.48,3.52-2.31,5.63-2.31ZM681.56,559.05c2.11,0-.84-3.3-3.44-2.02-2.19.3-5.2,1.93-7.8,9.89,1.95,7.48,11.89,8.58,10.4,10.05-1.49,1.48,2.94-2.18.84-2.18s-4.13-.83-5.63-2.3c-1.49-1.48-2.33-3.48-2.33-5.57s.84-4.09,2.33-5.56c1.5-1.48,3.52-2.31,5.63-2.31ZM681.56,601.02c2.11,0-7.12-3.33-5.63-1.86,1.5,1.48-4.96,7.88-4.96,9.96s6.04,7.52,4.55,9,8.15-1.37,6.04-1.37-4.13-.83-5.63-2.31c-1.49-1.48-2.33-3.48-2.33-5.57s.84-4.08,2.33-5.56c1.5-1.48,3.52-2.31,5.63-2.31ZM639.13,601.02c2.11,0-5.41-2.37-3.92-.9-2.27.9-5.2,3.22-6.76,8.76,1.56,5.38,8.9,9.06,7.41,10.53-1.49,1.48,5.38-2.65,3.27-2.65s-4.13-.83-5.63-2.31c-1.49-1.48-2.33-3.48-2.33-5.57s.84-4.08,2.33-5.56c1.49-1.48,3.52-2.31,5.63-2.31ZM596.69,601.02c2.11,0-4.59-3.66-3.1-2.18,1.49,1.47-4.86,1.55-7.58,10.05,1.08,7.31,7.77,8.41,6.28,9.89-1.49,1.48,6.51-2.01,4.4-2.01s-4.13-.83-5.63-2.31c-1.49-1.48-2.33-3.48-2.33-5.57s.84-4.08,2.33-5.56c1.49-1.48,3.52-2.31,5.63-2.31ZM554.26,601.02c2.11,0-5.72-3.02-4.23-1.54,1.49,1.47-7.15,7.33-7.15,9.41s6.69,7.12,5.2,8.6,8.29-.72,6.18-.72-4.13-.83-5.63-2.31c-1.49-1.48-2.33-3.48-2.33-5.57s.84-4.08,2.33-5.56c1.49-1.48,3.52-2.31,5.63-2.31ZM129.95,559.05c2.11,0-1.33-3.1-5.77-.73-2.19,1.17-3.9,3.86-5.2,8.6,1.49-1.47,0,2.09,0,0-1.49,1.48,6.5,10.69,5.85,8.12,4.55.68.98-1.08-.51-2.55-1.49-1.48-2.33-3.48-2.33-5.57s.84-4.09,2.33-5.56c1.49-1.48,3.52-2.31,5.63-2.31ZM45.08,559.05c2.11,0-8.22-.28-6.72,1.2,1.49,1.48-4.55,4.58-4.55,6.67s7.14,6.4,5.65,7.87c-1.49,1.48,7.74,0,5.63,0s-4.13-.83-5.63-2.3c-1.49-1.48-2.33-3.48-2.33-5.57s.84-4.09,2.33-5.56c1.49-1.48,3.52-2.31,5.63-2.31ZM129.95,517.07c2.11,0-6.61-2.68-5.12-1.2,1.49,1.48-5.56,6.99-5.56,9.07s7.06,8.25,5.56,9.73c-1.49,1.48,7.23-1.86,5.12-1.86s-4.13-.83-5.63-2.31c-1.49-1.47-2.33-3.47-2.33-5.56s.84-4.09,2.33-5.56c1.49-1.48,3.52-2.31,5.63-2.31ZM87.52,475.1c2.11,0-7.12-3.15-5.63-1.68,1.49,1.48-5.05,7.46-5.05,9.55s7.23,8.25,5.74,9.73c-1.49,1.48,7.05-1.86,4.94-1.86s-4.13-.83-5.63-2.31c-1.49-1.48-2.33-3.48-2.33-5.57s.84-4.09,2.33-5.57c1.49-1.48,3.52-2.31,5.63-2.31ZM129.95,601.02c2.11,0-9.45-.44-7.96,1.03,1.49,1.47-3.01,4.75-3.01,6.84s4.74,6.48,3.25,7.96c-1.49,1.48,9.83-.08,7.72-.08s-4.13-.83-5.63-2.31c-1.49-1.48-2.33-3.48-2.33-5.57s.84-4.08,2.33-5.56c1.49-1.48,3.52-2.31,5.63-2.31ZM129.95-28.61c2.11,0-9.45-.24-7.96,1.23,1.49,1.48-2.36,4.55-2.36,6.64s3.85,5.45,2.36,6.93,10.07.94,7.96.94-4.13-.83-5.63-2.31c-1.49-1.48-2.33-3.48-2.33-5.57s.84-4.09,2.33-5.57c1.49-1.48,3.52-2.31,5.63-2.31ZM172.38-112.57c2.11,0-9.38-.14-7.89,1.34,1.49,1.48-2.79,4.45-2.79,6.54s4.28,5.5,2.79,6.97c-1.49,1.48,10,.9,7.89.9s-4.13-.83-5.63-2.31c-1.49-1.48-2.33-3.48-2.33-5.57s.84-4.09,2.33-5.57c1.49-1.48,3.52-2.31,5.63-2.31ZM129.95,55.34c2.11,0-8.56-.82-7.07.66,1.49,1.48-2.77,5.63-2.77,7.72s6.86,7.53,5.37,9c-1.49,1.48,6.58-1.64,4.47-1.64s-4.13-.83-5.63-2.31c-1.49-1.48-2.33-3.48-2.33-5.57s.84-4.09,2.33-5.57c1.49-1.48,3.52-2.31,5.63-2.31ZM129.95,13.36c2.11,0-8.56,0-7.07,1.47,1.49,1.48-3.25,4.31-3.25,6.4s5.39,6.92,3.9,8.39c-1.49,1.48,8.53-.52,6.42-.52s-4.13-.83-5.63-2.31c-1.49-1.48-2.33-3.48-2.33-5.57s.84-4.09,2.33-5.57c1.49-1.48,3.52-2.31,5.63-2.31ZM87.52,97.31c2.11,0-7.74-1.48-6.24,0,1.49,1.48-4.55,5.78-4.55,7.87s7.34,7.32,5.85,8.8c-1.49,1.48,7.05-.93,4.94-.93s-4.13-.83-5.63-2.31c-1.49-1.48-2.33-3.48-2.33-5.57s.84-4.09,2.33-5.57c1.49-1.48,3.52-2.31,5.63-2.31ZM299.67,559.05c2.11,0-8.59-1.38-7.1.09,1.49,1.48-4.55,5.69-4.55,7.78s7.52,7.29,6.03,8.76c-1.49,1.48,7.74-.9,5.63-.9s-4.13-.83-5.63-2.3c-1.49-1.48-2.33-3.48-2.33-5.57s.84-4.09,2.33-5.56c1.49-1.48,3.52-2.31,5.63-2.31ZM342.1,559.05c2.11,0-8.11-1.38-6.62.09,1.49,1.48-4.55,5.69-4.55,7.78s6.04,6.4,4.55,7.87c-1.49,1.48,8.73,0,6.62,0s-4.13-.83-5.63-2.3c-1.49-1.48-2.33-3.48-2.33-5.57s.84-4.09,2.33-5.56c1.49-1.48,3.52-2.31,5.63-2.31ZM299.67,601.02c2.11,0-7.94-1.09-6.45.39,1.49,1.47-5.2,5.4-5.2,7.48s6.69,6.4,5.2,7.88c-1.49,1.47,8.56,0,6.45,0s-4.13-.83-5.63-2.31c-1.49-1.48-2.33-3.48-2.33-5.57s.84-4.08,2.33-5.56c1.49-1.48,3.52-2.31,5.63-2.31ZM384.54,475.1c2.11,0-7.63-1.48-6.14,0,1.49,1.48-5.2,5.78-5.2,7.87s7.21,6.98,5.72,8.46c-1.49,1.48,7.74-.59,5.63-.59s-4.13-.83-5.63-2.31c-1.49-1.48-2.33-3.48-2.33-5.57s.84-4.09,2.33-5.57c1.49-1.48,3.52-2.31,5.63-2.31ZM426.97,517.07c2.11,0-7.12-3.32-5.63-1.85,1.49,1.48-5.89,7.63-5.89,9.72s7.38,8.1,5.89,9.58c-1.49,1.47,7.74-1.71,5.63-1.71s-4.13-.83-5.63-2.31c-1.49-1.47-2.33-3.47-2.33-5.56s.84-4.09,2.33-5.56c1.49-1.48,3.52-2.31,5.63-2.31ZM426.97,601.02c2.11,0-7.81-1.47-6.31,0,1.49,1.48-5.2,5.79-5.2,7.87s7.99,9.06,6.5,10.53c-1.49,1.48,7.12-2.65,5.01-2.65s-4.13-.83-5.63-2.31c-1.49-1.48-2.33-3.48-2.33-5.57s.84-4.08,2.33-5.56c1.49-1.48,3.52-2.31,5.63-2.31ZM723.99,139.29c2.11,0-5.75-3.33-4.26-1.86s-6.5,7.81-6.5,9.9,5.39,6.13,3.9,7.61c-1.49,1.48,8.97.09,6.86.09s-4.13-.83-5.63-2.31c-1.49-1.48-2.33-3.48-2.33-5.57s.84-4.09,2.33-5.57c1.5-1.48,3.52-2.31,5.63-2.31ZM681.56,97.31c2.11,0-4.28-2.92-2.79-1.44,1.49,1.48-5.85,1.29-7.8,9.65,3.25,9,9.29,7.53,7.8,9-1.49,1.48,4.9-1.47,2.79-1.47s-4.13-.83-5.63-2.31c-1.49-1.48-2.33-3.48-2.33-5.57s.84-4.09,2.33-5.57c1.5-1.48,3.52-2.31,5.63-2.31ZM681.56,55.34c2.11,0-2.33-2.75-.84-1.27,1.49,1.48-5.2-1.93-9.75,9.14,3.25,9.51,10.59,8.03,9.1,9.51-1.49,1.48,3.6-1.64,1.49-1.64s-4.13-.83-5.63-2.31c-1.49-1.48-2.33-3.48-2.33-5.57s.84-4.09,2.33-5.57c1.5-1.48,3.52-2.31,5.63-2.31ZM681.56,13.36c2.11,0-6.88-1.48-5.39,0s-5.2,2.11-5.2,7.87c0,4.53,1.95,7.87,4.96,9.68-1.49,1.48,7.74-1.81,5.63-1.81s-4.13-.83-5.63-2.31c-1.49-1.48-2.33-3.48-2.33-5.57s.84-4.09,2.33-5.57c1.5-1.48,3.52-2.31,5.63-2.31ZM45.08,181.27c2.11,0-9.45-.04-7.96,1.44,1.49,1.48-3.32,4.35-3.32,6.43s6.04,7.32,4.55,8.8c-1.49,1.48,8.83-.93,6.72-.93s-4.13-.83-5.63-2.31c-1.49-1.48-2.33-3.48-2.33-5.57s.84-4.09,2.33-5.57c1.49-1.48,3.52-2.31,5.63-2.31ZM45.08,139.29c2.11,0-8.87-1.48-7.37,0,1.49,1.48-3.9,5.78-3.9,7.87s5.39,6.39,3.9,7.87c-1.49,1.48,9.48,0,7.37,0s-4.13-.83-5.63-2.31c-1.49-1.48-2.33-3.48-2.33-5.57s.84-4.09,2.33-5.57c1.49-1.48,3.52-2.31,5.63-2.31ZM45.08,223.24c2.11,0-9.45-1.48-7.96,0,1.49,1.48-2.02,5.61-2.02,7.7s3.51,4.96,2.02,6.43c-1.49,1.48,10.07,1.61,7.96,1.61s-4.13-.83-5.63-2.31c-1.49-1.48-2.33-3.48-2.33-5.57s.84-4.09,2.33-5.57c1.49-1.48,3.52-2.3,5.63-2.3ZM87.52,223.24c2.11,0-7.12-2.78-5.63-1.31,1.49,1.48-5.17,7.56-5.17,9.65s7.99,6.89,6.5,8.36c-1.49,1.48,6.4-.96,4.29-.96s-4.13-.83-5.63-2.31c-1.49-1.48-2.33-3.48-2.33-5.57s.84-4.09,2.33-5.57c1.49-1.48,3.52-2.3,5.63-2.3ZM45.08,433.12c2.11,0-8.22-1.48-6.72,0s-4.55,5.78-4.55,7.87,7.34,7.8,5.85,9.27c-1.49,1.48,7.53-1.4,5.42-1.4s-4.13-.83-5.63-2.31c-1.49-1.48-2.33-3.48-2.33-5.57s.84-4.09,2.33-5.57c1.49-1.48,3.52-2.31,5.63-2.31ZM129.95,265.22c2.11,0-7.91-2.95-6.42-1.47,1.49,1.48-3.25,7.56-3.25,9.65s6.04,9.46,4.55,10.93c-1.49,1.48,7.23-3.37,5.12-3.37s-4.13-.83-5.63-2.31c-1.49-1.48-2.33-3.48-2.33-5.57s.84-4.09,2.33-5.57c1.49-1.48,3.52-2.31,5.63-2.31ZM172.38,307.19c2.11,0-7.89-1.48-6.39,0,1.49,1.48-3.44,6.56-3.44,8.65s4.74,6.24,3.25,7.72c-1.49,1.48,8.7-.62,6.59-.62s-4.13-.83-5.63-2.31c-1.49-1.48-2.33-3.48-2.33-5.57s.84-4.09,2.33-5.57c1.49-1.48,3.52-2.31,5.63-2.31Z"/>
</svg>