<svg width="620" height="510" viewBox="0 0 620 510" fill="none" xmlns="http://www.w3.org/2000/svg">
<path d="M456.842 475.059C454.366 474.554 452.166 473.147 450.668 471.112C449.171 469.076 448.482 466.557 448.736 464.043C448.99 461.529 450.168 459.198 452.043 457.504C453.917 455.809 456.355 454.87 458.882 454.87C461.409 454.87 463.846 455.809 465.72 457.504C467.595 459.198 468.773 461.529 469.027 464.043C469.281 466.557 468.593 469.076 467.095 471.112C465.597 473.147 463.397 474.554 460.921 475.059V565H456.842V475.059ZM554.737 148.743C552.261 148.238 550.061 146.831 548.563 144.796C547.065 142.76 546.377 140.241 546.631 137.727C546.885 135.213 548.063 132.882 549.938 131.188C551.812 129.493 554.249 128.555 556.776 128.555C559.303 128.555 561.74 129.493 563.615 131.188C565.49 132.882 566.668 135.213 566.922 137.727C567.176 140.241 566.487 142.76 564.99 144.796C563.492 146.831 561.292 148.238 558.816 148.743V397.763H554.737V148.743ZM460.921 30.8618C463.397 31.3672 465.597 32.774 467.095 34.8094C468.593 36.8448 469.281 39.3638 469.027 41.8781C468.773 44.3923 467.595 46.7228 465.72 48.4175C463.846 50.1122 461.409 51.0505 458.882 51.0505C456.355 51.0505 453.917 50.1122 452.043 48.4175C450.168 46.7228 448.99 44.3923 448.736 41.8781C448.482 39.3638 449.171 36.8448 450.668 34.8094C452.166 32.774 454.366 31.3672 456.842 30.8618V-55H460.921V30.8618ZM493.553 30.8618C496.029 31.3672 498.229 32.774 499.727 34.8094C501.224 36.8448 501.913 39.3638 501.659 41.8781C501.405 44.3923 500.226 46.7228 498.352 48.4175C496.477 50.1122 494.04 51.0505 491.513 51.0505C488.986 51.0505 486.549 50.1122 484.675 48.4175C482.8 46.7228 481.621 44.3923 481.367 41.8781C481.113 39.3638 481.802 36.8448 483.3 34.8094C484.798 32.774 486.998 31.3672 489.474 30.8618V-55H493.553V30.8618ZM261.053 18.217C258.577 17.7116 256.376 16.3049 254.879 14.2695C253.381 12.2341 252.692 9.71503 252.946 7.20081C253.2 4.68652 254.379 2.35614 256.253 0.661438C258.128 -1.03333 260.565 -1.97162 263.092 -1.97162C265.619 -1.97162 268.056 -1.03333 269.931 0.661438C271.805 2.35614 272.984 4.68652 273.238 7.20081C273.492 9.71503 272.803 12.2341 271.305 14.2695C269.808 16.3049 267.608 17.7116 265.132 18.217V194.02C267.608 194.525 269.808 195.932 271.305 197.967C272.803 200.003 273.492 202.522 273.238 205.036C272.984 207.55 271.805 209.881 269.931 211.575C268.056 213.27 265.619 214.208 263.092 214.208C260.565 214.208 258.128 213.27 256.253 211.575C254.379 209.881 253.2 207.55 252.946 205.036C252.692 202.522 253.381 200.003 254.879 197.967C256.376 195.932 258.577 194.525 261.053 194.02V18.217ZM163.158 540.322C160.682 539.817 158.482 538.41 156.984 536.375C155.486 534.339 154.798 531.82 155.052 529.306C155.306 526.792 156.484 524.461 158.359 522.767C160.233 521.072 162.67 520.134 165.197 520.134C167.724 520.134 170.161 521.072 172.036 522.767C173.911 524.461 175.089 526.792 175.343 529.306C175.597 531.82 174.908 534.339 173.411 536.375C171.913 538.41 169.713 539.817 167.237 540.322V565H163.158V540.322ZM232.5 161.388C234.976 161.894 237.176 163.3 238.674 165.336C240.172 167.371 240.86 169.89 240.606 172.404C240.352 174.919 239.174 177.249 237.299 178.944C235.425 180.639 232.988 181.577 230.461 181.577C227.933 181.577 225.496 180.639 223.622 178.944C221.747 177.249 220.569 174.919 220.315 172.404C220.061 169.89 220.749 167.371 222.247 165.336C223.745 163.3 225.945 161.894 228.421 161.388V-14.4146C225.945 -14.92 223.745 -16.3267 222.247 -18.3621C220.749 -20.3975 220.061 -22.9165 220.315 -25.4308C220.569 -27.945 221.747 -30.2755 223.622 -31.9702C225.496 -33.6649 227.933 -34.6032 230.461 -34.6032C232.988 -34.6032 235.425 -33.6649 237.299 -31.9702C239.174 -30.2755 240.352 -27.945 240.606 -25.4308C240.86 -22.9165 240.172 -20.3975 238.674 -18.3621C237.176 -16.3267 234.976 -14.92 232.5 -14.4146V161.388ZM24.6776 38.8158C25.183 36.3398 26.5898 34.1396 28.6252 32.6418C30.6606 31.1441 33.1796 30.4556 35.6939 30.7095C38.2082 30.9635 40.5386 32.142 42.2333 34.0166C43.928 35.8911 44.8663 38.3281 44.8663 40.8552C44.8663 43.3823 43.928 45.8193 42.2333 47.6939C40.5386 49.5685 38.2082 50.7469 35.6939 51.001C33.1796 51.2549 30.6606 50.5663 28.6252 49.0685C26.5898 47.5708 25.183 45.3707 24.6776 42.8947H0V38.8158H24.6776ZM448.888 169.342C449.394 166.866 450.8 164.666 452.836 163.168C454.871 161.67 457.39 160.982 459.904 161.236C462.419 161.49 464.749 162.668 466.444 164.543C468.139 166.417 469.077 168.854 469.077 171.382C469.077 173.909 468.139 176.346 466.444 178.22C464.749 180.095 462.419 181.273 459.904 181.527C457.39 181.781 454.871 181.093 452.836 179.595C450.8 178.097 449.394 175.897 448.888 173.421H338.349C337.843 175.897 336.437 178.097 334.401 179.595C332.366 181.093 329.847 181.781 327.332 181.527C324.818 181.273 322.488 180.095 320.793 178.22C319.098 176.346 318.16 173.909 318.16 171.382C318.16 168.854 319.098 166.417 320.793 164.543C322.488 162.668 324.818 161.49 327.332 161.236C329.847 160.982 332.366 161.67 334.401 163.168C336.437 164.666 337.843 166.866 338.349 169.342H448.888ZM44.6645 71.4473H163.158V-55H167.237V75.5263H44.6645C44.1591 78.0023 42.7523 80.2024 40.7169 81.7002C38.6815 83.1979 36.1625 83.8865 33.6482 83.6325C31.1339 83.3785 28.8035 82.2 27.1088 80.3255C25.4141 78.4509 24.4758 76.0139 24.4758 73.4868C24.4758 70.9597 25.4141 68.5227 27.1088 66.6482C28.8035 64.7736 31.1339 63.5951 33.6482 63.3411C36.1625 63.0871 38.6815 63.7757 40.7169 65.2735C42.7523 66.7712 44.1591 68.9713 44.6645 71.4473ZM77.2961 38.8158H130.526V-55H134.605V42.8947H77.2961C76.7906 45.3707 75.3839 47.5708 73.3485 49.0685C71.3131 50.5663 68.7941 51.2549 66.2798 51.001C63.7655 50.7469 61.4351 49.5685 59.7404 47.6939C58.0457 45.8193 57.1073 43.3823 57.1073 40.8552C57.1073 38.3281 58.0457 35.8911 59.7404 34.0166C61.4351 32.142 63.7655 30.9635 66.2798 30.7095C68.7941 30.4556 71.3131 31.1441 73.3485 32.6418C75.3839 34.1396 76.7906 36.3398 77.2961 38.8158ZM273.086 299.868H424.211V267.237H448.888C449.394 264.761 450.8 262.561 452.836 261.063C454.871 259.565 457.39 258.877 459.904 259.131C462.419 259.385 464.749 260.563 466.444 262.438C468.139 264.312 469.077 266.749 469.077 269.276C469.077 271.803 468.139 274.24 466.444 276.115C464.749 277.99 462.419 279.168 459.904 279.422C457.39 279.676 454.871 278.987 452.836 277.49C450.8 275.992 449.394 273.792 448.888 271.316H428.289V303.947H273.086C272.58 306.423 271.173 308.624 269.138 310.121C267.103 311.619 264.584 312.308 262.069 312.054C259.555 311.8 257.225 310.621 255.53 308.747C253.835 306.872 252.897 304.435 252.897 301.908C252.897 299.381 253.835 296.944 255.53 295.069C257.225 293.195 259.555 292.016 262.069 291.762C264.584 291.508 267.103 292.197 269.138 293.695C271.173 295.192 272.58 297.392 273.086 299.868ZM228.421 311.901C225.945 311.396 223.745 309.989 222.247 307.954C220.749 305.918 220.061 303.399 220.315 300.885C220.569 298.371 221.747 296.04 223.622 294.346C225.496 292.651 227.933 291.713 230.461 291.713C232.988 291.713 235.425 292.651 237.299 294.346C239.174 296.04 240.352 298.371 240.606 300.885C240.86 303.399 240.172 305.918 238.674 307.954C237.176 309.989 234.976 311.396 232.5 311.901V332.5H330.395V389.809C332.871 390.315 335.071 391.721 336.569 393.757C338.066 395.792 338.755 398.311 338.501 400.825C338.247 403.34 337.068 405.67 335.194 407.365C333.319 409.06 330.882 409.998 328.355 409.998C325.828 409.998 323.391 409.06 321.517 407.365C319.642 405.67 318.464 403.34 318.21 400.825C317.956 398.311 318.644 395.792 320.142 393.757C321.64 391.721 323.84 390.315 326.316 389.809V336.579H228.421V311.901ZM493.553 324.546C496.029 325.051 498.229 326.458 499.727 328.494C501.224 330.529 501.913 333.048 501.659 335.562C501.405 338.077 500.226 340.407 498.352 342.102C496.477 343.796 494.04 344.735 491.513 344.735C488.986 344.735 486.549 343.796 484.675 342.102C482.8 340.407 481.621 338.077 481.367 335.562C481.113 333.048 481.802 330.529 483.3 328.494C484.798 326.458 486.998 325.051 489.474 324.546V206.053H338.349C337.843 208.529 336.437 210.729 334.401 212.227C332.366 213.724 329.847 214.413 327.332 214.159C324.818 213.905 322.488 212.726 320.793 210.852C319.098 208.977 318.16 206.54 318.16 204.013C318.16 201.486 319.098 199.049 320.793 197.174C322.488 195.3 324.818 194.121 327.332 193.867C329.847 193.613 332.366 194.302 334.401 195.8C336.437 197.298 337.843 199.498 338.349 201.974H493.553V324.546ZM363.026 357.178C365.502 357.683 367.702 359.09 369.2 361.125C370.698 363.161 371.387 365.68 371.133 368.194C370.879 370.708 369.7 373.039 367.826 374.733C365.951 376.428 363.514 377.366 360.987 377.366C358.46 377.366 356.023 376.428 354.148 374.733C352.274 373.039 351.095 370.708 350.841 368.194C350.587 365.68 351.276 363.161 352.773 361.125C354.271 359.09 356.471 357.683 358.947 357.178V332.5H456.842V311.901C454.366 311.396 452.166 309.989 450.668 307.954C449.171 305.918 448.482 303.399 448.736 300.885C448.99 298.371 450.168 296.04 452.043 294.346C453.917 292.651 456.355 291.713 458.882 291.713C461.409 291.713 463.846 292.651 465.72 294.346C467.595 296.04 468.773 298.371 469.027 300.885C469.281 303.399 468.593 305.918 467.095 307.954C465.597 309.989 463.397 311.396 460.921 311.901V336.579H363.026V357.178ZM579.414 430.395C579.92 427.919 581.327 425.719 583.362 424.221C585.397 422.723 587.917 422.034 590.431 422.288C592.945 422.542 595.275 423.721 596.97 425.596C598.665 427.47 599.603 429.907 599.603 432.434C599.603 434.961 598.665 437.398 596.97 439.273C595.275 441.147 592.945 442.326 590.431 442.58C587.917 442.834 585.397 442.145 583.362 440.648C581.327 439.15 579.92 436.95 579.414 434.474H558.816V463.026H620V467.105H554.737V430.395H579.414ZM358.947 83.4802C356.471 82.9748 354.271 81.5681 352.773 79.5327C351.276 77.4973 350.587 74.9782 350.841 72.464C351.095 69.9497 352.274 67.6193 354.148 65.9246C356.023 64.2299 358.46 63.2915 360.987 63.2915C363.514 63.2915 365.951 64.2299 367.826 65.9246C369.7 67.6193 370.879 69.9497 371.133 72.464C371.387 74.9782 370.698 77.4973 369.2 79.5327C367.702 81.5681 365.502 82.9748 363.026 83.4802V104.079H554.737V6.1842H620V10.2631H558.816V108.158H358.947V83.4802ZM297.763 30.8618C300.239 31.3672 302.439 32.774 303.937 34.8094C305.435 36.8448 306.123 39.3638 305.869 41.8781C305.615 44.3923 304.437 46.7228 302.562 48.4175C300.688 50.1122 298.251 51.0505 295.724 51.0505C293.197 51.0505 290.76 50.1122 288.885 48.4175C287.01 46.7228 285.832 44.3923 285.578 41.8781C285.324 39.3638 286.013 36.8448 287.51 34.8094C289.008 32.774 291.208 31.3672 293.684 30.8618V6.1842H383.625C384.13 3.70819 385.537 1.508 387.573 0.0102539C389.608 -1.48749 392.127 -2.17603 394.641 -1.92206C397.156 -1.66809 399.486 -0.489563 401.181 1.38501C402.875 3.25952 403.814 5.69653 403.814 8.22363C403.814 10.7507 402.875 13.1877 401.181 15.0623C399.486 16.9369 397.156 18.1154 394.641 18.3694C392.127 18.6234 389.608 17.9348 387.573 16.437C385.537 14.9393 384.13 12.7391 383.625 10.2631H297.763V30.8618ZM493.553 161.388C496.029 161.894 498.229 163.3 499.727 165.336C501.224 167.371 501.913 169.89 501.659 172.404C501.405 174.919 500.226 177.249 498.352 178.944C496.477 180.639 494.04 181.577 491.513 181.577C488.986 181.577 486.549 180.639 484.675 178.944C482.8 177.249 481.621 174.919 481.367 172.404C481.113 169.89 481.802 167.371 483.3 165.336C484.798 163.3 486.998 161.894 489.474 161.388V140.789H326.316V108.158H297.763V194.02C300.239 194.525 302.439 195.932 303.937 197.967C305.435 200.003 306.123 202.522 305.869 205.036C305.615 207.55 304.437 209.881 302.562 211.575C300.688 213.27 298.251 214.208 295.724 214.208C293.197 214.208 290.76 213.27 288.885 211.575C287.01 209.881 285.832 207.55 285.578 205.036C285.324 202.522 286.013 200.003 287.51 197.967C289.008 195.932 291.208 194.525 293.684 194.02V104.079H330.395V136.711H493.553V161.388ZM65.2632 -14.4146C62.7872 -14.92 60.587 -16.3267 59.0893 -18.3621C57.5915 -20.3975 56.9029 -22.9165 57.1569 -25.4308C57.4109 -27.945 58.5894 -30.2755 60.464 -31.9702C62.3385 -33.6649 64.7756 -34.6032 67.3026 -34.6032C69.8297 -34.6032 72.2667 -33.6649 74.1413 -31.9702C76.0159 -30.2755 77.1944 -27.945 77.4484 -25.4308C77.7024 -22.9165 77.0137 -20.3975 75.516 -18.3621C74.0183 -16.3267 71.8181 -14.92 69.3421 -14.4146V10.2631H0V6.1842H65.2632V-14.4146ZM207.822 365.132H297.763V455.072C300.239 455.578 302.439 456.985 303.937 459.02C305.435 461.055 306.123 463.574 305.869 466.089C305.615 468.603 304.437 470.933 302.562 472.628C300.688 474.323 298.251 475.261 295.724 475.261C293.197 475.261 290.76 474.323 288.885 472.628C287.01 470.933 285.832 468.603 285.578 466.089C285.324 463.574 286.013 461.055 287.51 459.02C289.008 456.985 291.208 455.578 293.684 455.072V369.211H207.822C207.317 371.687 205.91 373.887 203.875 375.384C201.839 376.882 199.32 377.571 196.806 377.317C194.292 377.063 191.961 375.884 190.267 374.01C188.572 372.135 187.634 369.698 187.634 367.171C187.634 364.644 188.572 362.207 190.267 360.332C191.961 358.458 194.292 357.279 196.806 357.025C199.32 356.771 201.839 357.46 203.875 358.958C205.91 360.455 207.317 362.656 207.822 365.132ZM69.3421 455.072C71.8181 455.578 74.0183 456.985 75.516 459.02C77.0137 461.055 77.7024 463.574 77.4484 466.089C77.1944 468.603 76.0159 470.933 74.1413 472.628C72.2667 474.323 69.8297 475.261 67.3026 475.261C64.7756 475.261 62.3385 474.323 60.464 472.628C58.5894 470.933 57.4109 468.603 57.1569 466.089C56.9029 463.574 57.5915 461.055 59.0893 459.02C60.587 456.985 62.7872 455.578 65.2632 455.072V401.842H0V397.763H69.3421V455.072ZM77.2961 332.5H134.605V397.763H265.132V422.441C267.608 422.946 269.808 424.353 271.305 426.388C272.803 428.424 273.492 430.943 273.238 433.457C272.984 435.971 271.805 438.302 269.931 439.996C268.056 441.691 265.619 442.629 263.092 442.629C260.565 442.629 258.128 441.691 256.253 439.996C254.379 438.302 253.2 435.971 252.946 433.457C252.692 430.943 253.381 428.424 254.879 426.388C256.376 424.353 258.577 422.946 261.053 422.441V401.842H130.526V336.579H77.2961C76.7906 339.055 75.3839 341.255 73.3485 342.753C71.3131 344.251 68.7941 344.939 66.2798 344.685C63.7655 344.431 61.4351 343.253 59.7404 341.378C58.0457 339.504 57.1073 337.067 57.1073 334.539C57.1073 332.012 58.0457 329.575 59.7404 327.701C61.4351 325.826 63.7655 324.648 66.2798 324.394C68.7941 324.14 71.3131 324.828 73.3485 326.326C75.3839 327.824 76.7906 330.024 77.2961 332.5ZM167.237 357.178C169.713 357.683 171.913 359.09 173.411 361.125C174.908 363.161 175.597 365.68 175.343 368.194C175.089 370.708 173.911 373.039 172.036 374.733C170.161 376.428 167.724 377.366 165.197 377.366C162.67 377.366 160.233 376.428 158.359 374.733C156.484 373.039 155.306 370.708 155.052 368.194C154.798 365.68 155.486 363.161 156.984 361.125C158.482 359.09 160.682 357.683 163.158 357.178V303.947H77.2961C76.7906 306.423 75.3839 308.624 73.3485 310.121C71.3131 311.619 68.7941 312.308 66.2798 312.054C63.7655 311.8 61.4351 310.621 59.7404 308.747C58.0457 306.872 57.1073 304.435 57.1073 301.908C57.1073 299.381 58.0457 296.944 59.7404 295.069C61.4351 293.195 63.7655 292.016 66.2798 291.762C68.7941 291.508 71.3131 292.197 73.3485 293.695C75.3839 295.192 76.7906 297.392 77.2961 299.868H167.237V357.178ZM36.7105 324.546C39.1865 325.051 41.3867 326.458 42.8844 328.494C44.3821 330.529 45.0708 333.048 44.8168 335.562C44.5628 338.077 43.3843 340.407 41.5097 342.102C39.6352 343.796 37.1981 344.735 34.6711 344.735C32.144 344.735 29.7069 343.796 27.8324 342.102C25.9578 340.407 24.7793 338.077 24.5253 335.562C24.2713 333.048 24.96 330.529 26.4577 328.494C27.9554 326.458 30.1556 325.051 32.6316 324.546V267.237H122.572C123.078 264.761 124.485 262.561 126.52 261.063C128.555 259.565 131.074 258.877 133.589 259.131C136.103 259.385 138.433 260.563 140.128 262.438C141.823 264.312 142.761 266.749 142.761 269.276C142.761 271.803 141.823 274.24 140.128 276.115C138.433 277.99 136.103 279.168 133.589 279.422C131.074 279.676 128.555 278.987 126.52 277.49C124.485 275.992 123.078 273.792 122.572 271.316H36.7105V324.546ZM587.368 116.112C584.892 115.606 582.692 114.2 581.195 112.164C579.697 110.129 579.008 107.61 579.262 105.096C579.516 102.581 580.695 100.251 582.569 98.5562C584.444 96.8614 586.881 95.9231 589.408 95.9231C591.935 95.9231 594.372 96.8614 596.247 98.5562C598.121 100.251 599.3 102.581 599.554 105.096C599.808 107.61 599.119 110.129 597.621 112.164C596.124 114.2 593.923 115.606 591.447 116.112V365.132H620V369.211H587.368V116.112ZM305.717 71.4473H326.316V38.8158H395.658V71.4473H522.105V-26.4474H620V-22.3685H526.184V75.5263H391.579V42.8947H330.395V75.5263H305.717C305.212 78.0023 303.805 80.2024 301.77 81.7002C299.734 83.1979 297.215 83.8865 294.701 83.6325C292.187 83.3785 289.856 82.2 288.161 80.3255C286.467 78.4509 285.528 76.0139 285.528 73.4868C285.528 70.9597 286.467 68.5227 288.161 66.6482C289.856 64.7736 292.187 63.5951 294.701 63.3411C297.215 63.0871 299.734 63.7757 301.77 65.2735C303.805 66.7712 305.212 68.9713 305.717 71.4473ZM36.7105 455.072C39.1865 455.578 41.3867 456.985 42.8844 459.02C44.3821 461.055 45.0708 463.574 44.8168 466.089C44.5628 468.603 43.3843 470.933 41.5097 472.628C39.6352 474.323 37.1981 475.261 34.6711 475.261C32.144 475.261 29.7069 474.323 27.8324 472.628C25.9578 470.933 24.7793 468.603 24.5253 466.089C24.2713 463.574 24.96 461.055 26.4577 459.02C27.9554 456.985 30.1556 455.578 32.6316 455.072V434.474H4.07895V467.105H0V430.395H36.7105V455.072ZM101.974 226.651C104.45 227.157 106.65 228.563 108.148 230.599C109.645 232.634 110.334 235.153 110.08 237.668C109.826 240.182 108.647 242.512 106.773 244.207C104.898 245.902 102.461 246.84 99.9342 246.84C97.4072 246.84 94.9701 245.902 93.0956 244.207C91.221 242.512 90.0425 240.182 89.7885 237.668C89.5345 235.153 90.2231 232.634 91.7208 230.599C93.2186 228.563 95.4187 227.157 97.8947 226.651V173.421H0V71.4473H4.07895V169.342H101.974V226.651ZM4.07895 324.546C5.3913 324.814 6.63805 325.338 7.74802 326.087C8.85798 326.837 9.80942 327.798 10.548 328.915C11.2866 330.033 11.7979 331.284 12.0527 332.599C12.3074 333.914 12.3007 335.267 12.0329 336.579C11.7651 337.891 11.2414 339.138 10.4917 340.248C9.74206 341.358 8.78112 342.309 7.66376 343.048C5.40716 344.54 2.65042 345.074 0 344.533L0 340.311C0.922593 340.636 1.90954 340.734 2.87812 340.599C3.8467 340.463 4.76869 340.098 5.56679 339.532C6.36489 338.967 7.01584 338.219 7.4651 337.35C7.91435 336.481 8.1488 335.517 8.1488 334.539C8.1488 333.561 7.91435 332.598 7.4651 331.729C7.01584 330.86 6.36489 330.112 5.56679 329.547C4.76869 328.981 3.8467 328.616 2.87812 328.48C1.90954 328.345 0.922593 328.443 0 328.768L0 201.974H69.3421V238.684H44.6645C44.1591 241.16 42.7523 243.36 40.7169 244.858C38.6815 246.356 36.1625 247.044 33.6482 246.79C31.1339 246.536 28.8035 245.358 27.1088 243.483C25.4141 241.609 24.4758 239.172 24.4758 236.645C24.4758 234.118 25.4141 231.681 27.1088 229.806C28.8035 227.931 31.1339 226.753 33.6482 226.499C36.1625 226.245 38.6815 226.934 40.7169 228.431C42.7523 229.929 44.1591 232.129 44.6645 234.605H65.2632V206.053H4.07895V324.546ZM199.868 324.546C202.344 325.051 204.545 326.458 206.042 328.494C207.54 330.529 208.229 333.048 207.975 335.562C207.721 338.077 206.542 340.407 204.668 342.102C202.793 343.796 200.356 344.735 197.829 344.735C195.302 344.735 192.865 343.796 190.99 342.102C189.116 340.407 187.937 338.077 187.683 335.562C187.429 333.048 188.118 330.529 189.616 328.494C191.113 326.458 193.313 325.051 195.789 324.546V285.592L130.526 220.329V140.789H44.6645C44.1591 143.265 42.7523 145.466 40.7169 146.963C38.6815 148.461 36.1625 149.15 33.6482 148.896C31.1339 148.642 28.8035 147.463 27.1088 145.589C25.4141 143.714 24.4758 141.277 24.4758 138.75C24.4758 136.223 25.4141 133.786 27.1088 131.911C28.8035 130.037 31.1339 128.858 33.6482 128.604C36.1625 128.35 38.6815 129.039 40.7169 130.537C42.7523 132.034 44.1591 134.234 44.6645 136.711H134.605V218.636L199.868 283.899V324.546ZM383.625 267.237C384.13 264.761 385.537 262.561 387.573 261.063C389.608 259.565 392.127 258.877 394.641 259.131C397.156 259.385 399.486 260.563 401.181 262.438C402.875 264.312 403.814 266.749 403.814 269.276C403.814 271.803 402.875 274.24 401.181 276.115C399.486 277.99 397.156 279.168 394.641 279.422C392.127 279.676 389.608 278.987 387.573 277.49C385.537 275.992 384.13 273.792 383.625 271.316H227.585L163.158 206.889V108.158H44.6645C44.1591 110.634 42.7523 112.834 40.7169 114.332C38.6815 115.829 36.1625 116.518 33.6482 116.264C31.1339 116.01 28.8035 114.832 27.1088 112.957C25.4141 111.083 24.4758 108.645 24.4758 106.118C24.4758 103.591 25.4141 101.154 27.1088 99.2797C28.8035 97.4052 31.1339 96.2267 33.6482 95.9727C36.1625 95.7187 38.6815 96.4073 40.7169 97.9051C42.7523 99.4028 44.1591 101.603 44.6645 104.079H167.237V205.216L229.257 267.237H383.625ZM448.888 234.605C449.394 232.129 450.8 229.929 452.836 228.431C454.871 226.934 457.39 226.245 459.904 226.499C462.419 226.753 464.749 227.931 466.444 229.806C468.139 231.681 469.077 234.118 469.077 236.645C469.077 239.172 468.139 241.609 466.444 243.483C464.749 245.358 462.419 246.536 459.904 246.79C457.39 247.044 454.871 246.356 452.836 244.858C450.8 243.36 449.394 241.16 448.888 238.684H245.94L195.789 188.534V-47.0461C193.83 -47.4457 192.031 -48.4129 190.617 -49.8271C189.202 -51.2414 188.235 -53.0403 187.836 -55H192.057C192.478 -53.8049 193.259 -52.7698 194.293 -52.0375C195.326 -51.3053 196.562 -50.912 197.829 -50.912C199.096 -50.912 200.332 -51.3053 201.365 -52.0375C202.399 -52.7698 203.18 -53.8049 203.601 -55H207.822C207.423 -53.0403 206.456 -51.2414 205.041 -49.8271C203.627 -48.4129 201.828 -47.4457 199.868 -47.0461V186.861L247.613 234.605H448.888ZM318.362 528.289C318.867 525.813 320.274 523.613 322.309 522.116C324.345 520.618 326.864 519.929 329.378 520.183C331.892 520.437 334.223 521.616 335.918 523.49C337.612 525.365 338.551 527.802 338.551 530.329C338.551 532.856 337.612 535.293 335.918 537.168C334.223 539.042 331.892 540.221 329.378 540.475C326.864 540.729 324.345 540.04 322.309 538.542C320.274 537.045 318.867 534.844 318.362 532.368H311.203L213.309 434.474H97.8947V369.211H0V365.132H101.974V430.395H214.981L312.876 528.289H318.362ZM109.928 463.026H198.665L296.56 560.921H424.211V507.691C421.735 507.185 419.534 505.779 418.037 503.743C416.539 501.708 415.85 499.189 416.104 496.675C416.358 494.16 417.537 491.83 419.411 490.135C421.286 488.44 423.723 487.502 426.25 487.502C428.777 487.502 431.214 488.44 433.089 490.135C434.963 491.83 436.142 494.16 436.396 496.675C436.65 499.189 435.961 501.708 434.463 503.743C432.966 505.779 430.766 507.185 428.289 507.691V565H294.888L196.993 467.105H109.928C109.422 469.581 108.015 471.781 105.98 473.279C103.945 474.777 101.426 475.466 98.9114 475.212C96.3971 474.958 94.0667 473.779 92.372 471.904C90.6773 470.03 89.7389 467.593 89.7389 465.066C89.7389 462.539 90.6773 460.102 92.372 458.227C94.0667 456.353 96.3971 455.174 98.9114 454.92C101.426 454.666 103.945 455.355 105.98 456.852C108.015 458.35 109.422 460.55 109.928 463.026ZM142.559 495.658H182.349L251.691 565H245.94L180.677 499.737H142.559C142.054 502.213 140.647 504.413 138.612 505.911C136.576 507.408 134.057 508.097 131.543 507.843C129.029 507.589 126.698 506.411 125.004 504.536C123.309 502.661 122.371 500.224 122.371 497.697C122.371 495.17 123.309 492.733 125.004 490.859C126.698 488.984 129.029 487.806 131.543 487.552C134.057 487.298 136.576 487.986 138.612 489.484C140.647 490.982 142.054 493.182 142.559 495.658ZM65.2632 540.322C62.7872 539.817 60.587 538.41 59.0893 536.375C57.5915 534.339 56.9029 531.82 57.1569 529.306C57.4109 526.792 58.5894 524.461 60.464 522.767C62.3385 521.072 64.7756 520.134 67.3026 520.134C69.8297 520.134 72.2667 521.072 74.1413 522.767C76.0159 524.461 77.1944 526.792 77.4484 529.306C77.7024 531.82 77.0137 534.339 75.516 536.375C74.0183 538.41 71.8181 539.817 69.3421 540.322V545.809L88.5336 565H82.8026L65.2632 547.481V540.322ZM101.974 -1.76971C104.45 -1.26434 106.65 0.142456 108.148 2.1778C109.645 4.2132 110.334 6.73218 110.08 9.24646C109.826 11.7607 108.647 14.0912 106.773 15.7859C104.898 17.4806 102.461 18.4189 99.9342 18.4189C97.4072 18.4189 94.9701 17.4806 93.0956 15.7859C91.221 14.0912 90.0425 11.7607 89.7885 9.24646C89.5345 6.73218 90.2231 4.2132 91.7208 2.1778C93.2186 0.142456 95.4187 -1.26434 97.8947 -1.76971V-39.8876L82.7822 -55H88.5336L101.974 -41.5599V-1.76971ZM428.289 30.8618C430.766 31.3672 432.966 32.774 434.463 34.8094C435.961 36.8448 436.65 39.3638 436.396 41.8781C436.142 44.3923 434.963 46.7228 433.089 48.4175C431.214 50.1122 428.777 51.0505 426.25 51.0505C423.723 51.0505 421.286 50.1122 419.411 48.4175C417.537 46.7228 416.358 44.3923 416.104 41.8781C415.85 39.3638 416.539 36.8448 418.037 34.8094C419.534 32.774 421.735 31.3672 424.211 30.8618V-22.3685H278.572L245.94 -55H251.691L280.244 -26.4474H428.289V30.8618ZM493.553 455.072C496.029 455.578 498.229 456.985 499.727 459.02C501.224 461.055 501.913 463.574 501.659 466.089C501.405 468.603 500.226 470.933 498.352 472.628C496.477 474.323 494.04 475.261 491.513 475.261C488.986 475.261 486.549 474.323 484.675 472.628C482.8 470.933 481.621 468.603 481.367 466.089C481.113 463.574 481.802 461.055 483.3 459.02C484.798 456.985 486.998 455.578 489.474 455.072V434.474H443.402L395.658 482.218V520.336C398.134 520.841 400.334 522.248 401.832 524.283C403.33 526.319 404.018 528.838 403.764 531.352C403.51 533.866 402.332 536.196 400.457 537.891C398.583 539.586 396.146 540.524 393.618 540.524C391.091 540.524 388.654 539.586 386.78 537.891C384.905 536.196 383.727 533.866 383.473 531.352C383.219 528.838 383.907 526.319 385.405 524.283C386.903 522.248 389.103 520.841 391.579 520.336V480.545L441.73 430.395H493.553V455.072ZM522.105 148.743C519.629 148.238 517.429 146.831 515.931 144.796C514.434 142.76 513.745 140.241 513.999 137.727C514.253 135.213 515.432 132.882 517.306 131.188C519.181 129.493 521.618 128.555 524.145 128.555C526.672 128.555 529.109 129.493 530.983 131.188C532.858 132.882 534.036 135.213 534.29 137.727C534.544 140.241 533.856 142.76 532.358 144.796C530.86 146.831 528.66 148.238 526.184 148.743V369.211H410.75L330.395 449.566V487.704C332.871 488.209 335.071 489.616 336.569 491.652C338.066 493.687 338.755 496.206 338.501 498.72C338.247 501.234 337.068 503.565 335.194 505.26C333.319 506.954 330.882 507.893 328.355 507.893C325.828 507.893 323.391 506.954 321.517 505.26C319.642 503.565 318.464 501.234 318.21 498.72C317.956 496.206 318.644 493.687 320.142 491.652C321.64 489.616 323.84 488.209 326.316 487.704V447.934L409.118 365.132H522.105V148.743ZM526.184 455.072C528.66 455.578 530.86 456.985 532.358 459.02C533.856 461.055 534.544 463.574 534.29 466.089C534.036 468.603 532.858 470.933 530.983 472.628C529.109 474.323 526.672 475.261 524.145 475.261C521.618 475.261 519.181 474.323 517.306 472.628C515.432 470.933 514.253 468.603 513.999 466.089C513.745 463.574 514.434 461.055 515.931 459.02C517.429 456.985 519.629 455.578 522.105 455.072V401.842H427.086L363.026 465.902V520.336C365.502 520.841 367.702 522.248 369.2 524.283C370.698 526.319 371.387 528.838 371.133 531.352C370.879 533.866 369.7 536.196 367.826 537.891C365.951 539.586 363.514 540.524 360.987 540.524C358.46 540.524 356.023 539.586 354.148 537.891C352.274 536.196 351.095 533.866 350.841 531.352C350.587 528.838 351.276 526.319 352.773 524.283C354.271 522.248 356.471 520.841 358.947 520.336V464.23L425.414 397.763H526.184V455.072ZM81.1711 495.658H84.4546L134.605 545.809V565H130.526V547.481L82.7822 499.737H0V495.658H81.1711ZM612.046 560.921C612.446 558.961 613.413 557.162 614.827 555.748C616.241 554.334 618.04 553.367 620 552.967V557.189C619.242 557.456 618.544 557.871 617.946 558.408C617.348 558.945 616.862 559.595 616.515 560.321C616.168 561.046 615.968 561.833 615.926 562.636C615.883 563.439 616 564.242 616.268 565H522.105V528.289H620V532.368H526.184V560.921H612.046ZM491.513 495.658H620V499.737H493.553V565H489.474V495.658H491.513ZM36.7105 530.329V565H32.6316V532.368H0V528.289H36.7105V530.329ZM32.6316 -26.4474V-55H36.7105V-22.3685H0V-26.4474H32.6316ZM589.408 38.8158H620V42.8947H591.447V71.4473H620V75.5263H587.368V38.8158H589.408ZM187.836 565C187.541 563.519 187.577 561.991 187.942 560.526C188.307 559.061 188.992 557.695 189.947 556.525C190.902 555.356 192.104 554.412 193.467 553.762C194.829 553.111 196.319 552.77 197.829 552.763C199.341 552.763 200.835 553.099 202.201 553.747C203.567 554.395 204.773 555.339 205.729 556.51C206.686 557.682 207.37 559.051 207.732 560.519C208.094 561.988 208.125 563.518 207.822 565H203.601C203.925 564.077 204.024 563.09 203.888 562.122C203.753 561.153 203.387 560.231 202.822 559.433C202.257 558.635 201.508 557.984 200.639 557.535C199.771 557.086 198.807 556.851 197.829 556.851C196.851 556.851 195.887 557.086 195.018 557.535C194.15 557.984 193.401 558.635 192.836 559.433C192.271 560.231 191.905 561.153 191.77 562.122C191.634 563.09 191.733 564.077 192.057 565H187.836ZM554.737 401.842V397.763H620V401.842H554.737ZM620 324.546V328.768C618.805 329.188 617.77 329.969 617.038 331.003C616.305 332.037 615.912 333.273 615.912 334.539C615.912 335.806 616.305 337.042 617.038 338.076C617.77 339.11 618.805 339.891 620 340.311V344.533C617.695 344.065 615.622 342.814 614.134 340.993C612.645 339.172 611.832 336.892 611.832 334.539C611.832 332.187 612.645 329.907 614.134 328.086C615.622 326.265 617.695 325.014 620 324.546ZM0 552.967C1.65032 552.64 3.35579 552.725 4.96557 553.214C6.57535 553.703 8.03983 554.581 9.22947 555.771C10.4191 556.96 11.2972 558.425 11.7862 560.034C12.2752 561.644 12.3599 563.35 12.0329 565H7.81118C8.19744 563.91 8.26715 562.734 8.01224 561.606C7.75732 560.479 7.18821 559.447 6.37082 558.629C5.55342 557.812 4.5212 557.243 3.39369 556.988C2.26618 556.733 1.08952 556.803 0 557.189L0 552.967ZM0 -47.0461V-51.2678C0.757925 -50.9996 1.56129 -50.8833 2.36416 -50.9257C3.16703 -50.9681 3.95367 -51.1685 4.6791 -51.5151C5.40454 -51.8617 6.05455 -52.3478 6.59197 -52.9458C7.1294 -53.5438 7.54369 -54.2418 7.81118 -55H12.0329C11.7653 -53.6876 11.2418 -52.4407 10.4922 -51.3306C9.7426 -50.2205 8.78165 -49.2689 7.66423 -48.5303C6.54681 -47.7917 5.29481 -47.2804 3.97976 -47.0258C2.66471 -46.7711 1.31238 -46.778 0 -47.0461ZM612.046 -55H616.268C616.572 -54.1388 617.065 -53.3566 617.711 -52.7108C618.357 -52.0649 619.139 -51.5719 620 -51.2678V-47.0461C618.04 -47.4457 616.241 -48.4129 614.827 -49.8271C613.413 -51.2414 612.446 -53.0403 612.046 -55ZM203.947 367.171C203.947 366.368 203.789 365.572 203.482 364.83C203.174 364.087 202.723 363.413 202.155 362.845C201.587 362.277 200.913 361.826 200.17 361.518C199.428 361.211 198.632 361.053 197.829 361.053C197.025 361.053 196.23 361.211 195.488 361.518C194.745 361.826 194.071 362.277 193.503 362.845C192.934 363.413 192.484 364.087 192.176 364.83C191.869 365.572 191.711 366.368 191.711 367.171C191.711 368.794 192.355 370.35 193.503 371.497C194.65 372.645 196.206 373.289 197.829 373.289C199.452 373.289 201.008 372.645 202.155 371.497C203.303 370.35 203.947 368.794 203.947 367.171ZM171.316 367.171C171.316 365.548 170.671 363.992 169.524 362.845C168.376 361.697 166.82 361.053 165.197 361.053C163.575 361.053 162.018 361.697 160.871 362.845C159.724 363.992 159.079 365.548 159.079 367.171C159.079 368.794 159.724 370.35 160.871 371.497C162.018 372.645 163.575 373.289 165.197 373.289C166.82 373.289 168.376 372.645 169.524 371.497C170.671 370.35 171.316 368.794 171.316 367.171ZM203.947 334.539C203.947 333.736 203.789 332.94 203.482 332.198C203.174 331.456 202.723 330.781 202.155 330.213C201.587 329.645 200.913 329.194 200.17 328.887C199.428 328.579 198.632 328.421 197.829 328.421C197.025 328.421 196.23 328.579 195.488 328.887C194.745 329.194 194.071 329.645 193.503 330.213C192.934 330.781 192.484 331.456 192.176 332.198C191.869 332.94 191.711 333.736 191.711 334.539C191.711 336.162 192.355 337.718 193.503 338.866C194.65 340.013 196.206 340.658 197.829 340.658C199.452 340.658 201.008 340.013 202.155 338.866C203.303 337.718 203.947 336.162 203.947 334.539ZM236.579 301.908C236.579 300.285 235.934 298.729 234.787 297.581C233.639 296.434 232.083 295.789 230.461 295.789C228.838 295.789 227.282 296.434 226.134 297.581C224.987 298.729 224.342 300.285 224.342 301.908C224.342 303.531 224.987 305.087 226.134 306.234C227.282 307.382 228.838 308.026 230.461 308.026C232.083 308.026 233.639 307.382 234.787 306.234C235.934 305.087 236.579 303.531 236.579 301.908ZM269.211 301.908C269.211 300.285 268.566 298.729 267.418 297.581C266.271 296.434 264.715 295.789 263.092 295.789C261.469 295.789 259.913 296.434 258.766 297.581C257.618 298.729 256.974 300.285 256.974 301.908C256.974 303.531 257.618 305.087 258.766 306.234C259.913 307.382 261.469 308.026 263.092 308.026C264.715 308.026 266.271 307.382 267.418 306.234C268.566 305.087 269.211 303.531 269.211 301.908ZM334.474 399.803C334.474 398.18 333.829 396.624 332.682 395.476C331.534 394.329 329.978 393.684 328.355 393.684C326.733 393.684 325.176 394.329 324.029 395.476C322.881 396.624 322.237 398.18 322.237 399.803C322.237 401.425 322.881 402.982 324.029 404.129C325.176 405.276 326.733 405.921 328.355 405.921C329.978 405.921 331.534 405.276 332.682 404.129C333.829 402.982 334.474 401.425 334.474 399.803ZM367.105 367.171C367.105 365.548 366.461 363.992 365.313 362.845C364.166 361.697 362.61 361.053 360.987 361.053C359.364 361.053 357.808 361.697 356.66 362.845C355.513 363.992 354.868 365.548 354.868 367.171C354.868 368.794 355.513 370.35 356.66 371.497C357.808 372.645 359.364 373.289 360.987 373.289C362.61 373.289 364.166 372.645 365.313 371.497C366.461 370.35 367.105 368.794 367.105 367.171ZM465 301.908C465 300.285 464.355 298.729 463.208 297.581C462.061 296.434 460.504 295.789 458.882 295.789C457.259 295.789 455.703 296.434 454.555 297.581C453.408 298.729 452.763 300.285 452.763 301.908C452.763 303.531 453.408 305.087 454.555 306.234C455.703 307.382 457.259 308.026 458.882 308.026C460.504 308.026 462.061 307.382 463.208 306.234C464.355 305.087 465 303.531 465 301.908ZM497.632 334.539C497.632 332.917 496.987 331.361 495.84 330.213C494.692 329.066 493.136 328.421 491.513 328.421C489.89 328.421 488.334 329.066 487.187 330.213C486.039 331.361 485.395 332.917 485.395 334.539C485.395 336.162 486.039 337.718 487.187 338.866C488.334 340.013 489.89 340.658 491.513 340.658C493.136 340.658 494.692 340.013 495.84 338.866C496.987 337.718 497.632 336.162 497.632 334.539ZM465 269.276C465 267.654 464.355 266.097 463.208 264.95C462.061 263.802 460.504 263.158 458.882 263.158C457.259 263.158 455.703 263.802 454.555 264.95C453.408 266.097 452.763 267.654 452.763 269.276C452.763 270.899 453.408 272.455 454.555 273.603C455.703 274.75 457.259 275.395 458.882 275.395C460.504 275.395 462.061 274.75 463.208 273.603C464.355 272.455 465 270.899 465 269.276ZM399.737 269.276C399.737 267.654 399.092 266.097 397.945 264.95C396.797 263.802 395.241 263.158 393.618 263.158C391.996 263.158 390.439 263.802 389.292 264.95C388.145 266.097 387.5 267.654 387.5 269.276C387.5 270.899 388.145 272.455 389.292 273.603C390.439 274.75 391.996 275.395 393.618 275.395C395.241 275.395 396.797 274.75 397.945 273.603C399.092 272.455 399.737 270.899 399.737 269.276ZM465 236.645C465 235.022 464.355 233.466 463.208 232.318C462.061 231.171 460.504 230.526 458.882 230.526C457.259 230.526 455.703 231.171 454.555 232.318C453.408 233.466 452.763 235.022 452.763 236.645C452.763 238.267 453.408 239.824 454.555 240.971C455.703 242.119 457.259 242.763 458.882 242.763C460.504 242.763 462.061 242.119 463.208 240.971C464.355 239.824 465 238.267 465 236.645ZM497.632 171.382C497.632 169.759 496.987 168.203 495.84 167.055C494.692 165.908 493.136 165.263 491.513 165.263C489.89 165.263 488.334 165.908 487.187 167.055C486.039 168.203 485.395 169.759 485.395 171.382C485.395 173.004 486.039 174.561 487.187 175.708C488.334 176.855 489.89 177.5 491.513 177.5C493.136 177.5 494.692 176.855 495.84 175.708C496.987 174.561 497.632 173.004 497.632 171.382ZM465 171.382C465 169.759 464.355 168.203 463.208 167.055C462.061 165.908 460.504 165.263 458.882 165.263C457.259 165.263 455.703 165.908 454.555 167.055C453.408 168.203 452.763 169.759 452.763 171.382C452.763 173.004 453.408 174.561 454.555 175.708C455.703 176.855 457.259 177.5 458.882 177.5C460.504 177.5 462.061 176.855 463.208 175.708C464.355 174.561 465 173.004 465 171.382ZM334.474 204.013C334.474 202.39 333.829 200.834 332.682 199.687C331.534 198.539 329.978 197.895 328.355 197.895C326.733 197.895 325.176 198.539 324.029 199.687C322.881 200.834 322.237 202.39 322.237 204.013C322.237 205.636 322.881 207.192 324.029 208.34C325.176 209.487 326.733 210.132 328.355 210.132C329.978 210.132 331.534 209.487 332.682 208.34C333.829 207.192 334.474 205.636 334.474 204.013ZM334.474 171.382C334.474 169.759 333.829 168.203 332.682 167.055C331.534 165.908 329.978 165.263 328.355 165.263C326.733 165.263 325.176 165.908 324.029 167.055C322.881 168.203 322.237 169.759 322.237 171.382C322.237 173.004 322.881 174.561 324.029 175.708C325.176 176.855 326.733 177.5 328.355 177.5C329.978 177.5 331.534 176.855 332.682 175.708C333.829 174.561 334.474 173.004 334.474 171.382ZM530.263 138.75C530.263 137.127 529.619 135.571 528.471 134.424C527.324 133.276 525.767 132.632 524.145 132.632C522.522 132.632 520.966 133.276 519.818 134.424C518.671 135.571 518.026 137.127 518.026 138.75C518.026 140.373 518.671 141.929 519.818 143.076C520.966 144.224 522.522 144.868 524.145 144.868C525.767 144.868 527.324 144.224 528.471 143.076C529.619 141.929 530.263 140.373 530.263 138.75ZM562.895 138.75C562.895 137.127 562.25 135.571 561.103 134.424C559.955 133.276 558.399 132.632 556.776 132.632C555.154 132.632 553.597 133.276 552.45 134.424C551.303 135.571 550.658 137.127 550.658 138.75C550.658 140.373 551.303 141.929 552.45 143.076C553.597 144.224 555.154 144.868 556.776 144.868C558.399 144.868 559.955 144.224 561.103 143.076C562.25 141.929 562.895 140.373 562.895 138.75ZM595.526 106.118C595.526 104.496 594.882 102.939 593.734 101.792C592.587 100.645 591.031 100 589.408 100C587.785 100 586.229 100.645 585.082 101.792C583.934 102.939 583.289 104.496 583.289 106.118C583.289 107.741 583.934 109.297 585.082 110.445C586.229 111.592 587.785 112.237 589.408 112.237C591.031 112.237 592.587 111.592 593.734 110.445C594.882 109.297 595.526 107.741 595.526 106.118ZM301.842 73.4868C301.842 71.8641 301.198 70.3079 300.05 69.1604C298.903 68.013 297.346 67.3684 295.724 67.3684C294.101 67.3684 292.545 68.013 291.397 69.1604C290.25 70.3079 289.605 71.8641 289.605 73.4868C289.605 75.1095 290.25 76.6657 291.397 77.8132C292.545 78.9606 294.101 79.6052 295.724 79.6052C297.346 79.6052 298.903 78.9606 300.05 77.8132C301.198 76.6657 301.842 75.1095 301.842 73.4868ZM367.105 73.4868C367.105 71.8641 366.461 70.3079 365.313 69.1604C364.166 68.013 362.61 67.3684 360.987 67.3684C359.364 67.3684 357.808 68.013 356.66 69.1604C355.513 70.3079 354.868 71.8641 354.868 73.4868C354.868 75.1095 355.513 76.6657 356.66 77.8132C357.808 78.9606 359.364 79.6052 360.987 79.6052C362.61 79.6052 364.166 78.9606 365.313 77.8132C366.461 76.6657 367.105 75.1095 367.105 73.4868ZM301.842 40.8552C301.842 39.2325 301.198 37.6763 300.05 36.5289C298.903 35.3815 297.346 34.7368 295.724 34.7368C294.101 34.7368 292.545 35.3815 291.397 36.5289C290.25 37.6763 289.605 39.2325 289.605 40.8552C289.605 42.4779 290.25 44.0342 291.397 45.1816C292.545 46.329 294.101 46.9736 295.724 46.9736C297.346 46.9736 298.903 46.329 300.05 45.1816C301.198 44.0342 301.842 42.4779 301.842 40.8552ZM269.211 8.22363C269.211 6.60089 268.566 5.04474 267.418 3.89728C266.271 2.74988 264.715 2.10522 263.092 2.10522C261.469 2.10522 259.913 2.74988 258.766 3.89728C257.618 5.04474 256.974 6.60089 256.974 8.22363C256.974 9.84631 257.618 11.4026 258.766 12.55C259.913 13.6974 261.469 14.3421 263.092 14.3421C264.715 14.3421 266.271 13.6974 267.418 12.55C268.566 11.4026 269.211 9.84631 269.211 8.22363ZM269.211 204.013C269.211 202.39 268.566 200.834 267.418 199.687C266.271 198.539 264.715 197.895 263.092 197.895C261.469 197.895 259.913 198.539 258.766 199.687C257.618 200.834 256.974 202.39 256.974 204.013C256.974 205.636 257.618 207.192 258.766 208.34C259.913 209.487 261.469 210.132 263.092 210.132C264.715 210.132 266.271 209.487 267.418 208.34C268.566 207.192 269.211 205.636 269.211 204.013ZM301.842 204.013C301.842 202.39 301.198 200.834 300.05 199.687C298.903 198.539 297.346 197.895 295.724 197.895C294.101 197.895 292.545 198.539 291.397 199.687C290.25 200.834 289.605 202.39 289.605 204.013C289.605 205.636 290.25 207.192 291.397 208.34C292.545 209.487 294.101 210.132 295.724 210.132C297.346 210.132 298.903 209.487 300.05 208.34C301.198 207.192 301.842 205.636 301.842 204.013ZM236.579 171.382C236.579 169.759 235.934 168.203 234.787 167.055C233.639 165.908 232.083 165.263 230.461 165.263C228.838 165.263 227.282 165.908 226.134 167.055C224.987 168.203 224.342 169.759 224.342 171.382C224.342 173.004 224.987 174.561 226.134 175.708C227.282 176.855 228.838 177.5 230.461 177.5C232.083 177.5 233.639 176.855 234.787 175.708C235.934 174.561 236.579 173.004 236.579 171.382ZM236.579 -24.4079C236.579 -26.0306 235.934 -27.5869 234.787 -28.7343C233.639 -29.8817 232.083 -30.5264 230.461 -30.5264C228.838 -30.5264 227.282 -29.8817 226.134 -28.7343C224.987 -27.5869 224.342 -26.0306 224.342 -24.4079C224.342 -22.7852 224.987 -21.229 226.134 -20.0816C227.282 -18.9341 228.838 -18.2895 230.461 -18.2895C232.083 -18.2895 233.639 -18.9341 234.787 -20.0816C235.934 -21.229 236.579 -22.7852 236.579 -24.4079ZM106.053 8.22363C106.053 6.60089 105.408 5.04474 104.261 3.89728C103.113 2.74988 101.557 2.10522 99.9342 2.10522C98.3115 2.10522 96.7553 2.74988 95.6078 3.89728C94.4604 5.04474 93.8158 6.60089 93.8158 8.22363C93.8158 9.84631 94.4604 11.4026 95.6078 12.55C96.7553 13.6974 98.3115 14.3421 99.9342 14.3421C101.557 14.3421 103.113 13.6974 104.261 12.55C105.408 11.4026 106.053 9.84631 106.053 8.22363ZM73.4211 -24.4079C73.4211 -26.0306 72.7764 -27.5869 71.629 -28.7343C70.4816 -29.8817 68.9253 -30.5264 67.3026 -30.5264C65.6799 -30.5264 64.1237 -29.8817 62.9763 -28.7343C61.8288 -27.5869 61.1842 -26.0306 61.1842 -24.4079C61.1842 -22.7852 61.8288 -21.229 62.9763 -20.0816C64.1237 -18.9341 65.6799 -18.2895 67.3026 -18.2895C68.9253 -18.2895 70.4816 -18.9341 71.629 -20.0816C72.7764 -21.229 73.4211 -22.7852 73.4211 -24.4079ZM73.4211 40.8552C73.4211 39.2325 72.7764 37.6763 71.629 36.5289C70.4816 35.3815 68.9253 34.7368 67.3026 34.7368C65.6799 34.7368 64.1237 35.3815 62.9763 36.5289C61.8288 37.6763 61.1842 39.2325 61.1842 40.8552C61.1842 42.4779 61.8288 44.0342 62.9763 45.1816C64.1237 46.329 65.6799 46.9736 67.3026 46.9736C68.9253 46.9736 70.4816 46.329 71.629 45.1816C72.7764 44.0342 73.4211 42.4779 73.4211 40.8552ZM40.7895 40.8552C40.7895 39.2325 40.1449 37.6763 38.9974 36.5289C37.85 35.3815 36.2938 34.7368 34.6711 34.7368C33.0483 34.7368 31.4921 35.3815 30.3447 36.5289C29.1973 37.6763 28.5526 39.2325 28.5526 40.8552C28.5526 42.4779 29.1973 44.0342 30.3447 45.1816C31.4921 46.329 33.0483 46.9736 34.6711 46.9736C36.2938 46.9736 37.85 46.329 38.9974 45.1816C40.1449 44.0342 40.7895 42.4779 40.7895 40.8552ZM40.7895 73.4868C40.7895 71.8641 40.1449 70.3079 38.9974 69.1604C37.85 68.013 36.2938 67.3684 34.6711 67.3684C33.0483 67.3684 31.4921 68.013 30.3447 69.1604C29.1973 70.3079 28.5526 71.8641 28.5526 73.4868C28.5526 75.1095 29.1973 76.6657 30.3447 77.8132C31.4921 78.9606 33.0483 79.6052 34.6711 79.6052C36.2938 79.6052 37.85 78.9606 38.9974 77.8132C40.1449 76.6657 40.7895 75.1095 40.7895 73.4868ZM40.7895 106.118C40.7895 104.496 40.1449 102.939 38.9974 101.792C37.85 100.645 36.2938 100 34.6711 100C33.0483 100 31.4921 100.645 30.3447 101.792C29.1973 102.939 28.5526 104.496 28.5526 106.118C28.5526 107.741 29.1973 109.297 30.3447 110.445C31.4921 111.592 33.0483 112.237 34.6711 112.237C36.2938 112.237 37.85 111.592 38.9974 110.445C40.1449 109.297 40.7895 107.741 40.7895 106.118ZM40.7895 138.75C40.7895 137.127 40.1449 135.571 38.9974 134.424C37.85 133.276 36.2938 132.632 34.6711 132.632C33.0483 132.632 31.4921 133.276 30.3447 134.424C29.1973 135.571 28.5526 137.127 28.5526 138.75C28.5526 140.373 29.1973 141.929 30.3447 143.076C31.4921 144.224 33.0483 144.868 34.6711 144.868C36.2938 144.868 37.85 144.224 38.9974 143.076C40.1449 141.929 40.7895 140.373 40.7895 138.75ZM73.4211 465.066C73.4211 463.443 72.7764 461.887 71.629 460.739C70.4816 459.592 68.9253 458.947 67.3026 458.947C65.6799 458.947 64.1237 459.592 62.9763 460.739C61.8288 461.887 61.1842 463.443 61.1842 465.066C61.1842 466.688 61.8288 468.245 62.9763 469.392C64.1237 470.54 65.6799 471.184 67.3026 471.184C68.9253 471.184 70.4816 470.54 71.629 469.392C72.7764 468.245 73.4211 466.688 73.4211 465.066ZM73.4211 530.329C73.4211 528.706 72.7764 527.15 71.629 526.003C70.4816 524.855 68.9253 524.211 67.3026 524.211C65.6799 524.211 64.1237 524.855 62.9763 526.003C61.8288 527.15 61.1842 528.706 61.1842 530.329C61.1842 531.952 61.8288 533.508 62.9763 534.655C64.1237 535.803 65.6799 536.447 67.3026 536.447C68.9253 536.447 70.4816 535.803 71.629 534.655C72.7764 533.508 73.4211 531.952 73.4211 530.329ZM106.053 465.066C106.053 463.443 105.408 461.887 104.261 460.739C103.113 459.592 101.557 458.947 99.9342 458.947C98.3115 458.947 96.7553 459.592 95.6078 460.739C94.4604 461.887 93.8158 463.443 93.8158 465.066C93.8158 466.688 94.4604 468.245 95.6078 469.392C96.7553 470.54 98.3115 471.184 99.9342 471.184C101.557 471.184 103.113 470.54 104.261 469.392C105.408 468.245 106.053 466.688 106.053 465.066ZM138.684 497.697C138.684 496.075 138.04 494.518 136.892 493.371C135.745 492.224 134.189 491.579 132.566 491.579C130.943 491.579 129.387 492.224 128.239 493.371C127.092 494.518 126.447 496.075 126.447 497.697C126.447 499.32 127.092 500.876 128.239 502.024C129.387 503.171 130.943 503.816 132.566 503.816C134.189 503.816 135.745 503.171 136.892 502.024C138.04 500.876 138.684 499.32 138.684 497.697ZM40.7895 465.066C40.7895 463.443 40.1449 461.887 38.9974 460.739C37.85 459.592 36.2938 458.947 34.6711 458.947C33.0483 458.947 31.4921 459.592 30.3447 460.739C29.1973 461.887 28.5526 463.443 28.5526 465.066C28.5526 466.688 29.1973 468.245 30.3447 469.392C31.4921 470.54 33.0483 471.184 34.6711 471.184C36.2938 471.184 37.85 470.54 38.9974 469.392C40.1449 468.245 40.7895 466.688 40.7895 465.066ZM530.263 465.066C530.263 463.443 529.619 461.887 528.471 460.739C527.324 459.592 525.767 458.947 524.145 458.947C522.522 458.947 520.966 459.592 519.818 460.739C518.671 461.887 518.026 463.443 518.026 465.066C518.026 466.688 518.671 468.245 519.818 469.392C520.966 470.54 522.522 471.184 524.145 471.184C525.767 471.184 527.324 470.54 528.471 469.392C529.619 468.245 530.263 466.688 530.263 465.066ZM595.526 432.434C595.526 430.811 594.882 429.255 593.734 428.108C592.587 426.96 591.031 426.316 589.408 426.316C587.785 426.316 586.229 426.96 585.082 428.108C583.934 429.255 583.289 430.811 583.289 432.434C583.289 434.057 583.934 435.613 585.082 436.761C586.229 437.908 587.785 438.553 589.408 438.553C591.031 438.553 592.587 437.908 593.734 436.761C594.882 435.613 595.526 434.057 595.526 432.434ZM465 465.066C465 463.443 464.355 461.887 463.208 460.739C462.061 459.592 460.504 458.947 458.882 458.947C457.259 458.947 455.703 459.592 454.555 460.739C453.408 461.887 452.763 463.443 452.763 465.066C452.763 466.688 453.408 468.245 454.555 469.392C455.703 470.54 457.259 471.184 458.882 471.184C460.504 471.184 462.061 470.54 463.208 469.392C464.355 468.245 465 466.688 465 465.066ZM497.632 465.066C497.632 463.443 496.987 461.887 495.84 460.739C494.692 459.592 493.136 458.947 491.513 458.947C489.89 458.947 488.334 459.592 487.187 460.739C486.039 461.887 485.395 463.443 485.395 465.066C485.395 466.688 486.039 468.245 487.187 469.392C488.334 470.54 489.89 471.184 491.513 471.184C493.136 471.184 494.692 470.54 495.84 469.392C496.987 468.245 497.632 466.688 497.632 465.066ZM432.368 497.697C432.368 496.075 431.724 494.518 430.576 493.371C429.429 492.224 427.873 491.579 426.25 491.579C424.627 491.579 423.071 492.224 421.924 493.371C420.776 494.518 420.132 496.075 420.132 497.697C420.132 499.32 420.776 500.876 421.924 502.024C423.071 503.171 424.627 503.816 426.25 503.816C427.873 503.816 429.429 503.171 430.576 502.024C431.724 500.876 432.368 499.32 432.368 497.697ZM73.4211 334.539C73.4211 332.917 72.7764 331.361 71.629 330.213C70.4816 329.066 68.9253 328.421 67.3026 328.421C65.6799 328.421 64.1237 329.066 62.9763 330.213C61.8288 331.361 61.1842 332.917 61.1842 334.539C61.1842 336.162 61.8288 337.718 62.9763 338.866C64.1237 340.013 65.6799 340.658 67.3026 340.658C68.9253 340.658 70.4816 340.013 71.629 338.866C72.7764 337.718 73.4211 336.162 73.4211 334.539ZM73.4211 301.908C73.4211 300.285 72.7764 298.729 71.629 297.581C70.4816 296.434 68.9253 295.789 67.3026 295.789C65.6799 295.789 64.1237 296.434 62.9763 297.581C61.8288 298.729 61.1842 300.285 61.1842 301.908C61.1842 303.531 61.8288 305.087 62.9763 306.234C64.1237 307.382 65.6799 308.026 67.3026 308.026C68.9253 308.026 70.4816 307.382 71.629 306.234C72.7764 305.087 73.4211 303.531 73.4211 301.908ZM40.7895 334.539C40.7895 332.917 40.1449 331.361 38.9974 330.213C37.85 329.066 36.2938 328.421 34.6711 328.421C33.0483 328.421 31.4921 329.066 30.3447 330.213C29.1973 331.361 28.5526 332.917 28.5526 334.539C28.5526 336.162 29.1973 337.718 30.3447 338.866C31.4921 340.013 33.0483 340.658 34.6711 340.658C36.2938 340.658 37.85 340.013 38.9974 338.866C40.1449 337.718 40.7895 336.162 40.7895 334.539ZM138.684 269.276C138.684 267.654 138.04 266.097 136.892 264.95C135.745 263.802 134.189 263.158 132.566 263.158C130.943 263.158 129.387 263.802 128.239 264.95C127.092 266.097 126.447 267.654 126.447 269.276C126.447 270.899 127.092 272.455 128.239 273.603C129.387 274.75 130.943 275.395 132.566 275.395C134.189 275.395 135.745 274.75 136.892 273.603C138.04 272.455 138.684 270.899 138.684 269.276ZM106.053 236.645C106.053 235.022 105.408 233.466 104.261 232.318C103.113 231.171 101.557 230.526 99.9342 230.526C98.3115 230.526 96.7553 231.171 95.6078 232.318C94.4604 233.466 93.8158 235.022 93.8158 236.645C93.8158 238.267 94.4604 239.824 95.6078 240.971C96.7553 242.119 98.3115 242.763 99.9342 242.763C101.557 242.763 103.113 242.119 104.261 240.971C105.408 239.824 106.053 238.267 106.053 236.645ZM40.7895 236.645C40.7895 235.022 40.1449 233.466 38.9974 232.318C37.85 231.171 36.2938 230.526 34.6711 230.526C33.0483 230.526 31.4921 231.171 30.3447 232.318C29.1973 233.466 28.5526 235.022 28.5526 236.645C28.5526 238.267 29.1973 239.824 30.3447 240.971C31.4921 242.119 33.0483 242.763 34.6711 242.763C36.2938 242.763 37.85 242.119 38.9974 240.971C40.1449 239.824 40.7895 238.267 40.7895 236.645ZM399.737 8.22363C399.737 6.60089 399.092 5.04474 397.945 3.89728C396.797 2.74988 395.241 2.10522 393.618 2.10522C391.996 2.10522 390.439 2.74988 389.292 3.89728C388.145 5.04474 387.5 6.60089 387.5 8.22363C387.5 9.84631 388.145 11.4026 389.292 12.55C390.439 13.6974 391.996 14.3421 393.618 14.3421C395.241 14.3421 396.797 13.6974 397.945 12.55C399.092 11.4026 399.737 9.84631 399.737 8.22363ZM432.368 40.8552C432.368 39.2325 431.724 37.6763 430.576 36.5289C429.429 35.3815 427.873 34.7368 426.25 34.7368C424.627 34.7368 423.071 35.3815 421.924 36.5289C420.776 37.6763 420.132 39.2325 420.132 40.8552C420.132 42.4779 420.776 44.0342 421.924 45.1816C423.071 46.329 424.627 46.9736 426.25 46.9736C427.873 46.9736 429.429 46.329 430.576 45.1816C431.724 44.0342 432.368 42.4779 432.368 40.8552ZM465 40.8552C465 39.2325 464.355 37.6763 463.208 36.5289C462.061 35.3815 460.504 34.7368 458.882 34.7368C457.259 34.7368 455.703 35.3815 454.555 36.5289C453.408 37.6763 452.763 39.2325 452.763 40.8552C452.763 42.4779 453.408 44.0342 454.555 45.1816C455.703 46.329 457.259 46.9736 458.882 46.9736C460.504 46.9736 462.061 46.329 463.208 45.1816C464.355 44.0342 465 42.4779 465 40.8552ZM497.632 40.8552C497.632 39.2325 496.987 37.6763 495.84 36.5289C494.692 35.3815 493.136 34.7368 491.513 34.7368C489.89 34.7368 488.334 35.3815 487.187 36.5289C486.039 37.6763 485.395 39.2325 485.395 40.8552C485.395 42.4779 486.039 44.0342 487.187 45.1816C488.334 46.329 489.89 46.9736 491.513 46.9736C493.136 46.9736 494.692 46.329 495.84 45.1816C496.987 44.0342 497.632 42.4779 497.632 40.8552ZM367.105 530.329C367.105 528.706 366.461 527.15 365.313 526.003C364.166 524.855 362.61 524.211 360.987 524.211C359.364 524.211 357.808 524.855 356.66 526.003C355.513 527.15 354.868 528.706 354.868 530.329C354.868 531.952 355.513 533.508 356.66 534.655C357.808 535.803 359.364 536.447 360.987 536.447C362.61 536.447 364.166 535.803 365.313 534.655C366.461 533.508 367.105 531.952 367.105 530.329ZM399.737 530.329C399.737 528.706 399.092 527.15 397.945 526.003C396.797 524.855 395.241 524.211 393.618 524.211C391.996 524.211 390.439 524.855 389.292 526.003C388.145 527.15 387.5 528.706 387.5 530.329C387.5 531.952 388.145 533.508 389.292 534.655C390.439 535.803 391.996 536.447 393.618 536.447C395.241 536.447 396.797 535.803 397.945 534.655C399.092 533.508 399.737 531.952 399.737 530.329ZM334.474 530.329C334.474 528.706 333.829 527.15 332.682 526.003C331.534 524.855 329.978 524.211 328.355 524.211C326.733 524.211 325.176 524.855 324.029 526.003C322.881 527.15 322.237 528.706 322.237 530.329C322.237 531.952 322.881 533.508 324.029 534.655C325.176 535.803 326.733 536.447 328.355 536.447C329.978 536.447 331.534 535.803 332.682 534.655C333.829 533.508 334.474 531.952 334.474 530.329ZM334.474 497.697C334.474 496.075 333.829 494.518 332.682 493.371C331.534 492.224 329.978 491.579 328.355 491.579C326.733 491.579 325.176 492.224 324.029 493.371C322.881 494.518 322.237 496.075 322.237 497.697C322.237 499.32 322.881 500.876 324.029 502.024C325.176 503.171 326.733 503.816 328.355 503.816C329.978 503.816 331.534 503.171 332.682 502.024C333.829 500.876 334.474 499.32 334.474 497.697ZM171.316 530.329C171.316 528.706 170.671 527.15 169.524 526.003C168.376 524.855 166.82 524.211 165.197 524.211C163.575 524.211 162.018 524.855 160.871 526.003C159.724 527.15 159.079 528.706 159.079 530.329C159.079 531.952 159.724 533.508 160.871 534.655C162.018 535.803 163.575 536.447 165.197 536.447C166.82 536.447 168.376 535.803 169.524 534.655C170.671 533.508 171.316 531.952 171.316 530.329ZM301.842 465.066C301.842 463.443 301.198 461.887 300.05 460.739C298.903 459.592 297.346 458.947 295.724 458.947C294.101 458.947 292.545 459.592 291.397 460.739C290.25 461.887 289.605 463.443 289.605 465.066C289.605 466.688 290.25 468.245 291.397 469.392C292.545 470.54 294.101 471.184 295.724 471.184C297.346 471.184 298.903 470.54 300.05 469.392C301.198 468.245 301.842 466.688 301.842 465.066ZM269.211 432.434C269.211 430.811 268.566 429.255 267.418 428.108C266.271 426.96 264.715 426.316 263.092 426.316C261.469 426.316 259.913 426.96 258.766 428.108C257.618 429.255 256.974 430.811 256.974 432.434C256.974 434.057 257.618 435.613 258.766 436.761C259.913 437.908 261.469 438.553 263.092 438.553C264.715 438.553 266.271 437.908 267.418 436.761C268.566 435.613 269.211 434.057 269.211 432.434Z" fill="url(#paint0_linear_6840_444)" fill-opacity="0.2"/>
<defs>
<linearGradient id="paint0_linear_6840_444" x1="-34" y1="254.542" x2="620" y2="254.542" gradientUnits="userSpaceOnUse">
<stop stop-color="#eaa39c" stop-opacity="0"/>
<stop offset="0.658654" stop-color="#eaa39c" stop-opacity="0.5"/>
<stop offset="1" stop-color="#eaa39c"/>
</linearGradient>
</defs>
</svg>
