<?xml version="1.0" encoding="UTF-8"?>
<svg id="Layer_1" xmlns="http://www.w3.org/2000/svg" xmlns:xlink="http://www.w3.org/1999/xlink" version="1.1" viewBox="0 0 492 436">
  <!-- Generator: Adobe Illustrator 30.1.0, SVG Export Plug-In . SVG Version: 2.1.1 Build 136)  -->
  <defs>
    <style>
      .st0 {
        fill: url(#linear-gradient);
        isolation: isolate;
        opacity: .6;
      }
    </style>
    <linearGradient id="linear-gradient" x1="8.85" y1="262.97" x2="739.31" y2="262.97" gradientUnits="userSpaceOnUse">
      <stop offset="0" stop-color="#fff" stop-opacity="0"/>
      <stop offset="1" stop-color="#fff" stop-opacity=".5"/>
    </linearGradient>
  </defs>
  <path class="st0" d="M218.19,65.91c-.31,2.33.28,4.7,1.63,6.65s3.39,3.33,5.7,3.88c2.31.55,4.75.23,6.83-.9,2.08-1.13,3.66-2.98,4.43-5.21s.68-4.66-.26-6.83c-.94-2.17-2.65-3.93-4.81-4.93s-4.61-1.17-6.88-.48c-2.27.69-4.19,2.19-5.39,4.22l-80.01-27.72-1.24,3.59,80.01,27.72ZM538.33,80.32c-.31,2.33.28,4.7,1.63,6.65,1.35,1.95,3.39,3.33,5.7,3.88,2.31.55,4.75.23,6.83-.89,2.08-1.13,3.66-2.98,4.43-5.21s.68-4.66-.26-6.83c-.94-2.17-2.65-3.93-4.81-4.93-2.16-1-4.61-1.17-6.88-.48-2.27.69-4.19,2.19-5.39,4.22L318.04-.01l-1.24,3.59,221.53,76.74ZM614.6,199.21c.31-2.33-.28-4.7-1.63-6.65-1.35-1.95-3.38-3.33-5.7-3.88-2.31-.55-4.75-.23-6.82.9-2.08,1.13-3.66,2.98-4.43,5.21s-.68,4.66.26,6.83c.93,2.17,2.65,3.93,4.81,4.93,2.16,1,4.61,1.17,6.88.48s4.19-2.19,5.39-4.22l76.38,26.46,1.24-3.59-76.38-26.46ZM624.54,170.49c.31-2.33-.28-4.7-1.63-6.65-1.35-1.94-3.38-3.33-5.7-3.88-2.31-.55-4.75-.23-6.82.9-2.08,1.13-3.66,2.98-4.43,5.21s-.68,4.66.26,6.83c.93,2.17,2.65,3.93,4.81,4.92,2.16,1,4.61,1.17,6.88.48,2.27-.69,4.19-2.19,5.39-4.22l76.38,26.46,1.24-3.59-76.38-26.46ZM564.91,379c-.31,2.33.28,4.7,1.63,6.65s3.38,3.33,5.7,3.88c2.31.55,4.75.23,6.82-.9,2.08-1.13,3.66-2.98,4.43-5.21.77-2.22.68-4.66-.26-6.83-.93-2.17-2.65-3.93-4.81-4.92-2.16-1-4.61-1.17-6.88-.48s-4.19,2.19-5.39,4.22l-156.4-54.18c.31-2.33-.28-4.7-1.63-6.65-1.35-1.95-3.39-3.33-5.7-3.88-2.31-.55-4.75-.23-6.83.89-2.08,1.13-3.66,2.98-4.43,5.21s-.68,4.66.26,6.83c.94,2.17,2.65,3.93,4.81,4.93,2.16,1,4.61,1.17,6.88.48,2.27-.69,4.19-2.19,5.39-4.22l156.4,54.18ZM70.59,304.26c-.31,2.33.28,4.7,1.63,6.65s3.39,3.33,5.7,3.88c2.31.55,4.75.23,6.83-.89,2.08-1.13,3.66-2.98,4.43-5.21s.68-4.66-.26-6.83c-.94-2.17-2.65-3.93-4.81-4.93-2.16-1-4.61-1.17-6.88-.48-2.27.69-4.19,2.19-5.39,4.22l-21.95-7.61-1.24,3.59,21.95,7.61ZM428.84,360.01c.31-2.33-.28-4.7-1.63-6.65-1.35-1.95-3.39-3.33-5.7-3.88-2.31-.55-4.75-.23-6.83.89-2.08,1.13-3.66,2.98-4.43,5.21s-.68,4.66.26,6.83c.94,2.17,2.65,3.93,4.81,4.93,2.16,1,4.61,1.17,6.88.48,2.27-.69,4.19-2.19,5.39-4.22l156.4,54.18c-.31,2.33.28,4.7,1.63,6.65s3.39,3.33,5.7,3.88c2.31.55,4.75.23,6.82-.9,2.08-1.13,3.66-2.98,4.43-5.21s.68-4.66-.26-6.83c-.93-2.17-2.65-3.93-4.81-4.92-2.16-1-4.61-1.17-6.88-.48s-4.19,2.19-5.39,4.22l-156.4-54.18ZM474.52,580.68c2.36.32,4.74-.24,6.69-1.57,1.95-1.33,3.33-3.34,3.87-5.63s.2-4.71-.95-6.78c-1.15-2.07-3.03-3.65-5.28-4.42s-4.7-.7-6.89.21c-2.19.91-3.94,2.6-4.94,4.74s-1.15,4.57-.44,6.82c.71,2.25,2.24,4.16,4.29,5.37l-7.52,21.72,3.63,1.26,7.52-21.72ZM487.73,167.12c2.36.32,4.74-.24,6.7-1.57,1.95-1.33,3.33-3.33,3.87-5.63.54-2.29.2-4.7-.95-6.77-1.15-2.07-3.03-3.65-5.28-4.42s-4.7-.7-6.89.21c-2.18.91-3.94,2.6-4.94,4.74-.99,2.13-1.15,4.56-.44,6.82.71,2.25,2.24,4.17,4.29,5.38l-33.7,97.28c-2.36-.32-4.74.24-6.7,1.57-1.95,1.33-3.33,3.33-3.87,5.63s-.2,4.71.95,6.77c1.15,2.07,3.03,3.65,5.28,4.42s4.7.7,6.89-.21c2.18-.91,3.94-2.6,4.94-4.74.99-2.13,1.15-4.56.44-6.82-.71-2.25-2.24-4.17-4.29-5.38l33.7-97.28ZM451.59,553.04l36.13-104.28,112.49,38.97,1.24-3.59-116.12-40.23-37.37,107.87c-2.36-.32-4.74.24-6.69,1.57-1.95,1.33-3.33,3.34-3.87,5.63s-.2,4.71.95,6.78c1.15,2.07,3.03,3.65,5.28,4.43s4.7.7,6.89-.21c2.18-.91,3.94-2.6,4.94-4.74s1.15-4.57.44-6.82c-.71-2.25-2.24-4.17-4.29-5.37ZM490.56,534.37l16.23-46.84,83.46,28.91,1.24-3.59-87.09-30.17-17.47,50.43c-2.36-.32-4.74.24-6.7,1.57-1.95,1.33-3.33,3.34-3.87,5.63s-.2,4.71.95,6.77c1.15,2.07,3.03,3.65,5.28,4.42s4.7.7,6.89-.21c2.18-.91,3.94-2.6,4.94-4.73s1.15-4.57.44-6.82c-.71-2.25-2.24-4.17-4.29-5.38ZM318.02,281.62l46.07-133,29.03,10.06,7.52-21.72c2.36.32,4.74-.24,6.7-1.57,1.95-1.33,3.33-3.33,3.87-5.63.54-2.29.2-4.7-.95-6.77-1.15-2.07-3.03-3.65-5.28-4.42s-4.7-.7-6.89.21c-2.18.91-3.94,2.6-4.94,4.74-.99,2.13-1.15,4.56-.44,6.82.71,2.25,2.24,4.17,4.29,5.38l-6.28,18.13-29.03-10.06-47.32,136.59c-2.36-.32-4.74.24-6.7,1.57-1.95,1.33-3.33,3.33-3.87,5.63-.54,2.29-.2,4.71.95,6.77,1.15,2.07,3.03,3.65,5.28,4.42s4.7.7,6.89-.21c2.18-.91,3.94-2.6,4.94-4.74.99-2.13,1.15-4.56.44-6.82-.71-2.25-2.24-4.17-4.29-5.38ZM293.7,317.21c-.31,2.33.28,4.7,1.63,6.65s3.39,3.33,5.7,3.88c2.31.55,4.75.23,6.83-.89,2.08-1.13,3.66-2.98,4.43-5.21.77-2.22.68-4.66-.26-6.83-.94-2.17-2.65-3.93-4.81-4.93-2.16-1-4.61-1.17-6.88-.48s-4.19,2.19-5.39,4.22l-18.32-6.35,29.85-86.15-50.98-17.66c.31-2.33-.28-4.7-1.63-6.65s-3.39-3.33-5.7-3.88c-2.31-.55-4.75-.23-6.83.89-2.08,1.13-3.66,2.98-4.43,5.21s-.68,4.66.26,6.83c.94,2.17,2.65,3.93,4.81,4.93,2.16,1,4.61,1.17,6.88.48,2.27-.69,4.19-2.19,5.39-4.22l47.35,16.4-29.85,86.15,21.95,7.61ZM363.28,79.99c.31-2.33-.28-4.7-1.63-6.65-1.35-1.94-3.39-3.33-5.7-3.88-2.31-.55-4.75-.23-6.83.9-2.08,1.13-3.66,2.98-4.43,5.21s-.68,4.66.26,6.83c.94,2.17,2.65,3.93,4.81,4.93,2.16,1,4.61,1.17,6.88.48,2.27-.69,4.19-2.19,5.39-4.22l105.41,36.52-46.07,133c-2.36-.32-4.74.24-6.7,1.57-1.95,1.33-3.33,3.33-3.87,5.63s-.2,4.71.95,6.77c1.15,2.07,3.03,3.65,5.28,4.42s4.7.7,6.89-.21c2.18-.91,3.94-2.6,4.94-4.74s1.15-4.56.44-6.82c-.71-2.25-2.24-4.17-4.29-5.38l47.32-136.59-109.04-37.77ZM294.46,184.8c.31-2.33-.28-4.7-1.63-6.65-1.35-1.95-3.39-3.33-5.7-3.88-2.31-.55-4.75-.23-6.83.89s-3.66,2.98-4.43,5.21-.68,4.66.26,6.83c.94,2.17,2.65,3.93,4.81,4.93,2.16,1,4.61,1.17,6.88.48s4.19-2.19,5.39-4.22l21.95,7.61,29.85-86.15,18.32,6.35c-.31,2.33.28,4.7,1.63,6.65s3.39,3.33,5.7,3.88c2.31.55,4.75.23,6.83-.9,2.08-1.13,3.66-2.98,4.43-5.21s.68-4.66-.26-6.83c-.94-2.17-2.65-3.93-4.81-4.93-2.16-1-4.61-1.17-6.88-.48-2.27.69-4.19,2.19-5.39,4.22l-21.95-7.61-29.85,86.15-18.32-6.35ZM295.29-28.2c2.36.32,4.74-.24,6.7-1.57,1.95-1.33,3.33-3.33,3.87-5.63.54-2.29.2-4.71-.95-6.77-1.15-2.07-3.03-3.65-5.28-4.42s-4.7-.7-6.89.21c-2.18.91-3.94,2.6-4.94,4.74-.99,2.13-1.15,4.56-.44,6.82.71,2.25,2.24,4.17,4.29,5.38l-6.28,18.13-25.4-8.8,18.65-53.85-3.63-1.26-19.9,57.44,32.66,11.31,7.52-21.72ZM536.7,272.74c-.31,2.33.28,4.7,1.63,6.65,1.35,1.95,3.39,3.33,5.7,3.88,2.31.55,4.75.23,6.83-.9,2.08-1.13,3.66-2.98,4.43-5.21s.68-4.66-.26-6.83c-.94-2.17-2.65-3.93-4.81-4.93-2.16-1-4.61-1.17-6.88-.48-2.27.69-4.19,2.19-5.39,4.22l-18.32-6.35,58.45-168.72,87.09,30.17,19.9-57.44-3.63-1.26-18.65,53.85-87.09-30.17-60.93,175.9,21.95,7.61ZM564.85,342.8c.31-2.33-.28-4.7-1.63-6.65-1.35-1.95-3.38-3.33-5.7-3.88-2.31-.55-4.75-.23-6.82.9-2.08,1.13-3.66,2.98-4.43,5.21-.77,2.22-.68,4.66.26,6.83.93,2.17,2.65,3.93,4.81,4.92,2.16,1,4.61,1.17,6.88.48s4.19-2.19,5.39-4.22l21.95,7.61,27.42-79.15c2.36.32,4.74-.24,6.7-1.57,1.95-1.33,3.33-3.33,3.87-5.63.54-2.29.2-4.71-.95-6.77-1.15-2.07-3.03-3.65-5.28-4.42s-4.7-.7-6.89.21c-2.19.91-3.94,2.6-4.94,4.74-.99,2.13-1.15,4.56-.44,6.82.71,2.25,2.24,4.17,4.29,5.38l-26.18,75.56-18.32-6.35ZM508.43,130.27c.31-2.33-.28-4.7-1.63-6.65-1.35-1.94-3.39-3.33-5.7-3.88-2.31-.55-4.75-.23-6.83.9-2.08,1.13-3.66,2.98-4.43,5.21s-.68,4.66.26,6.83c.94,2.17,2.65,3.93,4.81,4.93,2.16,1,4.61,1.17,6.88.48,2.27-.69,4.19-2.19,5.39-4.22l18.32,6.35-49.74,143.59,29.03,10.06-8.7,25.13-76.38-26.46c.31-2.33-.28-4.7-1.63-6.65-1.35-1.95-3.39-3.33-5.7-3.88-2.31-.55-4.75-.23-6.83.9-2.08,1.13-3.66,2.98-4.43,5.21-.77,2.22-.68,4.66.26,6.83.94,2.17,2.65,3.93,4.81,4.93,2.16,1,4.61,1.17,6.88.48,2.27-.69,4.19-2.19,5.39-4.22l80.01,27.72,11.19-32.31-29.03-10.06,49.74-143.59-21.95-7.61ZM534.25,561.37c-.31,2.33.28,4.7,1.63,6.65,1.35,1.94,3.39,3.33,5.7,3.88,2.31.55,4.75.23,6.82-.9,2.08-1.13,3.66-2.98,4.43-5.21s.68-4.66-.26-6.83c-.94-2.17-2.65-3.92-4.81-4.92-2.16-1-4.61-1.17-6.88-.48-2.27.69-4.19,2.19-5.39,4.22l-21.95-7.61-21.14,61.02,3.63,1.26,19.9-57.43,18.32,6.35ZM240.06,318.94l27.42-79.15-80.01-27.72c.31-2.33-.28-4.7-1.63-6.65s-3.39-3.33-5.7-3.88c-2.31-.55-4.75-.23-6.83.9-2.08,1.13-3.66,2.98-4.43,5.21s-.68,4.66.26,6.83c.94,2.17,2.65,3.93,4.81,4.93,2.16,1,4.61,1.17,6.88.48s4.19-2.19,5.39-4.22l76.38,26.46-26.18,75.56c-2.36-.32-4.74.24-6.7,1.57-1.95,1.33-3.33,3.33-3.87,5.63-.54,2.29-.2,4.71.95,6.77,1.15,2.07,3.03,3.65,5.28,4.42s4.7.7,6.89-.21c2.18-.91,3.94-2.6,4.94-4.74.99-2.13,1.15-4.56.44-6.82-.71-2.25-2.24-4.17-4.29-5.38ZM117.83,413.09c.31-2.34-.27-4.71-1.63-6.65-1.35-1.95-3.38-3.33-5.7-3.88-2.31-.55-4.75-.23-6.82.89-2.08,1.13-3.66,2.99-4.43,5.21s-.68,4.66.26,6.83,2.65,3.93,4.81,4.93c2.16,1,4.61,1.17,6.88.48,2.27-.69,4.19-2.2,5.39-4.22l47.35,16.4-19.9,57.43,3.63,1.26,21.14-61.02-50.98-17.66ZM229.3,443.86l17.47-50.43-58.06-20.11,39.79-114.87-21.95-7.61c.31-2.33-.28-4.7-1.63-6.65s-3.39-3.33-5.7-3.88c-2.31-.55-4.75-.23-6.83.89-2.08,1.13-3.66,2.98-4.43,5.21s-.68,4.66.26,6.83c.94,2.17,2.65,3.93,4.81,4.93,2.16,1,4.61,1.17,6.88.48s4.19-2.19,5.39-4.22l18.32,6.35-39.79,114.87,58.06,20.11-16.23,46.84c-2.36-.32-4.74.24-6.7,1.57-1.95,1.33-3.33,3.34-3.87,5.63-.54,2.29-.2,4.71.95,6.77,1.15,2.07,3.03,3.65,5.28,4.43s4.7.7,6.89-.21c2.18-.91,3.94-2.6,4.93-4.73.99-2.14,1.15-4.57.44-6.82-.71-2.25-2.24-4.17-4.29-5.38ZM234.76,357.11c.31-2.33-.28-4.7-1.63-6.65-1.35-1.95-3.39-3.33-5.7-3.88-2.31-.55-4.75-.23-6.83.9-2.08,1.13-3.66,2.98-4.43,5.21s-.68,4.66.26,6.83,2.65,3.93,4.81,4.93c2.16,1,4.61,1.17,6.88.48s4.19-2.19,5.39-4.22l47.35,16.4-26.18,75.56c-2.36-.32-4.74.24-6.7,1.57-1.95,1.33-3.33,3.34-3.87,5.63-.54,2.29-.2,4.71.95,6.77,1.15,2.07,3.03,3.65,5.28,4.43s4.7.7,6.89-.21c2.18-.91,3.94-2.6,4.93-4.73s1.15-4.57.44-6.82c-.71-2.25-2.24-4.17-4.29-5.38l27.42-79.15-50.98-17.66ZM224,482.04c.31-2.34-.28-4.7-1.63-6.65s-3.39-3.33-5.7-3.88-4.75-.23-6.83.9c-2.08,1.12-3.66,2.98-4.43,5.2s-.68,4.66.26,6.83c.94,2.17,2.65,3.93,4.81,4.93s4.61,1.17,6.88.48,4.19-2.19,5.39-4.22l50.98,17.66,27.42-79.15c2.36.32,4.74-.24,6.7-1.57,1.95-1.33,3.33-3.33,3.87-5.63.54-2.29.2-4.7-.95-6.77-1.15-2.07-3.03-3.65-5.28-4.42s-4.7-.7-6.89.21c-2.18.91-3.94,2.6-4.94,4.74-.99,2.13-1.15,4.56-.44,6.82.71,2.25,2.24,4.17,4.29,5.38l-26.18,75.56-47.35-16.4ZM577.31,61.66c-.31,2.33.28,4.7,1.63,6.65,1.35,1.95,3.39,3.33,5.7,3.88,2.31.55,4.75.23,6.83-.9,2.08-1.13,3.66-2.98,4.43-5.21s.68-4.66-.26-6.83c-.94-2.17-2.65-3.93-4.81-4.93-2.16-1-4.61-1.17-6.88-.48-2.27.69-4.19,2.19-5.39,4.22L357.02-18.68l8.7-25.13-3.63-1.26-9.95,28.72,225.16,78ZM531.17,323.29l6.28-18.13,29.03,10.06,21.14-61.03-29.03-10.06,38.55-111.28,87.09,30.17,29.85-86.15-3.63-1.26-28.6,82.56-87.09-30.17-41.04,118.46,29.03,10.06-18.65,53.85-29.03-10.06-7.52,21.72c-2.36-.32-4.74.24-6.7,1.57-1.95,1.33-3.33,3.33-3.87,5.63-.54,2.29-.2,4.71.95,6.77,1.15,2.07,3.03,3.65,5.28,4.42s4.7.7,6.89-.21c2.18-.91,3.94-2.6,4.94-4.74.99-2.13,1.15-4.56.44-6.82-.71-2.25-2.24-4.17-4.29-5.38ZM107.88,441.81c.31-2.34-.28-4.7-1.63-6.65s-3.39-3.33-5.7-3.88-4.75-.23-6.83.9c-2.08,1.12-3.66,2.98-4.43,5.2s-.68,4.66.26,6.83c.94,2.17,2.65,3.93,4.81,4.93s4.61,1.17,6.88.48,4.19-2.19,5.39-4.22l18.32,6.35-8.71,25.13-29.03-10.06-1.24,3.59,32.66,11.31,11.19-32.3-21.95-7.61ZM330.99,454.77c.3-2.33-.28-4.7-1.63-6.65-1.35-1.95-3.39-3.33-5.7-3.88-2.31-.55-4.75-.23-6.83.89-2.08,1.13-3.66,2.98-4.43,5.21s-.68,4.66.26,6.83c.94,2.17,2.65,3.93,4.81,4.92,2.16,1,4.61,1.17,6.88.48,2.27-.69,4.19-2.2,5.39-4.22l47.35,16.4-29.84,86.15,90.72,31.43,1.24-3.59-87.09-30.17,29.85-86.15-50.98-17.66ZM214.05,510.75c.16-1.24.08-2.49-.25-3.7-.33-1.21-.89-2.34-1.66-3.33-.77-.99-1.73-1.83-2.82-2.46-1.09-.63-2.3-1.04-3.55-1.21s-2.52-.09-3.73.23c-1.22.32-2.36.87-3.35,1.63-2.01,1.52-3.33,3.78-3.66,6.28l3.76,1.3c.96.34.27.12.72.26.45.15,0,0,.89.31s.75.25,1.71.58l1.81.63c.87.3.48.18.92.33.89.31.44.15.8.27q.53.19.98.34c.89.31,1.78.63,2.43.84l112.8,39.08,21.14-61.02-32.66-11.31-7.52,21.72c-2.36-.32-4.74.24-6.69,1.57-1.95,1.33-3.33,3.34-3.87,5.63s-.2,4.71.95,6.78c1.15,2.07,3.03,3.65,5.28,4.43s4.7.7,6.89-.21c2.18-.91,3.94-2.6,4.94-4.74s1.15-4.57.44-6.82c-.71-2.25-2.24-4.17-4.29-5.37l6.28-18.13,25.4,8.8-18.65,53.85-105.41-36.52ZM273.74,338.45c.31-2.33-.28-4.7-1.63-6.65-1.35-1.95-3.39-3.33-5.7-3.88-2.31-.55-4.75-.23-6.83.89-2.08,1.13-3.66,2.98-4.43,5.21s-.68,4.66.26,6.83c.94,2.17,2.65,3.93,4.81,4.93,2.16,1,4.61,1.17,6.88.48s4.19-2.19,5.39-4.22l34.65,12,38.16,77.55,70.76,24.51-26.18,75.57c-2.36-.32-4.74.24-6.69,1.57-1.95,1.33-3.33,3.34-3.87,5.63s-.2,4.71.95,6.78c1.15,2.07,3.03,3.65,5.28,4.43s4.7.7,6.89-.21c2.18-.91,3.94-2.6,4.94-4.74s1.15-4.57.44-6.82c-.71-2.25-2.24-4.17-4.29-5.37l27.42-79.16-72.88-25.25-38.16-77.55-36.16-12.53ZM380.75,194.39c2.36.32,4.74-.24,6.7-1.57,1.95-1.33,3.33-3.33,3.87-5.63.54-2.29.2-4.71-.95-6.77-1.15-2.07-3.03-3.65-5.28-4.42s-4.7-.7-6.89.21c-2.18.91-3.94,2.6-4.94,4.74-.99,2.13-1.15,4.56-.44,6.82.71,2.25,2.24,4.17,4.29,5.38l-47.57,137.32,37.67,76.55,87.83,30.43-36.13,104.28c-2.36-.32-4.74.24-6.69,1.57-1.95,1.33-3.33,3.34-3.87,5.63s-.2,4.71.95,6.78c1.15,2.07,3.03,3.65,5.28,4.43s4.7.7,6.89-.21c2.18-.91,3.94-2.6,4.94-4.74s1.15-4.57.44-6.82c-.71-2.25-2.24-4.17-4.29-5.37l37.37-107.87-89.97-31.17-36.27-73.69,47.06-135.85ZM429.67,147.01c2.36.32,4.74-.24,6.7-1.57,1.95-1.33,3.33-3.33,3.87-5.63.54-2.29.2-4.7-.95-6.77-1.15-2.07-3.03-3.65-5.28-4.42s-4.7-.7-6.89.21c-2.18.91-3.94,2.6-4.94,4.74-.99,2.13-1.15,4.56-.44,6.82.71,2.25,2.24,4.17,4.29,5.38l-61.87,178.61,29.33,59.59,209.58,72.6c-.24,1.85.07,3.73.9,5.41.83,1.68,2.14,3.09,3.76,4.04l1.29-3.72.59-1.71,1.07-3.08c.39-1.11.76-2.2,1.07-3.08l.79-2.29,1.29-3.72c-1.86-.25-3.76.04-5.45.85-1.69.81-3.1,2.09-4.05,3.7l-208.09-72.09-27.92-56.73,61.36-177.14ZM128.61,171.37c2.36.32,4.74-.24,6.7-1.57,1.95-1.33,3.33-3.33,3.87-5.63.54-2.29.2-4.71-.95-6.77-1.15-2.07-3.03-3.65-5.28-4.42s-4.7-.7-6.89.21c-2.18.91-3.94,2.6-4.94,4.74-.99,2.13-1.15,4.56-.44,6.82.71,2.25,2.24,4.17,4.29,5.38l-2.18,6.3,57.24,116.32-35.19,101.57,58.06,20.11-29.84,86.15,3.63,1.26,31.09-89.74-58.06-20.11,34.45-99.45-57.24-116.32,1.67-4.83ZM123.13,374.92l27.05-78.09-57.24-116.32,38.92-112.34,47.35,16.4c-.31,2.33.28,4.7,1.63,6.65,1.35,1.95,3.39,3.33,5.7,3.88,2.31.55,4.75.23,6.83-.9,2.08-1.13,3.66-2.98,4.43-5.21s.68-4.66-.26-6.83-2.65-3.93-4.81-4.93c-2.16-1-4.61-1.17-6.88-.48-2.27.69-4.19,2.19-5.39,4.22l-50.98-17.66-40.67,117.4,57.24,116.32-26.54,76.62c-2.36-.32-4.74.24-6.7,1.57-1.95,1.33-3.33,3.34-3.87,5.62-.54,2.29-.2,4.71.95,6.78,1.15,2.07,3.03,3.65,5.28,4.43s4.7.7,6.89-.21c2.18-.91,3.94-2.6,4.94-4.74.99-2.13,1.15-4.56.44-6.81-.71-2.25-2.24-4.17-4.29-5.38ZM104.05,336.15l12.13-35.02-40.55-82.4-1.75,5.06,38.16,77.55-11.62,33.55c-2.36-.32-4.74.24-6.7,1.57-1.95,1.33-3.33,3.33-3.87,5.63-.54,2.29-.2,4.7.95,6.77,1.15,2.07,3.03,3.65,5.28,4.42s4.7.7,6.89-.21c2.18-.91,3.94-2.6,4.94-4.74.99-2.13,1.15-4.56.44-6.82-.71-2.25-2.24-4.17-4.29-5.38ZM40.75,390.41c-.3,2.33.28,4.7,1.63,6.65,1.36,1.94,3.39,3.33,5.7,3.88,2.32.55,4.75.23,6.83-.9,2.08-1.13,3.66-2.98,4.43-5.21s.68-4.66-.26-6.83c-.94-2.17-2.65-3.93-4.81-4.92-2.16-1-4.61-1.17-6.88-.48-2.27.69-4.19,2.19-5.39,4.22l-4.88-1.69-11.22-22.81-1.75,5.04,10.24,20.83,6.37,2.21ZM534.19,525.16c.31-2.33-.28-4.7-1.63-6.65s-3.38-3.33-5.7-3.88c-2.31-.55-4.75-.23-6.82.9-2.08,1.13-3.66,2.98-4.43,5.21s-.68,4.66.26,6.83c.93,2.17,2.65,3.92,4.81,4.92,2.16,1,4.61,1.17,6.88.48,2.27-.69,4.19-2.2,5.39-4.22l33.91,11.75,8.84,17.96,1.75-5.06-7.86-15.97-35.4-12.26ZM604.65,227.93c.31-2.33-.28-4.7-1.63-6.65s-3.38-3.33-5.7-3.88c-2.31-.55-4.75-.23-6.82.9-2.08,1.13-3.66,2.98-4.43,5.21s-.68,4.66.26,6.83c.93,2.17,2.65,3.93,4.81,4.93,2.16,1,4.61,1.17,6.88.48,2.27-.69,4.19-2.19,5.39-4.22l47.35,16.4-44.4,128.17,19.08,38.77,1.75-5.06-16.7-33.93,45.13-130.29-50.98-17.66ZM247.16,39.76c.31-2.33-.28-4.7-1.63-6.65-1.35-1.94-3.39-3.33-5.7-3.88-2.31-.55-4.75-.23-6.83.9-2.08,1.13-3.66,2.98-4.43,5.21s-.68,4.66.26,6.83c.94,2.17,2.65,3.93,4.81,4.93,2.16,1,4.61,1.17,6.88.48,2.27-.69,4.19-2.19,5.39-4.22l18.32,6.35-14.05,40.55-57.03,27.3-33.91-11.75c.31-2.33-.28-4.7-1.63-6.65-1.35-1.95-3.38-3.33-5.7-3.88-2.31-.55-4.75-.23-6.83.9-2.08,1.13-3.66,2.98-4.43,5.21s-.68,4.66.26,6.83c.94,2.17,2.65,3.93,4.81,4.93,2.16,1,4.61,1.17,6.88.48,2.27-.69,4.19-2.19,5.39-4.22l35.4,12.26,59.9-28.68,15.8-45.61-21.95-7.61ZM528.38,109.04c-.31,2.33.28,4.7,1.63,6.65,1.35,1.95,3.39,3.33,5.7,3.88,2.31.55,4.75.23,6.83-.89,2.08-1.13,3.66-2.98,4.43-5.21s.68-4.66-.26-6.83c-.94-2.17-2.65-3.93-4.81-4.93-2.16-1-4.61-1.17-6.88-.48-2.27.69-4.19,2.19-5.39,4.22l-196.13-67.94-35.19,101.59-95.98,45.95-33.93-11.75c.31-2.33-.28-4.7-1.63-6.65s-3.39-3.33-5.7-3.88c-2.31-.55-4.75-.23-6.83.89-2.08,1.13-3.66,2.98-4.43,5.21s-.68,4.66.26,6.83c.94,2.17,2.65,3.93,4.81,4.93,2.16,1,4.61,1.17,6.88.48,2.27-.69,4.19-2.19,5.39-4.22l35.38,12.26,98.91-47.35,34.45-99.44,192.5,66.69ZM257.11,11.04c.31-2.33-.28-4.7-1.63-6.65-1.35-1.95-3.39-3.33-5.7-3.88s-4.75-.23-6.83.89c-2.08,1.13-3.66,2.98-4.43,5.21s-.68,4.66.26,6.83c.94,2.17,2.65,3.93,4.81,4.93,2.16,1,4.61,1.17,6.88.48s4.19-2.19,5.39-4.22l47.35,16.4-28.97,83.62-76.52,36.63-48.42-16.78c.31-2.33-.28-4.7-1.63-6.65-1.35-1.95-3.39-3.33-5.7-3.88-2.31-.55-4.75-.23-6.83.89-2.08,1.13-3.66,2.98-4.43,5.21s-.68,4.66.26,6.83c.94,2.17,2.65,3.93,4.81,4.93,2.16,1,4.61,1.17,6.88.48,2.27-.69,4.19-2.19,5.39-4.22l49.91,17.29,79.39-38.01,30.72-88.68-50.98-17.66ZM86.33,387.28l-29.33-59.59-17.07-5.91-1.24,3.59,15.59,5.4,27.92,56.73-25.24,72.85,3.63,1.26,25.75-74.32ZM189.12-97.14c1.87.25,3.76-.04,5.45-.85,1.69-.81,3.1-2.09,4.05-3.7l-3.76-1.3c-1.17-.39-.28-.09-1.17-.39l-1.78-.62c-.89-.31-1.5-.56-2.22-.77l-1.78-.62-29.84,86.14,32.66,11.31,29.85-86.15-3.63-1.26-28.6,82.56-25.4-8.8,26.18-75.56ZM249.6-84.03l-3.63-1.26-38.55,111.28-58.06-20.11-1.24,3.59,61.69,21.37,39.79-114.87ZM10.09,407.93l-1.24,3.59,29.03,10.06-9.95,28.72,3.63,1.26,11.19-32.3-32.66-11.31ZM535.01,593.79l25.4,8.8,1.24-3.59-29.03-10.06-11.19,32.3,3.63,1.26,9.95-28.72ZM656.02,56.76l-3.63-1.26-8.7,25.13-25.4-8.8,8.7-25.13-3.63-1.26-9.95,28.72,32.66,11.31,9.95-28.72ZM56.16,274.93c1.23.72,2.6,1.15,4.01,1.28,1.41.13,2.84-.05,4.17-.53,1.33-.48,2.54-1.25,3.53-2.25.99-1,1.75-2.21,2.22-3.53.46-1.33.62-2.75.46-4.15-.16-1.4-.63-2.75-1.38-3.96-.75-1.2-1.76-2.23-2.96-3-1.2-.77-2.55-1.27-3.96-1.46l-1.29,3.72c-.03.1-.19.54-.19.54-.15.44-.3.88-.3.88q-.15.44-.3.88c-.15.44-.16.46-.46,1.32q-.3.88-.61,1.76t-.46,1.32-.3.88c-.15.44-.61,1.76-.89,2.58l-1.29,3.72ZM313.17,2.32l3.63,1.26,19.9-57.44-3.63-1.26-19.9,57.44ZM543.38,628.86l3.76,1.3q1.09.39,1.98.71s.89.31,1.33.46l1.83-5.28.56-1.61,1.29-3.71c-1.25-.17-2.52-.09-3.74.22-1.21.32-2.35.87-3.35,1.62-1,.76-1.83,1.7-2.46,2.78-.63,1.08-1.04,2.27-1.19,3.51ZM737.05,92.67l1.29-3.72q1.13-3.27.69-3.44c-.89-.3-1.78-.62-2.88-1l-3.76-1.3c-.24,1.85.07,3.73.89,5.41.83,1.68,2.14,3.09,3.76,4.04ZM237.07,321.72c.71.25,1.37.63,1.94,1.13.57.5,1.03,1.1,1.36,1.78.33.68.53,1.41.57,2.16.05.75-.05,1.5-.3,2.2s-.63,1.36-1.13,1.92c-.5.56-1.11,1.01-1.79,1.34-.68.32-1.42.51-2.17.56-.75.04-1.51-.06-2.22-.31-1.44-.5,6.25,3.02,5.57,1.66-.67-1.36-1.04.13,4-4.37-.79-6.35-2.3-6.72-.93-7.38,1.37-.66-6.36-1.18-4.92-.68ZM227.12,350.44c1.44.5-5.41-3.01-4.74-1.64.67,1.36-4.15,3.69-4.65,5.12s4.58,7.85,3.2,8.51,3.9-.72,2.45-1.22-2.63-1.55-3.3-2.91c-.67-1.36-.77-2.93-.28-4.36s1.54-2.6,2.91-3.26c1.37-.66,2.95-.74,4.4-.24ZM266.1,331.78c.71.25,1.37.63,1.94,1.13.57.5,1.03,1.1,1.36,1.78.33.68.53,1.41.57,2.16.05.75-.05,1.5-.3,2.2s-.63,1.36-1.13,1.92c-.5.56-1.11,1.01-1.79,1.34-.68.32-1.42.51-2.17.56-.75.04-1.51-.06-2.22-.31-1.44-.5,7.08,3.12,6.4,1.76-.67-1.36,2.46-2.78,2.95-4.21s-1.76-5.39-.39-6.04c1.37-.66-6.68-2.77-5.24-2.27ZM305.07,313.12c1.44.5-4.54-3.41-3.87-2.05.67,1.36-5.14,3.33-5.63,4.76s2.5,6.14,1.13,6.8c-1.37.66,6.08,1.76,4.64,1.26s-2.63-1.55-3.3-2.91c-.67-1.36-.77-2.93-.28-4.36s1.54-2.6,2.91-3.26c1.37-.66,2.95-.74,4.4-.24ZM315.02,284.4c1.44.5-5.42-2.3-4.75-.93.67,1.36-3.41,2.64-3.9,4.07s1.32,5.24-.05,5.9c-1.37.66,6.41,2.24,4.97,1.74s-2.63-1.55-3.3-2.91c-.67-1.36-.77-2.93-.28-4.36s1.54-2.6,2.91-3.26c1.37-.66,2.95-.74,4.4-.24ZM247.83,196.79c1.44.5-4.52-2.7-3.85-1.33.67,1.36-4.77,2.65-5.27,4.07s2.06,5.99.69,6.64c-1.37.66,6.14,1.88,4.7,1.38s-2.63-1.55-3.3-2.91c-.67-1.36-.77-2.93-.28-4.36s1.54-2.6,2.91-3.26c1.37-.66,2.95-.74,4.39-.24ZM286.81,178.13c1.44.5-5.29-3.34-4.62-1.98.67,1.36-3.27,3.68-3.76,5.1s1.61,5.83.24,6.49c-1.37.66,5.86,1.65,4.41,1.15s-2.63-1.55-3.3-2.91c-.67-1.36-.77-2.93-.28-4.36s1.54-2.6,2.91-3.26c1.37-.66,2.95-.74,4.4-.24ZM374.71,112.09c1.44.5-4.01-3.49-3.34-2.13.67,1.36-6.12,3.29-6.61,4.71s4.29,9.61,2.92,10.27c-1.37.66,4.75-1.58,3.3-2.08s-2.63-1.55-3.3-2.91c-.67-1.36-.77-2.93-.28-4.36s1.54-2.6,2.91-3.26c1.37-.66,2.95-.74,4.4-.24ZM355.63,73.32c1.44.5-5.53-3.05-4.86-1.68.67,1.36-3.6,3.21-4.1,4.64s2.75,5.83,1.38,6.48c-1.37.66,5.29,1.83,3.85,1.33s-2.63-1.55-3.3-2.91c-.67-1.36-.77-2.93-.28-4.36s1.54-2.6,2.91-3.26c1.37-.66,2.95-.74,4.4-.24ZM403.74,122.15c1.44.5-4.22-3.57-3.55-2.2.67,1.36-5.13,3.63-5.62,5.06s2.96,7.67,1.59,8.33c-1.37.66,5.3.09,3.85-.41s-2.63-1.55-3.3-2.91c-.67-1.36-.77-2.93-.28-4.36s1.54-2.6,2.91-3.26c1.37-.66,2.95-.74,4.4-.24ZM383.85,179.58c1.44.5-5.32-2.97-4.65-1.61.67,1.36-4.52,2.99-5.02,4.42s2.01,4.99.64,5.64c-1.37.66,6.74,2.82,5.29,2.32s-2.63-1.55-3.3-2.91c-.67-1.36-.77-2.93-.28-4.36s1.54-2.6,2.91-3.26c1.37-.66,2.95-.74,4.4-.24ZM432.77,132.2c1.44.5-4.84-3.29-4.17-1.93.67,1.36-5.05,3.06-5.54,4.49s2.21,5.55.84,6.2c-1.37.66,6.58,2.5,5.14,2s-2.63-1.55-3.3-2.91c-.67-1.36-.77-2.93-.28-4.36s1.54-2.6,2.91-3.26c1.37-.66,2.95-.74,4.4-.24ZM500.78,123.6c1.44.5-4.3-3.33-3.63-1.97.67,1.36-5.12,3.88-5.62,5.31-.49,1.43,2.82,6.07,1.45,6.73-1.37.66,5.51,1.2,4.07.7s-2.63-1.55-3.3-2.91c-.67-1.36-.77-2.93-.28-4.36.49-1.43,1.54-2.6,2.91-3.26,1.37-.66,2.95-.74,4.4-.24ZM490.83,152.32c1.44.5-4.34-4.06-3.67-2.69.67,1.36-4.6,4.65-5.09,6.08s1.18,4.21-.19,4.86c-1.37.66,6.67,3.02,5.22,2.52s-2.63-1.55-3.3-2.91c-.67-1.36-.77-2.93-.28-4.36s1.54-2.6,2.91-3.26c1.37-.66,2.95-.74,4.4-.24ZM422.01,257.13c1.44.5-3.62-2.89-2.95-1.53-1.64.42-5.73,2.95-6.23,4.38s.05,4.82.48,6.44c-.01,1.47,6.4,1.97,4.96,1.47s-2.63-1.55-3.3-2.91c-.67-1.36-.77-2.93-.28-4.36s1.54-2.6,2.91-3.26c1.37-.66,2.95-.74,4.39-.24ZM451.04,267.19c1.44.5-3.43-3.81-2.76-2.45-2.08.26-5.92,3.87-6.41,5.3s1.33,6.49,2.67,8.38c-1.37.66,4.21.04,2.77-.46s-2.63-1.55-3.3-2.91c-.67-1.36-.77-2.93-.28-4.36s1.54-2.6,2.91-3.26c1.37-.66,2.95-.74,4.39-.24ZM539.76,104.94c1.44.5-3.34-3-2.67-1.64-1.64.41-4.01.08-7.42,4.17.65,5.31,2.72,6.52,3.6,8.3-1.37.66,4.21.43,2.76-.07s-2.63-1.55-3.3-2.91c-.67-1.36-.77-2.93-.28-4.36s1.54-2.6,2.91-3.26c1.37-.66,2.95-.74,4.4-.24ZM549.71,76.22c1.44.5-2.78-3.17-2.11-1.81.67,1.36-4.46-.07-7.38,4.55-.14,5.66,3.88,7.4,2.51,8.05-1.37.66,4.69.47,3.25-.03s-2.63-1.55-3.3-2.91c-.67-1.36-.77-2.93-.28-4.36s1.54-2.6,2.91-3.26c1.37-.66,2.95-.74,4.4-.24ZM588.68,57.56c1.44.5-3.54-2.81-2.87-1.45.67,1.36-3.25-.67-6.01,4.4-.98,5.69-.03,5.83,1.47,7.25-1.37.66,5.12,1.06,3.67.56s-2.63-1.55-3.3-2.91c-.67-1.36-.77-2.93-.28-4.36.49-1.43,1.54-2.6,2.91-3.26,1.37-.66,2.95-.74,4.4-.24ZM528.18,326.07c1.44.5,2.63,1.55,3.3,2.91.67,1.36-.15-3.42-.65-1.99s-1.68-3.35-3.05-2.69c-1.37.66-2.51.05-4,2.01-1.44-.5-.4-.7-1.07-2.07s-2.34,6.75-1.84,5.32,1.54-2.6,2.91-3.26c1.37-.66,2.95-.74,4.4-.24ZM548.07,268.64c1.44.5-1.38-3.67-.71-2.31.67,1.36-4.67.45-8.73,5.07.1,5.46,4.42,7.79,3.05,8.45s4.1.06,2.66-.44-2.63-1.55-3.3-2.91c-.67-1.36-.77-2.93-.28-4.36s1.54-2.6,2.91-3.26c1.37-.66,2.95-.74,4.4-.24ZM557.21,336.13c1.44.5-4.48-2.83-3.81-1.46.68,1.36-2.92.34-3.42,1.77.62-3.23-.49,1.43,0,0-1.37.66-.39,5.78-1.83,5.28s2.69,3.63,2.02,2.27c-.67-1.36-.77-2.93-.27-4.36s1.54-2.6,2.91-3.26c1.37-.65,2.95-.74,4.4-.24ZM576.29,374.9c1.44.5.45-2.1-6.09-1.9-3,2.9-.72,3.97-1.22,5.4s.45.1-.92.76,1.25,3.16-.2,2.66,2.06,2.3,1.39.94c-.67-1.36-.77-2.93-.27-4.36s1.54-2.6,2.91-3.26c1.37-.65,2.95-.74,4.4-.24ZM402.11,314.57c1.44.5-3.98-3.28-3.31-1.91.67,1.36-5.64,3.35-6.14,4.77s1.65,7.21,3.79,9.2c-1.37.66,3.37-.79,1.93-1.29s-2.63-1.55-3.3-2.91c-.67-1.36-.77-2.93-.28-4.36s1.54-2.6,2.91-3.26c1.37-.66,2.95-.74,4.4-.24ZM412.06,285.85c1.44.5-3.42-3.45-2.75-2.08.67,1.36-6.09,3.19-6.58,4.62s2.91,6.88,1.54,7.53c-1.37.66,5.51,1.2,4.07.7s-2.63-1.55-3.3-2.91c-.67-1.36-.77-2.93-.28-4.36s1.54-2.6,2.91-3.26c1.37-.66,2.95-.74,4.4-.24ZM421.19,353.34c1.44.5-2.13-3.26-1.45-1.89.67,1.36-5.42,1.28-7.78,5.19-.39,5.43,4.57,7.35,3.2,8.01-1.37.66,3.74-.04,2.3-.54s-2.63-1.55-3.3-2.91c-.67-1.36-.77-2.93-.28-4.36s1.54-2.6,2.91-3.26c1.37-.66,2.95-.74,4.4-.24ZM595.37,413.68c1.44.5,3.28,1.71,2.52.16.67,1.36-8.96-5.77-11.87,2.63-1.54,7.31,5.96,7.67,4.59,8.33-1.37.66,2.47.15,1.03-.35s-2.63-1.55-3.3-2.91c-.67-1.36-.77-2.93-.27-4.36s1.54-2.6,2.91-3.26c1.37-.65,2.95-.74,4.4-.24ZM526.55,518.49c1.44.5-3.01-2.6-2.34-1.24.68,1.36-1.32-1.94-6.43,4.18-.66,7.66,4.73,6.92,3.36,7.57-1.37.65,3.12.76,1.68.26s-2.63-1.55-3.3-2.91c-.67-1.36-.77-2.93-.27-4.36s1.54-2.6,2.91-3.25c1.38-.66,2.96-.75,4.4-.25ZM545.63,557.27c1.44.5-5.32-2.06-4.65-.69.67,1.37,1.28-2.02-4.69,3.49-.3,6.61,3.95,6.27,2.58,6.93-1.37.66,4.47,1.55,3.03,1.05s-2.63-1.55-3.31-2.91c-.67-1.37-.77-2.93-.27-4.36s1.54-2.6,2.91-3.25c1.38-.66,2.96-.74,4.4-.24ZM487.57,537.15c1.44.5.21-2.46-1.88-2.19-1.57-.31-4.01.09-7.68,4.92-.44,5.58,6.1,8.69,4.73,9.34-1.37.66,2.53-.79,1.09-1.29s-2.63-1.55-3.31-2.91c-.67-1.37-.77-2.93-.27-4.36s1.54-2.6,2.91-3.25c1.38-.66,2.96-.74,4.4-.24ZM477.62,565.87c1.44.5-4.08-3.96-3.41-2.6.67,1.37-5.26,4.21-5.75,5.64s2.35,6.58.98,7.24,5.9,1,4.46.5-2.63-1.55-3.3-2.91c-.67-1.37-.77-2.93-.27-4.36s1.54-2.6,2.91-3.25c1.38-.66,2.96-.74,4.4-.24ZM448.59,555.82c1.44.5-3.14-2.91-2.47-1.54-1.77.07-4.32.97-6.7,4.39-.21,4.05,3.95,8.31,2.58,8.96-1.37.66,4.31-.54,2.86-1.04s-2.63-1.55-3.3-2.91c-.67-1.37-.77-2.93-.27-4.36s1.54-2.6,2.91-3.25c1.37-.66,2.95-.75,4.4-.25ZM419.56,545.76c1.44.5-2.27-3.59-1.6-2.23.67,1.36-3.69-.09-7.57,5.08-.99,5.26,3.33,7.59,1.96,8.25-1.37.66,4.93.17,3.48-.33s-2.63-1.55-3.3-2.91c-.67-1.37-.77-2.93-.27-4.36s1.54-2.6,2.91-3.25c1.37-.66,2.95-.75,4.4-.25ZM390.53,535.7c1.44.5-3.2-3.42-2.53-2.05.67,1.36-6.63,3.32-7.12,4.74s2.89,6.46,1.52,7.12,5.84,1.47,4.4.97-2.63-1.55-3.3-2.91c-.67-1.37-.77-2.93-.27-4.36s1.54-2.6,2.91-3.25c1.37-.66,2.95-.75,4.4-.25ZM110.18,406.42c1.44.5-.18-2.43-3.77-1.87-1.77.28-3.58,1.72-5.6,4.65,1.37-.65-.49,1.43,0,0-1.37.66,1.91,8.86,2.08,6.94,2.95,1.54.93-.51.26-1.87-.67-1.37-.77-2.93-.27-4.36s1.54-2.6,2.91-3.25c1.37-.66,2.95-.75,4.4-.25ZM52.13,386.31c1.44.5-5.55-2.14-4.88-.77.67,1.37-4.2,2.06-4.69,3.48s3.37,6.07,2,6.72c-1.37.66,5.29,1.83,3.85,1.33s-2.63-1.55-3.3-2.91c-.67-1.37-.77-2.93-.27-4.36s1.54-2.6,2.91-3.25c1.37-.66,2.95-.75,4.4-.25ZM120.13,377.7c1.44.5-3.89-3.4-3.21-2.04.67,1.36-5.46,3.46-5.96,4.89s2.87,7.32,1.5,7.97c-1.37.66,5.38.44,3.94-.06s-2.63-1.55-3.3-2.91c-.67-1.36-.77-2.93-.28-4.36s1.54-2.6,2.91-3.25c1.37-.66,2.95-.75,4.4-.25ZM101.05,338.93c1.44.5-4.12-3.84-3.45-2.48.67,1.36-5.23,3.91-5.72,5.33s2.99,7.36,1.62,8.01c-1.37.66,5.27.4,3.82-.1s-2.63-1.55-3.3-2.91c-.67-1.36-.77-2.93-.28-4.36s1.54-2.6,2.91-3.26c1.37-.66,2.95-.74,4.4-.24ZM100.24,435.14c1.44.5-6.36-2.54-5.69-1.18.67,1.36-3.19,2.54-3.68,3.96s1.71,5.56.34,6.21c-1.37.66,6.74,2.27,5.3,1.77s-2.63-1.55-3.3-2.91c-.67-1.37-.77-2.93-.27-4.36s1.54-2.6,2.91-3.25c1.37-.66,2.95-.75,4.4-.25ZM249.46,4.37c1.44.5-6.41-2.41-5.73-1.04.67,1.36-2.69,2.55-3.19,3.98s1.34,4.64-.03,5.3,6.66,3.03,5.22,2.53-2.63-1.55-3.3-2.91c-.67-1.36-.77-2.93-.28-4.36s1.54-2.6,2.91-3.26c1.37-.66,2.95-.74,4.4-.24ZM298.39-43.01c1.44.5-6.38-2.32-5.71-.96.67,1.36-2.96,2.38-3.46,3.81s1.63,4.78.26,5.43c-1.37.66,6.63,2.98,5.18,2.48s-2.63-1.55-3.3-2.91c-.67-1.36-.77-2.93-.28-4.36s1.54-2.6,2.91-3.26c1.37-.66,2.95-.74,4.4-.24ZM229.56,61.81c1.44.5-5.66-2.59-4.99-1.22.67,1.36-3.23,3.2-3.72,4.62s2.91,6.78,1.54,7.43c-1.37.66,4.89.44,3.44-.06s-2.63-1.55-3.3-2.91c-.67-1.36-.77-2.93-.28-4.36s1.54-2.6,2.91-3.26c1.37-.66,2.95-.74,4.4-.24ZM239.51,33.09c1.44.5-5.85-2.03-5.18-.67.67,1.36-3.25,2.18-3.74,3.61s2.05,6.01.68,6.67c-1.37.66,5.96,1.66,4.51,1.16s-2.63-1.55-3.3-2.91c-.67-1.36-.77-2.93-.28-4.36s1.54-2.6,2.91-3.26c1.37-.66,2.95-.74,4.4-.24ZM190.59,80.47c1.44.5-4.94-2.84-4.27-1.48.67,1.36-4.48,2.88-4.98,4.31s3.29,6.75,1.92,7.41c-1.37.66,5.05,1.04,3.6.54s-2.63-1.55-3.3-2.91c-.67-1.36-.77-2.93-.28-4.36s1.54-2.6,2.91-3.26c1.37-.66,2.95-.74,4.4-.24ZM226.3,446.65c1.44.5-5.55-2.98-4.88-1.62.67,1.37-4.46,2.81-4.96,4.24s3.41,6.77,2.05,7.42c-1.37.66,5.5,1.22,4.06.72s-2.63-1.55-3.3-2.91c-.67-1.37-.77-2.93-.27-4.36s1.54-2.6,2.91-3.25c1.37-.66,2.95-.75,4.4-.25ZM255.33,456.7c1.44.5-5.22-2.87-4.55-1.51.67,1.37-4.46,2.81-4.96,4.24s2.62,5.81,1.25,6.46c-1.37.66,5.97,2.07,4.53,1.57s-2.63-1.55-3.3-2.91c-.67-1.37-.77-2.93-.27-4.36s1.54-2.6,2.91-3.25c1.37-.66,2.95-.75,4.4-.25ZM216.35,475.36c1.44.5-5.18-2.63-4.51-1.26.67,1.36-4.84,2.46-5.33,3.88s3.06,5.96,1.69,6.62c-1.37.65,5.86,2.03,4.41,1.53s-2.63-1.55-3.3-2.91c-.67-1.37-.77-2.93-.27-4.36s1.54-2.6,2.91-3.25c1.37-.66,2.95-.75,4.4-.25ZM304.26,409.33c1.44.5-4.87-2.82-4.2-1.46.67,1.36-4.93,2.72-5.42,4.15s3.28,6.49,1.91,7.14c-1.37.66,5.43,1.43,3.99.93s-2.63-1.55-3.3-2.91c-.67-1.36-.77-2.93-.28-4.36s1.54-2.6,2.91-3.26c1.37-.66,2.95-.74,4.4-.24ZM323.34,448.1c1.44.5-4.08-3.96-3.41-2.6.67,1.36-5.84,3.82-6.33,5.25s3.13,7.29,1.76,7.95c-1.37.65,5.7.66,4.25.16s-2.63-1.55-3.3-2.91c-.67-1.36-.77-2.93-.28-4.36s1.54-2.6,2.91-3.25c1.37-.66,2.95-.75,4.4-.25ZM303.44,505.53c1.44.5-4.99-2.86-4.32-1.5.67,1.37-4.93,2.73-5.42,4.15s3.32,8.09,1.95,8.74c-1.37.66,5.5-.13,4.06-.63s-2.63-1.55-3.3-2.91c-.67-1.37-.77-2.93-.27-4.36s1.54-2.6,2.91-3.25c1.37-.66,2.95-.75,4.4-.25ZM616.08,260.03c1.44.5-3.15-3.64-2.48-2.28s-6.3,3.8-6.79,5.23,2.23,5.47.86,6.13c-1.37.66,6.12,2.19,4.67,1.69s-2.63-1.55-3.3-2.91c-.67-1.36-.77-2.93-.27-4.36s1.54-2.6,2.91-3.26c1.37-.65,2.95-.74,4.4-.24ZM597,221.26c1.44.5-2.24-3.01-1.57-1.65.67,1.36-4.31-.51-7.62,4.75.09,6.93,4.57,7.35,3.2,8.01-1.37.66,3.7.16,2.26-.34s-2.63-1.55-3.3-2.91c-.67-1.36-.77-2.93-.27-4.36s1.54-2.6,2.91-3.26c1.37-.65,2.95-.74,4.4-.24ZM606.95,192.54c1.44.5-.94-2.43-.27-1.07.67,1.36-3.1-2.55-8.84,3.94-.03,7.28,5.34,8.01,3.97,8.66-1.37.66,2.85-.27,1.41-.77s-2.63-1.55-3.3-2.91c-.67-1.36-.77-2.93-.27-4.36s1.54-2.6,2.91-3.26c1.38-.66,2.95-.74,4.4-.24ZM616.9,163.82c1.44.5-4.36-2.64-3.69-1.28s-4.06.21-5.42,4.15c-1.07,3.1-.53,5.85,1.1,7.8-1.37.66,5.72.6,4.28.1s-2.63-1.55-3.3-2.91c-.67-1.36-.77-2.93-.27-4.36s1.54-2.6,2.91-3.26c1.37-.65,2.95-.74,4.4-.24ZM141.66,127.85c1.44.5-6.45-2.27-5.78-.9.67,1.36-3.3,2.19-3.8,3.61s2.4,6.44,1.03,7.1c-1.37.66,6.26,1.46,4.82.96s-2.63-1.55-3.3-2.91c-.67-1.36-.77-2.93-.28-4.36s1.54-2.6,2.91-3.26c1.37-.66,2.95-.74,4.4-.24ZM151.61,99.13c1.44.5-5.72-3.11-5.04-1.75.67,1.36-4.04,3.03-4.53,4.46s2.17,5.65.8,6.31c-1.37.66,6.49,2.25,5.04,1.75s-2.63-1.55-3.3-2.91c-.67-1.36-.77-2.93-.28-4.36s1.54-2.6,2.91-3.26c1.37-.66,2.95-.74,4.4-.24ZM131.71,156.57c1.44.5-6.11-3.25-5.44-1.89.67,1.36-2.71,3.36-3.21,4.79s1.23,4.22-.14,4.88c-1.37.66,6.51,3.49,5.06,2.99s-2.63-1.55-3.3-2.91c-.67-1.36-.77-2.93-.28-4.36s1.54-2.6,2.91-3.26c1.37-.66,2.95-.74,4.4-.24ZM160.74,166.62c1.44.5-4.21-3.59-3.54-2.23.67,1.36-5.33,3.95-5.82,5.38s3.84,6.61,2.47,7.26c-1.37.66,4.61.86,3.17.36s-2.63-1.55-3.3-2.91c-.67-1.36-.77-2.93-.28-4.36s1.54-2.6,2.91-3.26c1.37-.66,2.95-.74,4.39-.24ZM81.97,300.16c1.44.5-5.27-2.96-4.6-1.59s-4.48,2.88-4.98,4.31,3.18,7.08,1.81,7.73c-1.37.66,5.49.83,4.04.33s-2.63-1.55-3.3-2.91c-.67-1.36-.77-2.93-.28-4.36s1.54-2.6,2.91-3.26c1.37-.66,2.95-.74,4.4-.24ZM179.82,205.4c1.44.5-4.71-3.89-4.04-2.53.67,1.36-4.02,4.4-4.51,5.83s1.89,7.9.52,8.56c-1.37.66,5.74-.59,4.3-1.09s-2.63-1.55-3.3-2.91c-.67-1.36-.77-2.93-.28-4.36s1.54-2.6,2.91-3.26c1.37-.66,2.95-.74,4.4-.24ZM198.9,244.17c1.44.5-5.05-2.88-4.37-1.52.67,1.36-3.91,3.67-4.41,5.1s1.77,5.39.4,6.05c-1.37.66,6.1,1.63,4.65,1.13s-2.63-1.55-3.3-2.91c-.67-1.36-.77-2.93-.28-4.36s1.54-2.6,2.91-3.26c1.37-.66,2.95-.74,4.4-.24Z"/>
</svg>