<svg version="1.1" id="Layer_1" xmlns:x="ns_extend;" xmlns:i="ns_ai;" xmlns:graph="ns_graphs;" xmlns="http://www.w3.org/2000/svg" xmlns:xlink="http://www.w3.org/1999/xlink" x="0px" y="0px" viewBox="0 0 345.7 340.6" style="enable-background:new 0 0 345.7 340.6;" xml:space="preserve">
 <style type="text/css">
  .st0{fill:#0068B5;}
	.st1{fill:#00C7FD;}
	.st2{fill:#FFFFFF;}
 </style>
 <metadata>
  <sfw xmlns="ns_sfw;">
   <slices>
   </slices>
   <sliceSourceBounds bottomLeftOrigin="true" height="340.6" width="345.7" x="237.7" y="107.3">
   </sliceSourceBounds>
  </sfw>
 </metadata>
 <g>
  <rect class="st0" width="345.7" height="340.6">
  </rect>
  <g>
   <rect x="43" y="134.5" class="st1" width="19" height="19">
   </rect>
   <g>
    <path class="st2" d="M61.5,233.3V165h-18v68.3H61.5z M180.8,234v-16.7c-2.6,0-4.9-0.1-6.5-0.4c-1.9-0.3-3.3-0.9-4.3-1.9
				c-0.9-0.9-1.6-2.3-1.9-4c-0.3-1.7-0.4-3.9-0.4-6.6v-23.9h13V165h-13v-26.7h-18v66.1c0,5.6,0.5,10.3,1.4,14.1
				c0.9,3.7,2.6,6.7,4.8,9c2.2,2.3,5.2,3.9,8.8,4.9c3.6,1,8.2,1.5,13.7,1.5H180.8L180.8,234z M283.9,233.3V133.1h-18v100.2H283.9z
				 M132.4,171.7c-5-5.4-12-8.1-20.9-8.1c-4.3,0-8.2,0.9-11.8,2.6c-3.5,1.8-6.5,4.2-8.9,7.3l-1,1.3v-1.1V165H72v68.3h17.9V197v2.5
				c0-0.4,0-0.8,0-1.2c0.2-6.4,1.8-11.1,4.7-14.2c3.2-3.2,7-4.9,11.4-4.9c5.2,0,9.2,1.6,11.8,4.7c2.6,3.1,3.9,7.5,3.9,13.1l0,0v0.1
				l0,0l0,0v36.1h18.2v-38.7C140,184.8,137.4,177.1,132.4,171.7z M256.6,199c0-4.9-0.9-9.5-2.6-13.8c-1.8-4.3-4.2-8-7.2-11.3
				c-3.1-3.2-6.8-5.7-11.1-7.6c-4.3-1.8-9.1-2.7-14.3-2.7c-4.9,0-9.6,0.9-13.9,2.8c-4.3,1.9-8.1,4.4-11.3,7.6
				c-3.2,3.2-5.7,7-7.6,11.3c-1.9,4.3-2.8,9-2.8,13.9s0.9,9.6,2.6,13.9c1.8,4.3,4.3,8.1,7.4,11.3c3.1,3.2,7,5.7,11.4,7.6
				c4.5,1.9,9.4,2.8,14.6,2.8c15.3,0,24.7-7,30.4-13.4l-13-9.9c-2.7,3.2-9.2,7.6-17.3,7.6c-5.1,0-9.2-1.1-12.4-3.5
				c-3.2-2.3-5.3-5.5-6.5-9.5l-0.2-0.6h53.7L256.6,199L256.6,199z M203.1,192.8c0-5,5.7-13.7,18.1-13.8c12.4,0,18.2,8.7,18.2,13.7
				L203.1,192.8z">
    </path>
    <path class="st2" d="M304.5,224.4c-0.3-0.8-0.8-1.5-1.4-2.1c-0.6-0.6-1.3-1.1-2.1-1.4s-1.7-0.5-2.6-0.5c-0.9,0-1.8,0.2-2.6,0.5
				c-0.8,0.3-1.5,0.8-2.1,1.4s-1.1,1.3-1.4,2.1c-0.3,0.8-0.5,1.7-0.5,2.6c0,0.9,0.2,1.8,0.5,2.6c0.3,0.8,0.8,1.5,1.4,2.1
				c0.6,0.6,1.3,1.1,2.1,1.4c0.8,0.3,1.7,0.5,2.6,0.5c0.9,0,1.8-0.2,2.6-0.5c0.8-0.3,1.5-0.8,2.1-1.4c0.6-0.6,1.1-1.3,1.4-2.1
				s0.5-1.7,0.5-2.6S304.8,225.2,304.5,224.4z M303.4,229.1c-0.3,0.7-0.7,1.3-1.1,1.8s-1.1,0.9-1.8,1.1s-1.3,0.4-2.2,0.4
				c-0.7,0-1.5-0.1-2.2-0.4c-0.7-0.3-1.3-0.7-1.8-1.1s-0.9-1.1-1.1-1.8c-0.3-0.7-0.4-1.3-0.4-2.2c0-0.7,0.1-1.5,0.4-2.2
				c0.3-0.7,0.7-1.3,1.1-1.8c0.5-0.5,1.1-0.9,1.8-1.1s1.3-0.4,2.2-0.4c0.7,0,1.5,0.1,2.2,0.4s1.3,0.7,1.8,1.1s0.9,1.1,1.1,1.8
				c0.3,0.7,0.4,1.3,0.4,2.2C303.8,227.8,303.6,228.5,303.4,229.1z M299.6,227.5c0.5-0.1,0.9-0.3,1.3-0.6s0.5-0.8,0.5-1.5
				c0-0.7-0.2-1.3-0.7-1.7c-0.4-0.4-1.1-0.6-2-0.6h-3v7.6h1.4v-3.1h1l1.9,3.1h1.5L299.6,227.5z M298.9,226.4c-0.2,0-0.4,0-0.7,0h-1
				v-2.2h1c0.2,0,0.4,0,0.7,0c0.2,0,0.4,0.1,0.6,0.1c0.2,0.1,0.3,0.2,0.4,0.3s0.1,0.3,0.1,0.6s-0.1,0.5-0.1,0.6
				c-0.1,0.1-0.3,0.3-0.4,0.3C299.3,226.4,299.1,226.4,298.9,226.4z">
    </path>
   </g>
  </g>
 </g>
</svg>