<svg width="100%" height="100%" viewBox="0 0 60 61" fill="none" xmlns="http://www.w3.org/2000/svg">
<path d="M46.4751 15.2249C43.4001 13.7999 40.125 12.7499 36.675 12.1499C36.25 12.8999 35.75 13.9249 35.425 14.7499C31.775 14.1999 28.15 14.1999 24.575 14.7499C24.225 13.9249 23.725 12.8999 23.3 12.1499C19.85 12.7499 16.575 13.7999 13.5 15.2249C7.30005 24.5749 5.62505 33.6999 6.45005 42.6749C10.575 45.7499 14.55 47.5999 18.475 48.8249C19.45 47.4999 20.3 46.0749 21.05 44.5999C19.625 44.0749 18.275 43.3999 17 42.6249C17.35 42.3749 17.675 42.0999 18 41.8499C25.825 45.4999 34.3 45.4999 42.025 41.8499C42.35 42.1249 42.675 42.3749 43.025 42.6249C41.75 43.3999 40.375 44.0499 38.975 44.5999C39.725 46.0749 40.5751 47.4999 41.55 48.8249C45.475 47.5999 49.4751 45.7499 53.5751 42.6749C54.55 32.2499 51.9001 23.2249 46.5251 15.2249H46.4751ZM22.1 37.1749C19.75 37.1749 17.825 34.9999 17.825 32.3249C17.825 29.6499 19.7 27.4749 22.1 27.4749C24.5 27.4749 26.4 29.6499 26.375 32.3249C26.375 34.9749 24.5 37.1749 22.1 37.1749ZM37.875 37.1749C35.525 37.1749 33.6 34.9999 33.6 32.3249C33.6 29.6499 35.475 27.4749 37.875 27.4749C40.275 27.4749 42.175 29.6499 42.15 32.3249C42.15 34.9749 40.275 37.1749 37.875 37.1749Z" fill="white"/>
</svg>
