<svg width="145" height="52" viewBox="0 0 145 52" fill="none" xmlns="http://www.w3.org/2000/svg">
<path d="M52.1312 25.9559C52.1312 24.0749 50.5933 22.5456 48.6931 22.5456C46.7928 22.5456 45.2549 24.0711 45.2549 25.9559C45.2549 27.5655 46.3843 28.9075 47.8952 29.263V33.828C46.3843 34.1874 45.2549 35.5255 45.2549 37.1351C45.2549 37.4065 45.2935 37.6627 45.3551 37.915L40.0553 40.5607C39.4232 39.819 38.4942 39.3411 37.442 39.3411C35.5456 39.3411 34.0038 40.8666 34.0038 42.7514C34.0038 44.6324 35.5417 46.1617 37.442 46.1617C39.3384 46.1617 40.8801 44.6363 40.8801 42.7514C40.8801 42.48 40.8416 42.2238 40.7799 41.9715L46.0836 39.3258C46.7158 40.0675 47.6447 40.5454 48.6969 40.5454C50.5933 40.5454 52.1351 39.0199 52.1351 37.1351C52.1351 35.5255 51.0057 34.1835 49.4948 33.828V29.263C51.0057 28.9037 52.1312 27.5617 52.1312 25.9559ZM48.6969 11.3053C46.8006 11.3053 45.2588 12.8308 45.2588 14.7156C45.2588 14.9603 45.2858 15.1974 45.3359 15.4268L40.063 18.0304C39.4309 17.2848 38.4981 16.7993 37.4381 16.7993C35.5417 16.7993 34 18.3248 34 20.2096C34 21.8192 35.1293 23.1612 36.6403 23.5167V28.2575C35.9156 28.4296 35.2912 28.8272 34.8248 29.3739L29.4093 26.6594C29.4672 26.4147 29.5018 26.1586 29.5018 25.8948C29.5018 24.0137 27.9639 22.4844 26.0637 22.4844C25.023 22.4844 24.0979 22.9547 23.4697 23.6811L18.112 20.9934C18.1737 20.7411 18.2122 20.4772 18.2122 20.2058C18.2122 18.3248 16.6743 16.7955 14.7741 16.7955C12.8738 16.7955 11.3359 18.3209 11.3359 20.2058C11.3359 21.8154 12.4652 23.1573 13.9762 23.5129V28.1964C12.4652 28.5519 11.3359 29.8939 11.3359 31.5035C11.3359 31.7749 11.3744 32.0349 11.4361 32.291L6.04761 34.9902C5.41548 34.2524 4.48656 33.7745 3.43816 33.7745C1.54177 33.7745 0 35.2999 0 37.1848C0 39.0696 1.53792 40.5951 3.43816 40.5951C5.33839 40.5951 6.87631 39.0696 6.87631 37.1848C6.87631 36.9133 6.83777 36.6534 6.7761 36.3972L12.1646 33.698C12.7967 34.4359 13.7256 34.9138 14.7741 34.9138C16.6704 34.9138 18.2122 33.3883 18.2122 31.5035C18.2122 29.8939 17.0829 28.5519 15.5719 28.1964V23.5129C16.2927 23.3408 16.921 22.9432 17.3835 22.4003L22.7335 25.0804C22.6679 25.3404 22.6255 25.608 22.6255 25.8909C22.6255 27.772 24.1635 29.3013 26.0637 29.3013C27.1237 29.3013 28.0603 28.8157 28.6886 28.0664L34.0963 30.777C34.0347 31.0294 33.9961 31.2932 33.9961 31.5646C33.9961 33.4457 35.534 34.9749 37.4343 34.9749C39.3307 34.9749 40.8724 33.4495 40.8724 31.5646C40.8724 29.955 39.7431 28.6131 38.2321 28.2575V23.5167C39.7431 23.1573 40.8724 21.8192 40.8724 20.2096C40.8724 19.9458 40.8339 19.6897 40.7761 19.4411L46.0297 16.8452C46.6579 17.6175 47.61 18.1221 48.6892 18.1221C50.5856 18.1221 52.1274 16.5967 52.1274 14.7118C52.1312 12.8308 50.5933 11.3053 48.6969 11.3053ZM26.0714 40.6028C27.9678 40.6028 29.5096 39.0773 29.5096 37.1924C29.5096 35.3114 27.9716 33.7821 26.0714 33.7821C24.175 33.7821 22.6332 35.3076 22.6332 37.1924C22.6332 37.4524 22.6679 37.7009 22.7219 37.9418L17.4182 40.5263C16.7861 39.7731 15.8494 39.2799 14.7818 39.2799C12.8854 39.2799 11.3436 40.8054 11.3436 42.6902C11.3436 44.5751 12.8815 46.1006 14.7818 46.1006C15.8186 46.1006 16.7398 45.6341 17.3681 44.9115L22.7335 47.5916C22.6718 47.844 22.6332 48.1039 22.6332 48.3754C22.6332 50.2564 24.1712 51.7857 26.0714 51.7857C27.9678 51.7857 29.5096 50.2602 29.5096 48.3754C29.5096 46.4944 27.9716 44.9651 26.0714 44.9651C25.0191 44.9651 24.0902 45.443 23.4581 46.1847L18.1081 43.5084C18.1737 43.2446 18.2199 42.9732 18.2199 42.6902C18.2199 42.4303 18.1852 42.1817 18.1313 41.9409L23.4388 39.3564C24.0671 40.1134 25.0076 40.6028 26.0714 40.6028ZM0.0115636 26.0095C0.0115636 27.8905 1.54948 29.4198 3.44972 29.4198C5.34996 29.4198 6.88788 27.8943 6.88788 26.0095C6.88788 24.3999 5.75853 23.0579 4.24759 22.7024V18.0074C5.75853 17.6481 6.88788 16.3099 6.88788 14.7003C6.88788 14.4327 6.84933 14.1766 6.79151 13.9242L12.1723 11.2518C12.8044 11.9935 13.7334 12.4752 14.7895 12.4752C16.6859 12.4752 18.2276 10.9497 18.2276 9.06489C18.2276 7.18386 16.6897 5.65456 14.7895 5.65456C12.8892 5.65456 11.3513 7.18003 11.3513 9.06489C11.3513 9.33252 11.3899 9.5925 11.4515 9.84483L6.07074 12.5173C5.43861 11.7756 4.50969 11.2938 3.45357 11.2938C1.55719 11.2938 0.0154181 12.8193 0.0154181 14.7042C0.0154181 16.3137 1.14477 17.6557 2.65571 18.0113V22.7024C1.13706 23.0579 0.0115636 24.3999 0.0115636 26.0095ZM103.623 12.9608C100.732 12.9608 98.9318 14.1766 98.9318 16.2832C98.9318 17.9348 100.138 19.3035 102.609 19.3035C104.39 19.3035 105.978 18.5427 106.899 17.2925V19.0971H108.429V12.567C108.429 10.2501 106.841 8.63669 103.892 8.63669C101.749 8.63669 100.254 9.50838 99.2209 10.8389L100.581 11.6915C101.291 10.6095 102.324 9.96335 103.873 9.96335C105.881 9.96335 106.899 11.0071 106.899 12.5631V12.9608H103.623ZM106.899 15.6179C106.074 17.1357 104.447 17.9348 102.898 17.9348C101.271 17.9348 100.543 17.174 100.543 16.1685C100.543 14.8953 101.557 14.211 103.7 14.211H106.895V15.6179H106.899ZM26.0714 11.3053C24.175 11.3053 22.6332 12.8308 22.6332 14.7156C22.6332 16.5967 24.1712 18.126 26.0714 18.126C27.9678 18.126 29.5096 16.6005 29.5096 14.7156C29.5096 14.4442 29.471 14.1842 29.4093 13.9319L34.7863 11.2021C35.4146 11.9744 36.3666 12.4752 37.4458 12.4752C39.3422 12.4752 40.884 10.9497 40.884 9.06489C40.884 7.18386 39.3461 5.65456 37.4458 5.65456C36.3897 5.65456 35.4569 6.13629 34.8287 6.878L29.417 4.18644C29.4749 3.93793 29.5134 3.67795 29.5134 3.41032C29.5134 1.52929 27.9755 0 26.0753 0C24.1789 0 22.6371 1.52547 22.6371 3.41032C22.6371 5.29136 24.175 6.82065 26.0753 6.82065C27.1314 6.82065 28.0641 6.33892 28.6924 5.59722L34.104 8.28877C34.0462 8.53728 34.0077 8.79726 34.0077 9.06489C34.0077 9.30958 34.0385 9.55044 34.0848 9.77983L28.6847 12.5211C28.0526 11.7832 27.1237 11.3053 26.0714 11.3053ZM87.0678 23.6314C82.7971 23.6314 79.5517 26.8812 79.5517 31.1135C79.5517 35.4299 82.72 38.5994 87.0678 38.5994C91.3925 38.5994 94.611 35.2961 94.611 31.1135C94.611 26.8812 91.3347 23.6314 87.0678 23.6314ZM87.0678 37.1618C83.6836 37.1618 81.1359 34.6576 81.1359 31.1173C81.1359 27.684 83.6875 25.046 87.0678 25.046C90.452 25.046 93.0268 27.684 93.0268 31.1173C93.0268 34.5773 90.4752 37.1618 87.0678 37.1618ZM122.933 23.6314C118.505 23.6314 115.309 26.9347 115.309 31.1938C115.309 35.4299 118.235 38.5994 122.933 38.5994C126.129 38.5994 128.195 37.2957 129.779 34.7647L128.411 34.0191C127.281 36.1219 125.512 37.2154 122.906 37.2154C119.468 37.2154 117.028 34.8985 116.786 31.729H130.238V30.9567C130.238 26.6671 127.123 23.6314 122.933 23.6314ZM116.839 30.3183C117.24 27.3094 119.684 25.0192 122.933 25.0192C126.183 25.0192 128.384 27.1756 128.653 30.3183H116.839ZM119.094 13.3201V19.0932H120.682V13.2437C120.682 10.3763 118.979 8.62904 116.281 8.62904C114.673 8.62904 113.39 9.40898 112.681 10.5483V8.83932H111.227V17.3842C111.227 17.3842 112.26 17.3842 112.723 17.3842C112.723 16.7802 112.723 13.1175 112.723 13.0487C112.723 11.4162 114.242 10.036 115.968 10.036C117.984 10.036 119.094 11.3244 119.094 13.3201ZM139.685 30.2647C137.376 29.8403 135.229 29.5192 135.229 27.6802C135.229 26.0553 136.196 24.9351 138.852 24.9351C140.999 24.9351 142.475 25.8412 143.47 27.0914L144.649 26.0248C143.308 24.614 141.535 23.6008 138.848 23.6008C135.383 23.6008 133.668 25.4666 133.668 27.7032C133.668 30.5247 136.354 31.06 138.929 31.5111C141.238 31.9355 143.439 32.2834 143.439 34.2256C143.439 36.0378 142.071 37.2345 139.465 37.2345C136.859 37.2345 135.14 36.1143 134.015 34.6767L132.808 35.7702C134.15 37.3683 136.193 38.5917 139.469 38.5917C143.065 38.5917 145 36.6457 145 34.2256C145 31.2741 142.263 30.7159 139.685 30.2647ZM111.227 27.015C110.044 24.8587 107.55 23.6314 105.295 23.6314C101.079 23.6314 97.8333 26.8812 97.8333 31.1135C97.8333 35.4299 100.921 38.5994 105.349 38.5994C107.577 38.5994 110.048 37.4027 111.231 35.2426V38.305H112.727V19.0932H111.231V27.015H111.227ZM105.349 37.1618C101.965 37.1618 99.4174 34.6576 99.4174 31.1173C99.4174 27.684 101.969 25.046 105.349 25.046C108.788 25.046 111.389 27.7873 111.389 31.1173C111.389 34.4703 108.784 37.1618 105.349 37.1618ZM67.1096 19.2997C70.1546 19.2997 72.4904 16.9255 72.4904 13.9625C72.4904 10.9612 70.1353 8.62522 67.1096 8.62522C64.1031 8.62522 61.7481 10.9612 61.7481 13.9625C61.7519 16.9828 64.0684 19.2997 67.1096 19.2997ZM67.1096 10.0933C69.2526 10.0933 70.8985 11.7832 70.8985 13.9663C70.8985 16.1493 69.2719 17.8201 67.1096 17.8201C64.9665 17.8201 63.3399 16.1685 63.3399 13.9663C63.3399 11.7832 64.9665 10.0933 67.1096 10.0933ZM69.588 23.6314C67.0633 23.6314 65.0783 24.9351 64.1108 26.7741V23.9258H62.6616V38.3088H64.1648V30.2915C64.1648 27.3094 66.4196 25.046 69.3721 25.046C72.5944 25.046 74.4484 27.122 74.4484 30.2647V38.3088H75.9786V30.2647C75.9786 26.1356 73.481 23.6314 69.588 23.6314ZM84.8207 16.0729L83.3676 15.465C82.7933 16.8146 81.5868 17.8392 79.9217 17.8392C77.7401 17.8392 76.0557 16.092 76.0557 13.9663C76.0557 11.8214 77.7016 10.0933 79.8677 10.0933C81.475 10.0933 82.72 10.965 83.3329 12.372L84.7706 11.745C83.9843 9.90218 82.1496 8.63286 79.887 8.63286C76.8613 8.63286 74.487 10.9306 74.487 13.9701C74.487 16.9331 76.8227 19.3073 79.9063 19.3073C82.2768 19.2997 84.019 17.973 84.8207 16.0729ZM91.9052 8.62904C88.8023 8.62904 86.5051 10.9842 86.5051 14.0045C86.5051 17.0057 88.6481 19.3035 91.963 19.3035C94.2217 19.3035 95.7133 18.3362 96.7694 16.7037L95.4281 15.9238C94.7189 17.1778 93.6088 17.9004 91.963 17.9004C89.7814 17.9004 88.2666 16.5126 88.0392 14.5589H97.1703V13.8554C97.1703 10.8121 94.9309 8.62904 91.9052 8.62904ZM88.0777 13.1863C88.4246 11.3627 89.9355 10.0169 91.9052 10.0169C93.9133 10.0169 95.3125 11.2518 95.563 13.1863H88.0777Z" fill="url(#paint0_linear_2077_150)"/>
<defs>
<linearGradient id="paint0_linear_2077_150" x1="11.9482" y1="-5.2272" x2="125.538" y2="66.3307" gradientUnits="userSpaceOnUse">
<stop offset="2.0668e-05" stop-color="#7960EC"/>
<stop offset="0.3556" stop-color="#954BD9"/>
<stop offset="1" stop-color="#D01EB0"/>
</linearGradient>
</defs>
</svg>
