<svg width="100%" height="100%" viewBox="0 0 65 80" fill="none" xmlns="http://www.w3.org/2000/svg">
<g clip-path="url(#clip0_6840_78)">
<path d="M0 0C22.11 0 44.22 0 67 0C67 26.4 67 52.8 67 80C44.89 80 22.78 80 0 80C0 53.6 0 27.2 0 0Z" fill="transparent"/>
<path d="M35.503 2.07835C36.2643 2.67563 36.934 3.37437 37.6169 4.05768C37.7834 4.22321 37.95 4.38871 38.1166 4.55416C38.4639 4.89957 38.8106 5.24565 39.1568 5.59219C39.5983 6.03398 40.0416 6.47385 40.4856 6.9132C40.8294 7.25399 41.1722 7.59591 41.5146 7.93815C41.6775 8.10071 41.8408 8.26291 42.0045 8.42472C43.4666 9.87172 44.4985 11.1386 44.5314 13.2881C44.443 15.3307 43.5325 16.8676 42.3142 18.44C41.9589 18.9089 41.6255 19.3933 41.2895 19.876C41.1469 20.0802 41.0043 20.2844 40.8617 20.4885C40.7916 20.5888 40.7215 20.6891 40.6493 20.7925C40.4448 21.084 40.2389 21.3745 40.0324 21.6646C39.9679 21.7553 39.9033 21.846 39.8368 21.9395C39.7168 22.108 39.5965 22.2763 39.476 22.4445C39.3698 22.5937 39.2651 22.7441 39.1625 22.8958C38.9953 23.1325 38.9953 23.1325 38.8355 23.31C38.1595 24.151 38.3093 25.2651 38.3179 26.2843C38.3178 26.499 38.3175 26.7136 38.317 26.9282C38.3167 27.3768 38.3184 27.8253 38.3217 28.2738C38.3258 28.8474 38.3251 29.4207 38.3229 29.9942C38.3216 30.437 38.3227 30.8798 38.3245 31.3225C38.3251 31.534 38.325 31.7454 38.3243 31.9568C38.3236 32.2527 38.3261 32.5484 38.3294 32.8444C38.3286 32.9307 38.3278 33.0171 38.327 33.1062C38.3393 33.7627 38.5017 34.1338 38.875 34.6575C39.2277 34.9158 39.5298 34.9277 39.9607 34.9283C40.0809 34.9291 40.2011 34.93 40.3249 34.9308C40.4544 34.9307 40.5839 34.9306 40.7174 34.9305C40.9939 34.9329 41.2704 34.9354 41.5469 34.938C41.981 34.9407 42.4151 34.9427 42.8492 34.9434C45.0773 34.9495 46.9136 34.959 48.6228 36.5638C49.8922 37.9118 50.1051 39.3583 50.0675 41.1404C49.5115 41.1404 48.9554 41.1404 48.3826 41.1404C48.3722 41.0143 48.3618 40.8881 48.3511 40.7582C48.2321 39.5033 48.0392 38.5858 47.0964 37.6814C46.1163 36.9098 45.1398 36.748 43.917 36.7538C43.7818 36.7524 43.6465 36.7509 43.5072 36.7495C43.0789 36.7453 42.6506 36.7442 42.2222 36.7435C41.7925 36.7415 41.3629 36.7388 40.9333 36.7349C40.667 36.7325 40.4007 36.7314 40.1344 36.7316C38.9085 36.7232 38.2398 36.52 37.3316 35.6634C36.621 34.8885 36.5706 33.9604 36.567 32.9495C36.5662 32.8516 36.5655 32.7537 36.5646 32.6529C36.5623 32.33 36.5609 32.0072 36.5597 31.6844C36.5592 31.5737 36.5587 31.463 36.5582 31.349C36.5557 30.7631 36.5539 30.1773 36.5528 29.5915C36.5515 28.9882 36.5473 28.3851 36.5426 27.7819C36.5394 27.3163 36.5384 26.8508 36.538 26.3853C36.5374 26.163 36.536 25.9407 36.5338 25.7185C36.5127 23.4912 36.5127 23.4912 37.0697 22.6523C37.123 22.5691 37.1763 22.486 37.2312 22.4003C37.3909 22.1584 37.5596 21.9252 37.7317 21.6918C37.8608 21.513 37.9899 21.3342 38.119 21.1553C38.1847 21.0651 38.2503 20.9749 38.3179 20.8819C38.6277 20.4543 38.9317 20.0225 39.236 19.5909C39.603 19.0715 39.9707 18.5525 40.3403 18.0349C42.2944 15.4558 42.2944 15.4558 42.6058 12.3277C42.2524 11.2813 41.5424 10.5974 40.7554 9.85163C40.5336 9.63776 40.312 9.42361 40.0907 9.20916C39.9442 9.06973 39.9442 9.06973 39.7948 8.92749C39.5421 8.67215 39.306 8.41427 39.0709 8.14334C38.6557 7.66524 38.2207 7.21179 37.774 6.76308C37.6949 6.68355 37.6159 6.60401 37.5344 6.52206C37.3685 6.35545 37.2025 6.189 37.0362 6.02272C36.7845 5.77045 36.5341 5.51693 36.2837 5.26336C36.1211 5.1004 35.9585 4.93751 35.7957 4.77471C35.7223 4.70003 35.649 4.62536 35.5734 4.54842C34.497 3.48009 33.401 2.82537 31.867 2.76054C30.2686 3.05299 29.2525 4.17358 28.1601 5.27696C27.9908 5.44572 27.8213 5.61436 27.6517 5.7829C27.2986 6.13464 26.9467 6.48761 26.5958 6.84155C26.1475 7.29348 25.6964 7.7424 25.2443 8.19046C24.8946 8.53758 24.5464 8.88614 24.1986 9.23517C24.0328 9.40124 23.8666 9.56689 23.7 9.73209C23.467 9.96353 23.236 10.1968 23.0055 10.4307C22.9375 10.4975 22.8695 10.5644 22.7994 10.6332C22.1164 11.3347 21.7165 12.1483 21.7177 13.1381C21.7771 14.8138 22.6523 16.0529 23.5906 17.3699C23.7068 17.5353 23.8229 17.7006 23.9389 17.8661C24.2406 18.2951 24.5444 18.7226 24.8488 19.1497C25.3379 19.8363 25.8243 20.5247 26.3103 21.2136C26.4732 21.4436 26.6374 21.6726 26.8019 21.9015C26.8999 22.0392 26.9979 22.1769 27.0958 22.3146C27.2228 22.4917 27.2228 22.4917 27.3525 22.6724C27.7679 23.3462 27.8384 23.9673 27.8359 24.7451C27.8365 24.8442 27.8371 24.9433 27.8377 25.0453C27.8394 25.3714 27.8393 25.6975 27.839 26.0236C27.8395 26.2514 27.84 26.4793 27.8406 26.7072C27.8415 27.1844 27.8414 27.6616 27.8408 28.1388C27.8401 28.7484 27.8422 29.3579 27.8449 29.9674C27.8467 30.438 27.8468 30.9086 27.8465 31.3791C27.8465 31.6038 27.8471 31.8284 27.8484 32.053C27.8499 32.3681 27.849 32.6832 27.8476 32.9983C27.8486 33.0898 27.8495 33.1813 27.8504 33.2756C27.8413 34.2208 27.5782 35.1282 26.9604 35.8581C25.9736 36.6414 25.1394 36.8523 23.898 36.8429C23.6492 36.8441 23.4004 36.8456 23.1515 36.8471C22.7625 36.8483 22.3737 36.8485 21.9847 36.8461C19.7366 36.8061 19.7366 36.8061 17.8183 37.868C16.9303 38.7729 16.7633 39.932 16.6103 41.1404C16.0543 41.1404 15.4983 41.1404 14.9254 41.1404C14.8391 39.3531 15.2858 38.0497 16.4571 36.6989C17.4831 35.6123 18.7575 35.071 20.2511 35.0059C20.5585 35.0004 20.8658 34.998 21.1733 34.9966C21.4036 34.9938 21.634 34.9909 21.8643 34.9879C22.2246 34.9837 22.5847 34.9802 22.945 34.9786C23.2947 34.9767 23.6443 34.9719 23.994 34.9666C24.1014 34.9668 24.2088 34.967 24.3196 34.9673C24.8083 34.9577 25.0871 34.9384 25.5135 34.6832C26.0018 34.1499 26.0334 33.6977 26.0325 32.9924C26.0334 32.8976 26.0342 32.8029 26.035 32.7053C26.0373 32.3923 26.0378 32.0794 26.038 31.7664C26.0388 31.5484 26.0396 31.3304 26.0404 31.1124C26.0419 30.6553 26.0423 30.1983 26.0422 29.7412C26.0422 29.1567 26.0454 28.5722 26.0496 27.9877C26.0523 27.5373 26.0528 27.0869 26.0526 26.6365C26.0529 26.4211 26.054 26.2056 26.0558 25.9902C26.0582 25.6882 26.0575 25.3864 26.0561 25.0844C26.0574 24.9961 26.0588 24.9078 26.0602 24.8169C26.0499 23.974 25.6743 23.4434 25.1862 22.7822C25.1258 22.6997 25.0654 22.6173 25.0032 22.5324C24.9392 22.4457 24.8751 22.3589 24.8091 22.2696C24.0139 21.182 23.2371 20.0825 22.467 18.977C22.2748 18.702 22.0812 18.4279 21.8874 18.154C20.45 16.1141 19.6685 14.258 20.0323 11.7242C20.4235 10.1897 21.7421 9.07412 22.8252 7.99691C22.9855 7.83649 23.1457 7.67603 23.3059 7.51553C23.6403 7.18086 23.9754 6.84687 24.311 6.51334C24.7382 6.08854 25.1635 5.66187 25.5883 5.23464C25.9182 4.90327 26.2493 4.57303 26.5808 4.24311C26.7379 4.08635 26.8947 3.92924 27.0511 3.77173C27.9216 2.89623 28.7572 2.12488 29.8488 1.52297C30.0461 1.41154 30.0461 1.41154 30.2474 1.29787C31.9922 0.56929 34.0247 1.03505 35.503 2.07835Z" fill="white"/>
<path d="M44.4325 70.8286C45.3868 71.5003 46.0736 72.3645 46.4268 73.4801C46.5583 74.8583 46.3235 76.0391 45.4386 77.1342C44.7136 77.9219 43.7584 78.4368 42.6832 78.5017C41.2698 78.5189 40.2284 78.3184 39.1155 77.3968C38.3071 76.5797 37.8932 75.5295 37.8594 74.388C37.9096 73.1766 38.2539 72.2637 39.1155 71.3942C40.5887 70.166 42.7298 69.8241 44.4325 70.8286Z" fill="transparent"/>
<path d="M8.84574 56.903C9.81041 57.5545 10.5916 58.4607 10.8334 59.6286C10.9713 60.9501 10.7103 62.0631 9.87059 63.1101C8.98328 64.0275 7.95897 64.5559 6.67381 64.5883C5.53721 64.5745 4.60613 64.2015 3.73371 63.4778C2.92779 62.652 2.48144 61.6442 2.48414 60.499C2.48434 60.4138 2.48453 60.3285 2.48473 60.2407C2.50122 59.535 2.64071 59.0227 3.01067 58.4281C3.08017 58.3043 3.14968 58.1805 3.22128 58.0529C4.61687 56.2741 6.85861 55.7817 8.84574 56.903Z" fill="transparent"/>
<path d="M45.5132 54.9351C45.7457 54.9371 45.7457 54.9371 45.9828 54.9393C46.1381 54.9404 46.2934 54.9414 46.4534 54.9426C46.5736 54.9439 46.6939 54.9453 46.8178 54.9468C47.3691 56.1087 47.8435 57.2996 48.3207 58.493C48.4062 58.7062 48.4917 58.9193 48.5772 59.1325C48.7551 59.5762 48.9328 60.0199 49.1103 60.4638C49.3383 61.0338 49.5668 61.6036 49.7955 62.1734C49.9714 62.6121 50.1472 63.0508 50.3229 63.4896C50.4072 63.7 50.4915 63.9103 50.5759 64.1206C50.693 64.4127 50.8099 64.705 50.9267 64.9973C50.9618 65.0846 50.9968 65.1719 51.033 65.2618C51.2707 65.8578 51.2707 65.8578 51.2707 65.9916C50.675 65.9916 50.0792 65.9916 49.4654 65.9916C49.3243 65.6593 49.184 65.3266 49.0442 64.9937C49.004 64.8994 48.9639 64.805 48.9225 64.7079C48.8845 64.6169 48.8464 64.526 48.8073 64.4324C48.772 64.3487 48.7367 64.2651 48.7003 64.179C48.623 63.9507 48.623 63.9507 48.623 63.5906C46.8755 63.5906 45.128 63.5906 43.3276 63.5906C43.2085 63.9868 43.0893 64.3829 42.9666 64.7911C42.8165 65.1966 42.6511 65.5922 42.4852 65.9916C41.8894 65.9916 41.2937 65.9916 40.6799 65.9916C40.9123 65.2792 41.1632 64.5812 41.4446 63.8867C41.4832 63.7907 41.5218 63.6948 41.5616 63.5959C41.6877 63.2826 41.8142 62.9695 41.9408 62.6564C42.029 62.4375 42.1173 62.2187 42.2055 61.9998C42.3896 61.5432 42.5739 61.0867 42.7584 60.6303C42.9953 60.0441 43.2317 59.4578 43.4679 58.8713C43.6496 58.4204 43.8315 57.9695 44.0136 57.5187C44.1009 57.3024 44.1882 57.086 44.2753 56.8696C44.3966 56.5686 44.5182 56.2678 44.64 55.967C44.6761 55.8771 44.7123 55.7871 44.7495 55.6945C45.0521 54.9493 45.0521 54.9493 45.5132 54.9351Z" fill="white"/>
<path d="M54.2793 54.9468C54.9147 54.9468 55.5502 54.9468 56.2049 54.9468C56.682 55.4465 56.958 55.8056 57.288 56.3875C57.4319 56.6036 57.5773 56.8187 57.7243 57.0327C57.8418 57.211 57.8418 57.211 57.9617 57.3929C58.3349 57.9575 58.7184 58.5152 59.1008 59.0736C59.2016 59.2209 59.2016 59.2209 59.3044 59.3711C59.3751 59.4745 59.4459 59.5778 59.5187 59.6842C60.3002 60.8259 61.0806 61.9682 61.8613 63.1104C61.901 60.4164 61.9407 57.7224 61.9817 54.9468C62.498 54.9468 63.0143 54.9468 63.5462 54.9468C63.5462 58.5916 63.5462 62.2364 63.5462 65.9917C62.9902 65.9917 62.4342 65.9917 61.8613 65.9917C61.4417 65.536 61.1944 65.1956 60.8985 64.6711C60.7384 64.4346 60.5761 64.1995 60.4119 63.9658C60.2455 63.7208 60.0792 63.4757 59.9132 63.2305C59.7784 63.0321 59.6437 62.8338 59.509 62.6355C59.3748 62.4381 59.2408 62.2406 59.1067 62.0432C58.6888 61.4291 58.268 60.8171 57.8462 60.2057C57.2499 59.3389 56.6694 58.463 56.0845 57.588C56.0448 60.3612 56.0051 63.1344 55.9642 65.9917C55.4082 65.9917 54.8522 65.9917 54.2793 65.9917C54.2793 62.3469 54.2793 58.7021 54.2793 54.9468Z" fill="white"/>
<path d="M6.71163 54.7893C6.79549 54.7887 6.87935 54.788 6.96575 54.7873C8.54065 54.8092 9.92154 55.4989 11.0513 56.577C12.0951 57.7278 12.563 59.1703 12.5443 60.7057C12.4435 62.1248 11.894 63.5719 10.8336 64.5511C9.2791 65.8001 7.65217 66.2829 5.65857 66.1118C3.99556 65.7934 2.69342 64.942 1.68704 63.5907C0.826154 62.2028 0.662782 60.7296 0.900533 59.1333C1.27339 57.5861 2.26521 56.3634 3.59006 55.5021C4.58816 54.9524 5.58632 54.7979 6.71163 54.7893ZM3.25158 57.9482C2.5614 59.0409 2.35733 60.1562 2.52948 61.4297C2.70529 61.9588 2.94591 62.4053 3.25158 62.8704C3.29765 62.944 3.34373 63.0177 3.3912 63.0936C3.94397 63.8604 4.98506 64.3939 5.89927 64.5511C7.23955 64.6744 8.37365 64.3953 9.42419 63.5377C10.1783 62.8525 10.7623 61.8955 10.8665 60.8637C10.9041 59.6731 10.6454 58.6782 9.90841 57.7231C9.23043 57.0065 8.22515 56.4328 7.24051 56.3472C5.54872 56.3113 4.41047 56.6282 3.25158 57.9482Z" fill="white"/>
<path d="M30.2097 54.9468C32.6721 54.9468 35.1344 54.9468 37.6714 54.9468C37.6714 55.4618 37.6714 55.9769 37.6714 56.5075C35.765 56.5075 33.8587 56.5075 31.8946 56.5075C31.8946 57.5376 31.8946 58.5676 31.8946 59.6289C33.8009 59.6289 35.7073 59.6289 37.6714 59.6289C37.6714 60.1439 37.6714 60.6589 37.6714 61.1896C35.765 61.1896 33.8587 61.1896 31.8946 61.1896C31.8946 62.2592 31.8946 63.3289 31.8946 64.431C33.8009 64.431 35.7073 64.431 37.6714 64.431C37.6714 64.946 37.6714 65.461 37.6714 65.9917C35.209 65.9917 32.7467 65.9917 30.2097 65.9917C30.2097 62.3469 30.2097 58.7021 30.2097 54.9468Z" fill="white"/>
<path d="M29.6079 27.8148C30.1639 27.8148 30.7199 27.8148 31.2928 27.8148C31.301 28.7782 31.3076 29.7415 31.3115 30.7048C31.3134 31.1523 31.3159 31.5997 31.32 32.0472C31.324 32.48 31.3261 32.9127 31.327 33.3455C31.3277 33.5097 31.329 33.6738 31.3309 33.8379C31.3518 35.6543 30.9828 37.2171 29.7282 38.5896C28.4529 39.7886 26.871 40.2136 25.1644 40.2173C24.9119 40.2204 24.6594 40.2234 24.407 40.2265C24.0122 40.2299 23.6173 40.2328 23.2225 40.2351C22.8392 40.2377 22.4561 40.2424 22.0729 40.2473C21.8955 40.2474 21.8955 40.2474 21.7146 40.2474C21.6045 40.249 21.4944 40.2506 21.381 40.2522C21.2845 40.2529 21.188 40.2535 21.0885 40.2541C20.7496 40.313 20.5851 40.4204 20.341 40.6605C20.2898 41.0272 20.2682 41.3525 20.2676 41.7199C20.2656 41.8233 20.2637 41.9267 20.2616 42.0332C20.2558 42.3635 20.2532 42.6937 20.2507 43.024C20.2473 43.248 20.2437 43.4719 20.2399 43.6958C20.231 44.2447 20.225 44.7936 20.2206 45.3426C19.6249 45.3426 19.0292 45.3426 18.4154 45.3426C18.4034 44.6763 18.3947 44.01 18.3889 43.3436C18.3865 43.1173 18.3832 42.8909 18.3791 42.6646C18.3732 42.3379 18.3705 42.0114 18.3684 41.6847C18.3659 41.5846 18.3634 41.4845 18.3608 41.3814C18.3605 40.5567 18.5898 39.9425 19.1248 39.3108C19.201 39.2462 19.2771 39.1815 19.3556 39.1148C19.4309 39.0483 19.5061 38.9817 19.5836 38.9132C20.3367 38.4396 21.1444 38.4658 22.0056 38.4667C22.2607 38.4643 22.5157 38.4618 22.7708 38.4592C23.1692 38.4565 23.5677 38.4545 23.9662 38.4538C24.3532 38.4527 24.7402 38.4486 25.1272 38.4442C25.3035 38.4451 25.3035 38.4451 25.4833 38.446C26.6643 38.4294 27.654 38.0711 28.5007 37.2356C29.4458 36.1762 29.5943 35.0463 29.5844 33.6768C29.5857 33.5066 29.5874 33.3364 29.5894 33.1662C29.5937 32.7233 29.5938 32.2805 29.5929 31.8376C29.5928 31.3836 29.5968 30.9297 29.6004 30.4757C29.6068 29.5887 29.6084 28.7019 29.6079 27.8148Z" fill="white"/>
<path d="M33.0982 27.8148C33.6542 27.8148 34.2102 27.8148 34.783 27.8148C34.7835 28.0146 34.784 28.2144 34.7845 28.4202C34.7869 29.0858 34.792 29.7513 34.7989 30.4169C34.803 30.8198 34.8058 31.2226 34.8066 31.6255C34.8077 32.0905 34.8127 32.5553 34.8183 33.0203C34.8178 33.1625 34.8174 33.3048 34.8169 33.4513C34.8427 34.9469 35.374 36.1957 36.4266 37.2606C37.1442 37.9146 37.9949 38.3941 38.9808 38.3946C39.1001 38.3951 39.2195 38.3955 39.3425 38.396C39.4715 38.3961 39.6005 38.3963 39.7334 38.3964C40.007 38.3986 40.2806 38.4009 40.5542 38.4034C40.9852 38.4069 41.4161 38.4095 41.8471 38.4096C42.2633 38.41 42.6794 38.4141 43.0956 38.4189C43.2232 38.418 43.3507 38.4172 43.4821 38.4163C44.4097 38.4313 45.1094 38.6415 45.8054 39.273C46.4561 39.9911 46.4917 40.7455 46.4804 41.6613C46.4801 41.7668 46.4798 41.8724 46.4794 41.9812C46.4781 42.3163 46.4751 42.6514 46.472 42.9865C46.4708 43.2146 46.4697 43.4427 46.4687 43.6707C46.466 44.228 46.4619 44.7853 46.4569 45.3426C45.9009 45.3426 45.3449 45.3426 44.772 45.3426C44.7709 45.2026 44.7698 45.0627 44.7686 44.9185C44.7638 44.3996 44.7559 43.8808 44.7471 43.3619C44.7437 43.1373 44.7411 42.9127 44.7394 42.6881C44.7369 42.3653 44.7312 42.0426 44.725 41.7199C44.7249 41.6193 44.7247 41.5188 44.7246 41.4152C44.7251 40.8809 44.7251 40.8809 44.4429 40.4539C44.1307 40.2781 43.9498 40.255 43.5934 40.2541C43.4793 40.2529 43.3651 40.2517 43.2475 40.2505C43.1248 40.2508 43.0021 40.2512 42.8756 40.2516C42.7482 40.2503 42.6209 40.249 42.4897 40.2476C42.0821 40.2435 41.6745 40.2416 41.2669 40.2403C40.7325 40.2386 40.1982 40.2345 39.6638 40.2291C39.4819 40.2296 39.4819 40.2296 39.2963 40.2302C37.6969 40.2135 36.2713 39.6323 35.1065 38.5221C33.9065 37.2232 33.0804 35.6535 33.0845 33.8525C33.0845 33.718 33.0845 33.5834 33.0845 33.4448C33.0851 33.3008 33.0858 33.1569 33.0864 33.0085C33.0866 32.8602 33.0867 32.7118 33.0869 32.5589C33.0875 32.166 33.0886 31.773 33.0899 31.3801C33.0911 30.9785 33.0917 30.5769 33.0923 30.1753C33.0936 29.3885 33.0957 28.6017 33.0982 27.8148Z" fill="white"/>
<path d="M25.2401 55.8222C25.9032 56.3146 26.4449 56.7973 26.7196 57.5878C26.5469 57.7059 26.3738 57.8233 26.2006 57.9405C26.0561 58.0387 26.0561 58.0387 25.9086 58.1389C25.6364 58.3082 25.6364 58.3082 25.2754 58.4282C25.2372 58.3672 25.1991 58.3063 25.1597 58.2434C24.5708 57.3768 23.7492 56.8249 22.7481 56.5074C21.2803 56.3798 20.0995 56.471 18.9194 57.4228C18.2477 58.0549 17.7396 58.9342 17.6647 59.8651C17.637 61.1804 17.8146 62.1299 18.6712 63.1553C19.5079 64.0216 20.4672 64.4285 21.6649 64.4759C22.8263 64.4618 23.8897 64.0054 24.723 63.2041C24.9868 62.9092 25.1957 62.6109 25.3957 62.2699C25.912 62.5076 26.4283 62.7453 26.9603 62.9902C26.1498 64.5425 25.1451 65.3046 23.5068 65.8696C21.9059 66.3604 20.3095 66.1927 18.8066 65.4729C17.3307 64.6515 16.4628 63.3963 15.9558 61.8047C15.6452 60.207 15.8819 58.6532 16.755 57.2821C18.7643 54.5457 22.3977 53.9952 25.2401 55.8222Z" fill="white"/>
<path d="M48.623 70.3134C52.9936 70.3134 52.9936 70.3134 54.0839 71.0788C54.6645 71.658 54.8581 72.249 54.9113 73.0446C54.8963 73.719 54.7577 74.26 54.2903 74.7624C53.631 75.3557 53.631 75.3557 53.3167 75.3557C53.4844 75.656 53.6523 75.9561 53.8206 76.2561C53.87 76.344 53.9193 76.4319 53.9701 76.5225C54.2259 76.9761 54.4861 77.4238 54.7684 77.8618C55.0016 78.2369 55.0016 78.2369 55.0016 78.477C54.525 78.477 54.0484 78.477 53.5574 78.477C53.4531 78.2864 53.3489 78.0957 53.2415 77.8993C53.1734 77.78 53.1052 77.6606 53.0351 77.5377C52.8353 77.1565 52.8353 77.1565 52.7069 76.7789C52.5512 76.3659 52.4456 76.1316 52.1132 75.8359C51.3629 75.6346 50.5977 75.7 49.8265 75.7158C49.8265 76.5874 49.8265 77.459 49.8265 78.357C49.4294 78.357 49.0322 78.357 48.623 78.357C48.623 75.7026 48.623 73.0482 48.623 70.3134Z" fill="white"/>
<path d="M25.155 70.3134C25.5919 70.3134 26.0288 70.3134 26.4789 70.3134C26.5362 70.5168 26.5362 70.5168 26.5947 70.7242C26.7379 71.2321 26.8812 71.74 27.0246 72.2479C27.0864 72.4668 27.1482 72.6857 27.2099 72.9045C27.2991 73.2211 27.3885 73.5376 27.4779 73.8541C27.5185 73.9984 27.5185 73.9984 27.56 74.1456C27.7029 74.651 27.848 75.1557 27.996 75.6596C28.0252 75.7593 28.0544 75.8591 28.0845 75.9618C28.1436 76.1937 28.1436 76.1937 28.2841 76.3161C28.4811 75.7121 28.678 75.1081 28.8747 74.504C28.9414 74.2992 29.0082 74.0944 29.075 73.8897C29.4629 72.7004 29.8465 71.5105 30.2097 70.3134C30.6069 70.3134 31.004 70.3134 31.4132 70.3134C31.791 71.1831 32.0663 72.0661 32.3319 72.9742C32.5652 73.7641 32.8284 74.5391 33.1187 75.31C33.2689 75.7167 33.3388 75.9956 33.3388 76.4361C33.4182 76.4361 33.4977 76.4361 33.5795 76.4361C33.5886 76.3126 33.5978 76.1891 33.6072 76.0619C33.7062 75.2753 33.9765 74.5319 34.2188 73.78C34.5859 72.6289 34.9383 71.4766 35.2644 70.3134C35.7013 70.3134 36.1381 70.3134 36.5882 70.3134C36.3589 71.0776 36.128 71.8414 35.8958 72.6047C35.7249 73.1664 35.5544 73.7282 35.3839 74.29C35.2938 74.5864 35.2037 74.8827 35.1135 75.179C34.9827 75.6087 34.8523 76.0386 34.7219 76.4685C34.6815 76.6008 34.6411 76.7331 34.5996 76.8694C34.5435 77.0547 34.5435 77.0547 34.4863 77.2436C34.4534 77.3517 34.4206 77.4598 34.3867 77.5711C34.3036 77.8694 34.2421 78.1734 34.1812 78.477C33.7444 78.477 33.3075 78.477 32.8574 78.477C32.7997 78.3001 32.742 78.1231 32.6825 77.9408C32.469 77.2861 32.2552 76.6315 32.0413 75.9769C31.9487 75.6933 31.8561 75.4096 31.7636 75.1259C31.6308 74.7188 31.4978 74.3117 31.3648 73.9047C31.3233 73.7773 31.2818 73.6498 31.239 73.5185C31.2005 73.4008 31.1619 73.283 31.1222 73.1617C31.0883 73.0577 31.0543 72.9538 31.0194 72.8466C30.9371 72.592 30.9371 72.592 30.8115 72.3543C30.7876 72.4278 30.7637 72.5012 30.7392 72.5769C30.4917 73.3384 30.2437 74.0998 29.9954 74.8611C29.9027 75.1455 29.8101 75.43 29.7176 75.7146C29.5851 76.1226 29.452 76.5305 29.3188 76.9384C29.2773 77.0664 29.2358 77.1945 29.1931 77.3264C29.1545 77.4442 29.116 77.562 29.0763 77.6833C29.0254 77.8397 29.0254 77.8397 28.9734 77.9992C28.8859 78.2369 28.8859 78.2369 28.7655 78.357C28.499 78.3814 28.499 78.3814 28.1713 78.387C28.0635 78.3901 27.9556 78.3932 27.8446 78.3964C27.7513 78.3834 27.6581 78.3704 27.562 78.357C27.3467 78.0348 27.2669 77.856 27.1737 77.4936C27.1468 77.3917 27.12 77.2897 27.0923 77.1847C27.0636 77.0738 27.035 76.963 27.0054 76.8488C26.7293 75.8075 26.4257 74.7778 26.1028 73.75C25.7462 72.6123 25.4225 71.4754 25.155 70.3134Z" fill="white"/>
<path d="M8.66687 25.8936C9.4548 25.8847 10.2427 25.8781 11.0307 25.8738C11.2984 25.872 11.5662 25.8695 11.834 25.8664C12.22 25.862 12.6059 25.86 12.9919 25.8584C13.1107 25.8566 13.2294 25.8547 13.3518 25.8528C14.3984 25.8525 15.3629 26.0977 16.1285 26.854C16.7577 27.7605 16.8767 28.5298 16.8918 29.6129C16.9167 30.2283 17.0473 30.5915 17.4524 31.0559C18.1219 31.5062 18.7825 31.4728 19.5613 31.4774C19.6939 31.4796 19.8264 31.4818 19.963 31.484C20.3848 31.4905 20.8065 31.4945 21.2283 31.4986C21.515 31.5025 21.8016 31.5067 22.0882 31.511C22.7894 31.5212 23.4907 31.5292 24.192 31.5361C24.192 32.0907 24.192 32.6454 24.192 33.2168C23.2885 33.2317 22.385 33.2426 21.4814 33.2498C21.1744 33.2528 20.8675 33.2569 20.5605 33.2621C20.1177 33.2694 19.6751 33.2728 19.2322 33.2754C19.0963 33.2785 18.9604 33.2816 18.8203 33.2848C17.6911 33.2852 16.8681 32.9782 16.0232 32.2264C15.2113 31.3269 15.0935 30.3982 15.0389 29.2238C15.0038 28.6988 14.9736 28.4745 14.6312 28.0527C14.2364 27.7472 14.0468 27.6793 13.5581 27.6697C13.3955 27.6661 13.3955 27.6661 13.2296 27.6625C13.1124 27.6605 12.9952 27.6585 12.8744 27.6564C12.7545 27.6539 12.6347 27.6514 12.5112 27.6488C12.1273 27.641 11.7435 27.6339 11.3597 27.6269C11.0999 27.6217 10.8401 27.6164 10.5802 27.6111C9.94246 27.5983 9.30467 27.5861 8.66687 27.5743C8.66687 27.0197 8.66687 26.465 8.66687 25.8936Z" fill="white"/>
<path d="M49.0369 20.7081C49.1751 20.7086 49.1751 20.7086 49.3161 20.7091C49.6066 20.7105 49.8972 20.7135 50.1877 20.7166C50.3863 20.7178 50.5848 20.7189 50.7834 20.7198C51.2668 20.7223 51.7502 20.727 52.2337 20.7316C52.2337 21.3258 52.2337 21.9201 52.2337 22.5324C52.0444 22.534 52.0444 22.534 51.8512 22.5358C51.3793 22.5406 50.9074 22.5485 50.4355 22.5573C50.2319 22.5606 50.0284 22.5632 49.8248 22.5649C49.5307 22.5675 49.2369 22.5731 48.9429 22.5793C48.8082 22.5795 48.8082 22.5795 48.6707 22.5797C47.9039 22.6006 47.2743 22.8376 46.6948 23.3465C46.6143 23.4486 46.6143 23.4486 46.5321 23.5528C46.4766 23.6209 46.421 23.689 46.3638 23.7591C46.0178 24.2604 45.9458 24.6138 45.9426 25.2279C45.9401 25.3791 45.9376 25.5303 45.9351 25.6861C45.9319 26.0028 45.9297 26.3195 45.9285 26.6362C45.9096 27.6631 45.8582 28.4246 45.0879 29.1728C44.4172 29.6029 43.9099 29.7886 43.1106 29.7707C43.0235 29.7702 42.9364 29.7697 42.8466 29.7692C42.5707 29.7671 42.2949 29.7626 42.019 29.758C41.831 29.7562 41.6429 29.7546 41.4549 29.7531C40.996 29.7495 40.5373 29.7424 40.0784 29.7355C40.0784 29.1413 40.0784 28.547 40.0784 27.9347C40.3463 27.9275 40.6142 27.9202 40.8903 27.9127C41.1488 27.9053 41.4072 27.8977 41.6657 27.89C41.8459 27.8848 42.026 27.8798 42.2061 27.875C42.4646 27.8681 42.7229 27.8605 42.9813 27.8527C43.2148 27.8461 43.2148 27.8461 43.4531 27.8393C43.7954 27.8547 43.7954 27.8547 43.9296 27.6946C43.9442 27.5066 43.9512 27.318 43.9549 27.1295C44.0534 23.4539 44.0534 23.4539 45.3601 22.0479C46.4171 21.0723 47.6122 20.6879 49.0369 20.7081Z" fill="white"/>
<path d="M50.8718 25.87C50.9982 25.8705 50.9982 25.8705 51.1272 25.871C51.3932 25.8724 51.6592 25.8754 51.9253 25.8785C52.107 25.8797 52.2887 25.8808 52.4704 25.8817C52.913 25.8842 53.3556 25.8889 53.7982 25.8935C53.7982 26.4481 53.7982 27.0027 53.7982 27.5742C53.4198 27.5788 53.4198 27.5788 53.0338 27.5836C52.7876 27.5882 52.5415 27.5936 52.2953 27.5991C52.1252 27.6025 51.955 27.605 51.7848 27.6067C51.5391 27.6093 51.2937 27.6149 51.048 27.6211C50.8268 27.6249 50.8268 27.6249 50.6011 27.6287C50.1144 27.7059 49.8482 27.87 49.4656 28.1745C49.3338 28.4375 49.3191 28.6074 49.2978 28.899C49.1827 30.2967 49.0776 31.4662 48.0214 32.4964C47.2661 33.0028 46.6184 33.2326 45.7048 33.2303C45.582 33.2303 45.4591 33.2303 45.3326 33.2303C45.1358 33.2294 45.1358 33.2294 44.9351 33.2284C44.7998 33.2282 44.6644 33.2281 44.5249 33.2279C44.0933 33.2272 43.6617 33.2257 43.23 33.2242C42.9371 33.2236 42.6441 33.223 42.3512 33.2225C41.6337 33.2212 40.9162 33.2192 40.1987 33.2167C40.1987 32.662 40.1987 32.1074 40.1987 31.5359C40.3772 31.5348 40.5557 31.5337 40.7397 31.5325C41.4031 31.5278 42.0666 31.5199 42.73 31.511C43.0169 31.5076 43.3039 31.5051 43.5908 31.5034C44.0037 31.5008 44.4165 31.4952 44.8294 31.489C45.0212 31.4888 45.0212 31.4888 45.2169 31.4886C45.9456 31.4743 46.3866 31.4266 46.9383 30.9357C47.2908 30.4034 47.3408 29.9751 47.352 29.345C47.4033 28.3027 47.6214 27.373 48.3825 26.6138C49.1596 26.0109 49.9002 25.8622 50.8718 25.87Z" fill="white"/>
<path d="M13.9628 20.7318C15.6213 20.6821 17.1497 20.655 18.536 21.6922C18.6602 21.7789 18.7843 21.8655 18.9121 21.9548C19.8674 22.7908 20.2769 24.036 20.3651 25.2656C20.4043 25.9936 20.4281 26.7217 20.4427 27.4506C20.4349 27.6942 20.4349 27.6942 20.582 27.8149C20.8576 27.834 21.1337 27.8451 21.4099 27.8529C21.4925 27.8554 21.5751 27.8579 21.6603 27.8604C21.9252 27.8683 22.19 27.8754 22.4549 27.8824C22.6341 27.8876 22.8133 27.8928 22.9925 27.8981C23.4326 27.9111 23.8727 27.923 24.3128 27.9349C24.3128 28.5292 24.3128 29.1235 24.3128 29.7357C23.769 29.7524 23.226 29.7667 22.6821 29.7753C22.4977 29.7789 22.3133 29.7838 22.1289 29.7901C20.2141 29.8537 20.2141 29.8537 19.373 29.2391C18.7013 28.6003 18.5089 28.0228 18.4721 27.1016C18.4705 26.7966 18.4718 26.4916 18.4759 26.1867C18.5155 24.7236 18.5155 24.7236 17.814 23.493C17.2507 22.9193 16.6841 22.6325 15.8785 22.6029C15.7664 22.5983 15.6543 22.5936 15.5388 22.5888C15.4233 22.5851 15.3078 22.5814 15.1888 22.5776C15.071 22.5729 14.9532 22.5683 14.8318 22.5635C14.5421 22.5522 14.2525 22.5423 13.9628 22.5326C13.9628 21.9383 13.9628 21.344 13.9628 20.7318Z" fill="white"/>
<path d="M44.4325 70.8286C45.3868 71.5003 46.0736 72.3645 46.4268 73.4801C46.5583 74.8583 46.3235 76.0391 45.4386 77.1342C44.7136 77.9219 43.7584 78.4368 42.6832 78.5017C41.2698 78.5189 40.2284 78.3184 39.1155 77.3968C38.3071 76.5797 37.8932 75.5295 37.8594 74.388C37.9096 73.1766 38.2539 72.2637 39.1155 71.3942C40.5887 70.166 42.7298 69.8241 44.4325 70.8286ZM39.7173 72.4747C39.1354 73.3084 38.9642 74.1115 39.1155 75.1158C39.4098 76.0174 39.9815 76.6829 40.8004 77.1567C41.5033 77.4754 42.2719 77.5267 43.0147 77.3143C43.8876 76.9576 44.6619 76.4118 45.0535 75.5323C45.2674 74.7346 45.2879 73.7886 44.9525 73.0224C44.5038 72.2881 43.8074 71.7045 42.9822 71.4467C41.722 71.1884 40.6103 71.5434 39.7173 72.4747Z" fill="white"/>
<path d="M0.84436 70.4334C2.28855 70.4334 2.28855 70.4334 2.68204 70.8133C2.78917 70.9888 2.89093 71.1677 2.98809 71.3488C3.10666 71.5468 3.22562 71.7445 3.3449 71.9421C3.40663 72.0476 3.46835 72.1532 3.53195 72.262C3.88884 72.8528 4.28698 73.4156 4.6805 73.9825C4.8283 74.1976 4.97592 74.4129 5.12335 74.6283C5.186 74.7195 5.24866 74.8107 5.31322 74.9047C5.63159 75.3733 5.94531 75.845 6.26009 76.316C6.2998 74.3748 6.33952 72.4335 6.38044 70.4334C6.73787 70.4334 7.09531 70.4334 7.46358 70.4334C7.46358 73.0482 7.46358 75.6629 7.46358 78.3569C6.13974 78.3569 6.13974 78.3569 5.80219 78.0432C5.71444 77.8979 5.63163 77.7495 5.55303 77.5991C5.4545 77.4329 5.3556 77.2669 5.25639 77.1011C5.20521 77.0124 5.15404 76.9238 5.10131 76.8325C4.81134 76.347 4.48463 75.887 4.16149 75.4231C4.0412 75.2483 3.92101 75.0734 3.80091 74.8984C3.21679 74.0502 2.63228 73.2023 2.04786 72.3543C2.00814 74.3352 1.96842 76.316 1.92751 78.3569C1.57007 78.3569 1.21263 78.3569 0.84436 78.3569C0.84436 75.7422 0.84436 73.1274 0.84436 70.4334Z" fill="white"/>
<path d="M9.99121 70.3134C11.8181 70.3134 13.645 70.3134 15.5273 70.3134C15.5273 70.7096 15.5273 71.1058 15.5273 71.514C14.0975 71.514 12.6678 71.514 11.1947 71.514C11.1947 72.2667 11.1947 73.0194 11.1947 73.795C12.6245 73.795 14.0542 73.795 15.5273 73.795C15.5273 74.1912 15.5273 74.5873 15.5273 74.9955C14.0975 74.9955 12.6678 74.9955 11.1947 74.9955C11.1947 75.7482 11.1947 76.501 11.1947 77.2765C12.6245 77.2765 14.0542 77.2765 15.5273 77.2765C15.5273 77.6727 15.5273 78.0689 15.5273 78.477C13.7004 78.477 11.8735 78.477 9.99121 78.477C9.99121 75.7831 9.99121 73.0891 9.99121 70.3134Z" fill="white"/>
<path d="M57.0476 70.3134C57.4845 70.3134 57.9213 70.3134 58.3715 70.3134C58.4112 71.6208 58.4509 72.9282 58.4918 74.2752C59.3252 73.3583 59.3252 73.3583 60.1165 72.4144C60.5691 71.8556 61.0427 71.3213 61.5306 70.7932C61.747 70.5674 61.747 70.5674 61.8616 70.3134C62.3779 70.3134 62.8942 70.3134 63.4261 70.3134C63.4261 70.5536 63.4261 70.5536 63.1671 70.8237C63.054 70.9326 62.9409 71.0416 62.8244 71.1538C62.5981 71.391 62.3765 71.6325 62.1549 71.8741C62.0985 71.9351 62.0422 71.9961 61.9841 72.0589C61.8213 72.236 61.6609 72.4152 61.5005 72.5944C61.4051 72.6935 61.3097 72.7925 61.2114 72.8946C60.9855 73.1818 60.9855 73.1818 61.0413 73.5235C61.1537 73.9718 61.3287 74.3145 61.5555 74.7174C61.597 74.7917 61.6384 74.8659 61.6811 74.9425C61.813 75.1783 61.9463 75.4133 62.0797 75.6483C62.168 75.8056 62.2561 75.9629 62.3442 76.1203C62.7665 76.8766 62.7665 76.8766 63.201 77.6259C63.5465 78.2121 63.5465 78.2121 63.5465 78.477C63.0699 78.477 62.5933 78.477 62.1023 78.477C62.0554 78.3808 62.0086 78.2845 61.9603 78.1853C61.5338 77.3207 61.0881 76.4692 60.6205 75.6258C60.5685 75.5314 60.5164 75.437 60.4628 75.3398C60.4135 75.2515 60.3643 75.1633 60.3135 75.0724C60.2697 74.9938 60.2259 74.9153 60.1808 74.8343C60.054 74.615 60.054 74.615 59.8156 74.3952C59.6172 74.61 59.4192 74.8252 59.2214 75.0405C59.165 75.1015 59.1086 75.1625 59.0505 75.2253C58.6285 75.6857 58.4798 75.9133 58.4537 76.5309C58.4487 76.6438 58.4436 76.7568 58.4384 76.8732C58.4337 76.9914 58.429 77.1097 58.4241 77.2315C58.4189 77.3507 58.4137 77.4698 58.4084 77.5926C58.3956 77.8874 58.3834 78.1822 58.3715 78.477C57.9346 78.477 57.4977 78.477 57.0476 78.477C57.0476 75.7831 57.0476 73.0891 57.0476 70.3134Z" fill="white"/>
<path d="M17.573 70.4334C19.519 70.4334 21.4651 70.4334 23.4701 70.4334C23.4701 70.7504 23.4701 71.0673 23.4701 71.3939C22.6758 71.3939 21.8815 71.3939 21.0631 71.3939C21.0631 73.6917 21.0631 75.9895 21.0631 78.3569C20.666 78.3569 20.2688 78.3569 19.8596 78.3569C19.8596 76.0591 19.8596 73.7613 19.8596 71.3939C19.105 71.3939 18.3505 71.3939 17.573 71.3939C17.573 71.0769 17.573 70.76 17.573 70.4334Z" fill="white"/>
<path d="M49.8264 71.5135C50.4892 71.4987 50.4892 71.4987 51.1653 71.4835C51.3032 71.4791 51.4412 71.4748 51.5833 71.4703C52.3223 71.4622 52.7583 71.4946 53.3166 71.9937C53.5995 72.3419 53.6723 72.5531 53.7303 72.9992C53.6625 73.5588 53.5242 73.8149 53.1962 74.2747C52.7624 74.5918 52.4646 74.679 51.9302 74.6701C51.8193 74.6692 51.7084 74.6683 51.5941 74.6673C51.4551 74.6641 51.3161 74.6608 51.1728 74.6574C50.7285 74.65 50.2842 74.6425 49.8264 74.6349C49.8264 73.6048 49.8264 72.5748 49.8264 71.5135Z" fill="black"/>
<path d="M45.855 57.1075C45.9345 57.1075 46.0139 57.1075 46.0957 57.1075C46.3534 57.7697 46.6104 58.4321 46.867 59.0947C46.9544 59.3202 47.042 59.5457 47.1297 59.7711C47.2555 60.0945 47.3809 60.4182 47.5061 60.7419C47.5456 60.8431 47.5851 60.9443 47.6258 61.0485C47.6619 61.1422 47.698 61.2359 47.7353 61.3325C47.7673 61.4151 47.7994 61.4978 47.8325 61.5829C47.901 61.7896 47.901 61.7896 47.901 62.0297C46.6301 62.0297 45.3592 62.0297 44.0498 62.0297C44.1296 61.6317 44.195 61.3295 44.3385 60.9645C44.3722 60.878 44.4059 60.7916 44.4407 60.7024C44.495 60.5653 44.495 60.5653 44.5505 60.4254C44.5877 60.3303 44.6249 60.2352 44.6633 60.1372C44.7818 59.835 44.9009 59.5329 45.0201 59.2309C45.1008 59.0255 45.1814 58.82 45.262 58.6145C45.4592 58.112 45.6569 57.6097 45.855 57.1075Z" fill="black"/>
<path d="M54.0386 43.5415C54.6343 43.5415 55.23 43.5415 55.8438 43.5415C55.8438 44.1358 55.8438 44.73 55.8438 45.3423C55.2481 45.3423 54.6524 45.3423 54.0386 45.3423C54.0386 44.748 54.0386 44.1538 54.0386 43.5415Z" fill="white"/>
<path d="M8.54688 29.3755C9.1426 29.3755 9.73833 29.3755 10.3521 29.3755C10.3521 29.9697 10.3521 30.564 10.3521 31.1763C9.75639 31.1763 9.16066 31.1763 8.54688 31.1763C8.54688 30.582 8.54688 29.9877 8.54688 29.3755Z" fill="white"/>
<path d="M54.0386 20.7318C54.6343 20.7318 55.23 20.7318 55.8438 20.7318C55.8438 21.3261 55.8438 21.9204 55.8438 22.5326C55.2481 22.5326 54.6524 22.5326 54.0386 22.5326C54.0386 21.9384 54.0386 21.3441 54.0386 20.7318Z" fill="white"/>
<path d="M31.293 20.7318C31.8887 20.7318 32.4844 20.7318 33.0982 20.7318C33.0982 21.3261 33.0982 21.9204 33.0982 22.5326C32.5025 22.5326 31.9068 22.5326 31.293 22.5326C31.293 21.9384 31.293 21.3441 31.293 20.7318Z" fill="white"/>
<path d="M11.3149 39.4597C11.871 39.4597 12.427 39.4597 12.9998 39.4597C12.9998 40.0144 12.9998 40.569 12.9998 41.1405C12.4438 41.1405 11.8878 41.1405 11.3149 41.1405C11.3149 40.5858 11.3149 40.0312 11.3149 39.4597Z" fill="white"/>
</g>
<defs>
<clipPath id="clip0_6840_78">
<rect width="65" height="80" fill="white"/>
</clipPath>
</defs>
</svg>
