<svg viewBox="0 0 85 105" fill="none" xmlns="http://www.w3.org/2000/svg">
<defs>
<mask id="letterMask">
<rect width="85" height="105" fill="white"/>
<path d="M65.1582 93.8612C66.0249 93.8417 66.0249 93.8417 66.9091 93.8218C67.0894 93.8161 67.2698 93.8104 67.4557 93.8045C68.4221 93.7939 68.9923 93.8364 69.7222 94.4915C70.0923 94.9485 70.1874 95.2257 70.2632 95.8112C70.1747 96.5456 69.9938 96.8818 69.5648 97.4853C68.9975 97.9015 68.6081 98.0159 67.9093 98.0042C67.7643 98.003 67.6192 98.0018 67.4698 98.0006C67.288 97.9963 67.1062 97.992 66.9189 97.9876C66.3379 97.9778 65.7568 97.9681 65.1582 97.958C65.1582 96.6061 65.1582 95.2542 65.1582 93.8612Z" fill="black"/>
<path d="M59.9645 74.9536C60.0683 74.9536 60.1722 74.9536 60.2792 74.9536C60.6161 75.8228 60.9523 76.6922 61.2878 77.5618C61.4021 77.8578 61.5166 78.1537 61.6313 78.4495C61.7959 78.8741 61.9598 79.2989 62.1235 79.7238C62.1752 79.8566 62.2268 79.9894 62.28 80.1262C62.3273 80.2492 62.3745 80.3722 62.4232 80.4989C62.4652 80.6074 62.5071 80.7159 62.5503 80.8276C62.6399 81.0988 62.6399 81.0988 62.6399 81.414C60.978 81.414 59.3161 81.414 57.6038 81.414C57.7081 80.8916 57.7936 80.4949 57.9813 80.0159C58.0254 79.9024 58.0695 79.7889 58.1149 79.672C58.186 79.492 58.186 79.492 58.2585 79.3083C58.3072 79.1835 58.3559 79.0587 58.406 78.9302C58.5609 78.5334 58.7168 78.137 58.8726 77.7406C58.9781 77.4709 59.0836 77.2013 59.1889 76.9315C59.4468 76.272 59.7054 75.6127 59.9645 74.9536Z" fill="black"/>
</mask>
</defs>
<g mask="url(#letterMask)">
<path d="M46.4266 2.72785C47.4222 3.51177 48.2979 4.42888 49.191 5.32571C49.4087 5.54298 49.6265 5.76019 49.8444 5.97735C50.2986 6.4307 50.7519 6.88492 51.2046 7.33976C51.782 7.91962 52.3618 8.49694 52.9423 9.07359C53.392 9.52088 53.8401 9.96964 54.2879 10.4188C54.501 10.6322 54.7146 10.8451 54.9286 11.0575C56.8406 12.9566 58.19 14.6194 58.233 17.4407C58.1174 20.1215 56.9267 22.1387 55.3336 24.2025C54.869 24.818 54.433 25.4537 53.9936 26.0873C53.8071 26.3553 53.6207 26.6233 53.4341 26.8912C53.3425 27.0228 53.2508 27.1545 53.1564 27.2902C52.889 27.6728 52.6198 28.0541 52.3497 28.4349C52.2653 28.5539 52.1809 28.673 52.0939 28.7956C51.9369 29.0167 51.7797 29.2377 51.6221 29.4584C51.4832 29.6543 51.3463 29.8517 51.2121 30.0508C50.9935 30.3614 50.9935 30.3614 50.7846 30.5944C49.9005 31.6983 50.0964 33.1605 50.1076 34.4982C50.1075 34.7799 50.1071 35.0616 50.1065 35.3433C50.106 35.9321 50.1083 36.5207 50.1127 37.1094C50.118 37.8622 50.1171 38.6147 50.1141 39.3675C50.1125 39.9486 50.1139 40.5297 50.1162 41.1109C50.1171 41.3883 50.117 41.6658 50.116 41.9433C50.1151 42.3317 50.1184 42.7199 50.1227 43.1082C50.1216 43.2216 50.1206 43.335 50.1195 43.4519C50.1357 44.3135 50.3481 44.8006 50.8361 45.488C51.2973 45.8271 51.6924 45.8426 52.2559 45.8434C52.4131 45.8445 52.5703 45.8456 52.7322 45.8467C52.9016 45.8466 53.0709 45.8464 53.2454 45.8463C53.607 45.8495 53.9686 45.8527 54.3302 45.8561C54.8978 45.8596 55.4655 45.8623 56.0332 45.8632C58.9468 45.8712 61.3482 45.8837 63.5833 47.9901C65.2433 49.7592 65.5217 51.6578 65.4725 53.9968C64.7454 53.9968 64.0183 53.9968 63.2692 53.9968C63.2556 53.8312 63.242 53.6657 63.228 53.4951C63.0723 51.8481 62.8201 50.6439 61.5872 49.4568C60.3056 48.4441 59.0285 48.2317 57.4295 48.2393C57.2527 48.2375 57.0759 48.2356 56.8937 48.2337C56.3335 48.2282 55.7735 48.2267 55.2133 48.2258C54.6514 48.2232 54.0896 48.2197 53.5278 48.2145C53.1795 48.2114 52.8313 48.2099 52.4831 48.2103C50.88 48.1992 50.0056 47.9325 48.8179 46.8083C47.8887 45.7911 47.8227 44.573 47.8181 43.2462C47.817 43.1177 47.816 42.9893 47.8149 42.8569C47.8118 42.4332 47.81 42.0095 47.8084 41.5857C47.8078 41.4405 47.8071 41.2952 47.8065 41.1455C47.8032 40.3766 47.8009 39.6077 47.7995 38.8388C47.7977 38.0471 47.7923 37.2554 47.786 36.4637C47.7819 35.8527 47.7806 35.2417 47.7801 34.6307C47.7793 34.3389 47.7775 34.0472 47.7745 33.7555C47.747 30.8322 47.747 30.8322 48.4754 29.7311C48.5451 29.622 48.6148 29.5129 48.6866 29.4005C48.8954 29.0829 49.116 28.7769 49.341 28.4705C49.5099 28.2359 49.6788 28.0011 49.8476 27.7664C49.9334 27.648 50.0192 27.5296 50.1076 27.4076C50.5128 26.8462 50.9103 26.2796 51.3083 25.7131C51.7882 25.0313 52.269 24.3502 52.7524 23.6708C55.3077 20.2858 55.3077 20.2858 55.7149 16.1801C55.2527 14.8067 54.3243 13.9091 53.2952 12.9303C53.0051 12.6496 52.7153 12.3685 52.4259 12.087C52.2344 11.904 52.2344 11.904 52.039 11.7173C51.7085 11.3822 51.3998 11.0437 51.0923 10.6881C50.5494 10.0606 49.9805 9.46549 49.3963 8.87656C49.293 8.77217 49.1896 8.66777 49.0831 8.56022C48.8662 8.34154 48.649 8.12308 48.4316 7.90483C48.1025 7.57373 47.775 7.24098 47.4475 6.90818C47.2349 6.69429 47.0222 6.4805 46.8094 6.26682C46.7135 6.16881 46.6175 6.0708 46.5187 5.96982C45.1111 4.56764 43.6779 3.70831 41.6718 3.62323C39.5817 4.00706 38.2529 5.47784 36.8244 6.92603C36.6029 7.14752 36.3813 7.36887 36.1595 7.59007C35.6977 8.05173 35.2377 8.515 34.7787 8.97954C34.1926 9.57271 33.6026 10.1619 33.0113 10.75C32.5541 11.2056 32.0987 11.6631 31.6439 12.1212C31.4271 12.3391 31.2098 12.5566 30.9919 12.7734C30.6872 13.0771 30.3852 13.3833 30.0838 13.6903C29.9948 13.778 29.9059 13.8657 29.8142 13.9561C28.921 14.8768 28.3981 15.9446 28.3996 17.2437C28.4773 19.4431 29.6219 21.0695 30.8489 22.7981C31.0008 23.015 31.1527 23.2321 31.3044 23.4493C31.6989 24.0124 32.0961 24.5735 32.4942 25.1341C33.1338 26.0352 33.7699 26.9387 34.4054 27.8428C34.6184 28.1447 34.8332 28.4453 35.0483 28.7457C35.1764 28.9264 35.3045 29.1072 35.4326 29.2879C35.5987 29.5204 35.5987 29.5204 35.7682 29.7576C36.3115 30.6419 36.4037 31.4571 36.4004 32.478C36.4012 32.608 36.402 32.738 36.4028 32.872C36.405 33.3 36.4049 33.728 36.4045 34.156C36.4051 34.455 36.4058 34.7541 36.4065 35.0532C36.4077 35.6795 36.4077 36.3059 36.4068 36.9322C36.4059 37.7323 36.4086 38.5322 36.4122 39.3322C36.4146 39.9499 36.4147 40.5675 36.4142 41.1851C36.4143 41.48 36.4151 41.7748 36.4167 42.0696C36.4187 42.4832 36.4176 42.8967 36.4158 43.3103C36.417 43.4304 36.4182 43.5505 36.4194 43.6743C36.4075 44.9148 36.0634 46.1058 35.2555 47.0637C33.9651 48.0919 32.8742 48.3686 31.2509 48.3563C30.9255 48.3579 30.6001 48.3598 30.2747 48.3618C29.766 48.3634 29.2575 48.3637 28.7488 48.3605C25.809 48.308 25.809 48.308 23.3005 49.7017C22.1392 50.8895 21.9209 52.4107 21.7208 53.9968C20.9937 53.9968 20.2666 53.9968 19.5175 53.9968C19.4046 51.651 19.9887 49.9402 21.5204 48.1673C22.8622 46.7412 24.5286 46.0308 26.4818 45.9452C26.8838 45.938 27.2857 45.9349 27.6877 45.933C27.989 45.9294 28.2902 45.9256 28.5914 45.9217C29.0625 45.9161 29.5335 45.9115 30.0046 45.9094C30.4619 45.907 30.9191 45.9006 31.3763 45.8937C31.5168 45.894 31.6573 45.8943 31.8021 45.8946C32.4413 45.882 32.8058 45.8566 33.3635 45.5218C34.002 44.8217 34.0433 44.2282 34.0422 43.3025C34.0432 43.1782 34.0443 43.0538 34.0454 42.9257C34.0484 42.5149 34.049 42.1042 34.0493 41.6934C34.0503 41.4073 34.0514 41.1212 34.0525 40.835C34.0544 40.2351 34.055 39.6352 34.0548 39.0353C34.0548 38.2681 34.059 37.501 34.0645 36.7338C34.068 36.1427 34.0686 35.5516 34.0684 34.9604C34.0688 34.6777 34.0702 34.3949 34.0726 34.1121C34.0757 33.7158 34.0748 33.3196 34.0729 32.9232C34.0747 32.8074 34.0765 32.6915 34.0783 32.5721C34.0649 31.4659 33.5737 30.7695 32.9354 29.9016C32.8564 29.7934 32.7775 29.6852 32.6962 29.5738C32.6124 29.4599 32.5286 29.3461 32.4423 29.2289C31.4025 27.8014 30.3866 26.3582 29.3795 24.9074C29.1282 24.5464 28.8751 24.1867 28.6216 23.8272C26.742 21.1498 25.7199 18.7137 26.1957 15.388C26.7073 13.374 28.4316 11.9098 29.848 10.496C30.0576 10.2854 30.2671 10.0748 30.4766 9.86415C30.9139 9.42489 31.3521 8.98653 31.7909 8.54877C32.3496 7.99123 32.9057 7.43122 33.4612 6.87048C33.8927 6.43556 34.3257 6.00212 34.7591 5.56909C34.9646 5.36335 35.1696 5.15714 35.3742 4.9504C36.5125 3.80131 37.6052 2.78892 39.0326 1.99891C39.2907 1.85267 39.2907 1.85267 39.5539 1.70347C41.8356 0.747208 44.4935 1.35851 46.4266 2.72785Z" fill="#000000"/>
<path d="M59.5177 72.1021C59.8217 72.1048 59.8217 72.1048 60.1318 72.1076C60.3349 72.109 60.538 72.1104 60.7472 72.1119C60.9044 72.1137 61.0617 72.1156 61.2237 72.1174C61.9447 73.6425 62.5651 75.2055 63.1891 76.7719C63.3008 77.0517 63.4126 77.3314 63.5244 77.6112C63.7571 78.1935 63.9894 78.7759 64.2216 79.3585C64.5198 80.1066 64.8186 80.8546 65.1176 81.6024C65.3477 82.1782 65.5776 82.754 65.8073 83.3299C65.9175 83.606 66.0278 83.882 66.1381 84.1581C66.2913 84.5415 66.4441 84.9251 66.5969 85.3087C66.6428 85.4233 66.6886 85.5379 66.7359 85.6559C67.0467 86.4382 67.0467 86.4382 67.0467 86.6138C66.2677 86.6138 65.4887 86.6138 64.686 86.6138C64.5014 86.1776 64.3179 85.741 64.1352 85.304C64.0826 85.1802 64.0301 85.0564 63.976 84.9289C63.9263 84.8095 63.8765 84.6902 63.8253 84.5673C63.7792 84.4575 63.733 84.3478 63.6855 84.2347C63.5844 83.9351 63.5844 83.9351 63.5844 83.4624C61.2992 83.4624 59.014 83.4624 56.6596 83.4624C56.5038 83.9824 56.348 84.5024 56.1875 85.0381C55.9913 85.5703 55.7749 86.0895 55.558 86.6138C54.7789 86.6138 53.9999 86.6138 53.1973 86.6138C53.5011 85.6787 53.8293 84.7626 54.1973 83.8511C54.2477 83.7251 54.2982 83.5992 54.3502 83.4694C54.5151 83.0582 54.6805 82.6473 54.8461 82.2363C54.9615 81.9491 55.0769 81.6618 55.1922 81.3745C55.433 80.7752 55.674 80.1761 55.9153 79.5771C56.2251 78.8077 56.5342 78.0381 56.843 77.2684C57.0806 76.6765 57.3186 76.0848 57.5567 75.4931C57.6709 75.2092 57.785 74.9252 57.8989 74.6412C58.0575 74.2461 58.2166 73.8513 58.3758 73.4565C58.4231 73.3384 58.4703 73.2204 58.519 73.0988C58.9147 72.1207 58.9147 72.1207 59.5177 72.1021Z" fill="#000000"/>
<path d="M70.9807 72.1177C71.8117 72.1177 72.6426 72.1177 73.4988 72.1177C74.1226 72.7735 74.4836 73.2448 74.9152 74.0085C75.1033 74.2922 75.2935 74.5745 75.4857 74.8554C75.6394 75.0894 75.6394 75.0894 75.7962 75.3282C76.2842 76.0692 76.7857 76.8011 77.2858 77.5341C77.4176 77.7274 77.4176 77.7274 77.552 77.9246C77.6445 78.0602 77.737 78.1958 77.8323 78.3355C78.8542 79.8339 79.8748 81.3333 80.8957 82.8324C80.9476 79.2965 80.9995 75.7607 81.053 72.1177C81.7282 72.1177 82.4034 72.1177 83.099 72.1177C83.099 76.9015 83.099 81.6853 83.099 86.6141C82.3719 86.6141 81.6448 86.6141 80.8957 86.6141C80.347 86.016 80.0236 85.5691 79.6366 84.8808C79.4272 84.5704 79.2151 84.2618 79.0003 83.9551C78.7826 83.6336 78.5652 83.3118 78.3481 82.99C78.1719 82.7296 77.9957 82.4693 77.8195 82.209C77.6441 81.9499 77.4688 81.6908 77.2934 81.4317C76.747 80.6257 76.1966 79.8224 75.6451 79.02C74.8654 77.8822 74.1062 76.7327 73.3414 75.5842C73.2895 79.2241 73.2375 82.8639 73.184 86.6141C72.4569 86.6141 71.7298 86.6141 70.9807 86.6141C70.9807 81.8302 70.9807 77.0464 70.9807 72.1177Z" fill="#000000"/>
<path d="M8.77744 71.9109C8.8871 71.91 8.99677 71.9091 9.10976 71.9082C11.1692 71.937 12.975 72.8422 14.4523 74.2572C15.8174 75.7676 16.4292 77.661 16.4048 79.6761C16.273 81.5388 15.5544 83.438 14.1677 84.7232C12.1349 86.3626 10.0074 86.9963 7.40036 86.7716C5.22566 86.3537 3.52286 85.2363 2.20682 83.4627C1.08105 81.6411 0.86741 79.7076 1.17831 77.6123C1.6659 75.5817 2.96289 73.9769 4.69539 72.8465C6.0006 72.1249 7.30588 71.9221 8.77744 71.9109ZM4.25276 76.0569C3.35022 77.4911 3.08335 78.955 3.30848 80.6264C3.53838 81.3208 3.85304 81.9069 4.25276 82.5173C4.31301 82.614 4.37327 82.7106 4.43534 82.8103C5.15819 83.8167 6.51961 84.5169 7.71512 84.7232C9.4678 84.8851 10.9509 84.5187 12.3246 83.3931C13.3107 82.4938 14.0745 81.2377 14.2107 79.8835C14.2599 78.3209 13.9215 77.015 12.9578 75.7615C12.0713 74.8209 10.7567 74.0679 9.46905 73.9556C7.25671 73.9084 5.76823 74.3244 4.25276 76.0569Z" fill="#000000"/>
<path d="M39.5039 72.1177C42.7239 72.1177 45.9439 72.1177 49.2615 72.1177C49.2615 72.7936 49.2615 73.4696 49.2615 74.1661C46.7686 74.1661 44.2757 74.1661 41.7072 74.1661C41.7072 75.518 41.7072 76.87 41.7072 78.2629C44.2001 78.2629 46.693 78.2629 49.2615 78.2629C49.2615 78.9389 49.2615 79.6148 49.2615 80.3113C46.7686 80.3113 44.2757 80.3113 41.7072 80.3113C41.7072 81.7152 41.7072 83.1192 41.7072 84.5657C44.2001 84.5657 46.693 84.5657 49.2615 84.5657C49.2615 85.2416 49.2615 85.9176 49.2615 86.6141C46.0415 86.6141 42.8215 86.6141 39.5039 86.6141C39.5039 81.8302 39.5039 77.0464 39.5039 72.1177Z" fill="#000000"/>
<path d="M38.7174 36.5073C39.4445 36.5073 40.1716 36.5073 40.9208 36.5073C40.9315 37.7717 40.9401 39.036 40.9452 40.3004C40.9477 40.8877 40.951 41.475 40.9564 42.0622C40.9616 42.6303 40.9643 43.1983 40.9656 43.7664C40.9664 43.9818 40.9681 44.1971 40.9707 44.4125C40.998 46.7966 40.5154 48.8478 38.8748 50.6492C37.207 52.2229 35.1384 52.7807 32.9067 52.7856C32.5765 52.7895 32.2464 52.7936 31.9163 52.7976C31.4 52.8021 30.8836 52.8059 30.3673 52.8089C29.8661 52.8123 29.3651 52.8185 28.864 52.825C28.6321 52.825 28.6321 52.825 28.3955 52.825C28.2515 52.8271 28.1075 52.8292 27.9592 52.8314C27.833 52.8322 27.7068 52.833 27.5767 52.8338C27.1335 52.9111 26.9184 53.052 26.5992 53.3672C26.5322 53.8486 26.504 54.2755 26.5033 54.7577C26.5007 54.8934 26.4981 55.0291 26.4954 55.169C26.4877 55.6025 26.4844 56.0358 26.4811 56.4694C26.4767 56.7633 26.472 57.0572 26.467 57.3511C26.4554 58.0715 26.4476 58.7919 26.4418 59.5124C25.6628 59.5124 24.8837 59.5124 24.0811 59.5124C24.0654 58.6379 24.0541 57.7635 24.0465 56.8889C24.0434 56.5918 24.0391 56.2947 24.0336 55.9976C24.0259 55.5689 24.0224 55.1403 24.0196 54.7115C24.0164 54.5801 24.0131 54.4488 24.0098 54.3134C24.0094 53.231 24.3091 52.4248 25.0088 51.5958C25.1084 51.5109 25.208 51.426 25.3106 51.3385C25.409 51.2512 25.5074 51.1639 25.6088 51.0739C26.5936 50.4524 27.6498 50.4868 28.7761 50.4879C29.1096 50.4847 29.4431 50.4814 29.7766 50.4781C30.2977 50.4745 30.8187 50.4719 31.3398 50.471C31.846 50.4695 32.352 50.4641 32.8581 50.4584C33.0886 50.4596 33.0886 50.4596 33.3237 50.4608C34.8681 50.4389 36.1624 49.9687 37.2695 48.8721C38.5055 47.4816 38.6997 45.9986 38.6867 44.2011C38.6885 43.9777 38.6907 43.7543 38.6932 43.531C38.6989 42.9497 38.699 42.3685 38.6978 41.7872C38.6977 41.1913 38.7029 40.5955 38.7076 39.9997C38.716 38.8355 38.7181 37.6715 38.7174 36.5073Z" fill="#000000"/>
<path d="M43.2835 36.5073C44.0106 36.5073 44.7377 36.5073 45.4868 36.5073C45.4875 36.7695 45.4881 37.0317 45.4888 37.3018C45.4919 38.1754 45.4986 39.0489 45.5076 39.9225C45.513 40.4513 45.5165 40.98 45.5176 41.5088C45.5191 42.1191 45.5256 42.7292 45.5329 43.3394C45.5323 43.5261 45.5317 43.7128 45.5311 43.9052C45.5648 45.8681 46.2596 47.5072 47.6361 48.9048C48.5745 49.7632 49.6869 50.3926 50.9762 50.3933C51.1322 50.3939 51.2883 50.3945 51.4491 50.3951C51.6178 50.3953 51.7865 50.3954 51.9603 50.3956C52.3181 50.3985 52.6759 50.4016 53.0337 50.4048C53.5973 50.4094 54.1608 50.4128 54.7245 50.4129C55.2688 50.4134 55.8129 50.4189 56.3571 50.4251C56.5239 50.424 56.6907 50.4229 56.8625 50.4217C58.0755 50.4415 58.9905 50.7174 59.9006 51.5461C60.7516 52.4886 60.7981 53.4789 60.7834 54.6807C60.783 54.8193 60.7825 54.9578 60.7821 55.1006C60.7803 55.5405 60.7764 55.9803 60.7724 56.4201C60.7708 56.7195 60.7694 57.0188 60.7681 57.3182C60.7646 58.0496 60.7592 58.781 60.7527 59.5124C60.0256 59.5124 59.2985 59.5124 58.5494 59.5124C58.5479 59.3288 58.5464 59.1451 58.5449 58.9558C58.5386 58.2748 58.5283 57.5939 58.5167 56.9129C58.5123 56.6181 58.5089 56.3233 58.5067 56.0284C58.5034 55.6047 58.496 55.1813 58.4879 54.7577C58.4877 54.6257 58.4875 54.4937 58.4873 54.3577C58.488 53.6566 58.488 53.6566 58.119 53.0961C57.7108 52.8653 57.4741 52.8351 57.0081 52.8339C56.8588 52.8323 56.7096 52.8307 56.5558 52.8291C56.3953 52.8296 56.2348 52.83 56.0694 52.8305C55.9029 52.8288 55.7363 52.8271 55.5647 52.8253C55.0317 52.8199 54.4987 52.8175 53.9657 52.8157C53.2668 52.8134 52.5681 52.8081 51.8693 52.801C51.6315 52.8017 51.6315 52.8017 51.3888 52.8024C49.2973 52.7805 47.433 52.0178 45.9098 50.5605C44.3405 48.8557 43.2603 46.7956 43.2656 44.4318C43.2657 44.2552 43.2657 44.0786 43.2657 43.8966C43.2665 43.7077 43.2673 43.5187 43.2681 43.324C43.2684 43.1293 43.2686 42.9346 43.2688 42.7339C43.2695 42.2182 43.271 41.7024 43.2727 41.1867C43.2743 40.6596 43.275 40.1325 43.2758 39.6055C43.2776 38.5728 43.2803 37.54 43.2835 36.5073Z" fill="#000000"/>
<path d="M33.0067 73.2668C33.8738 73.9131 34.5821 74.5466 34.9413 75.5842C34.7156 75.7391 34.4892 75.8933 34.2626 76.047C34.0737 76.1759 34.0737 76.1759 33.8809 76.3074C33.5249 76.5296 33.5249 76.5296 33.0528 76.6871C33.0029 76.6071 32.953 76.5271 32.9015 76.4446C32.1314 75.3072 31.057 74.5828 29.7478 74.166C27.8284 73.9986 26.2843 74.1183 24.7411 75.3675C23.8627 76.1972 23.1983 77.3512 23.1003 78.5731C23.0641 80.2994 23.2964 81.5456 24.4166 82.8914C25.5106 84.0284 26.7651 84.5626 28.3314 84.6247C29.8501 84.6062 31.2408 84.0072 32.3304 82.9555C32.6754 82.5685 32.9485 82.1769 33.2102 81.7294C33.8853 82.0414 34.5605 82.3533 35.2561 82.6748C34.1962 84.7122 32.8824 85.7124 30.74 86.454C28.6465 87.0982 26.5589 86.878 24.5936 85.9333C22.6636 84.8551 21.5287 83.2077 20.8657 81.1188C20.4594 79.0218 20.769 76.9825 21.9108 75.1829C24.5383 71.5914 29.2897 70.8688 33.0067 73.2668Z" fill="#000000"/>
<path d="M63.584 92.2866C69.2994 92.2866 69.2994 92.2866 70.7251 93.2911C71.4844 94.0513 71.7376 94.827 71.8071 95.8713C71.7874 96.7565 71.6062 97.4664 70.995 98.1259C70.1328 98.9045 70.1328 98.9045 69.7218 98.9045C69.9411 99.2987 70.1607 99.6926 70.3808 100.086C70.4453 100.202 70.5098 100.317 70.5763 100.436C70.9108 101.031 71.251 101.619 71.6202 102.194C71.9251 102.686 71.9251 102.686 71.9251 103.001C71.3019 103.001 70.6787 103.001 70.0366 103.001C69.9002 102.751 69.7639 102.501 69.6234 102.243C69.5344 102.086 69.4453 101.93 69.3536 101.768C69.0923 101.268 69.0923 101.268 68.9245 100.773C68.7208 100.23 68.5827 99.923 68.148 99.5348C67.1668 99.2706 66.1662 99.3565 65.1578 99.3772C65.1578 100.521 65.1578 101.665 65.1578 102.844C64.6384 102.844 64.1191 102.844 63.584 102.844C63.584 99.3599 63.584 95.876 63.584 92.2866Z" fill="#000000"/>
<path d="M32.8945 92.2866C33.4658 92.2866 34.0371 92.2866 34.6257 92.2866C34.7007 92.5535 34.7007 92.5535 34.7771 92.8257C34.9644 93.4924 35.1519 94.159 35.3394 94.8256C35.4202 95.1129 35.5009 95.4001 35.5816 95.6874C35.6983 96.1029 35.8152 96.5183 35.9321 96.9337C35.9852 97.1231 35.9852 97.1231 36.0395 97.3164C36.2263 97.9797 36.4161 98.6421 36.6097 99.3035C36.6478 99.4344 36.686 99.5653 36.7253 99.7001C36.8027 100.004 36.8027 100.004 36.9864 100.165C37.2441 99.3724 37.5015 98.5796 37.7587 97.7867C37.846 97.5179 37.9332 97.2492 38.0206 96.9804C38.5279 95.4195 39.0295 93.8577 39.5045 92.2866C40.0238 92.2866 40.5432 92.2866 41.0783 92.2866C41.5723 93.428 41.9324 94.5869 42.2797 95.7788C42.5848 96.8156 42.9289 97.8328 43.3086 98.8446C43.5049 99.3784 43.5964 99.7444 43.5964 100.323C43.7002 100.323 43.8041 100.323 43.9111 100.323C43.9231 100.161 43.9351 99.9985 43.9474 99.8315C44.0768 98.7991 44.4303 97.8233 44.7472 96.8364C45.2273 95.3257 45.688 93.8133 46.1145 92.2866C46.6857 92.2866 47.257 92.2866 47.8456 92.2866C47.5457 93.2896 47.2438 94.292 46.9401 95.2939C46.7167 96.0311 46.4937 96.7685 46.2707 97.5059C46.153 97.8948 46.0352 98.2837 45.9172 98.6726C45.7461 99.2367 45.5755 99.8009 45.405 100.365C45.3522 100.539 45.2994 100.712 45.2451 100.891C45.1717 101.134 45.1717 101.134 45.0969 101.382C45.054 101.524 45.011 101.666 44.9668 101.812C44.8581 102.204 44.7776 102.603 44.698 103.001C44.1267 103.001 43.5555 103.001 42.9669 103.001C42.8914 102.769 42.8159 102.537 42.7382 102.298C42.4589 101.438 42.1793 100.579 41.8997 99.7199C41.7785 99.3476 41.6575 98.9753 41.5365 98.6029C41.3629 98.0686 41.189 97.5344 41.015 97.0002C40.9607 96.8329 40.9064 96.6656 40.8505 96.4933C40.8001 96.3388 40.7497 96.1842 40.6978 96.025C40.6534 95.8885 40.609 95.752 40.5633 95.6114C40.4557 95.2772 40.4557 95.2772 40.2914 94.9653C40.2602 95.0617 40.229 95.1581 40.1969 95.2574C39.8732 96.2569 39.5489 97.2562 39.2242 98.2554C39.103 98.6287 38.9819 99.0021 38.861 99.3756C38.6876 99.9112 38.5136 100.447 38.3395 100.982C38.2852 101.15 38.231 101.318 38.1751 101.491C38.1247 101.646 38.0743 101.8 38.0223 101.96C37.9558 102.165 37.9558 102.165 37.8878 102.374C37.7733 102.686 37.7733 102.686 37.6159 102.844C37.2674 102.876 37.2674 102.876 36.8389 102.883C36.6979 102.887 36.5569 102.891 36.4116 102.895C36.2897 102.878 36.1678 102.861 36.0421 102.844C35.7606 102.421 35.6562 102.186 35.5343 101.711C35.4992 101.577 35.4641 101.443 35.4279 101.305C35.3904 101.16 35.3529 101.014 35.3143 100.864C34.9532 99.4975 34.5562 98.146 34.1339 96.797C33.6676 95.3038 33.2443 93.8117 32.8945 92.2866Z" fill="#000000"/>
<path d="M11.334 33.9852C12.3644 33.9735 13.3947 33.9649 14.4251 33.9592C14.7753 33.9569 15.1254 33.9536 15.4756 33.9495C15.9803 33.9438 16.485 33.9411 16.9898 33.939C17.1451 33.9366 17.3004 33.9342 17.4604 33.9316C18.829 33.9313 20.0903 34.2531 21.0915 35.2458C21.9143 36.4356 22.0699 37.4453 22.0896 38.8668C22.1223 39.6745 22.293 40.1512 22.8227 40.7607C23.6983 41.3517 24.5622 41.3079 25.5806 41.314C25.7539 41.3168 25.9272 41.3197 26.1058 41.3226C26.6574 41.3311 27.2089 41.3364 27.7605 41.3417C28.1353 41.3469 28.5101 41.3524 28.8849 41.358C29.8019 41.3714 30.719 41.3819 31.636 41.391C31.636 42.1189 31.636 42.8469 31.636 43.5969C30.4545 43.6165 29.2731 43.6307 28.0915 43.6402C27.69 43.6441 27.2886 43.6495 26.8872 43.6564C26.3082 43.666 25.7293 43.6704 25.1502 43.6739C24.9725 43.6779 24.7947 43.682 24.6115 43.6862C23.1349 43.6867 22.0587 43.2837 20.9538 42.297C19.8921 41.1164 19.738 39.8975 19.6666 38.3561C19.6207 37.6671 19.5813 37.3727 19.1335 36.819C18.6172 36.418 18.3693 36.3289 17.7302 36.3164C17.5176 36.3117 17.5176 36.3117 17.3006 36.3069C17.1474 36.3042 16.9941 36.3016 16.8361 36.2989C16.6794 36.2956 16.5226 36.2923 16.3611 36.289C15.8592 36.2786 15.3573 36.2694 14.8554 36.2601C14.5156 36.2533 14.1758 36.2464 13.8361 36.2395C13.0021 36.2226 12.168 36.2066 11.334 36.1912C11.334 35.4632 11.334 34.7352 11.334 33.9852Z" fill="#000000"/>
<path d="M64.1251 27.1792C64.3059 27.1799 64.3059 27.1799 64.4902 27.1806C64.8702 27.1823 65.2501 27.1863 65.6301 27.1903C65.8897 27.1919 66.1494 27.1933 66.409 27.1946C67.0412 27.1978 67.6733 27.204 68.3055 27.21C68.3055 27.99 68.3055 28.7699 68.3055 29.5735C68.058 29.5757 68.058 29.5757 67.8054 29.578C67.1882 29.5843 66.5712 29.5947 65.9541 29.6062C65.6879 29.6107 65.4217 29.614 65.1555 29.6162C64.7709 29.6196 64.3866 29.627 64.0022 29.6351C63.826 29.6354 63.826 29.6354 63.6463 29.6357C62.6435 29.6632 61.8202 29.9741 61.0624 30.642C60.9571 30.7761 60.9571 30.7761 60.8497 30.9129C60.777 31.0022 60.7044 31.0916 60.6296 31.1837C60.1771 31.8416 60.0829 32.3055 60.0787 33.1115C60.0755 33.3099 60.0723 33.5083 60.0689 33.7128C60.0648 34.1285 60.062 34.5441 60.0603 34.9598C60.0356 36.3076 59.9684 37.3071 58.9611 38.2891C58.084 38.8536 57.4206 39.0973 56.3754 39.0739C56.2615 39.0732 56.1475 39.0725 56.0301 39.0718C55.6693 39.0692 55.3087 39.0633 54.9479 39.0572C54.702 39.0549 54.4561 39.0527 54.2102 39.0508C53.6101 39.046 53.0103 39.0367 52.4102 39.0277C52.4102 38.2477 52.4102 37.4678 52.4102 36.6641C52.7605 36.6546 53.1109 36.6451 53.4719 36.6352C53.8099 36.6255 54.1479 36.6155 54.486 36.6055C54.7215 36.5986 54.9571 36.5921 55.1926 36.5858C55.5306 36.5767 55.8684 36.5667 56.2063 36.5564C56.5117 36.5478 56.5117 36.5478 56.8232 36.5389C57.2709 36.5591 57.2709 36.5591 57.4463 36.349C57.4654 36.1023 57.4746 35.8548 57.4795 35.6073C57.6083 30.7831 57.6083 30.7831 59.3171 28.9377C60.6992 27.6572 62.2621 27.1526 64.1251 27.1792Z" fill="#000000"/>
<path d="M66.5234 33.9545C66.6888 33.9551 66.6888 33.9551 66.8574 33.9558C67.2054 33.9576 67.5532 33.9615 67.9011 33.9656C68.1387 33.9671 68.3763 33.9686 68.6139 33.9699C69.1928 33.973 69.7715 33.9792 70.3504 33.9853C70.3504 34.7132 70.3504 35.4412 70.3504 36.1912C69.8555 36.1973 69.8555 36.1973 69.3507 36.2035C69.0288 36.2096 68.7069 36.2167 68.385 36.2239C68.1625 36.2283 67.9399 36.2317 67.7174 36.2339C67.3961 36.2373 67.0752 36.2447 66.754 36.2528C66.4647 36.2577 66.4647 36.2577 66.1696 36.2628C65.5331 36.364 65.185 36.5794 64.6847 36.9791C64.5123 37.3242 64.4931 37.5473 64.4652 37.93C64.3147 39.7646 64.1772 41.2995 62.7961 42.6516C61.8084 43.3163 60.9614 43.6178 59.7667 43.6149C59.606 43.6149 59.4454 43.6148 59.2799 43.6148C59.0226 43.6136 59.0226 43.6136 58.7602 43.6124C58.5831 43.6121 58.4061 43.6119 58.2237 43.6117C57.6593 43.6108 57.0948 43.6088 56.5304 43.6068C56.1473 43.606 55.7642 43.6053 55.3811 43.6047C54.4429 43.6029 53.5046 43.6002 52.5664 43.597C52.5664 42.869 52.5664 42.141 52.5664 41.391C52.7998 41.3895 53.0333 41.3881 53.2738 41.3865C54.1414 41.3803 55.009 41.3699 55.8765 41.3583C56.2517 41.3539 56.627 41.3505 57.0022 41.3483C57.5421 41.3449 58.0819 41.3376 58.6219 41.3295C58.8727 41.3292 58.8727 41.3292 59.1287 41.3289C60.0815 41.3101 60.6583 41.2475 61.3797 40.6032C61.8407 39.9045 61.906 39.3424 61.9207 38.5154C61.9878 37.1473 62.2729 35.9272 63.2683 34.9307C64.2844 34.1393 65.253 33.9443 66.5234 33.9545Z" fill="#000000"/>
<path d="M18.2598 27.2106C20.4286 27.1455 22.4272 27.1098 24.2402 28.4712C24.4025 28.5849 24.5648 28.6987 24.732 28.8159C25.9812 29.9132 26.5168 31.5474 26.632 33.1614C26.6834 34.1169 26.7144 35.0724 26.7335 36.0291C26.7233 36.3488 26.7233 36.3488 26.9157 36.5072C27.2761 36.5323 27.6372 36.5468 27.9983 36.5571C28.1063 36.5604 28.2144 36.5636 28.3257 36.567C28.6721 36.5773 29.0185 36.5866 29.3649 36.5959C29.5992 36.6027 29.8336 36.6095 30.0679 36.6165C30.6434 36.6335 31.2189 36.6491 31.7945 36.6648C31.7945 37.4448 31.7945 38.2247 31.7945 39.0283C31.0833 39.0502 30.3733 39.069 29.662 39.0803C29.4208 39.085 29.1796 39.0914 28.9386 39.0997C26.4346 39.1831 26.4346 39.1831 25.3347 38.3766C24.4563 37.5381 24.2047 36.7802 24.1566 35.5711C24.1545 35.1708 24.1563 34.7705 24.1615 34.3702C24.2133 32.4499 24.2133 32.4499 23.2959 30.8347C22.5593 30.0818 21.8184 29.7053 20.7649 29.6665C20.6184 29.6604 20.4718 29.6543 20.3208 29.648C20.1697 29.6432 20.0187 29.6383 19.8631 29.6333C19.709 29.6272 19.5549 29.6211 19.3962 29.6148C19.0174 29.6 18.6386 29.5869 18.2598 29.5742C18.2598 28.7942 18.2598 28.0143 18.2598 27.2106Z" fill="#000000"/>
<path d="M58.1035 92.9625C59.3513 93.8441 60.2495 94.9784 60.7113 96.4425C60.8834 98.2515 60.5763 99.8012 59.4191 101.239C58.4711 102.272 57.2219 102.948 55.8159 103.033C53.9677 103.056 52.6058 102.793 51.1505 101.583C50.0933 100.511 49.552 99.1324 49.5078 97.6342C49.5735 96.0442 50.0237 94.846 51.1505 93.7048C53.077 92.0927 55.8768 91.6441 58.1035 92.9625ZM51.9374 95.1229C51.1765 96.2172 50.9525 97.2713 51.1505 98.5894C51.5353 99.7727 52.2829 100.646 53.3538 101.268C54.2729 101.686 55.2781 101.754 56.2493 101.475C57.3909 101.007 58.4034 100.29 58.9156 99.136C59.1952 98.0891 59.222 96.8474 58.7834 95.8418C58.1967 94.878 57.286 94.112 56.2069 93.7737C54.5589 93.4346 53.1051 93.9006 51.9374 95.1229Z" fill="#000000"/>
<path d="M1.10547 92.4443C2.99403 92.4443 2.99403 92.4443 3.50859 92.9429C3.64869 93.1732 3.78175 93.408 3.9088 93.6458C4.06386 93.9056 4.21942 94.1651 4.37541 94.4244C4.45613 94.563 4.53684 94.7015 4.62001 94.8443C5.08671 95.6198 5.60736 96.3584 6.12196 97.1025C6.31523 97.3848 6.50828 97.6673 6.70107 97.95C6.783 98.0698 6.86494 98.1895 6.94936 98.3129C7.3657 98.9279 7.77594 99.547 8.18757 100.165C8.23951 97.6173 8.29144 95.0694 8.34495 92.4443C8.81237 92.4443 9.27979 92.4443 9.76137 92.4443C9.76137 95.8762 9.76137 99.3081 9.76137 102.844C8.03019 102.844 8.03019 102.844 7.58879 102.432C7.47404 102.241 7.36574 102.047 7.26296 101.849C7.13411 101.631 7.00478 101.413 6.87505 101.196C6.80812 101.079 6.7412 100.963 6.67225 100.843C6.29306 100.206 5.86582 99.6021 5.44326 98.9933C5.28595 98.7638 5.12878 98.5342 4.97173 98.3046C4.20787 97.1913 3.44352 96.0784 2.67927 94.9654C2.62733 97.5653 2.5754 100.165 2.52189 102.844C2.05447 102.844 1.58705 102.844 1.10547 102.844C1.10547 99.4121 1.10547 95.9802 1.10547 92.4443Z" fill="#000000"/>
<path d="M13.0645 92.2866C15.4535 92.2866 17.8425 92.2866 20.3039 92.2866C20.3039 92.8066 20.3039 93.3266 20.3039 93.8623C18.4343 93.8623 16.5646 93.8623 14.6383 93.8623C14.6383 94.8503 14.6383 95.8382 14.6383 96.8561C16.5079 96.8561 18.3776 96.8561 20.3039 96.8561C20.3039 97.3761 20.3039 97.8961 20.3039 98.4318C18.4343 98.4318 16.5646 98.4318 14.6383 98.4318C14.6383 99.4198 14.6383 100.408 14.6383 101.426C16.5079 101.426 18.3776 101.426 20.3039 101.426C20.3039 101.946 20.3039 102.466 20.3039 103.001C17.9149 103.001 15.5259 103.001 13.0645 103.001C13.0645 99.4655 13.0645 95.9296 13.0645 92.2866Z" fill="#000000"/>
<path d="M74.6016 92.2866C75.1729 92.2866 75.7441 92.2866 76.3327 92.2866C76.3847 94.0026 76.4366 95.7185 76.4901 97.4864C77.58 96.283 77.58 96.283 78.6148 95.0441C79.2066 94.3107 79.8259 93.6095 80.464 92.9163C80.7469 92.62 80.7469 92.62 80.8968 92.2866C81.5719 92.2866 82.2471 92.2866 82.9427 92.2866C82.9427 92.6018 82.9427 92.6018 82.604 92.9563C82.4561 93.0993 82.3082 93.2423 82.1558 93.3896C81.8598 93.7009 81.5702 94.0179 81.2804 94.335C81.2066 94.415 81.1329 94.4951 81.0569 94.5775C80.8441 94.81 80.6343 95.0452 80.4246 95.2804C80.2999 95.4104 80.1751 95.5404 80.0465 95.6744C79.7511 96.0513 79.7511 96.0513 79.8241 96.4998C79.9711 97.0882 80.1999 97.538 80.4966 98.0668C80.5507 98.1643 80.6049 98.2618 80.6607 98.3622C80.8332 98.6718 81.0076 98.9802 81.182 99.2886C81.2974 99.495 81.4127 99.7015 81.5278 99.9081C82.0802 100.901 82.0802 100.901 82.6484 101.884C83.1001 102.654 83.1001 102.654 83.1001 103.001C82.4769 103.001 81.8536 103.001 81.2115 103.001C81.1503 102.875 81.089 102.749 81.0259 102.618C80.4681 101.484 79.8852 100.366 79.2738 99.2591C79.2057 99.1352 79.1377 99.0113 79.0676 98.8837C79.0032 98.7679 78.9387 98.6521 78.8723 98.5328C78.8151 98.4296 78.7578 98.3265 78.6988 98.2202C78.533 97.9324 78.533 97.9324 78.2213 97.644C77.9619 97.9259 77.7029 98.2083 77.4442 98.4909C77.3705 98.5709 77.2968 98.651 77.2208 98.7334C76.6688 99.3377 76.4745 99.6364 76.4403 100.447C76.4337 100.595 76.4271 100.744 76.4203 100.896C76.4142 101.051 76.408 101.207 76.4016 101.367C76.3948 101.523 76.388 101.679 76.381 101.84C76.3643 102.227 76.3484 102.614 76.3327 103.001C75.7615 103.001 75.1902 103.001 74.6016 103.001C74.6016 99.4655 74.6016 95.9296 74.6016 92.2866Z" fill="#000000"/>
<path d="M22.9805 92.4438C25.5253 92.4438 28.0701 92.4438 30.6921 92.4438C30.6921 92.8598 30.6921 93.2758 30.6921 93.7044C29.6534 93.7044 28.6147 93.7044 27.5445 93.7044C27.5445 96.7203 27.5445 99.7362 27.5445 102.843C27.0251 102.843 26.5058 102.843 25.9707 102.843C25.9707 99.8275 25.9707 96.8117 25.9707 93.7044C24.9839 93.7044 23.9971 93.7044 22.9805 93.7044C22.9805 93.2884 22.9805 92.8724 22.9805 92.4438Z" fill="#000000"/>
<path d="M70.666 57.1484C71.445 57.1484 72.2241 57.1484 73.0267 57.1484C73.0267 57.9284 73.0267 58.7084 73.0267 59.512C72.2477 59.512 71.4687 59.512 70.666 59.512C70.666 58.732 70.666 57.952 70.666 57.1484Z" fill="#000000"/>
<path d="M11.1758 38.5552C11.9548 38.5552 12.7338 38.5552 13.5365 38.5552C13.5365 39.3351 13.5365 40.1151 13.5365 40.9187C12.7575 40.9187 11.9784 40.9187 11.1758 40.9187C11.1758 40.1387 11.1758 39.3588 11.1758 38.5552Z" fill="#000000"/>
<path d="M70.666 27.2104C71.445 27.2104 72.2241 27.2104 73.0267 27.2104C73.0267 27.9904 73.0267 28.7704 73.0267 29.574C72.2477 29.574 71.4687 29.574 70.666 29.574C70.666 28.794 70.666 28.0141 70.666 27.2104Z" fill="#000000"/>
<path d="M40.9219 27.2104C41.7009 27.2104 42.4799 27.2104 43.2826 27.2104C43.2826 27.9904 43.2826 28.7704 43.2826 29.574C42.5035 29.574 41.7245 29.574 40.9219 29.574C40.9219 28.794 40.9219 28.0141 40.9219 27.2104Z" fill="#000000"/>
<path d="M14.7949 51.7905C15.522 51.7905 16.2491 51.7905 16.9982 51.7905C16.9982 52.5185 16.9982 53.2465 16.9982 53.9965C16.2711 53.9965 15.5441 53.9965 14.7949 53.9965C14.7949 53.2685 14.7949 52.5406 14.7949 51.7905Z" fill="#000000"/>
</g>
</svg>
