<svg width="100%" height="100%" viewBox="0 0 60 61" fill="none" xmlns="http://www.w3.org/2000/svg">
<path d="M32.7025 27.28L20.7375 10.505C20.5987 10.3101 20.4154 10.1512 20.2027 10.0416C19.99 9.93204 19.7542 9.87491 19.515 9.875H13.2C12.9247 9.87535 12.6549 9.95143 12.42 10.0949C12.1851 10.2384 11.9942 10.4437 11.8682 10.6885C11.7423 10.9332 11.686 11.2079 11.7058 11.4824C11.7255 11.757 11.8203 12.0208 11.98 12.245L27.2975 33.72M32.7025 27.28L48.02 48.755C48.1796 48.9792 48.2745 49.243 48.2942 49.5176C48.3139 49.7921 48.2577 50.0668 48.1317 50.3115C48.0058 50.5563 47.8149 50.7616 47.58 50.9051C47.3451 51.0486 47.0752 51.1246 46.8 51.125H40.485C40.2457 51.1251 40.0099 51.068 39.7973 50.9584C39.5846 50.8488 39.4012 50.6899 39.2625 50.495L27.2975 33.72M32.7025 27.28L47.3075 9.875M27.2975 33.72L12.6925 51.125" stroke="black" stroke-width="3.75" stroke-linecap="round" stroke-linejoin="round"/>
</svg>
